<?xml version="1.0" encoding="us-ascii" standalone="no"?><svg xmlns="http://www.w3.org/2000/svg" xmlns:xlink="http://www.w3.org/1999/xlink" contentStyleType="text/css" height="588px" preserveAspectRatio="none" style="width:559px;height:588px;background:#FFFFFF;" version="1.1" viewBox="0 0 559 588" width="559px" zoomAndPan="magnify"><defs/><g><!--cluster Order management system--><g id="cluster_Order management system"><path d="M8.5,6.602 L203.6875,6.602 A3.75,3.75 0 0 1 206.1875,9.102 L213.1875,31.6699 L544.5,31.6699 A2.5,2.5 0 0 1 547,34.1699 L547,579.102 A2.5,2.5 0 0 1 544.5,581.602 L8.5,581.602 A2.5,2.5 0 0 1 6,579.102 L6,9.102 A2.5,2.5 0 0 1 8.5,6.602 " fill="none" style="stroke:#000000;stroke-width:1.5;"/><line style="stroke:#000000;stroke-width:1.5;" x1="6" x2="213.1875" y1="31.6699" y2="31.6699"/><text fill="#000000" font-family="sans-serif" font-size="14" font-weight="bold" lengthAdjust="spacing" textLength="194.1875" x="10" y="23.5679">Order management system</text></g><!--class ILog--><g id="elem_ILog"><rect codeLine="6" fill="#CCCCCC" height="42" id="ILog" rx="2.5" ry="2.5" style="stroke:#AAAAAA;stroke-width:0.5;" width="47" x="36.5" y="66.602"/><ellipse cx="48.5" cy="79.602" fill="#B4A7E5" rx="8" ry="8" style="stroke:#181818;stroke-width:1.0;"/><path d="M50.125,83.602 L46.9375,83.602 L46.9375,82.7114 L47.8594,82.5082 L47.8594,76.5082 L46.9375,76.2895 L46.9375,75.3989 L50.125,75.3989 L50.125,76.2895 L49.2031,76.5082 L49.2031,82.5082 L50.125,82.7114 L50.125,83.602 Z " fill="#000000"/><text fill="#333333" font-family="Verdana" font-size="11" font-style="italic" lengthAdjust="spacing" textLength="21" x="59.5" y="83.87">ILog</text><line style="stroke:#AAAAAA;stroke-width:0.5;" x1="37.5" x2="82.5" y1="92.602" y2="92.602"/><line style="stroke:#AAAAAA;stroke-width:0.5;" x1="37.5" x2="82.5" y1="100.602" y2="100.602"/></g><!--class IDisplay--><g id="elem_IDisplay"><rect codeLine="7" fill="#CCCCCC" height="42" id="IDisplay" rx="2.5" ry="2.5" style="stroke:#AAAAAA;stroke-width:0.5;" width="65" x="118.5" y="66.602"/><ellipse cx="130.5" cy="79.602" fill="#B4A7E5" rx="8" ry="8" style="stroke:#181818;stroke-width:1.0;"/><path d="M132.125,83.602 L128.9375,83.602 L128.9375,82.7114 L129.8594,82.5082 L129.8594,76.5082 L128.9375,76.2895 L128.9375,75.3989 L132.125,75.3989 L132.125,76.2895 L131.2031,76.5082 L131.2031,82.5082 L132.125,82.7114 L132.125,83.602 Z " fill="#000000"/><text fill="#333333" font-family="Verdana" font-size="11" font-style="italic" lengthAdjust="spacing" textLength="39" x="141.5" y="83.87">IDisplay</text><line style="stroke:#AAAAAA;stroke-width:0.5;" x1="119.5" x2="182.5" y1="92.602" y2="92.602"/><line style="stroke:#AAAAAA;stroke-width:0.5;" x1="119.5" x2="182.5" y1="100.602" y2="100.602"/></g><!--class ICalendarObserver--><g id="elem_ICalendarObserver"><rect codeLine="8" fill="#CCCCCC" height="42" id="ICalendarObserver" rx="2.5" ry="2.5" style="stroke:#AAAAAA;stroke-width:0.5;" width="114" x="314" y="66.602"/><ellipse cx="326" cy="79.602" fill="#B4A7E5" rx="8" ry="8" style="stroke:#181818;stroke-width:1.0;"/><path d="M327.625,83.602 L324.4375,83.602 L324.4375,82.7114 L325.3594,82.5082 L325.3594,76.5082 L324.4375,76.2895 L324.4375,75.3989 L327.625,75.3989 L327.625,76.2895 L326.7031,76.5082 L326.7031,82.5082 L327.625,82.7114 L327.625,83.602 Z " fill="#000000"/><text fill="#333333" font-family="Verdana" font-size="11" font-style="italic" lengthAdjust="spacing" textLength="88" x="337" y="83.87">ICalendarObserver</text><line style="stroke:#AAAAAA;stroke-width:0.5;" x1="315" x2="427" y1="92.602" y2="92.602"/><line style="stroke:#AAAAAA;stroke-width:0.5;" x1="315" x2="427" y1="100.602" y2="100.602"/></g><!--class OrderManager--><g id="elem_OrderManager"><rect fill="#CCCCCC" height="42" id="OrderManager" rx="2.5" ry="2.5" style="stroke:#AAAAAA;stroke-width:0.5;" width="105" x="21.5" y="169.602"/><ellipse cx="33.5" cy="182.602" fill="#ADD1B2" rx="8" ry="8" style="stroke:#181818;stroke-width:1.0;"/><path d="M33.6094,179.5082 Q33.0156,179.5082 32.5469,179.7114 Q32.0781,179.8989 31.75,180.2895 Q31.4219,180.6645 31.2344,181.2426 Q31.0625,181.8051 31.0625,182.5082 Q31.0625,183.4457 31.3438,184.1176 Q31.6406,184.7895 32.1875,185.1489 Q32.7344,185.4926 33.5938,185.4926 Q34.0938,185.4926 34.5313,185.4145 Q34.9844,185.3207 35.6406,185.1332 L35.6406,186.352 Q35.0781,186.5551 34.5938,186.6332 Q34.1094,186.7114 33.4531,186.7114 Q32.2031,186.7114 31.3438,186.1957 Q30.5,185.6801 30.0781,184.727 Q29.6719,183.7582 29.6719,182.4926 Q29.6719,181.5707 29.9219,180.8051 Q30.1875,180.0395 30.6875,179.477 Q31.1875,178.9145 31.9219,178.602 Q32.6719,178.2895 33.6094,178.2895 Q34.2344,178.2895 34.8125,178.4301 Q35.4063,178.5551 36.0156,178.852 L35.4688,179.977 Q34.9688,179.7582 34.5313,179.6332 Q34.1094,179.5082 33.6094,179.5082 Z " fill="#000000"/><text fill="#333333" font-family="Verdana" font-size="11" lengthAdjust="spacing" textLength="79" x="44.5" y="186.87">OrderManager</text><line style="stroke:#AAAAAA;stroke-width:0.5;" x1="22.5" x2="125.5" y1="195.602" y2="195.602"/><line style="stroke:#AAAAAA;stroke-width:0.5;" x1="22.5" x2="125.5" y1="203.602" y2="203.602"/></g><!--class Orders--><g id="elem_Orders"><rect fill="#CCCCCC" height="42" id="Orders" rx="2.5" ry="2.5" style="stroke:#AAAAAA;stroke-width:0.5;" width="63" x="102.5" y="287.602"/><ellipse cx="114.5" cy="300.602" fill="#ADD1B2" rx="8" ry="8" style="stroke:#181818;stroke-width:1.0;"/><path d="M114.6094,297.5082 Q114.0156,297.5082 113.5469,297.7114 Q113.0781,297.8989 112.75,298.2895 Q112.4219,298.6645 112.2344,299.2426 Q112.0625,299.8051 112.0625,300.5082 Q112.0625,301.4457 112.3438,302.1176 Q112.6406,302.7895 113.1875,303.1489 Q113.7344,303.4926 114.5938,303.4926 Q115.0938,303.4926 115.5313,303.4145 Q115.9844,303.3207 116.6406,303.1332 L116.6406,304.352 Q116.0781,304.5551 115.5938,304.6332 Q115.1094,304.7114 114.4531,304.7114 Q113.2031,304.7114 112.3438,304.1957 Q111.5,303.6801 111.0781,302.727 Q110.6719,301.7582 110.6719,300.4926 Q110.6719,299.5707 110.9219,298.8051 Q111.1875,298.0395 111.6875,297.477 Q112.1875,296.9145 112.9219,296.602 Q113.6719,296.2895 114.6094,296.2895 Q115.2344,296.2895 115.8125,296.4301 Q116.4063,296.5551 117.0156,296.852 L116.4688,297.977 Q115.9688,297.7582 115.5313,297.6332 Q115.1094,297.5082 114.6094,297.5082 Z " fill="#000000"/><text fill="#333333" font-family="Verdana" font-size="11" lengthAdjust="spacing" textLength="37" x="125.5" y="304.87">Orders</text><line style="stroke:#AAAAAA;stroke-width:0.5;" x1="103.5" x2="164.5" y1="313.602" y2="313.602"/><line style="stroke:#AAAAAA;stroke-width:0.5;" x1="103.5" x2="164.5" y1="321.602" y2="321.602"/></g><!--class Customer--><g id="elem_Customer"><rect fill="#CCCCCC" height="42" id="Customer" rx="2.5" ry="2.5" style="stroke:#AAAAAA;stroke-width:0.5;" width="77" x="200.5" y="287.602"/><ellipse cx="212.5" cy="300.602" fill="#ADD1B2" rx="8" ry="8" style="stroke:#181818;stroke-width:1.0;"/><path d="M212.6094,297.5082 Q212.0156,297.5082 211.5469,297.7114 Q211.0781,297.8989 210.75,298.2895 Q210.4219,298.6645 210.2344,299.2426 Q210.0625,299.8051 210.0625,300.5082 Q210.0625,301.4457 210.3438,302.1176 Q210.6406,302.7895 211.1875,303.1489 Q211.7344,303.4926 212.5938,303.4926 Q213.0938,303.4926 213.5313,303.4145 Q213.9844,303.3207 214.6406,303.1332 L214.6406,304.352 Q214.0781,304.5551 213.5938,304.6332 Q213.1094,304.7114 212.4531,304.7114 Q211.2031,304.7114 210.3438,304.1957 Q209.5,303.6801 209.0781,302.727 Q208.6719,301.7582 208.6719,300.4926 Q208.6719,299.5707 208.9219,298.8051 Q209.1875,298.0395 209.6875,297.477 Q210.1875,296.9145 210.9219,296.602 Q211.6719,296.2895 212.6094,296.2895 Q213.2344,296.2895 213.8125,296.4301 Q214.4063,296.5551 215.0156,296.852 L214.4688,297.977 Q213.9688,297.7582 213.5313,297.6332 Q213.1094,297.5082 212.6094,297.5082 Z " fill="#000000"/><text fill="#333333" font-family="Verdana" font-size="11" lengthAdjust="spacing" textLength="51" x="223.5" y="304.87">Customer</text><line style="stroke:#AAAAAA;stroke-width:0.5;" x1="201.5" x2="276.5" y1="313.602" y2="313.602"/><line style="stroke:#AAAAAA;stroke-width:0.5;" x1="201.5" x2="276.5" y1="321.602" y2="321.602"/></g><!--class Address--><g id="elem_Address"><rect fill="#CCCCCC" height="42" id="Address" rx="2.5" ry="2.5" style="stroke:#AAAAAA;stroke-width:0.5;" width="68" x="373" y="523.602"/><ellipse cx="385" cy="536.602" fill="#ADD1B2" rx="8" ry="8" style="stroke:#181818;stroke-width:1.0;"/><path d="M385.1094,533.5082 Q384.5156,533.5082 384.0469,533.7114 Q383.5781,533.8989 383.25,534.2895 Q382.9219,534.6645 382.7344,535.2426 Q382.5625,535.8051 382.5625,536.5082 Q382.5625,537.4457 382.8438,538.1176 Q383.1406,538.7895 383.6875,539.1489 Q384.2344,539.4926 385.0938,539.4926 Q385.5938,539.4926 386.0313,539.4145 Q386.4844,539.3207 387.1406,539.1332 L387.1406,540.352 Q386.5781,540.5551 386.0938,540.6332 Q385.6094,540.7114 384.9531,540.7114 Q383.7031,540.7114 382.8438,540.1957 Q382,539.6801 381.5781,538.727 Q381.1719,537.7582 381.1719,536.4926 Q381.1719,535.5707 381.4219,534.8051 Q381.6875,534.0395 382.1875,533.477 Q382.6875,532.9145 383.4219,532.602 Q384.1719,532.2895 385.1094,532.2895 Q385.7344,532.2895 386.3125,532.4301 Q386.9063,532.5551 387.5156,532.852 L386.9688,533.977 Q386.4688,533.7582 386.0313,533.6332 Q385.6094,533.5082 385.1094,533.5082 Z " fill="#000000"/><text fill="#333333" font-family="Verdana" font-size="11" lengthAdjust="spacing" textLength="42" x="396" y="540.87">Address</text><line style="stroke:#AAAAAA;stroke-width:0.5;" x1="374" x2="440" y1="549.602" y2="549.602"/><line style="stroke:#AAAAAA;stroke-width:0.5;" x1="374" x2="440" y1="557.602" y2="557.602"/></g><!--class CustomerBuilder--><g id="elem_CustomerBuilder"><rect fill="#CCCCCC" height="42" id="CustomerBuilder" rx="2.5" ry="2.5" style="stroke:#AAAAAA;stroke-width:0.5;" width="115" x="270.5" y="405.602"/><ellipse cx="282.5" cy="418.602" fill="#ADD1B2" rx="8" ry="8" style="stroke:#181818;stroke-width:1.0;"/><path d="M282.6094,415.5082 Q282.0156,415.5082 281.5469,415.7114 Q281.0781,415.8989 280.75,416.2895 Q280.4219,416.6645 280.2344,417.2426 Q280.0625,417.8051 280.0625,418.5082 Q280.0625,419.4457 280.3438,420.1176 Q280.6406,420.7895 281.1875,421.1489 Q281.7344,421.4926 282.5938,421.4926 Q283.0938,421.4926 283.5313,421.4145 Q283.9844,421.3207 284.6406,421.1332 L284.6406,422.352 Q284.0781,422.5551 283.5938,422.6332 Q283.1094,422.7114 282.4531,422.7114 Q281.2031,422.7114 280.3438,422.1957 Q279.5,421.6801 279.0781,420.727 Q278.6719,419.7582 278.6719,418.4926 Q278.6719,417.5707 278.9219,416.8051 Q279.1875,416.0395 279.6875,415.477 Q280.1875,414.9145 280.9219,414.602 Q281.6719,414.2895 282.6094,414.2895 Q283.2344,414.2895 283.8125,414.4301 Q284.4063,414.5551 285.0156,414.852 L284.4688,415.977 Q283.9688,415.7582 283.5313,415.6332 Q283.1094,415.5082 282.6094,415.5082 Z " fill="#000000"/><text fill="#333333" font-family="Verdana" font-size="11" lengthAdjust="spacing" textLength="89" x="293.5" y="422.87">CustomerBuilder</text><line style="stroke:#AAAAAA;stroke-width:0.5;" x1="271.5" x2="384.5" y1="431.602" y2="431.602"/><line style="stroke:#AAAAAA;stroke-width:0.5;" x1="271.5" x2="384.5" y1="439.602" y2="439.602"/></g><!--class Customers--><g id="elem_Customers"><rect fill="#CCCCCC" height="42" id="Customers" rx="2.5" ry="2.5" style="stroke:#AAAAAA;stroke-width:0.5;" width="82" x="170" y="169.602"/><ellipse cx="182" cy="182.602" fill="#ADD1B2" rx="8" ry="8" style="stroke:#181818;stroke-width:1.0;"/><path d="M182.1094,179.5082 Q181.5156,179.5082 181.0469,179.7114 Q180.5781,179.8989 180.25,180.2895 Q179.9219,180.6645 179.7344,181.2426 Q179.5625,181.8051 179.5625,182.5082 Q179.5625,183.4457 179.8438,184.1176 Q180.1406,184.7895 180.6875,185.1489 Q181.2344,185.4926 182.0938,185.4926 Q182.5938,185.4926 183.0313,185.4145 Q183.4844,185.3207 184.1406,185.1332 L184.1406,186.352 Q183.5781,186.5551 183.0938,186.6332 Q182.6094,186.7114 181.9531,186.7114 Q180.7031,186.7114 179.8438,186.1957 Q179,185.6801 178.5781,184.727 Q178.1719,183.7582 178.1719,182.4926 Q178.1719,181.5707 178.4219,180.8051 Q178.6875,180.0395 179.1875,179.477 Q179.6875,178.9145 180.4219,178.602 Q181.1719,178.2895 182.1094,178.2895 Q182.7344,178.2895 183.3125,178.4301 Q183.9063,178.5551 184.5156,178.852 L183.9688,179.977 Q183.4688,179.7582 183.0313,179.6332 Q182.6094,179.5082 182.1094,179.5082 Z " fill="#000000"/><text fill="#333333" font-family="Verdana" font-size="11" lengthAdjust="spacing" textLength="56" x="193" y="186.87">Customers</text><line style="stroke:#AAAAAA;stroke-width:0.5;" x1="171" x2="251" y1="195.602" y2="195.602"/><line style="stroke:#AAAAAA;stroke-width:0.5;" x1="171" x2="251" y1="203.602" y2="203.602"/></g><!--class Menus--><g id="elem_Menus"><rect fill="#CCCCCC" height="42" id="Menus" rx="2.5" ry="2.5" style="stroke:#AAAAAA;stroke-width:0.5;" width="61" x="174.5" y="405.602"/><ellipse cx="186.5" cy="418.602" fill="#ADD1B2" rx="8" ry="8" style="stroke:#181818;stroke-width:1.0;"/><path d="M186.6094,415.5082 Q186.0156,415.5082 185.5469,415.7114 Q185.0781,415.8989 184.75,416.2895 Q184.4219,416.6645 184.2344,417.2426 Q184.0625,417.8051 184.0625,418.5082 Q184.0625,419.4457 184.3438,420.1176 Q184.6406,420.7895 185.1875,421.1489 Q185.7344,421.4926 186.5938,421.4926 Q187.0938,421.4926 187.5313,421.4145 Q187.9844,421.3207 188.6406,421.1332 L188.6406,422.352 Q188.0781,422.5551 187.5938,422.6332 Q187.1094,422.7114 186.4531,422.7114 Q185.2031,422.7114 184.3438,422.1957 Q183.5,421.6801 183.0781,420.727 Q182.6719,419.7582 182.6719,418.4926 Q182.6719,417.5707 182.9219,416.8051 Q183.1875,416.0395 183.6875,415.477 Q184.1875,414.9145 184.9219,414.602 Q185.6719,414.2895 186.6094,414.2895 Q187.2344,414.2895 187.8125,414.4301 Q188.4063,414.5551 189.0156,414.852 L188.4688,415.977 Q187.9688,415.7582 187.5313,415.6332 Q187.1094,415.5082 186.6094,415.5082 Z " fill="#000000"/><text fill="#333333" font-family="Verdana" font-size="11" lengthAdjust="spacing" textLength="35" x="197.5" y="422.87">Menus</text><line style="stroke:#AAAAAA;stroke-width:0.5;" x1="175.5" x2="234.5" y1="431.602" y2="431.602"/><line style="stroke:#AAAAAA;stroke-width:0.5;" x1="175.5" x2="234.5" y1="439.602" y2="439.602"/></g><!--class PaymentGateway--><g id="elem_PaymentGateway"><rect fill="#CCCCCC" height="42" id="PaymentGateway" rx="2.5" ry="2.5" style="stroke:#AAAAAA;stroke-width:0.5;" width="117" x="22.5" y="405.602"/><ellipse cx="34.5" cy="418.602" fill="#ADD1B2" rx="8" ry="8" style="stroke:#181818;stroke-width:1.0;"/><path d="M34.6094,415.5082 Q34.0156,415.5082 33.5469,415.7114 Q33.0781,415.8989 32.75,416.2895 Q32.4219,416.6645 32.2344,417.2426 Q32.0625,417.8051 32.0625,418.5082 Q32.0625,419.4457 32.3438,420.1176 Q32.6406,420.7895 33.1875,421.1489 Q33.7344,421.4926 34.5938,421.4926 Q35.0938,421.4926 35.5313,421.4145 Q35.9844,421.3207 36.6406,421.1332 L36.6406,422.352 Q36.0781,422.5551 35.5938,422.6332 Q35.1094,422.7114 34.4531,422.7114 Q33.2031,422.7114 32.3438,422.1957 Q31.5,421.6801 31.0781,420.727 Q30.6719,419.7582 30.6719,418.4926 Q30.6719,417.5707 30.9219,416.8051 Q31.1875,416.0395 31.6875,415.477 Q32.1875,414.9145 32.9219,414.602 Q33.6719,414.2895 34.6094,414.2895 Q35.2344,414.2895 35.8125,414.4301 Q36.4063,414.5551 37.0156,414.852 L36.4688,415.977 Q35.9688,415.7582 35.5313,415.6332 Q35.1094,415.5082 34.6094,415.5082 Z " fill="#000000"/><text fill="#333333" font-family="Verdana" font-size="11" lengthAdjust="spacing" textLength="91" x="45.5" y="422.87">PaymentGateway</text><line style="stroke:#AAAAAA;stroke-width:0.5;" x1="23.5" x2="138.5" y1="431.602" y2="431.602"/><line style="stroke:#AAAAAA;stroke-width:0.5;" x1="23.5" x2="138.5" y1="439.602" y2="439.602"/></g><!--class Order--><g id="elem_Order"><rect fill="#CCCCCC" height="42" id="Order" rx="2.5" ry="2.5" style="stroke:#AAAAAA;stroke-width:0.5;" width="58" x="313" y="287.602"/><ellipse cx="325" cy="300.602" fill="#ADD1B2" rx="8" ry="8" style="stroke:#181818;stroke-width:1.0;"/><path d="M325.1094,297.5082 Q324.5156,297.5082 324.0469,297.7114 Q323.5781,297.8989 323.25,298.2895 Q322.9219,298.6645 322.7344,299.2426 Q322.5625,299.8051 322.5625,300.5082 Q322.5625,301.4457 322.8438,302.1176 Q323.1406,302.7895 323.6875,303.1489 Q324.2344,303.4926 325.0938,303.4926 Q325.5938,303.4926 326.0313,303.4145 Q326.4844,303.3207 327.1406,303.1332 L327.1406,304.352 Q326.5781,304.5551 326.0938,304.6332 Q325.6094,304.7114 324.9531,304.7114 Q323.7031,304.7114 322.8438,304.1957 Q322,303.6801 321.5781,302.727 Q321.1719,301.7582 321.1719,300.4926 Q321.1719,299.5707 321.4219,298.8051 Q321.6875,298.0395 322.1875,297.477 Q322.6875,296.9145 323.4219,296.602 Q324.1719,296.2895 325.1094,296.2895 Q325.7344,296.2895 326.3125,296.4301 Q326.9063,296.5551 327.5156,296.852 L326.9688,297.977 Q326.4688,297.7582 326.0313,297.6332 Q325.6094,297.5082 325.1094,297.5082 Z " fill="#000000"/><text fill="#333333" font-family="Verdana" font-size="11" lengthAdjust="spacing" textLength="32" x="336" y="304.87">Order</text><line style="stroke:#AAAAAA;stroke-width:0.5;" x1="314" x2="370" y1="313.602" y2="313.602"/><line style="stroke:#AAAAAA;stroke-width:0.5;" x1="314" x2="370" y1="321.602" y2="321.602"/></g><!--class Product--><g id="elem_Product"><rect fill="#CCCCCC" height="42" id="Product" rx="2.5" ry="2.5" style="stroke:#AAAAAA;stroke-width:0.5;" width="68" x="463" y="287.602"/><ellipse cx="475" cy="300.602" fill="#ADD1B2" rx="8" ry="8" style="stroke:#181818;stroke-width:1.0;"/><path d="M475.1094,297.5082 Q474.5156,297.5082 474.0469,297.7114 Q473.5781,297.8989 473.25,298.2895 Q472.9219,298.6645 472.7344,299.2426 Q472.5625,299.8051 472.5625,300.5082 Q472.5625,301.4457 472.8438,302.1176 Q473.1406,302.7895 473.6875,303.1489 Q474.2344,303.4926 475.0938,303.4926 Q475.5938,303.4926 476.0313,303.4145 Q476.4844,303.3207 477.1406,303.1332 L477.1406,304.352 Q476.5781,304.5551 476.0938,304.6332 Q475.6094,304.7114 474.9531,304.7114 Q473.7031,304.7114 472.8438,304.1957 Q472,303.6801 471.5781,302.727 Q471.1719,301.7582 471.1719,300.4926 Q471.1719,299.5707 471.4219,298.8051 Q471.6875,298.0395 472.1875,297.477 Q472.6875,296.9145 473.4219,296.602 Q474.1719,296.2895 475.1094,296.2895 Q475.7344,296.2895 476.3125,296.4301 Q476.9063,296.5551 477.5156,296.852 L476.9688,297.977 Q476.4688,297.7582 476.0313,297.6332 Q475.6094,297.5082 475.1094,297.5082 Z " fill="#000000"/><text fill="#333333" font-family="Verdana" font-size="11" lengthAdjust="spacing" textLength="42" x="486" y="304.87">Product</text><line style="stroke:#AAAAAA;stroke-width:0.5;" x1="464" x2="530" y1="313.602" y2="313.602"/><line style="stroke:#AAAAAA;stroke-width:0.5;" x1="464" x2="530" y1="321.602" y2="321.602"/></g><!--class OnlineOrder--><g id="elem_OnlineOrder"><rect fill="#CCCCCC" height="42" id="OnlineOrder" rx="2.5" ry="2.5" style="stroke:#AAAAAA;stroke-width:0.5;" width="93" x="295.5" y="169.602"/><ellipse cx="307.5" cy="182.602" fill="#ADD1B2" rx="8" ry="8" style="stroke:#181818;stroke-width:1.0;"/><path d="M307.6094,179.5082 Q307.0156,179.5082 306.5469,179.7114 Q306.0781,179.8989 305.75,180.2895 Q305.4219,180.6645 305.2344,181.2426 Q305.0625,181.8051 305.0625,182.5082 Q305.0625,183.4457 305.3438,184.1176 Q305.6406,184.7895 306.1875,185.1489 Q306.7344,185.4926 307.5938,185.4926 Q308.0938,185.4926 308.5313,185.4145 Q308.9844,185.3207 309.6406,185.1332 L309.6406,186.352 Q309.0781,186.5551 308.5938,186.6332 Q308.1094,186.7114 307.4531,186.7114 Q306.2031,186.7114 305.3438,186.1957 Q304.5,185.6801 304.0781,184.727 Q303.6719,183.7582 303.6719,182.4926 Q303.6719,181.5707 303.9219,180.8051 Q304.1875,180.0395 304.6875,179.477 Q305.1875,178.9145 305.9219,178.602 Q306.6719,178.2895 307.6094,178.2895 Q308.2344,178.2895 308.8125,178.4301 Q309.4063,178.5551 310.0156,178.852 L309.4688,179.977 Q308.9688,179.7582 308.5313,179.6332 Q308.1094,179.5082 307.6094,179.5082 Z " fill="#000000"/><text fill="#333333" font-family="Verdana" font-size="11" lengthAdjust="spacing" textLength="67" x="318.5" y="186.87">OnlineOrder</text><line style="stroke:#AAAAAA;stroke-width:0.5;" x1="296.5" x2="387.5" y1="195.602" y2="195.602"/><line style="stroke:#AAAAAA;stroke-width:0.5;" x1="296.5" x2="387.5" y1="203.602" y2="203.602"/></g><!--class Calendar--><g id="elem_Calendar"><rect fill="#CCCCCC" height="42" id="Calendar" rx="2.5" ry="2.5" style="stroke:#AAAAAA;stroke-width:0.5;" width="73" x="457.5" y="405.602"/><ellipse cx="469.5" cy="418.602" fill="#ADD1B2" rx="8" ry="8" style="stroke:#181818;stroke-width:1.0;"/><path d="M469.6094,415.5082 Q469.0156,415.5082 468.5469,415.7114 Q468.0781,415.8989 467.75,416.2895 Q467.4219,416.6645 467.2344,417.2426 Q467.0625,417.8051 467.0625,418.5082 Q467.0625,419.4457 467.3438,420.1176 Q467.6406,420.7895 468.1875,421.1489 Q468.7344,421.4926 469.5938,421.4926 Q470.0938,421.4926 470.5313,421.4145 Q470.9844,421.3207 471.6406,421.1332 L471.6406,422.352 Q471.0781,422.5551 470.5938,422.6332 Q470.1094,422.7114 469.4531,422.7114 Q468.2031,422.7114 467.3438,422.1957 Q466.5,421.6801 466.0781,420.727 Q465.6719,419.7582 465.6719,418.4926 Q465.6719,417.5707 465.9219,416.8051 Q466.1875,416.0395 466.6875,415.477 Q467.1875,414.9145 467.9219,414.602 Q468.6719,414.2895 469.6094,414.2895 Q470.2344,414.2895 470.8125,414.4301 Q471.4063,414.5551 472.0156,414.852 L471.4688,415.977 Q470.9688,415.7582 470.5313,415.6332 Q470.1094,415.5082 469.6094,415.5082 Z " fill="#000000"/><text fill="#333333" font-family="Verdana" font-size="11" lengthAdjust="spacing" textLength="47" x="480.5" y="422.87">Calendar</text><line style="stroke:#AAAAAA;stroke-width:0.5;" x1="458.5" x2="529.5" y1="431.602" y2="431.602"/><line style="stroke:#AAAAAA;stroke-width:0.5;" x1="458.5" x2="529.5" y1="439.602" y2="439.602"/></g><!--class Event--><g id="elem_Event"><rect fill="#CCCCCC" height="42" id="Event" rx="2.5" ry="2.5" style="stroke:#AAAAAA;stroke-width:0.5;" width="55" x="475.5" y="523.602"/><ellipse cx="487.5" cy="536.602" fill="#ADD1B2" rx="8" ry="8" style="stroke:#181818;stroke-width:1.0;"/><path d="M487.6094,533.5082 Q487.0156,533.5082 486.5469,533.7114 Q486.0781,533.8989 485.75,534.2895 Q485.4219,534.6645 485.2344,535.2426 Q485.0625,535.8051 485.0625,536.5082 Q485.0625,537.4457 485.3438,538.1176 Q485.6406,538.7895 486.1875,539.1489 Q486.7344,539.4926 487.5938,539.4926 Q488.0938,539.4926 488.5313,539.4145 Q488.9844,539.3207 489.6406,539.1332 L489.6406,540.352 Q489.0781,540.5551 488.5938,540.6332 Q488.1094,540.7114 487.4531,540.7114 Q486.2031,540.7114 485.3438,540.1957 Q484.5,539.6801 484.0781,538.727 Q483.6719,537.7582 483.6719,536.4926 Q483.6719,535.5707 483.9219,534.8051 Q484.1875,534.0395 484.6875,533.477 Q485.1875,532.9145 485.9219,532.602 Q486.6719,532.2895 487.6094,532.2895 Q488.2344,532.2895 488.8125,532.4301 Q489.4063,532.5551 490.0156,532.852 L489.4688,533.977 Q488.9688,533.7582 488.5313,533.6332 Q488.1094,533.5082 487.6094,533.5082 Z " fill="#000000"/><text fill="#333333" font-family="Verdana" font-size="11" lengthAdjust="spacing" textLength="29" x="498.5" y="540.87">Event</text><line style="stroke:#AAAAAA;stroke-width:0.5;" x1="476.5" x2="529.5" y1="549.602" y2="549.602"/><line style="stroke:#AAAAAA;stroke-width:0.5;" x1="476.5" x2="529.5" y1="557.602" y2="557.602"/></g><!--class CreditCardPayment--><g id="elem_CreditCardPayment"><rect fill="#CCCCCC" height="42" id="CreditCardPayment" rx="2.5" ry="2.5" style="stroke:#AAAAAA;stroke-width:0.5;" width="129" x="177.5" y="523.602"/><ellipse cx="189.5" cy="536.602" fill="#ADD1B2" rx="8" ry="8" style="stroke:#181818;stroke-width:1.0;"/><path d="M189.6094,533.5082 Q189.0156,533.5082 188.5469,533.7114 Q188.0781,533.8989 187.75,534.2895 Q187.4219,534.6645 187.2344,535.2426 Q187.0625,535.8051 187.0625,536.5082 Q187.0625,537.4457 187.3438,538.1176 Q187.6406,538.7895 188.1875,539.1489 Q188.7344,539.4926 189.5938,539.4926 Q190.0938,539.4926 190.5313,539.4145 Q190.9844,539.3207 191.6406,539.1332 L191.6406,540.352 Q191.0781,540.5551 190.5938,540.6332 Q190.1094,540.7114 189.4531,540.7114 Q188.2031,540.7114 187.3438,540.1957 Q186.5,539.6801 186.0781,538.727 Q185.6719,537.7582 185.6719,536.4926 Q185.6719,535.5707 185.9219,534.8051 Q186.1875,534.0395 186.6875,533.477 Q187.1875,532.9145 187.9219,532.602 Q188.6719,532.2895 189.6094,532.2895 Q190.2344,532.2895 190.8125,532.4301 Q191.4063,532.5551 192.0156,532.852 L191.4688,533.977 Q190.9688,533.7582 190.5313,533.6332 Q190.1094,533.5082 189.6094,533.5082 Z " fill="#000000"/><text fill="#333333" font-family="Verdana" font-size="11" lengthAdjust="spacing" textLength="103" x="200.5" y="540.87">CreditCardPayment</text><line style="stroke:#AAAAAA;stroke-width:0.5;" x1="178.5" x2="305.5" y1="549.602" y2="549.602"/><line style="stroke:#AAAAAA;stroke-width:0.5;" x1="178.5" x2="305.5" y1="557.602" y2="557.602"/></g><!--class PayPalPayment--><g id="elem_PayPalPayment"><rect fill="#CCCCCC" height="42" id="PayPalPayment" rx="2.5" ry="2.5" style="stroke:#AAAAAA;stroke-width:0.5;" width="107" x="21.5" y="523.602"/><ellipse cx="33.5" cy="536.602" fill="#ADD1B2" rx="8" ry="8" style="stroke:#181818;stroke-width:1.0;"/><path d="M33.6094,533.5082 Q33.0156,533.5082 32.5469,533.7114 Q32.0781,533.8989 31.75,534.2895 Q31.4219,534.6645 31.2344,535.2426 Q31.0625,535.8051 31.0625,536.5082 Q31.0625,537.4457 31.3438,538.1176 Q31.6406,538.7895 32.1875,539.1489 Q32.7344,539.4926 33.5938,539.4926 Q34.0938,539.4926 34.5313,539.4145 Q34.9844,539.3207 35.6406,539.1332 L35.6406,540.352 Q35.0781,540.5551 34.5938,540.6332 Q34.1094,540.7114 33.4531,540.7114 Q32.2031,540.7114 31.3438,540.1957 Q30.5,539.6801 30.0781,538.727 Q29.6719,537.7582 29.6719,536.4926 Q29.6719,535.5707 29.9219,534.8051 Q30.1875,534.0395 30.6875,533.477 Q31.1875,532.9145 31.9219,532.602 Q32.6719,532.2895 33.6094,532.2895 Q34.2344,532.2895 34.8125,532.4301 Q35.4063,532.5551 36.0156,532.852 L35.4688,533.977 Q34.9688,533.7582 34.5313,533.6332 Q34.1094,533.5082 33.6094,533.5082 Z " fill="#000000"/><text fill="#333333" font-family="Verdana" font-size="11" lengthAdjust="spacing" textLength="81" x="44.5" y="540.87">PayPalPayment</text><line style="stroke:#AAAAAA;stroke-width:0.5;" x1="22.5" x2="127.5" y1="549.602" y2="549.602"/><line style="stroke:#AAAAAA;stroke-width:0.5;" x1="22.5" x2="127.5" y1="557.602" y2="557.602"/></g><!--reverse link ILog to OrderManager--><g id="link_ILog_OrderManager"><path codeLine="10" d="M65.3029,126.8713 C67.7329,144.3913 68.74,151.682 71.17,169.192 " fill="none" id="ILog-backto-OrderManager" style="stroke:#000000;stroke-width:1.0;stroke-dasharray:7.0,7.0;"/><polygon fill="none" points="62.83,109.042,59.3598,127.6956,71.246,126.047,62.83,109.042" style="stroke:#000000;stroke-width:1.0;"/></g><!--reverse link IDisplay to OrderManager--><g id="link_IDisplay_OrderManager"><path codeLine="11" d="M124.5053,123.3553 C111.1453,140.8753 102.91,151.682 89.56,169.192 " fill="none" id="IDisplay-backto-OrderManager" style="stroke:#000000;stroke-width:1.0;stroke-dasharray:7.0,7.0;"/><polygon fill="none" points="135.42,109.042,119.7342,119.717,129.2764,126.9935,135.42,109.042" style="stroke:#000000;stroke-width:1.0;"/></g><!--link OrderManager to Orders--><g id="link_OrderManager_Orders"><path codeLine="12" d="M64.33,211.972 C59.34,225.572 55.67,243.472 63,257.602 C71.33,273.662 82.2049,282.7384 96.9849,290.9484 " fill="none" id="OrderManager-to-Orders" style="stroke:#000000;stroke-width:1.0;"/><polygon fill="#000000" points="102.23,293.862,96.3047,285.9949,97.8591,291.434,92.42,292.9884,102.23,293.862" style="stroke:#000000;stroke-width:1.0;"/><text fill="#333333" font-family="Verdana" font-size="11" lengthAdjust="spacing" textLength="47" x="64" y="254.3609">manages</text><text fill="#333333" font-family="Verdana" font-size="11" lengthAdjust="spacing" textLength="6" x="54.9249" y="231.4873">1</text></g><!--link Customer to Address--><g id="link_Customer_Address"><path codeLine="13" d="M277.8,327.592 C321.07,348.442 387.08,382.822 403,405.602 C427.58,440.772 421.1373,488.387 414.1973,517.367 " fill="none" id="Customer-to-Address" style="stroke:#000000;stroke-width:1.0;"/><polygon fill="#000000" points="412.8,523.202,418.786,515.381,413.9645,518.3395,411.006,513.5179,412.8,523.202" style="stroke:#000000;stroke-width:1.0;"/><text fill="#333333" font-family="Verdana" font-size="11" lengthAdjust="spacing" textLength="6" x="285.5069" y="327.6521">1</text><text fill="#333333" font-family="Verdana" font-size="11" lengthAdjust="spacing" textLength="6" x="407.6575" y="512.4137">1</text></g><!--link Customer to CustomerBuilder--><g id="link_Customer_CustomerBuilder"><path codeLine="14" d="M254.71,330.072 C270.97,351.282 292.5869,379.4523 308.7969,400.5723 " fill="none" id="Customer-to-CustomerBuilder" style="stroke:#000000;stroke-width:1.0;"/><polygon fill="#000000" points="312.45,405.332,310.1434,395.757,309.4057,401.3656,303.7972,400.6279,312.45,405.332" style="stroke:#000000;stroke-width:1.0;"/><text fill="#333333" font-family="Verdana" font-size="11" lengthAdjust="spacing" textLength="6" x="251.9669" y="349.2521">1</text><text fill="#333333" font-family="Verdana" font-size="11" lengthAdjust="spacing" textLength="6" x="300.5372" y="394.2363">1</text></g><!--link CustomerBuilder to Address--><g id="link_CustomerBuilder_Address"><path codeLine="15" d="M378.56,448.042 C390.66,455.472 402.08,465.192 409,477.602 C416.71,491.422 416.6835,503.6259 413.9635,517.3859 " fill="none" id="CustomerBuilder-to-Address" style="stroke:#000000;stroke-width:1.0;"/><polygon fill="#000000" points="412.8,523.272,418.4694,515.2185,413.7696,518.3669,410.6212,513.6671,412.8,523.272" style="stroke:#000000;stroke-width:1.0;"/><text fill="#333333" font-family="Verdana" font-size="11" lengthAdjust="spacing" textLength="6" x="384.7473" y="467.2144">1</text><text fill="#333333" font-family="Verdana" font-size="11" lengthAdjust="spacing" textLength="6" x="415.495" y="512.5052">1</text></g><!--link Customers to Customer--><g id="link_Customers_Customer"><path codeLine="16" d="M233.57,211.832 C241.28,220.192 248.96,230.522 253,241.602 C258.41,256.462 256.3996,268.4119 251.2296,281.6719 " fill="none" id="Customers-to-Customer" style="stroke:#000000;stroke-width:1.0;"/><polygon fill="#000000" points="249.05,287.262,256.0461,280.3298,250.8663,282.6035,248.5926,277.4238,249.05,287.262" style="stroke:#000000;stroke-width:1.0;"/><text fill="#333333" font-family="Verdana" font-size="11" lengthAdjust="spacing" textLength="3" x="236.2326" y="231.3096">`</text><text fill="#333333" font-family="Verdana" font-size="11" lengthAdjust="spacing" textLength="18" x="231.3716" y="276.4921">0..*</text></g><!--link Customers to Orders--><g id="link_Customers_Orders"><path codeLine="17" d="M180.93,211.962 C170.8,220.132 160.24,230.292 153,241.602 C144.12,255.452 140.4031,267.6543 137.8331,281.3943 " fill="none" id="Customers-to-Orders" style="stroke:#000000;stroke-width:1.0;"/><polygon fill="#000000" points="136.73,287.292,142.3165,279.1808,137.6493,282.3772,134.4529,277.71,136.73,287.292" style="stroke:#000000;stroke-width:1.0;"/><text fill="#333333" font-family="Verdana" font-size="11" lengthAdjust="spacing" textLength="32" x="154" y="254.3609">places</text></g><!--link Orders to Menus--><g id="link_Orders_Menus"><path codeLine="18" d="M146.53,330.072 C159.51,351.282 176.5254,379.0959 189.4654,400.2159 " fill="none" id="Orders-to-Menus" style="stroke:#000000;stroke-width:1.0;"/><polygon fill="#000000" points="192.6,405.332,191.3089,395.5681,189.9879,401.0686,184.4874,399.7476,192.6,405.332" style="stroke:#000000;stroke-width:1.0;"/><text fill="#333333" font-family="Verdana" font-size="11" lengthAdjust="spacing" textLength="18" x="174.75" y="372.3609">has</text><text fill="#333333" font-family="Verdana" font-size="11" lengthAdjust="spacing" textLength="6" x="142.9721" y="349.2521">1</text></g><!--link Orders to PaymentGateway--><g id="link_Orders_PaymentGateway"><path codeLine="19" d="M114,329.972 C106.67,338.502 98.96,348.912 94,359.602 C87.31,374.012 84.7595,385.7729 83.1795,399.2329 " fill="none" id="Orders-to-PaymentGateway" style="stroke:#000000;stroke-width:1.0;"/><polygon fill="#000000" points="82.48,405.192,87.502,396.7197,83.0629,400.2261,79.5565,395.787,82.48,405.192" style="stroke:#000000;stroke-width:1.0;"/><text fill="#333333" font-family="Verdana" font-size="11" lengthAdjust="spacing" textLength="51" x="95" y="372.3609">processes</text><text fill="#333333" font-family="Verdana" font-size="11" lengthAdjust="spacing" textLength="6" x="101.8188" y="349.4873">1</text></g><!--link Orders to Order--><g id="link_Orders_Order"><path codeLine="20" d="M149.62,287.192 C160.54,274.152 176.37,258.642 194.5,251.432 C218.04,242.072 227.17,244.392 251.5,251.432 C275.78,258.462 299.8,274.152 316.99,287.322 " fill="none" id="Orders-Order" style="stroke:#000000;stroke-width:1.0;"/><text fill="#333333" font-family="Verdana" font-size="11" lengthAdjust="spacing" textLength="55" x="195.5" y="254.3609">consists of</text><text fill="#333333" font-family="Verdana" font-size="11" lengthAdjust="spacing" textLength="18" x="133.6474" y="276.4007">0..*</text><text fill="#333333" font-family="Verdana" font-size="11" lengthAdjust="spacing" textLength="18" x="288.1493" y="276.2231">1..*</text></g><!--link Order to Product--><g id="link_Order_Product"><path codeLine="22" d="M371.15,308.602 C397.11,308.602 435.12,308.602 462.56,308.602 " fill="none" id="Order-Product" style="stroke:#000000;stroke-width:1.0;"/><text fill="#333333" font-family="Verdana" font-size="11" lengthAdjust="spacing" textLength="55" x="389.5" y="302.3609">consists of</text><text fill="#333333" font-family="Verdana" font-size="11" lengthAdjust="spacing" textLength="18" x="379.0184" y="321.9059">0..*</text><text fill="#333333" font-family="Verdana" font-size="11" lengthAdjust="spacing" textLength="18" x="437.0938" y="321.6484">1..*</text></g><!--link OnlineOrder to Order--><g id="link_OnlineOrder_Order"><path codeLine="23" d="M342,212.072 C342,233.282 342,248.212 342,269.332 " fill="none" id="OnlineOrder-to-Order" style="stroke:#000000;stroke-width:1.0;"/><polygon fill="none" points="342,287.332,348,269.332,336,269.332,342,287.332" style="stroke:#000000;stroke-width:1.0;"/><text fill="#333333" font-family="Verdana" font-size="11" lengthAdjust="spacing" textLength="70" x="343" y="254.3609">specialization</text></g><!--link Order to Calendar--><g id="link_Order_Calendar"><path codeLine="24" d="M371.43,323.642 C389.18,332.752 411.8,345.512 430,359.602 C447.54,373.182 464.9,391.472 477.11,405.352 " fill="none" id="Order-Calendar" style="stroke:#000000;stroke-width:1.0;"/><text fill="#333333" font-family="Verdana" font-size="11" lengthAdjust="spacing" textLength="18" x="448.21" y="372.3609">has</text><text fill="#333333" font-family="Verdana" font-size="11" lengthAdjust="spacing" textLength="6" x="378.9294" y="340.6112">1</text><text fill="#333333" font-family="Verdana" font-size="11" lengthAdjust="spacing" textLength="6" x="464.7701" y="394.2627">1</text></g><!--link Calendar to Event--><g id="link_Calendar_Event"><path codeLine="25" d="M495.59,448.072 C497.23,469.282 499.79,502.212 501.43,523.332 " fill="none" id="Calendar-Event" style="stroke:#000000;stroke-width:1.0;"/><text fill="#333333" font-family="Verdana" font-size="11" lengthAdjust="spacing" textLength="51" x="500.04" y="490.3609">occurs on</text><text fill="#333333" font-family="Verdana" font-size="11" lengthAdjust="spacing" textLength="6" x="489.2287" y="467.2521">1</text><text fill="#333333" font-family="Verdana" font-size="11" lengthAdjust="spacing" textLength="6" x="493.9733" y="512.2363">1</text></g><!--link PaymentGateway to CreditCardPayment--><g id="link_PaymentGateway_CreditCardPayment"><path codeLine="27" d="M139.91,443.082 C161.48,450.862 184.99,462.032 203,477.602 C217.3,489.962 225.2784,503.4457 231.7384,517.8757 " fill="none" id="PaymentGateway-to-CreditCardPayment" style="stroke:#000000;stroke-width:1.0;"/><polygon fill="#000000" points="234.19,523.352,234.1634,513.5032,232.147,518.7884,226.8617,516.772,234.19,523.352" style="stroke:#000000;stroke-width:1.0;"/><text fill="#333333" font-family="Verdana" font-size="11" lengthAdjust="spacing" textLength="164" x="217.95" y="490.3609">processes credit card payments</text><text fill="#333333" font-family="Verdana" font-size="11" lengthAdjust="spacing" textLength="6" x="147.4553" y="442.0561">1</text></g><!--link PaymentGateway to PayPalPayment--><g id="link_PaymentGateway_PayPalPayment"><path codeLine="28" d="M66.98,448.052 C61.82,456.762 56.61,467.272 54,477.602 C50.08,493.102 53.2101,504.9487 59.7101,517.9087 " fill="none" id="PaymentGateway-to-PayPalPayment" style="stroke:#000000;stroke-width:1.0;"/><polygon fill="#000000" points="62.4,523.272,61.9406,513.4338,60.1584,518.8026,54.7896,517.0204,62.4,523.272" style="stroke:#000000;stroke-width:1.0;"/><text fill="#333333" font-family="Verdana" font-size="11" lengthAdjust="spacing" textLength="143" x="55" y="490.3609">processes PayPal payments</text><text fill="#333333" font-family="Verdana" font-size="11" lengthAdjust="spacing" textLength="6" x="56.6186" y="467.227">1</text></g><!--SRC=[XP9XIyCm48Q_zrUS_IYqwDSX0wqYWcFx2Px9hGksIScba-dyxwP9kwvkGmYqUT-x9tUNNBaDrGIMfBJ4d5Mgt3XZKPUK90sA3om9qgMLPA56xNSrQGUyOqTr2jy9W5zAEx9h50GlhwQS2e-AcmftKx70YhH4ktndibko4TCbmzq-po4Sk0ZdTTu0EJL3taH8RrF8idaK6MPzsUpZYfQTgOzYkkzzxFoIFOWFhQfaAEQFyW-C8Nth_Piylnw1avX9mRvJ4UhjbU601UcsypTunbpXhhkPPtJqwGVbATPu2az0iOBC9uMVUAqp44QpOiTWriauq9FmbJMo5UuaOQahfIdcPDb-Vk1oGq9XfRxGAQD7RYWvJhT_1uUk3i9HqDEsUt8pC4Aqlej0ykjFnyCW2l-MbIlGoZxWU1OWWWl2sz14do-plBp2wXmdEYFY9_a5]--></g></svg>