<?xml version="1.0" encoding="us-ascii" standalone="no"?><svg xmlns="http://www.w3.org/2000/svg" xmlns:xlink="http://www.w3.org/1999/xlink" contentStyleType="text/css" height="149px" preserveAspectRatio="none" style="width:209px;height:149px;background:#FFFFFF;" version="1.1" viewBox="0 0 209 149" width="209px" zoomAndPan="magnify"><defs/><g><!--class Adjunct--><g id="elem_Adjunct"><rect codeLine="2" fill="#F1F1F1" height="128.2717" id="Adjunct" rx="2.5" ry="2.5" style="stroke:#181818;stroke-width:0.5;" width="188" x="7" y="7"/><ellipse cx="70.75" cy="23" fill="#ADD1B2" rx="11" ry="11" style="stroke:#181818;stroke-width:1.0;"/><path d="M70.8594,18.5313 Q69.9375,18.5313 69.2031,18.8438 Q68.4844,19.1563 67.9844,19.75 Q67.4844,20.3281 67.2031,21.2031 Q66.9375,22.0781 66.9375,23.1719 Q66.9375,24.6094 67.375,25.6563 Q67.8281,26.7031 68.6719,27.25 Q69.5313,27.7969 70.8438,27.7969 Q71.625,27.7969 72.3125,27.6719 Q73.0156,27.5313 74.0156,27.2188 L74.0156,29.0938 Q73.1563,29.4219 72.3906,29.5469 Q71.6406,29.6719 70.625,29.6719 Q68.7031,29.6719 67.3906,28.875 Q66.0938,28.0625 65.4375,26.5938 Q64.7813,25.1094 64.7813,23.1406 Q64.7813,21.7188 65.1719,20.5469 Q65.5781,19.3594 66.3594,18.4844 Q67.1406,17.6094 68.2813,17.1406 Q69.4219,16.6563 70.8906,16.6563 Q71.8438,16.6563 72.7344,16.8594 Q73.6406,17.0469 74.5781,17.5156 L73.75,19.2969 Q72.9688,18.9219 72.3125,18.7344 Q71.6563,18.5313 70.8594,18.5313 Z " fill="#000000"/><text fill="#000000" font-family="sans-serif" font-size="14" lengthAdjust="spacing" textLength="52" x="91.25" y="28.432">Adjunct</text><line style="stroke:#181818;stroke-width:0.5;" x1="8" x2="194" y1="39" y2="39"/><ellipse cx="18" cy="54.034" fill="none" rx="3" ry="3" style="stroke:#038048;stroke-width:1.0;"/><text fill="#000000" font-family="sans-serif" font-size="14" lengthAdjust="spacing" textLength="56" x="27" y="57.9659">id : uuid</text><line style="stroke:#181818;stroke-width:1.0;" x1="8" x2="194" y1="66.0679" y2="66.0679"/><text fill="#000000" font-family="sans-serif" font-size="14" lengthAdjust="spacing" textLength="176" x="13" y="85.0339">total_IBU_per_kg : decimal</text><text fill="#000000" font-family="sans-serif" font-size="14" lengthAdjust="spacing" text-decoration="underline" textLength="128" x="13" y="127.1697">Fermentable : uuid</text><line style="stroke:#181818;stroke-width:1.0;stroke-dasharray:1.0,2.0;" x1="8" x2="73.5" y1="102.6698" y2="102.6698"/><text fill="#000000" font-family="sans-serif" font-size="14" lengthAdjust="spacing" textLength="55" x="73.5" y="107.6018">Relation</text><line style="stroke:#181818;stroke-width:1.0;stroke-dasharray:1.0,2.0;" x1="128.5" x2="194" y1="102.6698" y2="102.6698"/></g><!--SRC=[DKpB2eCm4BpdAmQlnNn0R_PGy2hq7BR9Kg9hB6Pp4l-z8TIvp9FnGZcZ6y9SajSEbF7NE0mgReW1TvGIG_DztqWt9N7Zu-M-lBlbKoU1VLn9Mctjn48QjsHj2uwirVeJJzvNJafluUlsDEO7]--></g></svg>