<?xml version="1.0" encoding="us-ascii" standalone="no"?><svg xmlns="http://www.w3.org/2000/svg" xmlns:xlink="http://www.w3.org/1999/xlink" contentStyleType="text/css" height="284px" preserveAspectRatio="none" style="width:272px;height:284px;background:#FFFFFF;" version="1.1" viewBox="0 0 272 284" width="272px" zoomAndPan="magnify"><defs/><g><!--class Advanced--><g id="elem_Advanced"><rect codeLine="1" fill="#F1F1F1" height="162.4075" id="Advanced" rx="2.5" ry="2.5" style="stroke:#181818;stroke-width:0.5;" width="258" x="7" y="115"/><ellipse cx="98.75" cy="131" fill="#ADD1B2" rx="11" ry="11" style="stroke:#181818;stroke-width:1.0;"/><path d="M98.8594,126.5313 Q97.9375,126.5313 97.2031,126.8438 Q96.4844,127.1563 95.9844,127.75 Q95.4844,128.3281 95.2031,129.2031 Q94.9375,130.0781 94.9375,131.1719 Q94.9375,132.6094 95.375,133.6563 Q95.8281,134.7031 96.6719,135.25 Q97.5313,135.7969 98.8438,135.7969 Q99.625,135.7969 100.3125,135.6719 Q101.0156,135.5313 102.0156,135.2188 L102.0156,137.0938 Q101.1563,137.4219 100.3906,137.5469 Q99.6406,137.6719 98.625,137.6719 Q96.7031,137.6719 95.3906,136.875 Q94.0938,136.0625 93.4375,134.5938 Q92.7813,133.1094 92.7813,131.1406 Q92.7813,129.7188 93.1719,128.5469 Q93.5781,127.3594 94.3594,126.4844 Q95.1406,125.6094 96.2813,125.1406 Q97.4219,124.6563 98.8906,124.6563 Q99.8438,124.6563 100.7344,124.8594 Q101.6406,125.0469 102.5781,125.5156 L101.75,127.2969 Q100.9688,126.9219 100.3125,126.7344 Q99.6563,126.5313 98.8594,126.5313 Z " fill="#000000"/><text fill="#000000" font-family="sans-serif" font-size="14" lengthAdjust="spacing" textLength="66" x="119.25" y="136.432">Advanced</text><line style="stroke:#181818;stroke-width:0.5;" x1="8" x2="264" y1="147" y2="147"/><ellipse cx="18" cy="162.034" fill="none" rx="3" ry="3" style="stroke:#038048;stroke-width:1.0;"/><text fill="#000000" font-family="sans-serif" font-size="14" lengthAdjust="spacing" textLength="56" x="27" y="165.9659">id : uuid</text><line style="stroke:#181818;stroke-width:1.0;" x1="8" x2="264" y1="174.0679" y2="174.0679"/><text fill="#000000" font-family="sans-serif" font-size="14" lengthAdjust="spacing" textLength="236" x="13" y="193.0339">hop_utilization_multiplier : decimal</text><text fill="#000000" font-family="sans-serif" font-size="14" lengthAdjust="spacing" textLength="213" x="13" y="212.1018">aroma_hop_utilization : decimal</text><text fill="#000000" font-family="sans-serif" font-size="14" lengthAdjust="spacing" textLength="246" x="13" y="231.1697">calc_aroma_hop_utilization : boolean</text><text fill="#000000" font-family="sans-serif" font-size="14" lengthAdjust="spacing" textLength="170" x="13" y="250.2376">hopstand_temp : decimal</text><text fill="#000000" font-family="sans-serif" font-size="14" lengthAdjust="spacing" textLength="164" x="13" y="269.3055">whirlbool_time : decimal</text></g><!--class EquipmentProfile--><g id="elem_EquipmentProfile"><rect fill="#F1F1F1" height="48" id="EquipmentProfile" rx="2.5" ry="2.5" style="stroke:#181818;stroke-width:0.5;" width="149" x="61.5" y="7"/><ellipse cx="76.5" cy="23" fill="#ADD1B2" rx="11" ry="11" style="stroke:#181818;stroke-width:1.0;"/><path d="M76.6094,18.5313 Q75.6875,18.5313 74.9531,18.8438 Q74.2344,19.1563 73.7344,19.75 Q73.2344,20.3281 72.9531,21.2031 Q72.6875,22.0781 72.6875,23.1719 Q72.6875,24.6094 73.125,25.6563 Q73.5781,26.7031 74.4219,27.25 Q75.2813,27.7969 76.5938,27.7969 Q77.375,27.7969 78.0625,27.6719 Q78.7656,27.5313 79.7656,27.2188 L79.7656,29.0938 Q78.9063,29.4219 78.1406,29.5469 Q77.3906,29.6719 76.375,29.6719 Q74.4531,29.6719 73.1406,28.875 Q71.8438,28.0625 71.1875,26.5938 Q70.5313,25.1094 70.5313,23.1406 Q70.5313,21.7188 70.9219,20.5469 Q71.3281,19.3594 72.1094,18.4844 Q72.8906,17.6094 74.0313,17.1406 Q75.1719,16.6563 76.6406,16.6563 Q77.5938,16.6563 78.4844,16.8594 Q79.3906,17.0469 80.3281,17.5156 L79.5,19.2969 Q78.7188,18.9219 78.0625,18.7344 Q77.4063,18.5313 76.6094,18.5313 Z " fill="#000000"/><text fill="#000000" font-family="sans-serif" font-size="14" lengthAdjust="spacing" textLength="117" x="90.5" y="28.432">EquipmentProfile</text><line style="stroke:#181818;stroke-width:0.5;" x1="62.5" x2="209.5" y1="39" y2="39"/><line style="stroke:#181818;stroke-width:0.5;" x1="62.5" x2="209.5" y1="47" y2="47"/></g><!--link EquipmentProfile to Advanced--><g id="link_EquipmentProfile_Advanced"><path codeLine="11" d="M136,55.39 C136,71.16 136,93 136,114.73 " fill="none" id="EquipmentProfile-Advanced" style="stroke:#181818;stroke-width:1.0;"/></g><!--SRC=[TSzB2W8n30RW_PmYp5Rc0kvSkFS69RQH2QGFsrH1yUxMmeWKp2Ryv2CXLh0Kc0_kXi6Icm4BR06U4xJQ0JlOGwtiUbwMtjQOJ5KMVg1o3CPNKKx2b1jsPDcZT8WvUZG37un5iUOVFCSeX66xMXI3Cqe-3KlkAsVvOAFiwMVucgRZjNBo5FIKuuM5sXVVFzy0]--></g></svg>