<?xml version="1.0" encoding="us-ascii" standalone="no"?><svg xmlns="http://www.w3.org/2000/svg" xmlns:xlink="http://www.w3.org/1999/xlink" contentStyleType="text/css" height="246px" preserveAspectRatio="none" style="width:172px;height:246px;background:#FFFFFF;" version="1.1" viewBox="0 0 172 246" width="172px" zoomAndPan="magnify"><defs/><g><!--class Anion--><g id="elem_Anion"><rect codeLine="1" fill="#F1F1F1" height="124.2717" id="Anion" rx="2.5" ry="2.5" style="stroke:#181818;stroke-width:0.5;" width="158" x="7" y="115"/><ellipse cx="62.25" cy="131" fill="#ADD1B2" rx="11" ry="11" style="stroke:#181818;stroke-width:1.0;"/><path d="M62.3594,126.5313 Q61.4375,126.5313 60.7031,126.8438 Q59.9844,127.1563 59.4844,127.75 Q58.9844,128.3281 58.7031,129.2031 Q58.4375,130.0781 58.4375,131.1719 Q58.4375,132.6094 58.875,133.6563 Q59.3281,134.7031 60.1719,135.25 Q61.0313,135.7969 62.3438,135.7969 Q63.125,135.7969 63.8125,135.6719 Q64.5156,135.5313 65.5156,135.2188 L65.5156,137.0938 Q64.6563,137.4219 63.8906,137.5469 Q63.1406,137.6719 62.125,137.6719 Q60.2031,137.6719 58.8906,136.875 Q57.5938,136.0625 56.9375,134.5938 Q56.2813,133.1094 56.2813,131.1406 Q56.2813,129.7188 56.6719,128.5469 Q57.0781,127.3594 57.8594,126.4844 Q58.6406,125.6094 59.7813,125.1406 Q60.9219,124.6563 62.3906,124.6563 Q63.3438,124.6563 64.2344,124.8594 Q65.1406,125.0469 66.0781,125.5156 L65.25,127.2969 Q64.4688,126.9219 63.8125,126.7344 Q63.1563,126.5313 62.3594,126.5313 Z " fill="#000000"/><text fill="#000000" font-family="sans-serif" font-size="14" lengthAdjust="spacing" textLength="39" x="82.75" y="136.432">Anion</text><line style="stroke:#181818;stroke-width:0.5;" x1="8" x2="164" y1="147" y2="147"/><ellipse cx="18" cy="162.034" fill="none" rx="3" ry="3" style="stroke:#038048;stroke-width:1.0;"/><text fill="#000000" font-family="sans-serif" font-size="14" lengthAdjust="spacing" textLength="56" x="27" y="165.9659">id : uuid</text><line style="stroke:#181818;stroke-width:1.0;" x1="8" x2="164" y1="174.0679" y2="174.0679"/><text fill="#000000" font-family="sans-serif" font-size="14" lengthAdjust="spacing" textLength="111" x="13" y="193.0339">sulfate : decimal</text><text fill="#000000" font-family="sans-serif" font-size="14" lengthAdjust="spacing" textLength="120" x="13" y="212.1018">chloride : decimal</text><text fill="#000000" font-family="sans-serif" font-size="14" lengthAdjust="spacing" textLength="146" x="13" y="231.1697">bicarbonate : decimal</text></g><!--class WaterProfile--><g id="elem_WaterProfile"><rect fill="#F1F1F1" height="48" id="WaterProfile" rx="2.5" ry="2.5" style="stroke:#181818;stroke-width:0.5;" width="115" x="28.5" y="7"/><ellipse cx="43.5" cy="23" fill="#ADD1B2" rx="11" ry="11" style="stroke:#181818;stroke-width:1.0;"/><path d="M43.6094,18.5313 Q42.6875,18.5313 41.9531,18.8438 Q41.2344,19.1563 40.7344,19.75 Q40.2344,20.3281 39.9531,21.2031 Q39.6875,22.0781 39.6875,23.1719 Q39.6875,24.6094 40.125,25.6563 Q40.5781,26.7031 41.4219,27.25 Q42.2813,27.7969 43.5938,27.7969 Q44.375,27.7969 45.0625,27.6719 Q45.7656,27.5313 46.7656,27.2188 L46.7656,29.0938 Q45.9063,29.4219 45.1406,29.5469 Q44.3906,29.6719 43.375,29.6719 Q41.4531,29.6719 40.1406,28.875 Q38.8438,28.0625 38.1875,26.5938 Q37.5313,25.1094 37.5313,23.1406 Q37.5313,21.7188 37.9219,20.5469 Q38.3281,19.3594 39.1094,18.4844 Q39.8906,17.6094 41.0313,17.1406 Q42.1719,16.6563 43.6406,16.6563 Q44.5938,16.6563 45.4844,16.8594 Q46.3906,17.0469 47.3281,17.5156 L46.5,19.2969 Q45.7188,18.9219 45.0625,18.7344 Q44.4063,18.5313 43.6094,18.5313 Z " fill="#000000"/><text fill="#000000" font-family="sans-serif" font-size="14" lengthAdjust="spacing" textLength="83" x="57.5" y="28.432">WaterProfile</text><line style="stroke:#181818;stroke-width:0.5;" x1="29.5" x2="142.5" y1="39" y2="39"/><line style="stroke:#181818;stroke-width:0.5;" x1="29.5" x2="142.5" y1="47" y2="47"/></g><!--link WaterProfile to Anion--><g id="link_WaterProfile_Anion"><path codeLine="9" d="M86,55.48 C86,71.59 86,93.77 86,114.72 " fill="none" id="WaterProfile-Anion" style="stroke:#181818;stroke-width:1.0;"/></g><!--SRC=[Iyv9B2vMK7BCoypFKr98B5O0inIgkHI0G5iXCqN1Ig6qD3C5pDVL1LF5fJbfYIMfG9cKrEJCtCGS1Nrr1TUyzD2yp18hXOA2N1s5OAYIO7yJNGLrVR2sv8oS_ABC5Bpwd65gd7FW-f8oanEBalBp25ZfXAJCmzdV6Ao_beih72XG552KdvQPamhq0SI30000]--></g></svg>