<?xml version="1.0" encoding="us-ascii" standalone="no"?><svg xmlns="http://www.w3.org/2000/svg" xmlns:xlink="http://www.w3.org/1999/xlink" contentStyleType="text/css" height="265px" preserveAspectRatio="none" style="width:227px;height:265px;background:#FFFFFF;" version="1.1" viewBox="0 0 227 265" width="227px" zoomAndPan="magnify"><defs/><g><!--class Boil_Temperature--><g id="elem_Boil_Temperature"><rect codeLine="2" fill="#F1F1F1" height="143.3396" id="Boil_Temperature" rx="2.5" ry="2.5" style="stroke:#181818;stroke-width:0.5;" width="213" x="7" y="115"/><ellipse cx="49.9" cy="131" fill="#ADD1B2" rx="11" ry="11" style="stroke:#181818;stroke-width:1.0;"/><path d="M50.0094,126.5313 Q49.0875,126.5313 48.3531,126.8438 Q47.6344,127.1563 47.1344,127.75 Q46.6344,128.3281 46.3531,129.2031 Q46.0875,130.0781 46.0875,131.1719 Q46.0875,132.6094 46.525,133.6563 Q46.9781,134.7031 47.8219,135.25 Q48.6813,135.7969 49.9938,135.7969 Q50.775,135.7969 51.4625,135.6719 Q52.1656,135.5313 53.1656,135.2188 L53.1656,137.0938 Q52.3063,137.4219 51.5406,137.5469 Q50.7906,137.6719 49.775,137.6719 Q47.8531,137.6719 46.5406,136.875 Q45.2438,136.0625 44.5875,134.5938 Q43.9313,133.1094 43.9313,131.1406 Q43.9313,129.7188 44.3219,128.5469 Q44.7281,127.3594 45.5094,126.4844 Q46.2906,125.6094 47.4313,125.1406 Q48.5719,124.6563 50.0406,124.6563 Q50.9938,124.6563 51.8844,124.8594 Q52.7906,125.0469 53.7281,125.5156 L52.9,127.2969 Q52.1188,126.9219 51.4625,126.7344 Q50.8063,126.5313 50.0094,126.5313 Z " fill="#000000"/><text fill="#000000" font-family="sans-serif" font-size="14" lengthAdjust="spacing" textLength="119" x="70.1" y="136.432">Boil_Temperature</text><line style="stroke:#181818;stroke-width:0.5;" x1="8" x2="219" y1="147" y2="147"/><ellipse cx="18" cy="162.034" fill="none" rx="3" ry="3" style="stroke:#038048;stroke-width:1.0;"/><text fill="#000000" font-family="sans-serif" font-size="14" lengthAdjust="spacing" textLength="56" x="27" y="165.9659">id : uuid</text><line style="stroke:#181818;stroke-width:1.0;" x1="8" x2="219" y1="174.0679" y2="174.0679"/><text fill="#000000" font-family="sans-serif" font-size="14" lengthAdjust="spacing" textLength="201" x="13" y="193.0339">altitude_adjustment : boolean</text><text fill="#000000" font-family="sans-serif" font-size="14" lengthAdjust="spacing" textLength="117" x="13" y="212.1018">altitude : decimal</text><text fill="#000000" font-family="sans-serif" font-size="14" lengthAdjust="spacing" textLength="131" x="13" y="231.1697">boil_temp : decimal</text><text fill="#000000" font-family="sans-serif" font-size="14" lengthAdjust="spacing" textLength="187" x="13" y="250.2376">cooling_shrinkage : decimal</text></g><!--class EquipmentProfile--><g id="elem_EquipmentProfile"><rect fill="#F1F1F1" height="48" id="EquipmentProfile" rx="2.5" ry="2.5" style="stroke:#181818;stroke-width:0.5;" width="149" x="39" y="7"/><ellipse cx="54" cy="23" fill="#ADD1B2" rx="11" ry="11" style="stroke:#181818;stroke-width:1.0;"/><path d="M54.1094,18.5313 Q53.1875,18.5313 52.4531,18.8438 Q51.7344,19.1563 51.2344,19.75 Q50.7344,20.3281 50.4531,21.2031 Q50.1875,22.0781 50.1875,23.1719 Q50.1875,24.6094 50.625,25.6563 Q51.0781,26.7031 51.9219,27.25 Q52.7813,27.7969 54.0938,27.7969 Q54.875,27.7969 55.5625,27.6719 Q56.2656,27.5313 57.2656,27.2188 L57.2656,29.0938 Q56.4063,29.4219 55.6406,29.5469 Q54.8906,29.6719 53.875,29.6719 Q51.9531,29.6719 50.6406,28.875 Q49.3438,28.0625 48.6875,26.5938 Q48.0313,25.1094 48.0313,23.1406 Q48.0313,21.7188 48.4219,20.5469 Q48.8281,19.3594 49.6094,18.4844 Q50.3906,17.6094 51.5313,17.1406 Q52.6719,16.6563 54.1406,16.6563 Q55.0938,16.6563 55.9844,16.8594 Q56.8906,17.0469 57.8281,17.5156 L57,19.2969 Q56.2188,18.9219 55.5625,18.7344 Q54.9063,18.5313 54.1094,18.5313 Z " fill="#000000"/><text fill="#000000" font-family="sans-serif" font-size="14" lengthAdjust="spacing" textLength="117" x="68" y="28.432">EquipmentProfile</text><line style="stroke:#181818;stroke-width:0.5;" x1="40" x2="187" y1="39" y2="39"/><line style="stroke:#181818;stroke-width:0.5;" x1="40" x2="187" y1="47" y2="47"/></g><!--link EquipmentProfile to Boil_Temperature--><g id="link_EquipmentProfile_Boil_Temperature"><path codeLine="11" d="M113.5,55.34 C113.5,71.29 113.5,93.35 113.5,114.79 " fill="none" id="EquipmentProfile-Boil_Temperature" style="stroke:#181818;stroke-width:1.0;"/></g><!--SRC=[POwn3i8m34JtV8NL5VK7697O6TWZDp75u2GbSQQAVoVD1CNBoKztkdE2fS1mIYpsIc6XZ5ep3O05zX1M0-qEm1wEK2lx_ezZ5nHbhPui-aSj6YXgSqqf2M7ySJJioN50wNZQQhJLxBXhKOwpBVVCyOdpT-vjpFbLUTbQBZdTMAZj-5ly0G00]--></g></svg>