<?xml version="1.0" encoding="us-ascii" standalone="no"?><svg xmlns="http://www.w3.org/2000/svg" xmlns:xlink="http://www.w3.org/1999/xlink" contentStyleType="text/css" height="246px" preserveAspectRatio="none" style="width:171px;height:246px;background:#FFFFFF;" version="1.1" viewBox="0 0 171 246" width="171px" zoomAndPan="magnify"><defs/><g><!--class Cation--><g id="elem_Cation"><rect codeLine="1" fill="#F1F1F1" height="124.2717" id="Cation" rx="2.5" ry="2.5" style="stroke:#181818;stroke-width:0.5;" width="157" x="7" y="115"/><ellipse cx="59.75" cy="131" fill="#ADD1B2" rx="11" ry="11" style="stroke:#181818;stroke-width:1.0;"/><path d="M59.8594,126.5313 Q58.9375,126.5313 58.2031,126.8438 Q57.4844,127.1563 56.9844,127.75 Q56.4844,128.3281 56.2031,129.2031 Q55.9375,130.0781 55.9375,131.1719 Q55.9375,132.6094 56.375,133.6563 Q56.8281,134.7031 57.6719,135.25 Q58.5313,135.7969 59.8438,135.7969 Q60.625,135.7969 61.3125,135.6719 Q62.0156,135.5313 63.0156,135.2188 L63.0156,137.0938 Q62.1563,137.4219 61.3906,137.5469 Q60.6406,137.6719 59.625,137.6719 Q57.7031,137.6719 56.3906,136.875 Q55.0938,136.0625 54.4375,134.5938 Q53.7813,133.1094 53.7813,131.1406 Q53.7813,129.7188 54.1719,128.5469 Q54.5781,127.3594 55.3594,126.4844 Q56.1406,125.6094 57.2813,125.1406 Q58.4219,124.6563 59.8906,124.6563 Q60.8438,124.6563 61.7344,124.8594 Q62.6406,125.0469 63.5781,125.5156 L62.75,127.2969 Q61.9688,126.9219 61.3125,126.7344 Q60.6563,126.5313 59.8594,126.5313 Z " fill="#000000"/><text fill="#000000" font-family="sans-serif" font-size="14" lengthAdjust="spacing" textLength="43" x="80.25" y="136.432">Cation</text><line style="stroke:#181818;stroke-width:0.5;" x1="8" x2="163" y1="147" y2="147"/><ellipse cx="18" cy="162.034" fill="none" rx="3" ry="3" style="stroke:#038048;stroke-width:1.0;"/><text fill="#000000" font-family="sans-serif" font-size="14" lengthAdjust="spacing" textLength="56" x="27" y="165.9659">id : uuid</text><line style="stroke:#181818;stroke-width:1.0;" x1="8" x2="163" y1="174.0679" y2="174.0679"/><text fill="#000000" font-family="sans-serif" font-size="14" lengthAdjust="spacing" textLength="117" x="13" y="193.0339">calcium : decimal</text><text fill="#000000" font-family="sans-serif" font-size="14" lengthAdjust="spacing" textLength="145" x="13" y="212.1018">magnesium : decimal</text><text fill="#000000" font-family="sans-serif" font-size="14" lengthAdjust="spacing" textLength="115" x="13" y="231.1697">sodium : decimal</text></g><!--class WaterProfile--><g id="elem_WaterProfile"><rect fill="#F1F1F1" height="48" id="WaterProfile" rx="2.5" ry="2.5" style="stroke:#181818;stroke-width:0.5;" width="115" x="28" y="7"/><ellipse cx="43" cy="23" fill="#ADD1B2" rx="11" ry="11" style="stroke:#181818;stroke-width:1.0;"/><path d="M43.1094,18.5313 Q42.1875,18.5313 41.4531,18.8438 Q40.7344,19.1563 40.2344,19.75 Q39.7344,20.3281 39.4531,21.2031 Q39.1875,22.0781 39.1875,23.1719 Q39.1875,24.6094 39.625,25.6563 Q40.0781,26.7031 40.9219,27.25 Q41.7813,27.7969 43.0938,27.7969 Q43.875,27.7969 44.5625,27.6719 Q45.2656,27.5313 46.2656,27.2188 L46.2656,29.0938 Q45.4063,29.4219 44.6406,29.5469 Q43.8906,29.6719 42.875,29.6719 Q40.9531,29.6719 39.6406,28.875 Q38.3438,28.0625 37.6875,26.5938 Q37.0313,25.1094 37.0313,23.1406 Q37.0313,21.7188 37.4219,20.5469 Q37.8281,19.3594 38.6094,18.4844 Q39.3906,17.6094 40.5313,17.1406 Q41.6719,16.6563 43.1406,16.6563 Q44.0938,16.6563 44.9844,16.8594 Q45.8906,17.0469 46.8281,17.5156 L46,19.2969 Q45.2188,18.9219 44.5625,18.7344 Q43.9063,18.5313 43.1094,18.5313 Z " fill="#000000"/><text fill="#000000" font-family="sans-serif" font-size="14" lengthAdjust="spacing" textLength="83" x="57" y="28.432">WaterProfile</text><line style="stroke:#181818;stroke-width:0.5;" x1="29" x2="142" y1="39" y2="39"/><line style="stroke:#181818;stroke-width:0.5;" x1="29" x2="142" y1="47" y2="47"/></g><!--link WaterProfile to Cation--><g id="link_WaterProfile_Cation"><path codeLine="9" d="M85.5,55.48 C85.5,71.59 85.5,93.77 85.5,114.72 " fill="none" id="WaterProfile-Cation" style="stroke:#181818;stroke-width:1.0;"/></g><!--SRC=[XO-x2iCm34NtVCKbIuOq13fc3HrJ2g5q5hPh17w4s9vA_xt6BkqOBPBGEK8IXa90ErDaxrfGG2tnQf2Z1qjCI8bbwOUX9456SB9v8fLWImPZXulJTyTnmhRPKrvJaPdEFRgnQ9QqK-50N7xGelzgyFB0MojnfUAyc-P1KUsttJ_Pg7puzx4F]--></g></svg>