<?xml version="1.0" encoding="us-ascii" standalone="no"?><svg xmlns="http://www.w3.org/2000/svg" xmlns:xlink="http://www.w3.org/1999/xlink" contentStyleType="text/css" height="130px" preserveAspectRatio="none" style="width:161px;height:130px;background:#FFFFFF;" version="1.1" viewBox="0 0 161 130" width="161px" zoomAndPan="magnify"><defs/><g><!--class DryExtract--><g id="elem_DryExtract"><rect codeLine="1" fill="#F1F1F1" height="109.2038" id="DryExtract" rx="2.5" ry="2.5" style="stroke:#181818;stroke-width:0.5;" width="140" x="7" y="7"/><ellipse cx="39.55" cy="23" fill="#ADD1B2" rx="11" ry="11" style="stroke:#181818;stroke-width:1.0;"/><path d="M39.6594,18.5313 Q38.7375,18.5313 38.0031,18.8438 Q37.2844,19.1563 36.7844,19.75 Q36.2844,20.3281 36.0031,21.2031 Q35.7375,22.0781 35.7375,23.1719 Q35.7375,24.6094 36.175,25.6563 Q36.6281,26.7031 37.4719,27.25 Q38.3313,27.7969 39.6438,27.7969 Q40.425,27.7969 41.1125,27.6719 Q41.8156,27.5313 42.8156,27.2188 L42.8156,29.0938 Q41.9563,29.4219 41.1906,29.5469 Q40.4406,29.6719 39.425,29.6719 Q37.5031,29.6719 36.1906,28.875 Q34.8938,28.0625 34.2375,26.5938 Q33.5813,25.1094 33.5813,23.1406 Q33.5813,21.7188 33.9719,20.5469 Q34.3781,19.3594 35.1594,18.4844 Q35.9406,17.6094 37.0813,17.1406 Q38.2219,16.6563 39.6906,16.6563 Q40.6438,16.6563 41.5344,16.8594 Q42.4406,17.0469 43.3781,17.5156 L42.55,19.2969 Q41.7688,18.9219 41.1125,18.7344 Q40.4563,18.5313 39.6594,18.5313 Z " fill="#000000"/><text fill="#000000" font-family="sans-serif" font-size="14" lengthAdjust="spacing" textLength="69" x="57.45" y="28.432">DryExtract</text><line style="stroke:#181818;stroke-width:0.5;" x1="8" x2="146" y1="39" y2="39"/><ellipse cx="18" cy="54.034" fill="none" rx="3" ry="3" style="stroke:#038048;stroke-width:1.0;"/><text fill="#000000" font-family="sans-serif" font-size="14" lengthAdjust="spacing" textLength="56" x="27" y="57.9659">id : uuid</text><line style="stroke:#181818;stroke-width:1.0;" x1="8" x2="146" y1="66.0679" y2="66.0679"/><text fill="#000000" font-family="sans-serif" font-size="14" lengthAdjust="spacing" text-decoration="underline" textLength="128" x="13" y="108.1018">Fermentable : uuid</text><line style="stroke:#181818;stroke-width:1.0;stroke-dasharray:1.0,2.0;" x1="8" x2="49.5" y1="83.6019" y2="83.6019"/><text fill="#000000" font-family="sans-serif" font-size="14" lengthAdjust="spacing" textLength="55" x="49.5" y="88.5339">Relation</text><line style="stroke:#181818;stroke-width:1.0;stroke-dasharray:1.0,2.0;" x1="104.5" x2="146" y1="83.6019" y2="83.6019"/></g><!--SRC=[Iyv9B2vMK78fgdIjA2bAJ2vHKaWiLa1m5Qgv5810Mo4pHS5AeRGqCmNCrzK5KtfwGQavYIMP-NbwUc21wk8I83UvLi4jjIWtDQyaCIad5QQlbeiB0000]--></g></svg>