<?xml version="1.0" encoding="us-ascii" standalone="no"?><svg xmlns="http://www.w3.org/2000/svg" xmlns:xlink="http://www.w3.org/1999/xlink" contentStyleType="text/css" height="246px" preserveAspectRatio="none" style="width:236px;height:246px;background:#FFFFFF;" version="1.1" viewBox="0 0 236 246" width="236px" zoomAndPan="magnify"><defs/><g><!--class Efficiency--><g id="elem_Efficiency"><rect codeLine="1" fill="#F1F1F1" height="124.2717" id="Efficiency" rx="2.5" ry="2.5" style="stroke:#181818;stroke-width:0.5;" width="222" x="7" y="115"/><ellipse cx="81.75" cy="131" fill="#ADD1B2" rx="11" ry="11" style="stroke:#181818;stroke-width:1.0;"/><path d="M81.8594,126.5313 Q80.9375,126.5313 80.2031,126.8438 Q79.4844,127.1563 78.9844,127.75 Q78.4844,128.3281 78.2031,129.2031 Q77.9375,130.0781 77.9375,131.1719 Q77.9375,132.6094 78.375,133.6563 Q78.8281,134.7031 79.6719,135.25 Q80.5313,135.7969 81.8438,135.7969 Q82.625,135.7969 83.3125,135.6719 Q84.0156,135.5313 85.0156,135.2188 L85.0156,137.0938 Q84.1563,137.4219 83.3906,137.5469 Q82.6406,137.6719 81.625,137.6719 Q79.7031,137.6719 78.3906,136.875 Q77.0938,136.0625 76.4375,134.5938 Q75.7813,133.1094 75.7813,131.1406 Q75.7813,129.7188 76.1719,128.5469 Q76.5781,127.3594 77.3594,126.4844 Q78.1406,125.6094 79.2813,125.1406 Q80.4219,124.6563 81.8906,124.6563 Q82.8438,124.6563 83.7344,124.8594 Q84.6406,125.0469 85.5781,125.5156 L84.75,127.2969 Q83.9688,126.9219 83.3125,126.7344 Q82.6563,126.5313 81.8594,126.5313 Z " fill="#000000"/><text fill="#000000" font-family="sans-serif" font-size="14" lengthAdjust="spacing" textLength="64" x="102.25" y="136.432">Efficiency</text><line style="stroke:#181818;stroke-width:0.5;" x1="8" x2="228" y1="147" y2="147"/><ellipse cx="18" cy="162.034" fill="none" rx="3" ry="3" style="stroke:#038048;stroke-width:1.0;"/><text fill="#000000" font-family="sans-serif" font-size="14" lengthAdjust="spacing" textLength="56" x="27" y="165.9659">id : uuid</text><line style="stroke:#181818;stroke-width:1.0;" x1="8" x2="228" y1="174.0679" y2="174.0679"/><text fill="#000000" font-family="sans-serif" font-size="14" lengthAdjust="spacing" textLength="210" x="13" y="193.0339">brewhouse_efficiency : decimal</text><text fill="#000000" font-family="sans-serif" font-size="14" lengthAdjust="spacing" textLength="172" x="13" y="212.1018">mash_efficiency : decimal</text><text fill="#000000" font-family="sans-serif" font-size="14" lengthAdjust="spacing" textLength="205" x="13" y="231.1697">calc_mash_efficiency : boolean</text></g><!--class EquipmentProfile--><g id="elem_EquipmentProfile"><rect fill="#F1F1F1" height="48" id="EquipmentProfile" rx="2.5" ry="2.5" style="stroke:#181818;stroke-width:0.5;" width="149" x="43.5" y="7"/><ellipse cx="58.5" cy="23" fill="#ADD1B2" rx="11" ry="11" style="stroke:#181818;stroke-width:1.0;"/><path d="M58.6094,18.5313 Q57.6875,18.5313 56.9531,18.8438 Q56.2344,19.1563 55.7344,19.75 Q55.2344,20.3281 54.9531,21.2031 Q54.6875,22.0781 54.6875,23.1719 Q54.6875,24.6094 55.125,25.6563 Q55.5781,26.7031 56.4219,27.25 Q57.2813,27.7969 58.5938,27.7969 Q59.375,27.7969 60.0625,27.6719 Q60.7656,27.5313 61.7656,27.2188 L61.7656,29.0938 Q60.9063,29.4219 60.1406,29.5469 Q59.3906,29.6719 58.375,29.6719 Q56.4531,29.6719 55.1406,28.875 Q53.8438,28.0625 53.1875,26.5938 Q52.5313,25.1094 52.5313,23.1406 Q52.5313,21.7188 52.9219,20.5469 Q53.3281,19.3594 54.1094,18.4844 Q54.8906,17.6094 56.0313,17.1406 Q57.1719,16.6563 58.6406,16.6563 Q59.5938,16.6563 60.4844,16.8594 Q61.3906,17.0469 62.3281,17.5156 L61.5,19.2969 Q60.7188,18.9219 60.0625,18.7344 Q59.4063,18.5313 58.6094,18.5313 Z " fill="#000000"/><text fill="#000000" font-family="sans-serif" font-size="14" lengthAdjust="spacing" textLength="117" x="72.5" y="28.432">EquipmentProfile</text><line style="stroke:#181818;stroke-width:0.5;" x1="44.5" x2="191.5" y1="39" y2="39"/><line style="stroke:#181818;stroke-width:0.5;" x1="44.5" x2="191.5" y1="47" y2="47"/></g><!--link EquipmentProfile to Efficiency--><g id="link_EquipmentProfile_Efficiency"><path codeLine="9" d="M118,55.48 C118,71.59 118,93.77 118,114.72 " fill="none" id="EquipmentProfile-Efficiency" style="stroke:#181818;stroke-width:1.0;"/></g><!--SRC=[TKv12eGm4Blt5ODNyGFUlVi36QTJ79YskywMPH7_hlJYWfXB24b8ID4CcY448U54lmRGu9AmEJZHWdZeeHJnLNTTfNdbxvABySHNemVF916rHYBQykmIAatto9opCYQtEpUyYxmYfy-uvY3Av_JVlGC0]--></g></svg>