<?xml version="1.0" encoding="us-ascii" standalone="no"?><svg xmlns="http://www.w3.org/2000/svg" xmlns:xlink="http://www.w3.org/1999/xlink" contentStyleType="text/css" height="126px" preserveAspectRatio="none" style="width:328px;height:126px;background:#FFFFFF;" version="1.1" viewBox="0 0 328 126" width="328px" zoomAndPan="magnify"><defs/><g><!--class FermentationProfile--><g id="elem_FermentationProfile"><rect codeLine="1" fill="#F1F1F1" height="105.2038" id="FermentationProfile" rx="2.5" ry="2.5" style="stroke:#181818;stroke-width:0.5;" width="307" x="7" y="7"/><ellipse cx="89.75" cy="23" fill="#ADD1B2" rx="11" ry="11" style="stroke:#181818;stroke-width:1.0;"/><path d="M89.8594,18.5313 Q88.9375,18.5313 88.2031,18.8438 Q87.4844,19.1563 86.9844,19.75 Q86.4844,20.3281 86.2031,21.2031 Q85.9375,22.0781 85.9375,23.1719 Q85.9375,24.6094 86.375,25.6563 Q86.8281,26.7031 87.6719,27.25 Q88.5313,27.7969 89.8438,27.7969 Q90.625,27.7969 91.3125,27.6719 Q92.0156,27.5313 93.0156,27.2188 L93.0156,29.0938 Q92.1563,29.4219 91.3906,29.5469 Q90.6406,29.6719 89.625,29.6719 Q87.7031,29.6719 86.3906,28.875 Q85.0938,28.0625 84.4375,26.5938 Q83.7813,25.1094 83.7813,23.1406 Q83.7813,21.7188 84.1719,20.5469 Q84.5781,19.3594 85.3594,18.4844 Q86.1406,17.6094 87.2813,17.1406 Q88.4219,16.6563 89.8906,16.6563 Q90.8438,16.6563 91.7344,16.8594 Q92.6406,17.0469 93.5781,17.5156 L92.75,19.2969 Q91.9688,18.9219 91.3125,18.7344 Q90.6563,18.5313 89.8594,18.5313 Z " fill="#000000"/><text fill="#000000" font-family="sans-serif" font-size="14" lengthAdjust="spacing" textLength="133" x="110.25" y="28.432">FermentationProfile</text><line style="stroke:#181818;stroke-width:0.5;" x1="8" x2="313" y1="39" y2="39"/><ellipse cx="18" cy="54.034" fill="none" rx="3" ry="3" style="stroke:#038048;stroke-width:1.0;"/><text fill="#000000" font-family="sans-serif" font-size="14" lengthAdjust="spacing" textLength="56" x="27" y="57.9659">id : uuid</text><line style="stroke:#181818;stroke-width:1.0;" x1="8" x2="313" y1="66.0679" y2="66.0679"/><text fill="#000000" font-family="sans-serif" font-size="14" lengthAdjust="spacing" textLength="90" x="13" y="85.0339">name : string</text><text fill="#000000" font-family="sans-serif" font-size="14" lengthAdjust="spacing" textLength="295" x="13" y="104.1018">fermentation_steps : List[FermentationStep]</text></g><!--SRC=[Iyv9B2vMK79BBSfDpIj9BCdCpmieoa_Bp4bLKaWiLi0Yhb3DfG04sWgPAGfM2gMbcIbWlgukcCfBp4q52XUN56NcfOD5qf2CY2ykIIqe1ihxP1QNH2CR7WoKY5NGLqUnKG4a2h97NP-hbeiB0000]--></g></svg>