<?xml version="1.0" encoding="us-ascii" standalone="no"?><svg xmlns="http://www.w3.org/2000/svg" xmlns:xlink="http://www.w3.org/1999/xlink" contentStyleType="text/css" height="591px" preserveAspectRatio="none" style="width:241px;height:591px;background:#FFFFFF;" version="1.1" viewBox="0 0 241 591" width="241px" zoomAndPan="magnify"><defs/><g><!--class Hops--><g id="elem_Hops"><rect codeLine="2" fill="#F1F1F1" height="570.8338" id="Hops" rx="2.5" ry="2.5" style="stroke:#181818;stroke-width:0.5;" width="220" x="7" y="7"/><ellipse cx="95.75" cy="23" fill="#ADD1B2" rx="11" ry="11" style="stroke:#181818;stroke-width:1.0;"/><path d="M95.8594,18.5313 Q94.9375,18.5313 94.2031,18.8438 Q93.4844,19.1563 92.9844,19.75 Q92.4844,20.3281 92.2031,21.2031 Q91.9375,22.0781 91.9375,23.1719 Q91.9375,24.6094 92.375,25.6563 Q92.8281,26.7031 93.6719,27.25 Q94.5313,27.7969 95.8438,27.7969 Q96.625,27.7969 97.3125,27.6719 Q98.0156,27.5313 99.0156,27.2188 L99.0156,29.0938 Q98.1563,29.4219 97.3906,29.5469 Q96.6406,29.6719 95.625,29.6719 Q93.7031,29.6719 92.3906,28.875 Q91.0938,28.0625 90.4375,26.5938 Q89.7813,25.1094 89.7813,23.1406 Q89.7813,21.7188 90.1719,20.5469 Q90.5781,19.3594 91.3594,18.4844 Q92.1406,17.6094 93.2813,17.1406 Q94.4219,16.6563 95.8906,16.6563 Q96.8438,16.6563 97.7344,16.8594 Q98.6406,17.0469 99.5781,17.5156 L98.75,19.2969 Q97.9688,18.9219 97.3125,18.7344 Q96.6563,18.5313 95.8594,18.5313 Z " fill="#000000"/><text fill="#000000" font-family="sans-serif" font-size="14" lengthAdjust="spacing" textLength="34" x="116.25" y="28.432">Hops</text><line style="stroke:#181818;stroke-width:0.5;" x1="8" x2="226" y1="39" y2="39"/><ellipse cx="18" cy="54.034" fill="none" rx="3" ry="3" style="stroke:#038048;stroke-width:1.0;"/><text fill="#000000" font-family="sans-serif" font-size="14" lengthAdjust="spacing" textLength="56" x="27" y="57.9659">id : uuid</text><line style="stroke:#181818;stroke-width:1.0;" x1="8" x2="226" y1="66.0679" y2="66.0679"/><text fill="#000000" font-family="sans-serif" font-size="14" lengthAdjust="spacing" textLength="90" x="13" y="108.1018">name : string</text><text fill="#000000" font-family="sans-serif" font-size="14" lengthAdjust="spacing" textLength="108" x="13" y="127.1697">supplier : string</text><text fill="#000000" font-family="sans-serif" font-size="14" lengthAdjust="spacing" textLength="92" x="13" y="146.2376">origin : string</text><line style="stroke:#181818;stroke-width:1.0;stroke-dasharray:1.0,2.0;" x1="8" x2="90.5" y1="83.6019" y2="83.6019"/><text fill="#000000" font-family="sans-serif" font-size="14" lengthAdjust="spacing" textLength="53" x="90.5" y="88.5339">General</text><line style="stroke:#181818;stroke-width:1.0;stroke-dasharray:1.0,2.0;" x1="143.5" x2="226" y1="83.6019" y2="83.6019"/><text fill="#000000" font-family="sans-serif" font-size="14" lengthAdjust="spacing" textLength="103" x="13" y="188.3734">alpha : decimal</text><text fill="#000000" font-family="sans-serif" font-size="14" lengthAdjust="spacing" textLength="100" x="13" y="207.4414">type : HopType</text><text fill="#000000" font-family="sans-serif" font-size="14" lengthAdjust="spacing" textLength="59" x="13" y="226.5093">year : int</text><text fill="#000000" font-family="sans-serif" font-size="14" lengthAdjust="spacing" textLength="136" x="13" y="245.5772">loss_factor : decimal</text><text fill="#000000" font-family="sans-serif" font-size="14" lengthAdjust="spacing" textLength="121" x="13" y="264.6451">best_before : date</text><text fill="#000000" font-family="sans-serif" font-size="14" lengthAdjust="spacing" textLength="92" x="13" y="283.713">harvest : date</text><text fill="#000000" font-family="sans-serif" font-size="14" lengthAdjust="spacing" textLength="129" x="13" y="302.7809">lot_number : string</text><text fill="#000000" font-family="sans-serif" font-size="14" lengthAdjust="spacing" textLength="115" x="13" y="321.8489">inventory : string</text><text fill="#000000" font-family="sans-serif" font-size="14" lengthAdjust="spacing" textLength="89" x="13" y="340.9168">notes : string</text><text fill="#000000" font-family="sans-serif" font-size="14" lengthAdjust="spacing" textLength="128" x="13" y="359.9847">description : string</text><text fill="#000000" font-family="sans-serif" font-size="14" lengthAdjust="spacing" textLength="127" x="13" y="379.0526">substitutes : string</text><text fill="#000000" font-family="sans-serif" font-size="14" lengthAdjust="spacing" textLength="104" x="13" y="398.1205">used_in : string</text><text fill="#000000" font-family="sans-serif" font-size="14" lengthAdjust="spacing" textLength="122" x="13" y="417.1884">usage : HopUsage</text><text fill="#000000" font-family="sans-serif" font-size="14" lengthAdjust="spacing" textLength="95" x="13" y="436.2564">beta : decimal</text><text fill="#000000" font-family="sans-serif" font-size="14" lengthAdjust="spacing" textLength="155" x="13" y="455.3243">co_humulone : decimal</text><text fill="#000000" font-family="sans-serif" font-size="14" lengthAdjust="spacing" textLength="191" x="13" y="474.3922">hop_storage_index : decimal</text><text fill="#000000" font-family="sans-serif" font-size="14" lengthAdjust="spacing" textLength="208" x="13" y="493.4601">total_oil_ml_per_100g : decimal</text><text fill="#000000" font-family="sans-serif" font-size="14" lengthAdjust="spacing" textLength="123" x="13" y="512.528">myrcene : decimal</text><text fill="#000000" font-family="sans-serif" font-size="14" lengthAdjust="spacing" textLength="134" x="13" y="531.5959">humulene : decimal</text><text fill="#000000" font-family="sans-serif" font-size="14" lengthAdjust="spacing" textLength="159" x="13" y="550.6639">caryophyllene : decimal</text><text fill="#000000" font-family="sans-serif" font-size="14" lengthAdjust="spacing" textLength="133" x="13" y="569.7318">farnesene : decimal</text><line style="stroke:#181818;stroke-width:1.0;stroke-dasharray:1.0,2.0;" x1="8" x2="51.5" y1="163.8735" y2="163.8735"/><text fill="#000000" font-family="sans-serif" font-size="14" lengthAdjust="spacing" textLength="131" x="51.5" y="168.8055">Hop Characteristics</text><line style="stroke:#181818;stroke-width:1.0;stroke-dasharray:1.0,2.0;" x1="182.5" x2="226" y1="163.8735" y2="163.8735"/></g><!--SRC=[VL9DJ-Cm4BtpAqP8YCD22fSzSAI2PGze3y3PcYQJn99ZMnuR4QtuxunTjxifQdk9_Vm-PfxQ6cI6yoVd-HoG8H_Wxnd8xmVe3kuW9TsL-_Lr-JJDBx8Kq3HDkLkSI6WSWxP3GJXvRpI59Ug27hHTOaqZUR0UCM0RAMYEkkNgYyQFAFIEMZsXALYSVSuIqQkS2ZGJvY1jOxaQnwnwSNFXdnPMbt01hg-UsEgECpC2zX8BFs5oDeuCbwjYiY6EQaEz2pcjmxYDaZ7VvUL_oBYeR9esXyjg-qvMPfZtS9xXznwLPckMTP5uAUw8sw1zrCuU5hkHXcBwfaXCdJeiDp4EjQstSgoxHLmsys27DwlZ7LnSmNr-tVPJvskT6jEKZBDqNBPsUqwLZSuhbbKbLmRhwEEuEFy5NhPKQIXJgqTq4OrosgZ9A4z1tTxS34Ty9hFAhrVmcaNmHvkTopI7bauD_rm9kydp9YS5Jpl6hY8Ci_FZR4xBrWjQrVOOBF59tUEU8fhFioy0]--></g></svg>