<?xml version="1.0" encoding="us-ascii" standalone="no"?><svg xmlns="http://www.w3.org/2000/svg" xmlns:xlink="http://www.w3.org/1999/xlink" contentStyleType="text/css" height="227px" preserveAspectRatio="none" style="width:115px;height:227px;background:#FFFFFF;" version="1.1" viewBox="0 0 115 227" width="115px" zoomAndPan="magnify"><defs/><g><!--class HopUsage--><g id="elem_HopUsage"><rect codeLine="1" fill="#F1F1F1" height="105.2038" id="HopUsage" rx="2.5" ry="2.5" style="stroke:#181818;stroke-width:0.5;" width="101" x="7" y="115"/><ellipse cx="22" cy="131" fill="#EB937F" rx="11" ry="11" style="stroke:#181818;stroke-width:1.0;"/><path d="M25.4688,137.5 L18.1563,137.5 L18.1563,124.8281 L25.4688,124.8281 L25.4688,126.7031 L20.2031,126.7031 L20.2031,129.9688 L25.1563,129.9688 L25.1563,131.8281 L20.2031,131.8281 L20.2031,135.625 L25.4688,135.625 L25.4688,137.5 Z " fill="#000000"/><text fill="#000000" font-family="sans-serif" font-size="14" lengthAdjust="spacing" textLength="69" x="36" y="136.432">HopUsage</text><line style="stroke:#181818;stroke-width:0.5;" x1="8" x2="107" y1="147" y2="147"/><text fill="#000000" font-family="sans-serif" font-size="14" lengthAdjust="spacing" textLength="43" x="13" y="165.9659">aroma</text><text fill="#000000" font-family="sans-serif" font-size="14" lengthAdjust="spacing" textLength="37" x="13" y="185.0339">bitter</text><text fill="#000000" font-family="sans-serif" font-size="14" lengthAdjust="spacing" textLength="31" x="13" y="204.1018">both</text><line style="stroke:#181818;stroke-width:0.5;" x1="8" x2="107" y1="212.2038" y2="212.2038"/></g><!--class Hops--><g id="elem_Hops"><rect fill="#F1F1F1" height="48" id="Hops" rx="2.5" ry="2.5" style="stroke:#181818;stroke-width:0.5;" width="66" x="24.5" y="7"/><ellipse cx="39.5" cy="23" fill="#ADD1B2" rx="11" ry="11" style="stroke:#181818;stroke-width:1.0;"/><path d="M39.6094,18.5313 Q38.6875,18.5313 37.9531,18.8438 Q37.2344,19.1563 36.7344,19.75 Q36.2344,20.3281 35.9531,21.2031 Q35.6875,22.0781 35.6875,23.1719 Q35.6875,24.6094 36.125,25.6563 Q36.5781,26.7031 37.4219,27.25 Q38.2813,27.7969 39.5938,27.7969 Q40.375,27.7969 41.0625,27.6719 Q41.7656,27.5313 42.7656,27.2188 L42.7656,29.0938 Q41.9063,29.4219 41.1406,29.5469 Q40.3906,29.6719 39.375,29.6719 Q37.4531,29.6719 36.1406,28.875 Q34.8438,28.0625 34.1875,26.5938 Q33.5313,25.1094 33.5313,23.1406 Q33.5313,21.7188 33.9219,20.5469 Q34.3281,19.3594 35.1094,18.4844 Q35.8906,17.6094 37.0313,17.1406 Q38.1719,16.6563 39.6406,16.6563 Q40.5938,16.6563 41.4844,16.8594 Q42.3906,17.0469 43.3281,17.5156 L42.5,19.2969 Q41.7188,18.9219 41.0625,18.7344 Q40.4063,18.5313 39.6094,18.5313 Z " fill="#000000"/><text fill="#000000" font-family="sans-serif" font-size="14" lengthAdjust="spacing" textLength="34" x="53.5" y="28.432">Hops</text><line style="stroke:#181818;stroke-width:0.5;" x1="25.5" x2="89.5" y1="39" y2="39"/><line style="stroke:#181818;stroke-width:0.5;" x1="25.5" x2="89.5" y1="47" y2="47"/></g><!--link Hops to HopUsage--><g id="link_Hops_HopUsage"><path codeLine="7" d="M57.5,55.44 C57.5,71.79 57.5,94.24 57.5,114.7 " fill="none" id="Hops-HopUsage" style="stroke:#181818;stroke-width:1.0;"/></g><!--SRC=[SyqhpLLGyiWl22rEJ4zLKgZcKW22nAByt4GmAocpf2Ir2CBCBydWgkNY0YekLj3LLO1f0W00]--></g></svg>