<?xml version="1.0" encoding="us-ascii" standalone="no"?><svg xmlns="http://www.w3.org/2000/svg" xmlns:xlink="http://www.w3.org/1999/xlink" contentStyleType="text/css" height="227px" preserveAspectRatio="none" style="width:198px;height:227px;background:#FFFFFF;" version="1.1" viewBox="0 0 198 227" width="198px" zoomAndPan="magnify"><defs/><g><!--class HTL_Water_Limit--><g id="elem_HTL_Water_Limit"><rect codeLine="1" fill="#F1F1F1" height="105.2038" id="HTL_Water_Limit" rx="2.5" ry="2.5" style="stroke:#181818;stroke-width:0.5;" width="184" x="7" y="115"/><ellipse cx="40.9" cy="131" fill="#ADD1B2" rx="11" ry="11" style="stroke:#181818;stroke-width:1.0;"/><path d="M41.0094,126.5313 Q40.0875,126.5313 39.3531,126.8438 Q38.6344,127.1563 38.1344,127.75 Q37.6344,128.3281 37.3531,129.2031 Q37.0875,130.0781 37.0875,131.1719 Q37.0875,132.6094 37.525,133.6563 Q37.9781,134.7031 38.8219,135.25 Q39.6813,135.7969 40.9938,135.7969 Q41.775,135.7969 42.4625,135.6719 Q43.1656,135.5313 44.1656,135.2188 L44.1656,137.0938 Q43.3063,137.4219 42.5406,137.5469 Q41.7906,137.6719 40.775,137.6719 Q38.8531,137.6719 37.5406,136.875 Q36.2438,136.0625 35.5875,134.5938 Q34.9313,133.1094 34.9313,131.1406 Q34.9313,129.7188 35.3219,128.5469 Q35.7281,127.3594 36.5094,126.4844 Q37.2906,125.6094 38.4313,125.1406 Q39.5719,124.6563 41.0406,124.6563 Q41.9938,124.6563 42.8844,124.8594 Q43.7906,125.0469 44.7281,125.5156 L43.9,127.2969 Q43.1188,126.9219 42.4625,126.7344 Q41.8063,126.5313 41.0094,126.5313 Z " fill="#000000"/><text fill="#000000" font-family="sans-serif" font-size="14" lengthAdjust="spacing" textLength="110" x="59.1" y="136.432">HTL_Water_Limit</text><line style="stroke:#181818;stroke-width:0.5;" x1="8" x2="190" y1="147" y2="147"/><ellipse cx="18" cy="162.034" fill="none" rx="3" ry="3" style="stroke:#038048;stroke-width:1.0;"/><text fill="#000000" font-family="sans-serif" font-size="14" lengthAdjust="spacing" textLength="56" x="27" y="165.9659">id : uuid</text><line style="stroke:#181818;stroke-width:1.0;" x1="8" x2="190" y1="174.0679" y2="174.0679"/><text fill="#000000" font-family="sans-serif" font-size="14" lengthAdjust="spacing" textLength="170" x="13" y="193.0339">min_hlt_volume : decimal</text><text fill="#000000" font-family="sans-serif" font-size="14" lengthAdjust="spacing" textLength="172" x="13" y="212.1018">max_hlt_volume : decimal</text></g><!--class EquipmentProfile--><g id="elem_EquipmentProfile"><rect fill="#F1F1F1" height="48" id="EquipmentProfile" rx="2.5" ry="2.5" style="stroke:#181818;stroke-width:0.5;" width="149" x="24.5" y="7"/><ellipse cx="39.5" cy="23" fill="#ADD1B2" rx="11" ry="11" style="stroke:#181818;stroke-width:1.0;"/><path d="M39.6094,18.5313 Q38.6875,18.5313 37.9531,18.8438 Q37.2344,19.1563 36.7344,19.75 Q36.2344,20.3281 35.9531,21.2031 Q35.6875,22.0781 35.6875,23.1719 Q35.6875,24.6094 36.125,25.6563 Q36.5781,26.7031 37.4219,27.25 Q38.2813,27.7969 39.5938,27.7969 Q40.375,27.7969 41.0625,27.6719 Q41.7656,27.5313 42.7656,27.2188 L42.7656,29.0938 Q41.9063,29.4219 41.1406,29.5469 Q40.3906,29.6719 39.375,29.6719 Q37.4531,29.6719 36.1406,28.875 Q34.8438,28.0625 34.1875,26.5938 Q33.5313,25.1094 33.5313,23.1406 Q33.5313,21.7188 33.9219,20.5469 Q34.3281,19.3594 35.1094,18.4844 Q35.8906,17.6094 37.0313,17.1406 Q38.1719,16.6563 39.6406,16.6563 Q40.5938,16.6563 41.4844,16.8594 Q42.3906,17.0469 43.3281,17.5156 L42.5,19.2969 Q41.7188,18.9219 41.0625,18.7344 Q40.4063,18.5313 39.6094,18.5313 Z " fill="#000000"/><text fill="#000000" font-family="sans-serif" font-size="14" lengthAdjust="spacing" textLength="117" x="53.5" y="28.432">EquipmentProfile</text><line style="stroke:#181818;stroke-width:0.5;" x1="25.5" x2="172.5" y1="39" y2="39"/><line style="stroke:#181818;stroke-width:0.5;" x1="25.5" x2="172.5" y1="47" y2="47"/></g><!--link EquipmentProfile to HTL_Water_Limit--><g id="link_EquipmentProfile_HTL_Water_Limit"><path codeLine="7" d="M99,55.44 C99,71.79 99,94.24 99,114.7 " fill="none" id="EquipmentProfile-HTL_Water_Limit" style="stroke:#181818;stroke-width:1.0;"/></g><!--SRC=[ZOwn2eCm68Htd-9mSMZ5tLrmIA63RSVmOzBsXoHQanIXzDqRTClKMuuxxeCR3NcFiX-4l57GYnHiEPGWZwp3fq3I0QpG8aPMMwxhpImx-JH1lYSJhKu3fKUsPD1KwDpZuZYq44USsA4N0wxxhcfscjR_Q5ep-bjqhyYprIwSb-dEHgT7-VKV]--></g></svg>