<?xml version="1.0" encoding="us-ascii" standalone="no"?><svg xmlns="http://www.w3.org/2000/svg" xmlns:xlink="http://www.w3.org/1999/xlink" contentStyleType="text/css" height="208px" preserveAspectRatio="none" style="width:198px;height:208px;background:#FFFFFF;" version="1.1" viewBox="0 0 198 208" width="198px" zoomAndPan="magnify"><defs/><g><!--class Kettle--><g id="elem_Kettle"><rect codeLine="2" fill="#F1F1F1" height="86.1358" id="Kettle" rx="2.5" ry="2.5" style="stroke:#181818;stroke-width:0.5;" width="184" x="7" y="115"/><ellipse cx="75.25" cy="131" fill="#ADD1B2" rx="11" ry="11" style="stroke:#181818;stroke-width:1.0;"/><path d="M75.3594,126.5313 Q74.4375,126.5313 73.7031,126.8438 Q72.9844,127.1563 72.4844,127.75 Q71.9844,128.3281 71.7031,129.2031 Q71.4375,130.0781 71.4375,131.1719 Q71.4375,132.6094 71.875,133.6563 Q72.3281,134.7031 73.1719,135.25 Q74.0313,135.7969 75.3438,135.7969 Q76.125,135.7969 76.8125,135.6719 Q77.5156,135.5313 78.5156,135.2188 L78.5156,137.0938 Q77.6563,137.4219 76.8906,137.5469 Q76.1406,137.6719 75.125,137.6719 Q73.2031,137.6719 71.8906,136.875 Q70.5938,136.0625 69.9375,134.5938 Q69.2813,133.1094 69.2813,131.1406 Q69.2813,129.7188 69.6719,128.5469 Q70.0781,127.3594 70.8594,126.4844 Q71.6406,125.6094 72.7813,125.1406 Q73.9219,124.6563 75.3906,124.6563 Q76.3438,124.6563 77.2344,124.8594 Q78.1406,125.0469 79.0781,125.5156 L78.25,127.2969 Q77.4688,126.9219 76.8125,126.7344 Q76.1563,126.5313 75.3594,126.5313 Z " fill="#000000"/><text fill="#000000" font-family="sans-serif" font-size="14" lengthAdjust="spacing" textLength="39" x="95.75" y="136.432">Kettle</text><line style="stroke:#181818;stroke-width:0.5;" x1="8" x2="190" y1="147" y2="147"/><ellipse cx="18" cy="162.034" fill="none" rx="3" ry="3" style="stroke:#038048;stroke-width:1.0;"/><text fill="#000000" font-family="sans-serif" font-size="14" lengthAdjust="spacing" textLength="56" x="27" y="165.9659">id : uuid</text><line style="stroke:#181818;stroke-width:1.0;" x1="8" x2="190" y1="174.0679" y2="174.0679"/><text fill="#000000" font-family="sans-serif" font-size="14" lengthAdjust="spacing" textLength="172" x="13" y="193.0339">mash_efficiency : decimal</text></g><!--class EquipmentProfile--><g id="elem_EquipmentProfile"><rect fill="#F1F1F1" height="48" id="EquipmentProfile" rx="2.5" ry="2.5" style="stroke:#181818;stroke-width:0.5;" width="149" x="24.5" y="7"/><ellipse cx="39.5" cy="23" fill="#ADD1B2" rx="11" ry="11" style="stroke:#181818;stroke-width:1.0;"/><path d="M39.6094,18.5313 Q38.6875,18.5313 37.9531,18.8438 Q37.2344,19.1563 36.7344,19.75 Q36.2344,20.3281 35.9531,21.2031 Q35.6875,22.0781 35.6875,23.1719 Q35.6875,24.6094 36.125,25.6563 Q36.5781,26.7031 37.4219,27.25 Q38.2813,27.7969 39.5938,27.7969 Q40.375,27.7969 41.0625,27.6719 Q41.7656,27.5313 42.7656,27.2188 L42.7656,29.0938 Q41.9063,29.4219 41.1406,29.5469 Q40.3906,29.6719 39.375,29.6719 Q37.4531,29.6719 36.1406,28.875 Q34.8438,28.0625 34.1875,26.5938 Q33.5313,25.1094 33.5313,23.1406 Q33.5313,21.7188 33.9219,20.5469 Q34.3281,19.3594 35.1094,18.4844 Q35.8906,17.6094 37.0313,17.1406 Q38.1719,16.6563 39.6406,16.6563 Q40.5938,16.6563 41.4844,16.8594 Q42.3906,17.0469 43.3281,17.5156 L42.5,19.2969 Q41.7188,18.9219 41.0625,18.7344 Q40.4063,18.5313 39.6094,18.5313 Z " fill="#000000"/><text fill="#000000" font-family="sans-serif" font-size="14" lengthAdjust="spacing" textLength="117" x="53.5" y="28.432">EquipmentProfile</text><line style="stroke:#181818;stroke-width:0.5;" x1="25.5" x2="172.5" y1="39" y2="39"/><line style="stroke:#181818;stroke-width:0.5;" x1="25.5" x2="172.5" y1="47" y2="47"/></g><!--link EquipmentProfile to Kettle--><g id="link_EquipmentProfile_Kettle"><path codeLine="8" d="M99,55.24 C99,71.91 99,94.85 99,114.73 " fill="none" id="EquipmentProfile-Kettle" style="stroke:#181818;stroke-width:1.0;"/></g><!--SRC=[Iyv9B2vMKF9EBId9ILLII2nMW30LghaKW41R8JD5mKgXj3Gp1SpNrGLJkOd56V6fQMcPoPcfUScLG1KfgScPkOavNBLSNAw5fPa5kQbv9G55-McPGADqTM66SW40]--></g></svg>