<?xml version="1.0" encoding="us-ascii" standalone="no"?><svg xmlns="http://www.w3.org/2000/svg" xmlns:xlink="http://www.w3.org/1999/xlink" contentStyleType="text/css" height="149px" preserveAspectRatio="none" style="width:209px;height:149px;background:#FFFFFF;" version="1.1" viewBox="0 0 209 149" width="209px" zoomAndPan="magnify"><defs/><g><!--class LiquidExtract--><g id="elem_LiquidExtract"><rect codeLine="2" fill="#F1F1F1" height="128.2717" id="LiquidExtract" rx="2.5" ry="2.5" style="stroke:#181818;stroke-width:0.5;" width="188" x="7" y="7"/><ellipse cx="52.75" cy="23" fill="#ADD1B2" rx="11" ry="11" style="stroke:#181818;stroke-width:1.0;"/><path d="M52.8594,18.5313 Q51.9375,18.5313 51.2031,18.8438 Q50.4844,19.1563 49.9844,19.75 Q49.4844,20.3281 49.2031,21.2031 Q48.9375,22.0781 48.9375,23.1719 Q48.9375,24.6094 49.375,25.6563 Q49.8281,26.7031 50.6719,27.25 Q51.5313,27.7969 52.8438,27.7969 Q53.625,27.7969 54.3125,27.6719 Q55.0156,27.5313 56.0156,27.2188 L56.0156,29.0938 Q55.1563,29.4219 54.3906,29.5469 Q53.6406,29.6719 52.625,29.6719 Q50.7031,29.6719 49.3906,28.875 Q48.0938,28.0625 47.4375,26.5938 Q46.7813,25.1094 46.7813,23.1406 Q46.7813,21.7188 47.1719,20.5469 Q47.5781,19.3594 48.3594,18.4844 Q49.1406,17.6094 50.2813,17.1406 Q51.4219,16.6563 52.8906,16.6563 Q53.8438,16.6563 54.7344,16.8594 Q55.6406,17.0469 56.5781,17.5156 L55.75,19.2969 Q54.9688,18.9219 54.3125,18.7344 Q53.6563,18.5313 52.8594,18.5313 Z " fill="#000000"/><text fill="#000000" font-family="sans-serif" font-size="14" lengthAdjust="spacing" textLength="88" x="73.25" y="28.432">LiquidExtract</text><line style="stroke:#181818;stroke-width:0.5;" x1="8" x2="194" y1="39" y2="39"/><ellipse cx="18" cy="54.034" fill="none" rx="3" ry="3" style="stroke:#038048;stroke-width:1.0;"/><text fill="#000000" font-family="sans-serif" font-size="14" lengthAdjust="spacing" textLength="56" x="27" y="57.9659">id : uuid</text><line style="stroke:#181818;stroke-width:1.0;" x1="8" x2="194" y1="66.0679" y2="66.0679"/><text fill="#000000" font-family="sans-serif" font-size="14" lengthAdjust="spacing" textLength="176" x="13" y="85.0339">total_IBU_per_kg : decimal</text><text fill="#000000" font-family="sans-serif" font-size="14" lengthAdjust="spacing" text-decoration="underline" textLength="128" x="13" y="127.1697">Fermentable : uuid</text><line style="stroke:#181818;stroke-width:1.0;stroke-dasharray:1.0,2.0;" x1="8" x2="73.5" y1="102.6698" y2="102.6698"/><text fill="#000000" font-family="sans-serif" font-size="14" lengthAdjust="spacing" textLength="55" x="73.5" y="107.6018">Relation</text><line style="stroke:#181818;stroke-width:1.0;stroke-dasharray:1.0,2.0;" x1="128.5" x2="194" y1="102.6698" y2="102.6698"/></g><!--SRC=[Iyv9B2vMKFB9B2pDJ76jA2bAJ2vHKaWiLa0HKQZcKW02RONC50KhXLAW19YlgmkcIl9B4dFYFPr2umjIY-Apqu5AKbAJCtCJSy3IUdf1gJc99PdvUNfwO87guX8WDxbMmIsrA3SrhoGnAISLPcmj5nS0]--></g></svg>