<?xml version="1.0" encoding="us-ascii" standalone="no"?><svg xmlns="http://www.w3.org/2000/svg" xmlns:xlink="http://www.w3.org/1999/xlink" contentStyleType="text/css" height="227px" preserveAspectRatio="none" style="width:145px;height:227px;background:#FFFFFF;" version="1.1" viewBox="0 0 145 227" width="145px" zoomAndPan="magnify"><defs/><g><!--class MashStepType--><g id="elem_MashStepType"><rect codeLine="1" fill="#F1F1F1" height="105.2038" id="MashStepType" rx="2.5" ry="2.5" style="stroke:#181818;stroke-width:0.5;" width="131" x="7" y="115"/><ellipse cx="22" cy="131" fill="#EB937F" rx="11" ry="11" style="stroke:#181818;stroke-width:1.0;"/><path d="M25.4688,137.5 L18.1563,137.5 L18.1563,124.8281 L25.4688,124.8281 L25.4688,126.7031 L20.2031,126.7031 L20.2031,129.9688 L25.1563,129.9688 L25.1563,131.8281 L20.2031,131.8281 L20.2031,135.625 L25.4688,135.625 L25.4688,137.5 Z " fill="#000000"/><text fill="#000000" font-family="sans-serif" font-size="14" lengthAdjust="spacing" textLength="99" x="36" y="136.432">MashStepType</text><line style="stroke:#181818;stroke-width:0.5;" x1="8" x2="137" y1="147" y2="147"/><text fill="#000000" font-family="sans-serif" font-size="14" lengthAdjust="spacing" textLength="56" x="13" y="165.9659">Infusion</text><text fill="#000000" font-family="sans-serif" font-size="14" lengthAdjust="spacing" textLength="88" x="13" y="185.0339">Temperature</text><text fill="#000000" font-family="sans-serif" font-size="14" lengthAdjust="spacing" textLength="66" x="13" y="204.1018">Decoction</text><line style="stroke:#181818;stroke-width:0.5;" x1="8" x2="137" y1="212.2038" y2="212.2038"/></g><!--class MashStep--><g id="elem_MashStep"><rect fill="#F1F1F1" height="48" id="MashStep" rx="2.5" ry="2.5" style="stroke:#181818;stroke-width:0.5;" width="99" x="23" y="7"/><ellipse cx="38" cy="23" fill="#ADD1B2" rx="11" ry="11" style="stroke:#181818;stroke-width:1.0;"/><path d="M38.1094,18.5313 Q37.1875,18.5313 36.4531,18.8438 Q35.7344,19.1563 35.2344,19.75 Q34.7344,20.3281 34.4531,21.2031 Q34.1875,22.0781 34.1875,23.1719 Q34.1875,24.6094 34.625,25.6563 Q35.0781,26.7031 35.9219,27.25 Q36.7813,27.7969 38.0938,27.7969 Q38.875,27.7969 39.5625,27.6719 Q40.2656,27.5313 41.2656,27.2188 L41.2656,29.0938 Q40.4063,29.4219 39.6406,29.5469 Q38.8906,29.6719 37.875,29.6719 Q35.9531,29.6719 34.6406,28.875 Q33.3438,28.0625 32.6875,26.5938 Q32.0313,25.1094 32.0313,23.1406 Q32.0313,21.7188 32.4219,20.5469 Q32.8281,19.3594 33.6094,18.4844 Q34.3906,17.6094 35.5313,17.1406 Q36.6719,16.6563 38.1406,16.6563 Q39.0938,16.6563 39.9844,16.8594 Q40.8906,17.0469 41.8281,17.5156 L41,19.2969 Q40.2188,18.9219 39.5625,18.7344 Q38.9063,18.5313 38.1094,18.5313 Z " fill="#000000"/><text fill="#000000" font-family="sans-serif" font-size="14" lengthAdjust="spacing" textLength="67" x="52" y="28.432">MashStep</text><line style="stroke:#181818;stroke-width:0.5;" x1="24" x2="121" y1="39" y2="39"/><line style="stroke:#181818;stroke-width:0.5;" x1="24" x2="121" y1="47" y2="47"/></g><!--link MashStep to MashStepType--><g id="link_MashStep_MashStepType"><path codeLine="6" d="M72.5,55.44 C72.5,71.79 72.5,94.24 72.5,114.7 " fill="none" id="MashStep-MashStepType" style="stroke:#181818;stroke-width:1.0;"/></g><!--SRC=[SyqhpLLGyaqipWWkIIq8gIn8LLAevb800i-yjDBYpFmyC2SaDRSWjIYnfBGe5SntIKtEJou1oTPomJGhwEeg81i40000]--></g></svg>