<?xml version="1.0" encoding="us-ascii" standalone="no"?><svg xmlns="http://www.w3.org/2000/svg" xmlns:xlink="http://www.w3.org/1999/xlink" contentStyleType="text/css" height="126px" preserveAspectRatio="none" style="width:224px;height:126px;background:#FFFFFF;" version="1.1" viewBox="0 0 224 126" width="224px" zoomAndPan="magnify"><defs/><g><!--class MashProfile--><g id="elem_MashProfile"><rect codeLine="1" fill="#F1F1F1" height="105.2038" id="MashProfile" rx="2.5" ry="2.5" style="stroke:#181818;stroke-width:0.5;" width="203" x="7" y="7"/><ellipse cx="64.25" cy="23" fill="#ADD1B2" rx="11" ry="11" style="stroke:#181818;stroke-width:1.0;"/><path d="M64.3594,18.5313 Q63.4375,18.5313 62.7031,18.8438 Q61.9844,19.1563 61.4844,19.75 Q60.9844,20.3281 60.7031,21.2031 Q60.4375,22.0781 60.4375,23.1719 Q60.4375,24.6094 60.875,25.6563 Q61.3281,26.7031 62.1719,27.25 Q63.0313,27.7969 64.3438,27.7969 Q65.125,27.7969 65.8125,27.6719 Q66.5156,27.5313 67.5156,27.2188 L67.5156,29.0938 Q66.6563,29.4219 65.8906,29.5469 Q65.1406,29.6719 64.125,29.6719 Q62.2031,29.6719 60.8906,28.875 Q59.5938,28.0625 58.9375,26.5938 Q58.2813,25.1094 58.2813,23.1406 Q58.2813,21.7188 58.6719,20.5469 Q59.0781,19.3594 59.8594,18.4844 Q60.6406,17.6094 61.7813,17.1406 Q62.9219,16.6563 64.3906,16.6563 Q65.3438,16.6563 66.2344,16.8594 Q67.1406,17.0469 68.0781,17.5156 L67.25,19.2969 Q66.4688,18.9219 65.8125,18.7344 Q65.1563,18.5313 64.3594,18.5313 Z " fill="#000000"/><text fill="#000000" font-family="sans-serif" font-size="14" lengthAdjust="spacing" textLength="80" x="84.75" y="28.432">MashProfile</text><line style="stroke:#181818;stroke-width:0.5;" x1="8" x2="209" y1="39" y2="39"/><ellipse cx="18" cy="54.034" fill="none" rx="3" ry="3" style="stroke:#038048;stroke-width:1.0;"/><text fill="#000000" font-family="sans-serif" font-size="14" lengthAdjust="spacing" textLength="56" x="27" y="57.9659">id : uuid</text><line style="stroke:#181818;stroke-width:1.0;" x1="8" x2="209" y1="66.0679" y2="66.0679"/><text fill="#000000" font-family="sans-serif" font-size="14" lengthAdjust="spacing" textLength="90" x="13" y="85.0339">name : string</text><text fill="#000000" font-family="sans-serif" font-size="14" lengthAdjust="spacing" textLength="191" x="13" y="104.1018">mash_steps : List[MashStep]</text></g><!--SRC=[Iyv9B2vMKF9DBCu8ACfFoyn9LL98B5P0uYjKSoa0WRP2Peg2bK9fQMOAcA-h2wRo4dDJWSB59KMPUUbWaLoWrlZYajI2Og2uJsPnIJJ8i62WGAm2Cj1N1zkY0981cQskprNBnSK50000]--></g></svg>