<?xml version="1.0" encoding="us-ascii" standalone="no"?><svg xmlns="http://www.w3.org/2000/svg" xmlns:xlink="http://www.w3.org/1999/xlink" contentStyleType="text/css" height="265px" preserveAspectRatio="none" style="width:275px;height:265px;background:#FFFFFF;" version="1.1" viewBox="0 0 275 265" width="275px" zoomAndPan="magnify"><defs/><g><!--class Mash_Sparge_Water_Calc_Method--><g id="elem_Mash_Sparge_Water_Calc_Method"><rect codeLine="1" fill="#F1F1F1" height="143.3396" id="Mash_Sparge_Water_Calc_Method" rx="2.5" ry="2.5" style="stroke:#181818;stroke-width:0.5;" width="261" x="7" y="115"/><ellipse cx="22" cy="131" fill="#EB937F" rx="11" ry="11" style="stroke:#181818;stroke-width:1.0;"/><path d="M25.4688,137.5 L18.1563,137.5 L18.1563,124.8281 L25.4688,124.8281 L25.4688,126.7031 L20.2031,126.7031 L20.2031,129.9688 L25.1563,129.9688 L25.1563,131.8281 L20.2031,131.8281 L20.2031,135.625 L25.4688,135.625 L25.4688,137.5 Z " fill="#000000"/><text fill="#000000" font-family="sans-serif" font-size="14" lengthAdjust="spacing" textLength="229" x="36" y="136.432">Mash_Sparge_Water_Calc_Method</text><line style="stroke:#181818;stroke-width:0.5;" x1="8" x2="267" y1="147" y2="147"/><text fill="#000000" font-family="sans-serif" font-size="14" lengthAdjust="spacing" textLength="49" x="13" y="165.9659">Default</text><text fill="#000000" font-family="sans-serif" font-size="14" lengthAdjust="spacing" textLength="92" x="13" y="185.0339">Batch_Sparge</text><text fill="#000000" font-family="sans-serif" font-size="14" lengthAdjust="spacing" textLength="73" x="13" y="204.1018">No_Sparge</text><text fill="#000000" font-family="sans-serif" font-size="14" lengthAdjust="spacing" textLength="151" x="13" y="223.1697">Ignore_Boil_Expansion</text><text fill="#000000" font-family="sans-serif" font-size="14" lengthAdjust="spacing" textLength="51" x="13" y="242.2376">Custom</text><line style="stroke:#181818;stroke-width:0.5;" x1="8" x2="267" y1="250.3396" y2="250.3396"/></g><!--class Mash_Sparge_Water--><g id="elem_Mash_Sparge_Water"><rect fill="#F1F1F1" height="48" id="Mash_Sparge_Water" rx="2.5" ry="2.5" style="stroke:#181818;stroke-width:0.5;" width="169" x="53" y="7"/><ellipse cx="68" cy="23" fill="#ADD1B2" rx="11" ry="11" style="stroke:#181818;stroke-width:1.0;"/><path d="M68.1094,18.5313 Q67.1875,18.5313 66.4531,18.8438 Q65.7344,19.1563 65.2344,19.75 Q64.7344,20.3281 64.4531,21.2031 Q64.1875,22.0781 64.1875,23.1719 Q64.1875,24.6094 64.625,25.6563 Q65.0781,26.7031 65.9219,27.25 Q66.7813,27.7969 68.0938,27.7969 Q68.875,27.7969 69.5625,27.6719 Q70.2656,27.5313 71.2656,27.2188 L71.2656,29.0938 Q70.4063,29.4219 69.6406,29.5469 Q68.8906,29.6719 67.875,29.6719 Q65.9531,29.6719 64.6406,28.875 Q63.3438,28.0625 62.6875,26.5938 Q62.0313,25.1094 62.0313,23.1406 Q62.0313,21.7188 62.4219,20.5469 Q62.8281,19.3594 63.6094,18.4844 Q64.3906,17.6094 65.5313,17.1406 Q66.6719,16.6563 68.1406,16.6563 Q69.0938,16.6563 69.9844,16.8594 Q70.8906,17.0469 71.8281,17.5156 L71,19.2969 Q70.2188,18.9219 69.5625,18.7344 Q68.9063,18.5313 68.1094,18.5313 Z " fill="#000000"/><text fill="#000000" font-family="sans-serif" font-size="14" lengthAdjust="spacing" textLength="137" x="82" y="28.432">Mash_Sparge_Water</text><line style="stroke:#181818;stroke-width:0.5;" x1="54" x2="221" y1="39" y2="39"/><line style="stroke:#181818;stroke-width:0.5;" x1="54" x2="221" y1="47" y2="47"/></g><!--link Mash_Sparge_Water to Mash_Sparge_Water_Calc_Method--><g id="link_Mash_Sparge_Water_Mash_Sparge_Water_Calc_Method"><path codeLine="8" d="M137.5,55.34 C137.5,71.29 137.5,93.35 137.5,114.79 " fill="none" id="Mash_Sparge_Water-Mash_Sparge_Water_Calc_Method" style="stroke:#181818;stroke-width:1.0;"/></g><!--SRC=[IyqhpLLGyaqipeWFBaWiIa-D3qyiIIsATqxCIOxtJIt9o4zHKgZcKW02bzIqnDAS4Z3RAR4a6QO3BE2NZyppJC_BBqgDTyhFp8bthIX8p2lEpCy3opYN5fVavtBLSc5OgQ2hgu3N7Lm0]--></g></svg>