<?xml version="1.0" encoding="us-ascii" standalone="no"?><svg xmlns="http://www.w3.org/2000/svg" xmlns:xlink="http://www.w3.org/1999/xlink" contentStyleType="text/css" height="303px" preserveAspectRatio="none" style="width:102px;height:303px;background:#FFFFFF;" version="1.1" viewBox="0 0 102 303" width="102px" zoomAndPan="magnify"><defs/><g><!--class MiscUse--><g id="elem_MiscUse"><rect codeLine="1" fill="#F1F1F1" height="181.4754" id="MiscUse" rx="2.5" ry="2.5" style="stroke:#181818;stroke-width:0.5;" width="88" x="7" y="115"/><ellipse cx="22" cy="131" fill="#EB937F" rx="11" ry="11" style="stroke:#181818;stroke-width:1.0;"/><path d="M25.4688,137.5 L18.1563,137.5 L18.1563,124.8281 L25.4688,124.8281 L25.4688,126.7031 L20.2031,126.7031 L20.2031,129.9688 L25.1563,129.9688 L25.1563,131.8281 L20.2031,131.8281 L20.2031,135.625 L25.4688,135.625 L25.4688,137.5 Z " fill="#000000"/><text fill="#000000" font-family="sans-serif" font-size="14" lengthAdjust="spacing" textLength="56" x="36" y="136.432">MiscUse</text><line style="stroke:#181818;stroke-width:0.5;" x1="8" x2="94" y1="147" y2="147"/><text fill="#000000" font-family="sans-serif" font-size="14" lengthAdjust="spacing" textLength="37" x="13" y="165.9659">Mash</text><text fill="#000000" font-family="sans-serif" font-size="14" lengthAdjust="spacing" textLength="48" x="13" y="185.0339">Sparge</text><text fill="#000000" font-family="sans-serif" font-size="14" lengthAdjust="spacing" textLength="25" x="13" y="204.1018">Boil</text><text fill="#000000" font-family="sans-serif" font-size="14" lengthAdjust="spacing" textLength="62" x="13" y="223.1697">Flameout</text><text fill="#000000" font-family="sans-serif" font-size="14" lengthAdjust="spacing" textLength="52" x="13" y="242.2376">Primary</text><text fill="#000000" font-family="sans-serif" font-size="14" lengthAdjust="spacing" textLength="70" x="13" y="261.3055">Secondary</text><text fill="#000000" font-family="sans-serif" font-size="14" lengthAdjust="spacing" textLength="53" x="13" y="280.3734">Bottling</text><line style="stroke:#181818;stroke-width:0.5;" x1="8" x2="94" y1="288.4754" y2="288.4754"/></g><!--class Misc--><g id="elem_Misc"><rect fill="#F1F1F1" height="48" id="Misc" rx="2.5" ry="2.5" style="stroke:#181818;stroke-width:0.5;" width="63" x="19.5" y="7"/><ellipse cx="34.5" cy="23" fill="#ADD1B2" rx="11" ry="11" style="stroke:#181818;stroke-width:1.0;"/><path d="M34.6094,18.5313 Q33.6875,18.5313 32.9531,18.8438 Q32.2344,19.1563 31.7344,19.75 Q31.2344,20.3281 30.9531,21.2031 Q30.6875,22.0781 30.6875,23.1719 Q30.6875,24.6094 31.125,25.6563 Q31.5781,26.7031 32.4219,27.25 Q33.2813,27.7969 34.5938,27.7969 Q35.375,27.7969 36.0625,27.6719 Q36.7656,27.5313 37.7656,27.2188 L37.7656,29.0938 Q36.9063,29.4219 36.1406,29.5469 Q35.3906,29.6719 34.375,29.6719 Q32.4531,29.6719 31.1406,28.875 Q29.8438,28.0625 29.1875,26.5938 Q28.5313,25.1094 28.5313,23.1406 Q28.5313,21.7188 28.9219,20.5469 Q29.3281,19.3594 30.1094,18.4844 Q30.8906,17.6094 32.0313,17.1406 Q33.1719,16.6563 34.6406,16.6563 Q35.5938,16.6563 36.4844,16.8594 Q37.3906,17.0469 38.3281,17.5156 L37.5,19.2969 Q36.7188,18.9219 36.0625,18.7344 Q35.4063,18.5313 34.6094,18.5313 Z " fill="#000000"/><text fill="#000000" font-family="sans-serif" font-size="14" lengthAdjust="spacing" textLength="31" x="48.5" y="28.432">Misc</text><line style="stroke:#181818;stroke-width:0.5;" x1="20.5" x2="81.5" y1="39" y2="39"/><line style="stroke:#181818;stroke-width:0.5;" x1="20.5" x2="81.5" y1="47" y2="47"/></g><!--link Misc to MiscUse--><g id="link_Misc_MiscUse"><path codeLine="11" d="M51,55.3 C51,70.96 51,92.69 51,114.74 " fill="none" id="Misc-MiscUse" style="stroke:#181818;stroke-width:1.0;"/></g><!--SRC=[SyqhpLLGyiqiJWujJbLIgEPI00BVnE8CC2Eu8B4eFHNCTChFp04pt78ISrFpIql0d82YpDp4eag8ujJa_BmK6CyflwGa9pCldQkMYmjal8AkhWBK6W00]--></g></svg>