<?xml version="1.0" encoding="us-ascii" standalone="no"?><svg xmlns="http://www.w3.org/2000/svg" xmlns:xlink="http://www.w3.org/1999/xlink" contentStyleType="text/css" height="475px" preserveAspectRatio="none" style="width:105px;height:475px;background:#FFFFFF;" version="1.1" viewBox="0 0 105 475" width="105px" zoomAndPan="magnify"><defs/><g><!--class MiscUnit--><g id="elem_MiscUnit"><rect codeLine="1" fill="#F1F1F1" height="353.0867" id="MiscUnit" rx="2.5" ry="2.5" style="stroke:#181818;stroke-width:0.5;" width="91" x="7" y="115"/><ellipse cx="22" cy="131" fill="#EB937F" rx="11" ry="11" style="stroke:#181818;stroke-width:1.0;"/><path d="M25.4688,137.5 L18.1563,137.5 L18.1563,124.8281 L25.4688,124.8281 L25.4688,126.7031 L20.2031,126.7031 L20.2031,129.9688 L25.1563,129.9688 L25.1563,131.8281 L20.2031,131.8281 L20.2031,135.625 L25.4688,135.625 L25.4688,137.5 Z " fill="#000000"/><text fill="#000000" font-family="sans-serif" font-size="14" lengthAdjust="spacing" textLength="59" x="36" y="136.432">MiscUnit</text><line style="stroke:#181818;stroke-width:0.5;" x1="8" x2="97" y1="147" y2="147"/><text fill="#000000" font-family="sans-serif" font-size="14" lengthAdjust="spacing" textLength="9" x="13" y="165.9659">g</text><text fill="#000000" font-family="sans-serif" font-size="14" lengthAdjust="spacing" textLength="22" x="13" y="185.0339">mg</text><text fill="#000000" font-family="sans-serif" font-size="14" lengthAdjust="spacing" textLength="16" x="13" y="204.1018">kg</text><text fill="#000000" font-family="sans-serif" font-size="14" lengthAdjust="spacing" textLength="17" x="13" y="223.1697">ml</text><text fill="#000000" font-family="sans-serif" font-size="14" lengthAdjust="spacing" textLength="4" x="13" y="242.2376">l</text><text fill="#000000" font-family="sans-serif" font-size="14" lengthAdjust="spacing" textLength="25" x="13" y="261.3055">pkg</text><text fill="#000000" font-family="sans-serif" font-size="14" lengthAdjust="spacing" textLength="37" x="13" y="280.3734">items</text><text fill="#000000" font-family="sans-serif" font-size="14" lengthAdjust="spacing" textLength="39" x="13" y="299.4414">drops</text><text fill="#000000" font-family="sans-serif" font-size="14" lengthAdjust="spacing" textLength="21" x="13" y="318.5093">tsp</text><text fill="#000000" font-family="sans-serif" font-size="14" lengthAdjust="spacing" textLength="30" x="13" y="337.5772">tbsp</text><text fill="#000000" font-family="sans-serif" font-size="14" lengthAdjust="spacing" textLength="25" x="13" y="356.6451">cup</text><text fill="#000000" font-family="sans-serif" font-size="14" lengthAdjust="spacing" textLength="14" x="13" y="375.713">pt</text><text fill="#000000" font-family="sans-serif" font-size="14" lengthAdjust="spacing" textLength="14" x="13" y="394.7809">qt</text><text fill="#000000" font-family="sans-serif" font-size="14" lengthAdjust="spacing" textLength="15" x="13" y="413.8489">oz</text><text fill="#000000" font-family="sans-serif" font-size="14" lengthAdjust="spacing" textLength="13" x="13" y="432.9168">lb</text><text fill="#000000" font-family="sans-serif" font-size="14" lengthAdjust="spacing" textLength="21" x="13" y="451.9847">gal</text><line style="stroke:#181818;stroke-width:0.5;" x1="8" x2="97" y1="460.0867" y2="460.0867"/></g><!--class Misc--><g id="elem_Misc"><rect fill="#F1F1F1" height="48" id="Misc" rx="2.5" ry="2.5" style="stroke:#181818;stroke-width:0.5;" width="63" x="21" y="7"/><ellipse cx="36" cy="23" fill="#ADD1B2" rx="11" ry="11" style="stroke:#181818;stroke-width:1.0;"/><path d="M36.1094,18.5313 Q35.1875,18.5313 34.4531,18.8438 Q33.7344,19.1563 33.2344,19.75 Q32.7344,20.3281 32.4531,21.2031 Q32.1875,22.0781 32.1875,23.1719 Q32.1875,24.6094 32.625,25.6563 Q33.0781,26.7031 33.9219,27.25 Q34.7813,27.7969 36.0938,27.7969 Q36.875,27.7969 37.5625,27.6719 Q38.2656,27.5313 39.2656,27.2188 L39.2656,29.0938 Q38.4063,29.4219 37.6406,29.5469 Q36.8906,29.6719 35.875,29.6719 Q33.9531,29.6719 32.6406,28.875 Q31.3438,28.0625 30.6875,26.5938 Q30.0313,25.1094 30.0313,23.1406 Q30.0313,21.7188 30.4219,20.5469 Q30.8281,19.3594 31.6094,18.4844 Q32.3906,17.6094 33.5313,17.1406 Q34.6719,16.6563 36.1406,16.6563 Q37.0938,16.6563 37.9844,16.8594 Q38.8906,17.0469 39.8281,17.5156 L39,19.2969 Q38.2188,18.9219 37.5625,18.7344 Q36.9063,18.5313 36.1094,18.5313 Z " fill="#000000"/><text fill="#000000" font-family="sans-serif" font-size="14" lengthAdjust="spacing" textLength="31" x="50" y="28.432">Misc</text><line style="stroke:#181818;stroke-width:0.5;" x1="22" x2="83" y1="39" y2="39"/><line style="stroke:#181818;stroke-width:0.5;" x1="22" x2="83" y1="47" y2="47"/></g><!--link Misc to MiscUnit--><g id="link_Misc_MiscUnit"><path codeLine="20" d="M52.5,55.4 C52.5,70.38 52.5,91.33 52.5,114.62 " fill="none" id="Misc-MiscUnit" style="stroke:#181818;stroke-width:1.0;"/></g><!--SRC=[SyqhpLLGyiqiJWxDoonHKgZcKW22T32P2w6oeRmSC0KX2w22cIMfkSLWLafHVW64LL9S0A6Je8paKWXTK0Ac2Y5KVXN4l2I8ZOavNBLSN227AEZgAi0S1000]--></g></svg>