<?xml version="1.0" encoding="us-ascii" standalone="no"?><svg xmlns="http://www.w3.org/2000/svg" xmlns:xlink="http://www.w3.org/1999/xlink" contentStyleType="text/css" height="284px" preserveAspectRatio="none" style="width:112px;height:284px;background:#FFFFFF;" version="1.1" viewBox="0 0 112 284" width="112px" zoomAndPan="magnify"><defs/><g><!--class MiscType--><g id="elem_MiscType"><rect codeLine="1" fill="#F1F1F1" height="162.4075" id="MiscType" rx="2.5" ry="2.5" style="stroke:#181818;stroke-width:0.5;" width="98" x="7" y="115"/><ellipse cx="23.35" cy="131" fill="#EB937F" rx="11" ry="11" style="stroke:#181818;stroke-width:1.0;"/><path d="M26.8188,137.5 L19.5063,137.5 L19.5063,124.8281 L26.8188,124.8281 L26.8188,126.7031 L21.5531,126.7031 L21.5531,129.9688 L26.5063,129.9688 L26.5063,131.8281 L21.5531,131.8281 L21.5531,135.625 L26.8188,135.625 L26.8188,137.5 Z " fill="#000000"/><text fill="#000000" font-family="sans-serif" font-size="14" lengthAdjust="spacing" textLength="63" x="37.65" y="136.432">MiscType</text><line style="stroke:#181818;stroke-width:0.5;" x1="8" x2="104" y1="147" y2="147"/><text fill="#000000" font-family="sans-serif" font-size="14" lengthAdjust="spacing" textLength="36" x="13" y="165.9659">Spice</text><text fill="#000000" font-family="sans-serif" font-size="14" lengthAdjust="spacing" textLength="42" x="13" y="185.0339">Fining</text><text fill="#000000" font-family="sans-serif" font-size="14" lengthAdjust="spacing" textLength="86" x="13" y="204.1018">Water_Agent</text><text fill="#000000" font-family="sans-serif" font-size="14" lengthAdjust="spacing" textLength="33" x="13" y="223.1697">Herb</text><text fill="#000000" font-family="sans-serif" font-size="14" lengthAdjust="spacing" textLength="40" x="13" y="242.2376">Flavor</text><text fill="#000000" font-family="sans-serif" font-size="14" lengthAdjust="spacing" textLength="39" x="13" y="261.3055">Other</text><line style="stroke:#181818;stroke-width:0.5;" x1="8" x2="104" y1="269.4075" y2="269.4075"/></g><!--class Misc--><g id="elem_Misc"><rect fill="#F1F1F1" height="48" id="Misc" rx="2.5" ry="2.5" style="stroke:#181818;stroke-width:0.5;" width="63" x="24.5" y="7"/><ellipse cx="39.5" cy="23" fill="#ADD1B2" rx="11" ry="11" style="stroke:#181818;stroke-width:1.0;"/><path d="M39.6094,18.5313 Q38.6875,18.5313 37.9531,18.8438 Q37.2344,19.1563 36.7344,19.75 Q36.2344,20.3281 35.9531,21.2031 Q35.6875,22.0781 35.6875,23.1719 Q35.6875,24.6094 36.125,25.6563 Q36.5781,26.7031 37.4219,27.25 Q38.2813,27.7969 39.5938,27.7969 Q40.375,27.7969 41.0625,27.6719 Q41.7656,27.5313 42.7656,27.2188 L42.7656,29.0938 Q41.9063,29.4219 41.1406,29.5469 Q40.3906,29.6719 39.375,29.6719 Q37.4531,29.6719 36.1406,28.875 Q34.8438,28.0625 34.1875,26.5938 Q33.5313,25.1094 33.5313,23.1406 Q33.5313,21.7188 33.9219,20.5469 Q34.3281,19.3594 35.1094,18.4844 Q35.8906,17.6094 37.0313,17.1406 Q38.1719,16.6563 39.6406,16.6563 Q40.5938,16.6563 41.4844,16.8594 Q42.3906,17.0469 43.3281,17.5156 L42.5,19.2969 Q41.7188,18.9219 41.0625,18.7344 Q40.4063,18.5313 39.6094,18.5313 Z " fill="#000000"/><text fill="#000000" font-family="sans-serif" font-size="14" lengthAdjust="spacing" textLength="31" x="53.5" y="28.432">Misc</text><line style="stroke:#181818;stroke-width:0.5;" x1="25.5" x2="86.5" y1="39" y2="39"/><line style="stroke:#181818;stroke-width:0.5;" x1="25.5" x2="86.5" y1="47" y2="47"/></g><!--link Misc to MiscType--><g id="link_Misc_MiscType"><path codeLine="10" d="M56,55.39 C56,71.16 56,93 56,114.73 " fill="none" id="Misc-MiscType" style="stroke:#181818;stroke-width:1.0;"/></g><!--SRC=[SyqhpLLGyiqiJWwfB4XLKgZcKW22u8BCv5GmooqpBpCl7SmCJon9BOftJ4_DAm7pFLABaY1gSXBByel0JF-IZDGYhbekBf292hgw2Z2J0G00]--></g></svg>