<?xml version="1.0" encoding="us-ascii" standalone="no"?><svg xmlns="http://www.w3.org/2000/svg" xmlns:xlink="http://www.w3.org/1999/xlink" contentStyleType="text/css" height="149px" preserveAspectRatio="none" style="width:209px;height:149px;background:#FFFFFF;" version="1.1" viewBox="0 0 209 149" width="209px" zoomAndPan="magnify"><defs/><g><!--class Other--><g id="elem_Other"><rect codeLine="1" fill="#F1F1F1" height="128.2717" id="Other" rx="2.5" ry="2.5" style="stroke:#181818;stroke-width:0.5;" width="188" x="7" y="7"/><ellipse cx="77.25" cy="23" fill="#ADD1B2" rx="11" ry="11" style="stroke:#181818;stroke-width:1.0;"/><path d="M77.3594,18.5313 Q76.4375,18.5313 75.7031,18.8438 Q74.9844,19.1563 74.4844,19.75 Q73.9844,20.3281 73.7031,21.2031 Q73.4375,22.0781 73.4375,23.1719 Q73.4375,24.6094 73.875,25.6563 Q74.3281,26.7031 75.1719,27.25 Q76.0313,27.7969 77.3438,27.7969 Q78.125,27.7969 78.8125,27.6719 Q79.5156,27.5313 80.5156,27.2188 L80.5156,29.0938 Q79.6563,29.4219 78.8906,29.5469 Q78.1406,29.6719 77.125,29.6719 Q75.2031,29.6719 73.8906,28.875 Q72.5938,28.0625 71.9375,26.5938 Q71.2813,25.1094 71.2813,23.1406 Q71.2813,21.7188 71.6719,20.5469 Q72.0781,19.3594 72.8594,18.4844 Q73.6406,17.6094 74.7813,17.1406 Q75.9219,16.6563 77.3906,16.6563 Q78.3438,16.6563 79.2344,16.8594 Q80.1406,17.0469 81.0781,17.5156 L80.25,19.2969 Q79.4688,18.9219 78.8125,18.7344 Q78.1563,18.5313 77.3594,18.5313 Z " fill="#000000"/><text fill="#000000" font-family="sans-serif" font-size="14" lengthAdjust="spacing" textLength="39" x="97.75" y="28.432">Other</text><line style="stroke:#181818;stroke-width:0.5;" x1="8" x2="194" y1="39" y2="39"/><ellipse cx="18" cy="54.034" fill="none" rx="3" ry="3" style="stroke:#038048;stroke-width:1.0;"/><text fill="#000000" font-family="sans-serif" font-size="14" lengthAdjust="spacing" textLength="56" x="27" y="57.9659">id : uuid</text><line style="stroke:#181818;stroke-width:1.0;" x1="8" x2="194" y1="66.0679" y2="66.0679"/><text fill="#000000" font-family="sans-serif" font-size="14" lengthAdjust="spacing" textLength="176" x="13" y="85.0339">total_IBU_per_kg : decimal</text><text fill="#000000" font-family="sans-serif" font-size="14" lengthAdjust="spacing" text-decoration="underline" textLength="128" x="13" y="127.1697">Fermentable : uuid</text><line style="stroke:#181818;stroke-width:1.0;stroke-dasharray:1.0,2.0;" x1="8" x2="73.5" y1="102.6698" y2="102.6698"/><text fill="#000000" font-family="sans-serif" font-size="14" lengthAdjust="spacing" textLength="55" x="73.5" y="107.6018">Relation</text><line style="stroke:#181818;stroke-width:1.0;stroke-dasharray:1.0,2.0;" x1="128.5" x2="194" y1="102.6698" y2="102.6698"/></g><!--SRC=[Iyv9B2vMKF8loKWjKb98B5O0inIgkHI0G5iXCqN1Ig6qD3C5pDVL1LCb-IM9EV6UJg7n1Qb5yTdfG2KfgScPkOavO6azlQ3KdCIIpFmyFJsmG7Ln2P2RNAlWbbgKcvfNafYKamepjfQB2m00]--></g></svg>