<?xml version="1.0" encoding="us-ascii" standalone="no"?><svg xmlns="http://www.w3.org/2000/svg" xmlns:xlink="http://www.w3.org/1999/xlink" contentStyleType="text/css" height="208px" preserveAspectRatio="none" style="width:188px;height:208px;background:#FFFFFF;" version="1.1" viewBox="0 0 188 208" width="188px" zoomAndPan="magnify"><defs/><g><!--class Sparge_Temperature--><g id="elem_Sparge_Temperature"><rect codeLine="2" fill="#F1F1F1" height="86.1358" id="Sparge_Temperature" rx="2.5" ry="2.5" style="stroke:#181818;stroke-width:0.5;" width="174" x="7" y="115"/><ellipse cx="22" cy="131" fill="#ADD1B2" rx="11" ry="11" style="stroke:#181818;stroke-width:1.0;"/><path d="M22.1094,126.5313 Q21.1875,126.5313 20.4531,126.8438 Q19.7344,127.1563 19.2344,127.75 Q18.7344,128.3281 18.4531,129.2031 Q18.1875,130.0781 18.1875,131.1719 Q18.1875,132.6094 18.625,133.6563 Q19.0781,134.7031 19.9219,135.25 Q20.7813,135.7969 22.0938,135.7969 Q22.875,135.7969 23.5625,135.6719 Q24.2656,135.5313 25.2656,135.2188 L25.2656,137.0938 Q24.4063,137.4219 23.6406,137.5469 Q22.8906,137.6719 21.875,137.6719 Q19.9531,137.6719 18.6406,136.875 Q17.3438,136.0625 16.6875,134.5938 Q16.0313,133.1094 16.0313,131.1406 Q16.0313,129.7188 16.4219,128.5469 Q16.8281,127.3594 17.6094,126.4844 Q18.3906,125.6094 19.5313,125.1406 Q20.6719,124.6563 22.1406,124.6563 Q23.0938,124.6563 23.9844,124.8594 Q24.8906,125.0469 25.8281,125.5156 L25,127.2969 Q24.2188,126.9219 23.5625,126.7344 Q22.9063,126.5313 22.1094,126.5313 Z " fill="#000000"/><text fill="#000000" font-family="sans-serif" font-size="14" lengthAdjust="spacing" textLength="142" x="36" y="136.432">Sparge_Temperature</text><line style="stroke:#181818;stroke-width:0.5;" x1="8" x2="180" y1="147" y2="147"/><ellipse cx="18" cy="162.034" fill="none" rx="3" ry="3" style="stroke:#038048;stroke-width:1.0;"/><text fill="#000000" font-family="sans-serif" font-size="14" lengthAdjust="spacing" textLength="56" x="27" y="165.9659">id : uuid</text><line style="stroke:#181818;stroke-width:1.0;" x1="8" x2="180" y1="174.0679" y2="174.0679"/><text fill="#000000" font-family="sans-serif" font-size="14" lengthAdjust="spacing" textLength="153" x="13" y="193.0339">sparge_temp : decimal</text></g><!--class EquipmentProfile--><g id="elem_EquipmentProfile"><rect fill="#F1F1F1" height="48" id="EquipmentProfile" rx="2.5" ry="2.5" style="stroke:#181818;stroke-width:0.5;" width="149" x="19.5" y="7"/><ellipse cx="34.5" cy="23" fill="#ADD1B2" rx="11" ry="11" style="stroke:#181818;stroke-width:1.0;"/><path d="M34.6094,18.5313 Q33.6875,18.5313 32.9531,18.8438 Q32.2344,19.1563 31.7344,19.75 Q31.2344,20.3281 30.9531,21.2031 Q30.6875,22.0781 30.6875,23.1719 Q30.6875,24.6094 31.125,25.6563 Q31.5781,26.7031 32.4219,27.25 Q33.2813,27.7969 34.5938,27.7969 Q35.375,27.7969 36.0625,27.6719 Q36.7656,27.5313 37.7656,27.2188 L37.7656,29.0938 Q36.9063,29.4219 36.1406,29.5469 Q35.3906,29.6719 34.375,29.6719 Q32.4531,29.6719 31.1406,28.875 Q29.8438,28.0625 29.1875,26.5938 Q28.5313,25.1094 28.5313,23.1406 Q28.5313,21.7188 28.9219,20.5469 Q29.3281,19.3594 30.1094,18.4844 Q30.8906,17.6094 32.0313,17.1406 Q33.1719,16.6563 34.6406,16.6563 Q35.5938,16.6563 36.4844,16.8594 Q37.3906,17.0469 38.3281,17.5156 L37.5,19.2969 Q36.7188,18.9219 36.0625,18.7344 Q35.4063,18.5313 34.6094,18.5313 Z " fill="#000000"/><text fill="#000000" font-family="sans-serif" font-size="14" lengthAdjust="spacing" textLength="117" x="48.5" y="28.432">EquipmentProfile</text><line style="stroke:#181818;stroke-width:0.5;" x1="20.5" x2="167.5" y1="39" y2="39"/><line style="stroke:#181818;stroke-width:0.5;" x1="20.5" x2="167.5" y1="47" y2="47"/></g><!--link EquipmentProfile to Sparge_Temperature--><g id="link_EquipmentProfile_Sparge_Temperature"><path codeLine="8" d="M94,55.24 C94,71.91 94,94.85 94,114.73 " fill="none" id="EquipmentProfile-Sparge_Temperature" style="stroke:#181818;stroke-width:1.0;"/></g><!--SRC=[RKmv2e0m4Ept5KjQoGVixGNjPKbMMKWqvgZ4lnjYgTCCSnf7AQ6Q0iMDbvbzu4YvH5P82RysNe0L7Oh57aiHsxJMZTBRpxLVKyj6F3cu0OQpIF2yvp4UgpYkWv_p1m00]--></g></svg>