<?xml version="1.0" encoding="us-ascii" standalone="no"?><svg xmlns="http://www.w3.org/2000/svg" xmlns:xlink="http://www.w3.org/1999/xlink" contentStyleType="text/css" height="265px" preserveAspectRatio="none" style="width:262px;height:265px;background:#FFFFFF;" version="1.1" viewBox="0 0 262 265" width="262px" zoomAndPan="magnify"><defs/><g><!--class Strike_Water_Temp--><g id="elem_Strike_Water_Temp"><rect codeLine="1" fill="#F1F1F1" height="143.3396" id="Strike_Water_Temp" rx="2.5" ry="2.5" style="stroke:#181818;stroke-width:0.5;" width="248" x="7" y="115"/><ellipse cx="62.75" cy="131" fill="#ADD1B2" rx="11" ry="11" style="stroke:#181818;stroke-width:1.0;"/><path d="M62.8594,126.5313 Q61.9375,126.5313 61.2031,126.8438 Q60.4844,127.1563 59.9844,127.75 Q59.4844,128.3281 59.2031,129.2031 Q58.9375,130.0781 58.9375,131.1719 Q58.9375,132.6094 59.375,133.6563 Q59.8281,134.7031 60.6719,135.25 Q61.5313,135.7969 62.8438,135.7969 Q63.625,135.7969 64.3125,135.6719 Q65.0156,135.5313 66.0156,135.2188 L66.0156,137.0938 Q65.1563,137.4219 64.3906,137.5469 Q63.6406,137.6719 62.625,137.6719 Q60.7031,137.6719 59.3906,136.875 Q58.0938,136.0625 57.4375,134.5938 Q56.7813,133.1094 56.7813,131.1406 Q56.7813,129.7188 57.1719,128.5469 Q57.5781,127.3594 58.3594,126.4844 Q59.1406,125.6094 60.2813,125.1406 Q61.4219,124.6563 62.8906,124.6563 Q63.8438,124.6563 64.7344,124.8594 Q65.6406,125.0469 66.5781,125.5156 L65.75,127.2969 Q64.9688,126.9219 64.3125,126.7344 Q63.6563,126.5313 62.8594,126.5313 Z " fill="#000000"/><text fill="#000000" font-family="sans-serif" font-size="14" lengthAdjust="spacing" textLength="128" x="83.25" y="136.432">Strike_Water_Temp</text><line style="stroke:#181818;stroke-width:0.5;" x1="8" x2="254" y1="147" y2="147"/><ellipse cx="18" cy="162.034" fill="none" rx="3" ry="3" style="stroke:#038048;stroke-width:1.0;"/><text fill="#000000" font-family="sans-serif" font-size="14" lengthAdjust="spacing" textLength="56" x="27" y="165.9659">id : uuid</text><line style="stroke:#181818;stroke-width:1.0;" x1="8" x2="254" y1="174.0679" y2="174.0679"/><text fill="#000000" font-family="sans-serif" font-size="14" lengthAdjust="spacing" textLength="220" x="13" y="193.0339">calc_strike_water_temp : boolean</text><text fill="#000000" font-family="sans-serif" font-size="14" lengthAdjust="spacing" textLength="236" x="13" y="212.1018">mash_tune_heat_capacity : decimal</text><text fill="#000000" font-family="sans-serif" font-size="14" lengthAdjust="spacing" textLength="141" x="13" y="231.1697">room_temp : decimal</text><text fill="#000000" font-family="sans-serif" font-size="14" lengthAdjust="spacing" textLength="142" x="13" y="250.2376">grain_temp : decimal</text></g><!--class EquipmentProfile--><g id="elem_EquipmentProfile"><rect fill="#F1F1F1" height="48" id="EquipmentProfile" rx="2.5" ry="2.5" style="stroke:#181818;stroke-width:0.5;" width="149" x="56.5" y="7"/><ellipse cx="71.5" cy="23" fill="#ADD1B2" rx="11" ry="11" style="stroke:#181818;stroke-width:1.0;"/><path d="M71.6094,18.5313 Q70.6875,18.5313 69.9531,18.8438 Q69.2344,19.1563 68.7344,19.75 Q68.2344,20.3281 67.9531,21.2031 Q67.6875,22.0781 67.6875,23.1719 Q67.6875,24.6094 68.125,25.6563 Q68.5781,26.7031 69.4219,27.25 Q70.2813,27.7969 71.5938,27.7969 Q72.375,27.7969 73.0625,27.6719 Q73.7656,27.5313 74.7656,27.2188 L74.7656,29.0938 Q73.9063,29.4219 73.1406,29.5469 Q72.3906,29.6719 71.375,29.6719 Q69.4531,29.6719 68.1406,28.875 Q66.8438,28.0625 66.1875,26.5938 Q65.5313,25.1094 65.5313,23.1406 Q65.5313,21.7188 65.9219,20.5469 Q66.3281,19.3594 67.1094,18.4844 Q67.8906,17.6094 69.0313,17.1406 Q70.1719,16.6563 71.6406,16.6563 Q72.5938,16.6563 73.4844,16.8594 Q74.3906,17.0469 75.3281,17.5156 L74.5,19.2969 Q73.7188,18.9219 73.0625,18.7344 Q72.4063,18.5313 71.6094,18.5313 Z " fill="#000000"/><text fill="#000000" font-family="sans-serif" font-size="14" lengthAdjust="spacing" textLength="117" x="85.5" y="28.432">EquipmentProfile</text><line style="stroke:#181818;stroke-width:0.5;" x1="57.5" x2="204.5" y1="39" y2="39"/><line style="stroke:#181818;stroke-width:0.5;" x1="57.5" x2="204.5" y1="47" y2="47"/></g><!--link EquipmentProfile to Strike_Water_Temp--><g id="link_EquipmentProfile_Strike_Water_Temp"><path codeLine="10" d="M131,55.34 C131,71.29 131,93.35 131,114.79 " fill="none" id="EquipmentProfile-Strike_Water_Temp" style="stroke:#181818;stroke-width:1.0;"/></g><!--SRC=[POxB2W8n34Nt_OemMvaVcBrxGS5bYMrqWdtPfWmY_hkr8eYJJSZDEN2Dmr9Ws4lcA-aZ2cLz89y6m0Ah51uAsco0BKnGAzj-ZsDV1ftHvUCitP6tCy4fHaSOEkInp5fg83qJYZQOqB3S6sN9i4VNgHoZ_zg_-IKZX__7KwdjhNBo56INuvaTjKhhzYy0]--></g></svg>