<?xml version="1.0" encoding="us-ascii" standalone="no"?><svg xmlns="http://www.w3.org/2000/svg" xmlns:xlink="http://www.w3.org/1999/xlink" contentStyleType="text/css" height="379px" preserveAspectRatio="none" style="width:246px;height:379px;background:#FFFFFF;" version="1.1" viewBox="0 0 246 379" width="246px" zoomAndPan="magnify"><defs/><g><!--class Volume--><g id="elem_Volume"><rect codeLine="1" fill="#F1F1F1" height="257.7471" id="Volume" rx="2.5" ry="2.5" style="stroke:#181818;stroke-width:0.5;" width="232" x="7" y="115"/><ellipse cx="95.25" cy="131" fill="#A9DCDF" rx="11" ry="11" style="stroke:#181818;stroke-width:1.0;"/><path d="M98.5938,136.25 L97.125,132.5 L92.6875,132.5 L91.25,136.25 L89.125,136.25 L94.0781,123.5313 L95.8281,123.5313 L100.75,136.25 L98.5938,136.25 Z M95.25,127.2969 Q95.2031,127.1406 95.0781,126.7813 Q94.9531,126.4219 94.8438,126.0469 Q94.7344,125.6563 94.9375,125.5938 Q95.0938,125.7813 95,126.1406 Q94.9063,126.4844 94.8125,126.7813 Q94.7188,127.0625 94.6406,127.2969 L93.4063,130.6094 L96.4844,130.6094 L95.25,127.2969 Z " fill="#000000"/><text fill="#000000" font-family="sans-serif" font-size="14" font-style="italic" lengthAdjust="spacing" textLength="47" x="115.75" y="136.432">Volume</text><line style="stroke:#181818;stroke-width:0.5;" x1="8" x2="238" y1="147" y2="147"/><ellipse cx="18" cy="162.034" fill="none" rx="3" ry="3" style="stroke:#038048;stroke-width:1.0;"/><text fill="#000000" font-family="sans-serif" font-size="14" lengthAdjust="spacing" textLength="56" x="27" y="165.9659">id : uuid</text><line style="stroke:#181818;stroke-width:1.0;" x1="8" x2="238" y1="174.0679" y2="174.0679"/><text fill="#000000" font-family="sans-serif" font-size="14" lengthAdjust="spacing" textLength="158" x="13" y="193.0339">batch_volume : decimal</text><text fill="#000000" font-family="sans-serif" font-size="14" lengthAdjust="spacing" textLength="220" x="13" y="212.1018">calculated_boil_volume : decimal</text><text fill="#000000" font-family="sans-serif" font-size="14" lengthAdjust="spacing" textLength="174" x="13" y="231.1697">pre_boil_volume : decimal</text><text fill="#000000" font-family="sans-serif" font-size="14" lengthAdjust="spacing" textLength="114" x="13" y="250.2376">boil_off : decimal</text><text fill="#000000" font-family="sans-serif" font-size="14" lengthAdjust="spacing" textLength="174" x="13" y="269.3055">trub_chiller_loss : decimal</text><text fill="#000000" font-family="sans-serif" font-size="14" lengthAdjust="spacing" textLength="210" x="13" y="288.3734">mash_tun_deadspace : decimal</text><text fill="#000000" font-family="sans-serif" font-size="14" lengthAdjust="spacing" textLength="163" x="13" y="307.4414">mash_tun_loss : decimal</text><text fill="#000000" font-family="sans-serif" font-size="14" lengthAdjust="spacing" textLength="162" x="13" y="326.5093">hlt_deadspace : decimal</text><text fill="#000000" font-family="sans-serif" font-size="14" lengthAdjust="spacing" textLength="165" x="13" y="345.5772">fermenter_loss : decimal</text><text fill="#000000" font-family="sans-serif" font-size="14" lengthAdjust="spacing" textLength="185" x="13" y="364.6451">fermenter_top_up : decimal</text></g><!--class Kettle--><g id="elem_Kettle"><rect fill="#F1F1F1" height="48" id="Kettle" rx="2.5" ry="2.5" style="stroke:#181818;stroke-width:0.5;" width="71" x="26.5" y="7"/><ellipse cx="41.5" cy="23" fill="#ADD1B2" rx="11" ry="11" style="stroke:#181818;stroke-width:1.0;"/><path d="M41.6094,18.5313 Q40.6875,18.5313 39.9531,18.8438 Q39.2344,19.1563 38.7344,19.75 Q38.2344,20.3281 37.9531,21.2031 Q37.6875,22.0781 37.6875,23.1719 Q37.6875,24.6094 38.125,25.6563 Q38.5781,26.7031 39.4219,27.25 Q40.2813,27.7969 41.5938,27.7969 Q42.375,27.7969 43.0625,27.6719 Q43.7656,27.5313 44.7656,27.2188 L44.7656,29.0938 Q43.9063,29.4219 43.1406,29.5469 Q42.3906,29.6719 41.375,29.6719 Q39.4531,29.6719 38.1406,28.875 Q36.8438,28.0625 36.1875,26.5938 Q35.5313,25.1094 35.5313,23.1406 Q35.5313,21.7188 35.9219,20.5469 Q36.3281,19.3594 37.1094,18.4844 Q37.8906,17.6094 39.0313,17.1406 Q40.1719,16.6563 41.6406,16.6563 Q42.5938,16.6563 43.4844,16.8594 Q44.3906,17.0469 45.3281,17.5156 L44.5,19.2969 Q43.7188,18.9219 43.0625,18.7344 Q42.4063,18.5313 41.6094,18.5313 Z " fill="#000000"/><text fill="#000000" font-family="sans-serif" font-size="14" lengthAdjust="spacing" textLength="39" x="55.5" y="28.432">Kettle</text><line style="stroke:#181818;stroke-width:0.5;" x1="27.5" x2="96.5" y1="39" y2="39"/><line style="stroke:#181818;stroke-width:0.5;" x1="27.5" x2="96.5" y1="47" y2="47"/></g><!--class Fermenter--><g id="elem_Fermenter"><rect fill="#F1F1F1" height="48" id="Fermenter" rx="2.5" ry="2.5" style="stroke:#181818;stroke-width:0.5;" width="102" x="133" y="7"/><ellipse cx="148" cy="23" fill="#ADD1B2" rx="11" ry="11" style="stroke:#181818;stroke-width:1.0;"/><path d="M148.1094,18.5313 Q147.1875,18.5313 146.4531,18.8438 Q145.7344,19.1563 145.2344,19.75 Q144.7344,20.3281 144.4531,21.2031 Q144.1875,22.0781 144.1875,23.1719 Q144.1875,24.6094 144.625,25.6563 Q145.0781,26.7031 145.9219,27.25 Q146.7813,27.7969 148.0938,27.7969 Q148.875,27.7969 149.5625,27.6719 Q150.2656,27.5313 151.2656,27.2188 L151.2656,29.0938 Q150.4063,29.4219 149.6406,29.5469 Q148.8906,29.6719 147.875,29.6719 Q145.9531,29.6719 144.6406,28.875 Q143.3438,28.0625 142.6875,26.5938 Q142.0313,25.1094 142.0313,23.1406 Q142.0313,21.7188 142.4219,20.5469 Q142.8281,19.3594 143.6094,18.4844 Q144.3906,17.6094 145.5313,17.1406 Q146.6719,16.6563 148.1406,16.6563 Q149.0938,16.6563 149.9844,16.8594 Q150.8906,17.0469 151.8281,17.5156 L151,19.2969 Q150.2188,18.9219 149.5625,18.7344 Q148.9063,18.5313 148.1094,18.5313 Z " fill="#000000"/><text fill="#000000" font-family="sans-serif" font-size="14" lengthAdjust="spacing" textLength="70" x="162" y="28.432">Fermenter</text><line style="stroke:#181818;stroke-width:0.5;" x1="134" x2="234" y1="39" y2="39"/><line style="stroke:#181818;stroke-width:0.5;" x1="134" x2="234" y1="47" y2="47"/></g><!--link Kettle to Volume--><g id="link_Kettle_Volume"><path codeLine="16" d="M68.76,55.38 C73.2,70.71 74.3921,74.8178 81.0021,97.6878 " fill="none" id="Kettle-to-Volume" style="stroke:#181818;stroke-width:1.0;"/><polygon fill="none" points="86,114.98,86.7662,96.0218,75.238,99.3537,86,114.98" style="stroke:#181818;stroke-width:1.0;"/></g><!--link Fermenter to Volume--><g id="link_Fermenter_Volume"><path codeLine="17" d="M177.24,55.38 C172.8,70.71 171.6079,74.8178 164.9979,97.6878 " fill="none" id="Fermenter-to-Volume" style="stroke:#181818;stroke-width:1.0;"/><polygon fill="none" points="160,114.98,170.762,99.3537,159.2338,96.0218,160,114.98" style="stroke:#181818;stroke-width:1.0;"/></g><!--SRC=[XTExRiCW50RWtKznb2L34tdta25fgqfrrGnELuG1nqZO83XqQVlknPTSwbjPV17_nm-oQUxGKeR057KELXzQ-KgiW3heRk4hWZ0UG798m7l9s-Vjjhta55b9FhkP2N31P4KLZ4QyXgVwVAeb9f1kOD_4BWkiuvPYL36lA0fESYtLB3gW3jSOx4DiW1ehbhLfz6Z5bDPAkYYMTZhIuj9kEkmz97i9hSy9AwLImXAbmybFauDUMOZ5Xou6QHFhlOgwag2l2HUKEqFPp5O7tbk8GUPhUBp6Xk12kINmlbofyBzUKzPBcerx5S9MeiRbKnjRpvVOds8t3BKXtinnirYc3PnCm_r4qQj0L2By6T-x_hk9RZFlt_u2]--></g></svg>