<?xml version="1.0" encoding="us-ascii" standalone="no"?><svg xmlns="http://www.w3.org/2000/svg" xmlns:xlink="http://www.w3.org/1999/xlink" contentStyleType="text/css" height="208px" preserveAspectRatio="none" style="width:163px;height:208px;background:#FFFFFF;" version="1.1" viewBox="0 0 163 208" width="163px" zoomAndPan="magnify"><defs/><g><!--class VolumeType--><g id="elem_VolumeType"><rect codeLine="1" fill="#F1F1F1" height="86.1358" id="VolumeType" rx="2.5" ry="2.5" style="stroke:#181818;stroke-width:0.5;" width="114" x="24.5" y="115"/><ellipse cx="39.5" cy="131" fill="#EB937F" rx="11" ry="11" style="stroke:#181818;stroke-width:1.0;"/><path d="M42.9688,137.5 L35.6563,137.5 L35.6563,124.8281 L42.9688,124.8281 L42.9688,126.7031 L37.7031,126.7031 L37.7031,129.9688 L42.6563,129.9688 L42.6563,131.8281 L37.7031,131.8281 L37.7031,135.625 L42.9688,135.625 L42.9688,137.5 Z " fill="#000000"/><text fill="#000000" font-family="sans-serif" font-size="14" lengthAdjust="spacing" textLength="82" x="53.5" y="136.432">VolumeType</text><line style="stroke:#181818;stroke-width:0.5;" x1="25.5" x2="137.5" y1="147" y2="147"/><text fill="#000000" font-family="sans-serif" font-size="14" lengthAdjust="spacing" textLength="39" x="30.5" y="165.9659">Kettle</text><text fill="#000000" font-family="sans-serif" font-size="14" lengthAdjust="spacing" textLength="70" x="30.5" y="185.0339">Fermenter</text><line style="stroke:#181818;stroke-width:0.5;" x1="25.5" x2="137.5" y1="193.1358" y2="193.1358"/></g><!--class EquipmentProfile--><g id="elem_EquipmentProfile"><rect fill="#F1F1F1" height="48" id="EquipmentProfile" rx="2.5" ry="2.5" style="stroke:#181818;stroke-width:0.5;" width="149" x="7" y="7"/><ellipse cx="22" cy="23" fill="#ADD1B2" rx="11" ry="11" style="stroke:#181818;stroke-width:1.0;"/><path d="M22.1094,18.5313 Q21.1875,18.5313 20.4531,18.8438 Q19.7344,19.1563 19.2344,19.75 Q18.7344,20.3281 18.4531,21.2031 Q18.1875,22.0781 18.1875,23.1719 Q18.1875,24.6094 18.625,25.6563 Q19.0781,26.7031 19.9219,27.25 Q20.7813,27.7969 22.0938,27.7969 Q22.875,27.7969 23.5625,27.6719 Q24.2656,27.5313 25.2656,27.2188 L25.2656,29.0938 Q24.4063,29.4219 23.6406,29.5469 Q22.8906,29.6719 21.875,29.6719 Q19.9531,29.6719 18.6406,28.875 Q17.3438,28.0625 16.6875,26.5938 Q16.0313,25.1094 16.0313,23.1406 Q16.0313,21.7188 16.4219,20.5469 Q16.8281,19.3594 17.6094,18.4844 Q18.3906,17.6094 19.5313,17.1406 Q20.6719,16.6563 22.1406,16.6563 Q23.0938,16.6563 23.9844,16.8594 Q24.8906,17.0469 25.8281,17.5156 L25,19.2969 Q24.2188,18.9219 23.5625,18.7344 Q22.9063,18.5313 22.1094,18.5313 Z " fill="#000000"/><text fill="#000000" font-family="sans-serif" font-size="14" lengthAdjust="spacing" textLength="117" x="36" y="28.432">EquipmentProfile</text><line style="stroke:#181818;stroke-width:0.5;" x1="8" x2="155" y1="39" y2="39"/><line style="stroke:#181818;stroke-width:0.5;" x1="8" x2="155" y1="47" y2="47"/></g><!--link EquipmentProfile to VolumeType--><g id="link_EquipmentProfile_VolumeType"><path codeLine="6" d="M81.5,55.24 C81.5,71.91 81.5,94.85 81.5,114.73 " fill="none" id="EquipmentProfile-VolumeType" style="stroke:#181818;stroke-width:1.0;"/></g><!--SRC=[SyqhpLLG2ilFASrD3QaiI5LIgEPI00Blr9AId5GmqosrA3SrhoIrYAkMYykri3Ip0CGDACfFoyn9LT3LLK3e1W00]--></g></svg>