<?xml version="1.0" encoding="us-ascii" standalone="no"?><svg xmlns="http://www.w3.org/2000/svg" xmlns:xlink="http://www.w3.org/1999/xlink" contentStyleType="text/css" height="183px" preserveAspectRatio="none" style="width:283px;height:183px;background:#FFFFFF;" version="1.1" viewBox="0 0 283 183" width="283px" zoomAndPan="magnify"><defs/><g><!--class WaterProfile--><g id="elem_WaterProfile"><rect codeLine="2" fill="#F1F1F1" height="162.4075" id="WaterProfile" rx="2.5" ry="2.5" style="stroke:#181818;stroke-width:0.5;" width="262" x="7" y="7"/><ellipse cx="92.25" cy="23" fill="#ADD1B2" rx="11" ry="11" style="stroke:#181818;stroke-width:1.0;"/><path d="M92.3594,18.5313 Q91.4375,18.5313 90.7031,18.8438 Q89.9844,19.1563 89.4844,19.75 Q88.9844,20.3281 88.7031,21.2031 Q88.4375,22.0781 88.4375,23.1719 Q88.4375,24.6094 88.875,25.6563 Q89.3281,26.7031 90.1719,27.25 Q91.0313,27.7969 92.3438,27.7969 Q93.125,27.7969 93.8125,27.6719 Q94.5156,27.5313 95.5156,27.2188 L95.5156,29.0938 Q94.6563,29.4219 93.8906,29.5469 Q93.1406,29.6719 92.125,29.6719 Q90.2031,29.6719 88.8906,28.875 Q87.5938,28.0625 86.9375,26.5938 Q86.2813,25.1094 86.2813,23.1406 Q86.2813,21.7188 86.6719,20.5469 Q87.0781,19.3594 87.8594,18.4844 Q88.6406,17.6094 89.7813,17.1406 Q90.9219,16.6563 92.3906,16.6563 Q93.3438,16.6563 94.2344,16.8594 Q95.1406,17.0469 96.0781,17.5156 L95.25,19.2969 Q94.4688,18.9219 93.8125,18.7344 Q93.1563,18.5313 92.3594,18.5313 Z " fill="#000000"/><text fill="#000000" font-family="sans-serif" font-size="14" lengthAdjust="spacing" textLength="83" x="112.75" y="28.432">WaterProfile</text><line style="stroke:#181818;stroke-width:0.5;" x1="8" x2="268" y1="39" y2="39"/><ellipse cx="18" cy="54.034" fill="none" rx="3" ry="3" style="stroke:#038048;stroke-width:1.0;"/><text fill="#000000" font-family="sans-serif" font-size="14" lengthAdjust="spacing" textLength="56" x="27" y="57.9659">id : uuid</text><line style="stroke:#181818;stroke-width:1.0;" x1="8" x2="268" y1="66.0679" y2="66.0679"/><text fill="#000000" font-family="sans-serif" font-size="14" lengthAdjust="spacing" textLength="90" x="13" y="85.0339">name : string</text><text fill="#000000" font-family="sans-serif" font-size="14" lengthAdjust="spacing" textLength="250" x="13" y="104.1018">water_profile_type : WaterProfileType</text><text fill="#000000" font-family="sans-serif" font-size="14" lengthAdjust="spacing" textLength="127" x="13" y="123.1697">water_ph : decimal</text><text fill="#000000" font-family="sans-serif" font-size="14" lengthAdjust="spacing" textLength="96" x="13" y="142.2376">cation : Cation</text><text fill="#000000" font-family="sans-serif" font-size="14" lengthAdjust="spacing" textLength="89" x="13" y="161.3055">anion : Anion</text></g><!--SRC=[JOp12i8m38RlVOgmomuwTjzDHF3emU5nXBREG9UDjaD4V7VRzD9Sadn_lcY78K3pm6ZzpQzFShO13503-2f8TG0oCC2-av6zwwGnBZRX43tnBEITtMahyXG_MyxhX_U4wijNoetLjA23leKBpoDJ762x7ekN9cXxKJH6MZa9Pnc48HTqobtzr1y0]--></g></svg>