<?xml version="1.0" encoding="us-ascii" standalone="no"?><svg xmlns="http://www.w3.org/2000/svg" xmlns:xlink="http://www.w3.org/1999/xlink" contentStyleType="text/css" height="284px" preserveAspectRatio="none" style="width:162px;height:284px;background:#FFFFFF;" version="1.1" viewBox="0 0 162 284" width="162px" zoomAndPan="magnify"><defs/><g><!--class YeastFlocculation--><g id="elem_YeastFlocculation"><rect codeLine="1" fill="#F1F1F1" height="162.4075" id="YeastFlocculation" rx="2.5" ry="2.5" style="stroke:#181818;stroke-width:0.5;" width="148" x="7" y="115"/><ellipse cx="22" cy="131" fill="#EB937F" rx="11" ry="11" style="stroke:#181818;stroke-width:1.0;"/><path d="M25.4688,137.5 L18.1563,137.5 L18.1563,124.8281 L25.4688,124.8281 L25.4688,126.7031 L20.2031,126.7031 L20.2031,129.9688 L25.1563,129.9688 L25.1563,131.8281 L20.2031,131.8281 L20.2031,135.625 L25.4688,135.625 L25.4688,137.5 Z " fill="#000000"/><text fill="#000000" font-family="sans-serif" font-size="14" lengthAdjust="spacing" textLength="116" x="36" y="136.432">YeastFlocculation</text><line style="stroke:#181818;stroke-width:0.5;" x1="8" x2="154" y1="147" y2="147"/><text fill="#000000" font-family="sans-serif" font-size="14" lengthAdjust="spacing" textLength="26" x="13" y="165.9659">Low</text><text fill="#000000" font-family="sans-serif" font-size="14" lengthAdjust="spacing" textLength="87" x="13" y="185.0339">Medium-Low</text><text fill="#000000" font-family="sans-serif" font-size="14" lengthAdjust="spacing" textLength="56" x="13" y="204.1018">Medium</text><text fill="#000000" font-family="sans-serif" font-size="14" lengthAdjust="spacing" textLength="93" x="13" y="223.1697">Medium-High</text><text fill="#000000" font-family="sans-serif" font-size="14" lengthAdjust="spacing" textLength="32" x="13" y="242.2376">High</text><text fill="#000000" font-family="sans-serif" font-size="14" lengthAdjust="spacing" textLength="66" x="13" y="261.3055">Very-High</text><line style="stroke:#181818;stroke-width:0.5;" x1="8" x2="154" y1="269.4075" y2="269.4075"/></g><!--class Yeast--><g id="elem_Yeast"><rect fill="#F1F1F1" height="48" id="Yeast" rx="2.5" ry="2.5" style="stroke:#181818;stroke-width:0.5;" width="68" x="47" y="7"/><ellipse cx="62" cy="23" fill="#ADD1B2" rx="11" ry="11" style="stroke:#181818;stroke-width:1.0;"/><path d="M62.1094,18.5313 Q61.1875,18.5313 60.4531,18.8438 Q59.7344,19.1563 59.2344,19.75 Q58.7344,20.3281 58.4531,21.2031 Q58.1875,22.0781 58.1875,23.1719 Q58.1875,24.6094 58.625,25.6563 Q59.0781,26.7031 59.9219,27.25 Q60.7813,27.7969 62.0938,27.7969 Q62.875,27.7969 63.5625,27.6719 Q64.2656,27.5313 65.2656,27.2188 L65.2656,29.0938 Q64.4063,29.4219 63.6406,29.5469 Q62.8906,29.6719 61.875,29.6719 Q59.9531,29.6719 58.6406,28.875 Q57.3438,28.0625 56.6875,26.5938 Q56.0313,25.1094 56.0313,23.1406 Q56.0313,21.7188 56.4219,20.5469 Q56.8281,19.3594 57.6094,18.4844 Q58.3906,17.6094 59.5313,17.1406 Q60.6719,16.6563 62.1406,16.6563 Q63.0938,16.6563 63.9844,16.8594 Q64.8906,17.0469 65.8281,17.5156 L65,19.2969 Q64.2188,18.9219 63.5625,18.7344 Q62.9063,18.5313 62.1094,18.5313 Z " fill="#000000"/><text fill="#000000" font-family="sans-serif" font-size="14" lengthAdjust="spacing" textLength="36" x="76" y="28.432">Yeast</text><line style="stroke:#181818;stroke-width:0.5;" x1="48" x2="114" y1="39" y2="39"/><line style="stroke:#181818;stroke-width:0.5;" x1="48" x2="114" y1="47" y2="47"/></g><!--link Yeast to YeastFlocculation--><g id="link_Yeast_YeastFlocculation"><path codeLine="10" d="M81,55.39 C81,71.16 81,93 81,114.73 " fill="none" id="Yeast-YeastFlocculation" style="stroke:#181818;stroke-width:1.0;"/></g><!--SRC=[SyqhpLLGYanDB2vnoybFJYxDIIp9pCzJKgZcKW02d_noCEsRcf9PcgkBoaMMySXCpm3puOomrA9AY70j5nVO0WLTNGKCcm00]--></g></svg>