<?xml version="1.0" encoding="us-ascii" standalone="no"?><svg xmlns="http://www.w3.org/2000/svg" xmlns:xlink="http://www.w3.org/1999/xlink" contentStyleType="text/css" height="246px" preserveAspectRatio="none" style="width:116px;height:246px;background:#FFFFFF;" version="1.1" viewBox="0 0 116 246" width="116px" zoomAndPan="magnify"><defs/><g><!--class YeastForm--><g id="elem_YeastForm"><rect codeLine="1" fill="#F1F1F1" height="124.2717" id="YeastForm" rx="2.5" ry="2.5" style="stroke:#181818;stroke-width:0.5;" width="102" x="7" y="115"/><ellipse cx="22" cy="131" fill="#EB937F" rx="11" ry="11" style="stroke:#181818;stroke-width:1.0;"/><path d="M25.4688,137.5 L18.1563,137.5 L18.1563,124.8281 L25.4688,124.8281 L25.4688,126.7031 L20.2031,126.7031 L20.2031,129.9688 L25.1563,129.9688 L25.1563,131.8281 L20.2031,131.8281 L20.2031,135.625 L25.4688,135.625 L25.4688,137.5 Z " fill="#000000"/><text fill="#000000" font-family="sans-serif" font-size="14" lengthAdjust="spacing" textLength="70" x="36" y="136.432">YeastForm</text><line style="stroke:#181818;stroke-width:0.5;" x1="8" x2="108" y1="147" y2="147"/><text fill="#000000" font-family="sans-serif" font-size="14" lengthAdjust="spacing" textLength="42" x="13" y="165.9659">Liquid</text><text fill="#000000" font-family="sans-serif" font-size="14" lengthAdjust="spacing" textLength="23" x="13" y="185.0339">Dry</text><text fill="#000000" font-family="sans-serif" font-size="14" lengthAdjust="spacing" textLength="34" x="13" y="204.1018">Slant</text><text fill="#000000" font-family="sans-serif" font-size="14" lengthAdjust="spacing" textLength="50" x="13" y="223.1697">Culture</text><line style="stroke:#181818;stroke-width:0.5;" x1="8" x2="108" y1="231.2717" y2="231.2717"/></g><!--class Yeast--><g id="elem_Yeast"><rect fill="#F1F1F1" height="48" id="Yeast" rx="2.5" ry="2.5" style="stroke:#181818;stroke-width:0.5;" width="68" x="24" y="7"/><ellipse cx="39" cy="23" fill="#ADD1B2" rx="11" ry="11" style="stroke:#181818;stroke-width:1.0;"/><path d="M39.1094,18.5313 Q38.1875,18.5313 37.4531,18.8438 Q36.7344,19.1563 36.2344,19.75 Q35.7344,20.3281 35.4531,21.2031 Q35.1875,22.0781 35.1875,23.1719 Q35.1875,24.6094 35.625,25.6563 Q36.0781,26.7031 36.9219,27.25 Q37.7813,27.7969 39.0938,27.7969 Q39.875,27.7969 40.5625,27.6719 Q41.2656,27.5313 42.2656,27.2188 L42.2656,29.0938 Q41.4063,29.4219 40.6406,29.5469 Q39.8906,29.6719 38.875,29.6719 Q36.9531,29.6719 35.6406,28.875 Q34.3438,28.0625 33.6875,26.5938 Q33.0313,25.1094 33.0313,23.1406 Q33.0313,21.7188 33.4219,20.5469 Q33.8281,19.3594 34.6094,18.4844 Q35.3906,17.6094 36.5313,17.1406 Q37.6719,16.6563 39.1406,16.6563 Q40.0938,16.6563 40.9844,16.8594 Q41.8906,17.0469 42.8281,17.5156 L42,19.2969 Q41.2188,18.9219 40.5625,18.7344 Q39.9063,18.5313 39.1094,18.5313 Z " fill="#000000"/><text fill="#000000" font-family="sans-serif" font-size="14" lengthAdjust="spacing" textLength="36" x="53" y="28.432">Yeast</text><line style="stroke:#181818;stroke-width:0.5;" x1="25" x2="91" y1="39" y2="39"/><line style="stroke:#181818;stroke-width:0.5;" x1="25" x2="91" y1="47" y2="47"/></g><!--link Yeast to YeastForm--><g id="link_Yeast_YeastForm"><path codeLine="8" d="M58,55.48 C58,71.59 58,93.77 58,114.72 " fill="none" id="Yeast-YeastForm" style="stroke:#181818;stroke-width:1.0;"/></g><!--SRC=[SyqhpLLGYanDB2vnoo_ALLAevb800f_CmjBC533JfQWIJ0Vd9EQLW5dEfJabfKMfNBLSN62D2hgw2d0J0000]--></g></svg>