<svg xmlns="http://www.w3.org/2000/svg" xmlns:xlink="http://www.w3.org/1999/xlink" contentStyleType="text/css" data-diagram-type="DESCRIPTION" height="203px" preserveAspectRatio="none" style="width:656px;height:203px;background:#FFFFFF;" version="1.1" viewBox="0 0 656 203" width="656px" zoomAndPan="magnify"><defs/><g><!--entity iSpindle--><g class="entity" data-entity="iSpindle" data-source-line="4" data-uid="ent0002" id="entity_iSpindle"><path d="M28.5594,40.0922 C32.1378,34.123 36.6433,34.8686 39.8703,40.4368 C43.0191,35.4287 46.5611,34.5623 50.5711,39.5113 C53.6111,33.7124 58.9785,32.9298 63.2683,38.059 C66.8636,34.4074 69.8948,34.3603 72.3585,39.2616 C76.4242,34.2986 80.5027,33.9802 83.7384,40.1128 C87.4788,34.9348 91.7322,34.1862 95.5471,40.0331 C103.5059,44.4956 103.4361,50.7998 97.2496,56.7067 C103.6085,63.281 104.0296,69.9414 94.5945,74.1055 C93.1337,80.1026 88.4752,80.3035 84.4998,76.7685 C81.8152,82.2341 78.5119,83.2627 73.868,78.8848 C72.1104,84.8235 69.36,87.5825 63.3109,83.3305 C57.7226,87.108 52.4856,86.9102 50.9928,79.0103 C47.0632,83.2244 43.0427,81.7309 40.9311,76.9719 C35.5391,82.8149 31.364,81.1653 28.7362,74.316 C19.8523,69.4908 20.1283,63.3417 28.435,58.1953 C19.811,52.1456 20.4402,46.0269 28.5594,40.0922" fill="#F1F1F1" style="stroke:#181818;stroke-width:0.5;"/><text fill="#000000" font-family="sans-serif" font-size="14" lengthAdjust="spacing" textLength="52.2898" x="35.07" y="61.4659">iSpindle</text></g><!--entity Brewer--><g class="entity" data-entity="Brewer" data-source-line="5" data-uid="ent0003" id="entity_Brewer"><ellipse cx="591.3699" cy="14" fill="#F1F1F1" rx="8" ry="8" style="stroke:#181818;stroke-width:0.5;"/><path d="M591.3699,22 L591.3699,49 M578.3699,30 L604.3699,30 M591.3699,49 L578.3699,64 M591.3699,49 L604.3699,64" fill="none" style="stroke:#181818;stroke-width:0.5;"/><text fill="#000000" font-family="sans-serif" font-size="14" lengthAdjust="spacing" textLength="47.4598" x="567.64" y="80.4659">Brewer</text></g><!--entity RecipeDB--><g class="entity" data-entity="RecipeDB" data-source-line="6" data-uid="ent0004" id="entity_RecipeDB"><path d="M6,125.47 C6,115.47 61.2198,115.47 61.2198,115.47 C61.2198,115.47 116.4396,115.47 116.4396,125.47 L116.4396,172.6058 C116.4396,182.6058 61.2198,182.6058 61.2198,182.6058 C61.2198,182.6058 6,182.6058 6,172.6058 L6,125.47" fill="#F1F1F1" style="stroke:#181818;stroke-width:0.5;"/><path d="M6,125.47 C6,135.47 61.2198,135.47 61.2198,135.47 C61.2198,135.47 116.4396,135.47 116.4396,125.47" fill="none" style="stroke:#181818;stroke-width:0.5;"/><text fill="#000000" font-family="sans-serif" font-size="14" lengthAdjust="spacing" textLength="90.4396" x="16" y="154.4359">Online Recipe</text><text fill="#000000" font-family="sans-serif" font-size="14" lengthAdjust="spacing" textLength="62.0478" x="16" y="173.5039">Database</text></g><!--entity HoppiBrew--><g class="entity" data-entity="HoppiBrew" data-source-line="8" data-uid="ent0005" id="entity_HoppiBrew"><polygon fill="#F1F1F1" points="263.44,88.5,273.44,78.5,376.8977,78.5,376.8977,117.5679,366.8977,127.5679,263.44,127.5679,263.44,88.5" style="stroke:#181818;stroke-width:0.5;"/><line style="stroke:#181818;stroke-width:0.5;" x1="366.8977" x2="376.8977" y1="88.5" y2="78.5"/><line style="stroke:#181818;stroke-width:0.5;" x1="263.44" x2="366.8977" y1="88.5" y2="88.5"/><line style="stroke:#181818;stroke-width:0.5;" x1="366.8977" x2="366.8977" y1="88.5" y2="127.5679"/><text fill="#000000" font-family="sans-serif" font-size="14" lengthAdjust="spacing" textLength="73.4577" x="278.44" y="113.4659">HoppiBrew</text></g><!--entity PostgreSQL--><g class="entity" data-entity="PostgreSQL" data-source-line="9" data-uid="ent0006" id="entity_PostgreSQL"><path d="M542.9,148 C542.9,138 591.3719,138 591.3719,138 C591.3719,138 639.8437,138 639.8437,148 L639.8437,176.0679 C639.8437,186.0679 591.3719,186.0679 591.3719,186.0679 C591.3719,186.0679 542.9,186.0679 542.9,176.0679 L542.9,148" fill="#F1F1F1" style="stroke:#181818;stroke-width:0.5;"/><path d="M542.9,148 C542.9,158 591.3719,158 591.3719,158 C591.3719,158 639.8437,158 639.8437,148" fill="none" style="stroke:#181818;stroke-width:0.5;"/><text fill="#000000" font-family="sans-serif" font-size="14" lengthAdjust="spacing" textLength="76.9437" x="552.9" y="176.9659">PostgreSQL</text></g><!--link RecipeDB to HoppiBrew--><g class="link" data-entity-1="RecipeDB" data-entity-2="HoppiBrew" data-source-line="11" data-uid="lnk7" id="link_RecipeDB_HoppiBrew"><path d="M116.71,139.28 C159.73,131.58 213.6237,121.9262 257.0737,114.1562" fill="none" id="RecipeDB-to-HoppiBrew" style="stroke:#181818;stroke-width:1;"/><polygon fill="#181818" points="262.98,113.1,253.4164,110.7468,258.0581,113.9802,254.8247,118.6218,262.98,113.1" style="stroke:#181818;stroke-width:1;"/><text fill="#000000" font-family="sans-serif" font-size="13" lengthAdjust="spacing" textLength="85.2411" x="147.44" y="115.127">CRUD Recipes</text></g><!--link iSpindle to HoppiBrew--><g class="link" data-entity-1="iSpindle" data-entity-2="HoppiBrew" data-source-line="12" data-uid="lnk8" id="link_iSpindle_HoppiBrew"><path d="M102.65,63.43 C145.9,71.34 208.8879,82.8605 257.3279,91.7205" fill="none" id="iSpindle-to-HoppiBrew" style="stroke:#181818;stroke-width:1;"/><polygon fill="#181818" points="263.23,92.8,255.0966,87.246,258.3116,91.9004,253.6572,95.1154,263.23,92.8" style="stroke:#181818;stroke-width:1;"/><text fill="#000000" font-family="sans-serif" font-size="13" lengthAdjust="spacing" textLength="81.8351" x="149.44" y="50.477">Transmit Live</text><text fill="#000000" font-family="sans-serif" font-size="13" lengthAdjust="spacing" textLength="28.769" x="175.973" y="68.183">Data</text></g><!--link Brewer to HoppiBrew--><g class="link" data-entity-1="Brewer" data-entity-2="HoppiBrew" data-source-line="13" data-uid="lnk9" id="link_Brewer_HoppiBrew"><path d="M567.16,70.16 C552.97,83.61 533.6,98.86 512.9,106.04 C469.17,121.18 422.3584,119.785 383.2584,114.625" fill="none" id="Brewer-to-HoppiBrew" style="stroke:#181818;stroke-width:1;"/><polygon fill="#181818" points="377.31,113.84,385.7093,118.9831,382.267,114.4942,386.756,111.0519,377.31,113.84" style="stroke:#181818;stroke-width:1;"/><text fill="#000000" font-family="sans-serif" font-size="13" lengthAdjust="spacing" textLength="85.2411" x="417.4" y="83.937">CRUD Recipes</text><text fill="#000000" font-family="sans-serif" font-size="13" lengthAdjust="spacing" textLength="64.298" x="427.8715" y="101.643">and Brews</text></g><!--link HoppiBrew to Brewer--><g class="link" data-entity-1="HoppiBrew" data-entity-2="Brewer" data-source-line="15" data-uid="lnk11" id="link_HoppiBrew_Brewer"><path d="M370.54,78.06 C382.21,73.03 394.79,68.29 406.9,65.04 C463.21,49.88 526.1919,46.3218 561.3619,45.4318" fill="none" id="HoppiBrew-to-Brewer" style="stroke:#181818;stroke-width:1;"/><polygon fill="#181818" points="567.36,45.28,558.2617,41.509,562.3616,45.4065,558.4641,49.5064,567.36,45.28" style="stroke:#181818;stroke-width:1;"/><text fill="#000000" font-family="sans-serif" font-size="13" lengthAdjust="spacing" textLength="73.1771" x="423.3245" y="26.277">Instructions</text><text fill="#000000" font-family="sans-serif" font-size="13" lengthAdjust="spacing" textLength="104.0261" x="407.9" y="43.983">and Notifications</text></g><!--link HoppiBrew to PostgreSQL--><g class="link" data-entity-1="HoppiBrew" data-entity-2="PostgreSQL" data-source-line="14" data-uid="lnk10" id="link_HoppiBrew_PostgreSQL"><path d="M369.8206,130.6952 C383.0506,137.2852 392.54,141 406.9,145.04 C451.86,157.67 499.2117,161.2762 536.7617,162.1762" fill="none" id="HoppiBrew-PostgreSQL" style="stroke:#181818;stroke-width:1;stroke-dasharray:7,7;"/><polygon fill="#181818" points="364.45,128.02,370.7225,135.6132,368.9255,130.2493,374.2894,128.4523,364.45,128.02" style="stroke:#181818;stroke-width:1;"/><polygon fill="#181818" points="542.76,162.32,533.8584,158.1055,537.7614,162.2002,533.6667,166.1032,542.76,162.32" style="stroke:#181818;stroke-width:1;"/><text fill="#000000" font-family="sans-serif" font-size="13" lengthAdjust="spacing" textLength="45.37" x="437.4" y="140.937">&#171;flows&#187;</text></g><!--SRC=[VP1DRW8n38NtFeN57Ww0HhEWioWIwW-K7PiqyL1BgJrAJBb-8OJEI9LOsdx-_9uZzOQccFZuPHWuaJTM0V1HJm5vDx24IE2yQS9LeZCb2CxSfyk4irU9B8HRyZpGGRewcA7BjTcj04J3HVkimy1NGfd-LHFQcsOx9jgzRufaB07kC9pFst4Nb_YqtNVrL8QxtN-gZ-GaVxFXXd-gJxY5UGWyY9DGKcSODSrYqKxCNNQQfezwpcqxKLsvzSGIrv8jdSfhA_H5ZNlshhH-0G00]--></g></svg>