<svg xmlns="http://www.w3.org/2000/svg" xmlns:xlink="http://www.w3.org/1999/xlink" contentStyleType="text/css" data-diagram-type="DESCRIPTION" height="1485px" preserveAspectRatio="none" style="width:644px;height:1485px;background:#FFFFFF;" version="1.1" viewBox="0 0 644 1485" width="644px" zoomAndPan="magnify"><title>White Box Overall System</title><defs/><g><g class="title" data-source-line="2"><text fill="#000000" font-family="sans-serif" font-size="14" font-weight="bold" lengthAdjust="spacing" textLength="177.6908" x="226.1546" y="24.9659">White Box Overall System</text></g><!--cluster ClientBrowser--><g class="cluster" data-entity="ClientBrowser" data-source-line="8" data-uid="ent0005" id="cluster_ClientBrowser"><rect fill="none" height="86" rx="2.5" ry="2.5" style="stroke:#181818;stroke-width:1;" width="159.5" x="245" y="47.0679"/><rect fill="none" height="10" style="stroke:#181818;stroke-width:1;" width="15" x="384.5" y="52.0679"/><rect fill="none" height="2" style="stroke:#181818;stroke-width:1;" width="4" x="382.5" y="54.0679"/><rect fill="none" height="2" style="stroke:#181818;stroke-width:1;" width="4" x="382.5" y="58.0679"/><text fill="#000000" font-family="sans-serif" font-size="14" font-weight="bold" lengthAdjust="spacing" textLength="101.7411" x="273.8794" y="75.0339">Client Browser</text></g><!--cluster ISpindel--><g class="cluster" data-entity="ISpindel" data-source-line="12" data-uid="ent0008" id="cluster_ISpindel"><rect fill="none" height="86" rx="2.5" ry="2.5" style="stroke:#181818;stroke-width:1;" width="71.83" x="110.17" y="167.0679"/><rect fill="none" height="10" style="stroke:#181818;stroke-width:1;" width="15" x="162" y="172.0679"/><rect fill="none" height="2" style="stroke:#181818;stroke-width:1;" width="4" x="160" y="174.0679"/><rect fill="none" height="2" style="stroke:#181818;stroke-width:1;" width="4" x="160" y="178.0679"/><text fill="#000000" font-family="sans-serif" font-size="14" font-weight="bold" lengthAdjust="spacing" textLength="56.9238" x="117.6231" y="195.0339">ISpindel</text></g><!--cluster Internet--><g class="cluster" data-entity="Internet" data-source-line="16" data-uid="ent0010" id="cluster_Internet"><path d="M222.6906,345.0378 C225.9431,338.9169 231.0561,339.2772 234.1535,345.1856 C236.9401,338.6384 242.3679,339.4051 246.1173,344.1671 C248.8954,339.1043 252.6113,337.0417 257.1546,342.2748 C260.8733,337.7752 264.068,336.6642 267.8065,342.2539 C269.4101,336.251 274.5116,335.9871 278.078,340.2994 C281.9069,335.3242 285.9097,336.1818 288.7151,341.3706 C292.207,336.1186 296.824,337.8034 299.1048,342.6203 C303.8935,337.2392 307.7479,336.6703 311.6651,343.5157 C315.5925,339.0249 319.6728,340.4228 322.0139,345.2731 C329.6486,338.8787 336.623,342.0505 339,351.0679 C339.7964,351.1285 339.9716,351.5271 339.6339,352.2146 C345.5152,355.121 347.0537,361.0279 340.6093,364.8833 C346.4311,367.815 347.9155,372.8519 342.1353,377.2188 C346.9833,380.8382 347.0218,385.4386 341.9533,388.9035 C348.4787,392.4772 348.4379,397.8234 341.9312,401.374 C347.8259,404.9602 347.6363,410.7307 341.5355,413.9391 C345.432,423.7519 342.8826,429.5191 332,431.1379 C332.2974,430.7429 332.7219,430.7591 332.9806,431.1842 C330.622,436.3381 326.5243,436.7233 322.7922,432.7107 C319.4293,438.6492 315.2145,438.7884 311.3253,433.2358 C308.8958,440.3145 304.7811,441.7762 299.2895,436.1327 C296.4841,442.2059 291.5639,441.132 288.1818,436.7451 C285.7525,441.933 281.2485,441.3203 278.3886,437.198 C273.9723,442.1343 269.6511,441.1096 266.6878,435.5745 C263.4365,439.6711 258.8901,440.0144 256.6391,434.5259 C253.0154,440.4979 247.5736,439.9054 244.1401,434.3202 C240.8963,438.9695 236.3878,438.4143 234.5816,432.9601 C224.1036,440.8313 216.6383,435.8872 215,424.1379 C216.2732,423.7739 217.4434,424.5352 217.0372,426.0042 C211.2174,423.2239 209.8931,418.8729 214.3137,413.8061 C207.455,410.8838 207.647,405.311 213.1904,401.2768 C207.5589,397.7195 207.8613,391.7898 213.4438,388.4541 C208.1333,384.2965 206.798,380.419 213.2435,376.0711 C208.3318,371.8239 208.9123,367.5503 214.9161,364.9439 C208.0935,355.511 210.1946,347.1797 222,344.0679 C222.6345,344.1083 222.8557,344.428 222.6906,345.0378" fill="none" style="stroke:#181818;stroke-width:1;"/><text fill="#000000" font-family="sans-serif" font-size="14" font-weight="bold" lengthAdjust="spacing" textLength="57.2318" x="248.3841" y="364.0339">Internet</text></g><!--cluster Unraid Server--><g class="cluster" data-entity="Unraid Server" data-source-line="32" data-uid="ent0018" id="cluster_Unraid Server"><rect fill="none" height="989.34" rx="2.5" ry="2.5" style="stroke:#181818;stroke-width:1;" width="631" x="7" y="490.1379"/><text fill="#000000" font-family="sans-serif" font-size="14" font-weight="bold" lengthAdjust="spacing" textLength="95.7877" x="274.6062" y="507.1039">Unraid Server</text></g><!--cluster Docker Engine--><g class="cluster" data-entity="Docker Engine" data-source-line="33" data-uid="ent0019" id="cluster_Docker Engine"><polygon fill="none" points="31,546.1379,41,536.1379,614,536.1379,614,1445.4779,604,1455.4779,31,1455.4779,31,546.1379" style="stroke:#181818;stroke-width:1;"/><line style="stroke:#181818;stroke-width:1;" x1="604" x2="614" y1="546.1379" y2="536.1379"/><line style="stroke:#181818;stroke-width:1;" x1="31" x2="604" y1="546.1379" y2="546.1379"/><line style="stroke:#181818;stroke-width:1;" x1="604" x2="604" y1="546.1379" y2="1455.4779"/><text fill="#000000" font-family="sans-serif" font-size="14" font-weight="bold" lengthAdjust="spacing" textLength="100.6596" x="268.1702" y="564.1039">Docker Engine</text></g><!--cluster Application_Container--><g class="cluster" data-entity="Application_Container" data-source-line="38" data-uid="ent0022" id="cluster_Application_Container"><polygon fill="none" points="47,832.2079,57,822.2079,557.17,822.2079,557.17,1138.4079,547.17,1148.4079,47,1148.4079,47,832.2079" style="stroke:#181818;stroke-width:1;"/><line style="stroke:#181818;stroke-width:1;" x1="547.17" x2="557.17" y1="832.2079" y2="822.2079"/><line style="stroke:#181818;stroke-width:1;" x1="47" x2="547.17" y1="832.2079" y2="832.2079"/><line style="stroke:#181818;stroke-width:1;" x1="547.17" x2="547.17" y1="832.2079" y2="1148.4079"/><text fill="#000000" font-family="sans-serif" font-size="14" font-weight="bold" lengthAdjust="spacing" textLength="99.8756" x="248.1472" y="850.1739">App Container</text></g><!--cluster PostgreSQL Container--><g class="cluster" data-entity="PostgreSQL Container" data-source-line="69" data-uid="ent0045" id="cluster_PostgreSQL Container"><path d="M245,1287.4079 C245,1277.4079 379.085,1277.4079 379.085,1277.4079 C379.085,1277.4079 513.17,1277.4079 513.17,1287.4079 L513.17,1429.4779 C513.17,1439.4779 379.085,1439.4779 379.085,1439.4779 C379.085,1439.4779 245,1439.4779 245,1429.4779 L245,1287.4079" fill="none" style="stroke:#181818;stroke-width:1;"/><path d="M245,1287.4079 C245,1297.4079 379.085,1297.4079 379.085,1297.4079 C379.085,1297.4079 513.17,1297.4079 513.17,1287.4079" fill="none" style="stroke:#181818;stroke-width:1;"/><text fill="#000000" font-family="sans-serif" font-size="14" font-weight="bold" lengthAdjust="spacing" textLength="153.716" x="302.227" y="1314.3739">PostgreSQL Container</text></g><g class="entity" data-entity="ClientPort80" data-source-line="9" data-uid="ent0006" id="entity_ClientPort80"><text fill="#000000" font-family="sans-serif" font-size="14" lengthAdjust="spacing" textLength="47.5438" x="239.2281" y="154.0339">Port:80</text><rect fill="#F1F1F1" height="12" style="stroke:#181818;stroke-width:1.5;" width="12" x="257" y="127.0679"/></g><g class="entity" data-entity="ClientPort443" data-source-line="10" data-uid="ent0007" id="entity_ClientPort443"><text fill="#000000" font-family="sans-serif" font-size="14" lengthAdjust="spacing" textLength="55.5518" x="358.7241" y="154.0339">Port:443</text><rect fill="#F1F1F1" height="12" style="stroke:#181818;stroke-width:1.5;" width="12" x="380.5" y="127.0679"/></g><g class="entity" data-entity="ISpindel_port" data-source-line="13" data-uid="ent0009" id="entity_ISpindel_port"><text fill="#000000" font-family="sans-serif" font-size="14" lengthAdjust="spacing" textLength="63.5598" x="96.3901" y="274.0339">Port:9501</text><rect fill="#F1F1F1" height="12" style="stroke:#181818;stroke-width:1.5;" width="12" x="122.17" y="247.0679"/></g><!--entity cloudflare--><g class="entity" data-entity="cloudflare" data-source-line="17" data-uid="ent0011" id="entity_cloudflare"><rect fill="#F1F1F1" height="49.0679" rx="2.5" ry="2.5" style="stroke:#181818;stroke-width:0.5;" width="108.1517" x="222.92" y="374.0679"/><rect fill="#F1F1F1" height="10" style="stroke:#181818;stroke-width:0.5;" width="15" x="311.0717" y="379.0679"/><rect fill="#F1F1F1" height="2" style="stroke:#181818;stroke-width:0.5;" width="4" x="309.0717" y="381.0679"/><rect fill="#F1F1F1" height="2" style="stroke:#181818;stroke-width:0.5;" width="4" x="309.0717" y="385.0679"/><text fill="#000000" font-family="sans-serif" font-size="14" lengthAdjust="spacing" textLength="68.1517" x="237.92" y="409.0339">Cloudflare</text></g><!--entity CloudflareTunnel--><g class="entity" data-entity="CloudflareTunnel" data-source-line="34" data-uid="ent0020" id="entity_CloudflareTunnel"><rect fill="#F1F1F1" height="49.0679" rx="2.5" ry="2.5" style="stroke:#181818;stroke-width:0.5;" width="108.1517" x="222.92" y="579.1379"/><rect fill="#F1F1F1" height="10" style="stroke:#181818;stroke-width:0.5;" width="15" x="311.0717" y="584.1379"/><rect fill="#F1F1F1" height="2" style="stroke:#181818;stroke-width:0.5;" width="4" x="309.0717" y="586.1379"/><rect fill="#F1F1F1" height="2" style="stroke:#181818;stroke-width:0.5;" width="4" x="309.0717" y="590.1379"/><text fill="#000000" font-family="sans-serif" font-size="14" lengthAdjust="spacing" textLength="68.1517" x="237.92" y="614.1039">Cloudflare</text></g><!--entity I04--><g class="entity" data-entity="I04" data-source-line="63" data-uid="ent0040" id="entity_I04"><ellipse cx="277" cy="725.2079" fill="#F1F1F1" rx="8" ry="8" style="stroke:#181818;stroke-width:0.5;"/></g><!--entity I05--><g class="entity" data-entity="I05" data-source-line="75" data-uid="ent0049" id="entity_I05"><ellipse cx="549" cy="1180.4079" fill="#F1F1F1" rx="8" ry="8" style="stroke:#181818;stroke-width:0.5;"/></g><!--entity HoppyBrew--><g class="entity" data-entity="HoppyBrew" data-source-line="39" data-uid="ent0023" id="entity_HoppyBrew"><rect fill="#F1F1F1" height="49.0679" rx="2.5" ry="2.5" style="stroke:#181818;stroke-width:0.5;" width="116.9857" x="218.51" y="919.2079"/><rect fill="#F1F1F1" height="10" style="stroke:#181818;stroke-width:0.5;" width="15" x="315.4957" y="924.2079"/><rect fill="#F1F1F1" height="2" style="stroke:#181818;stroke-width:0.5;" width="4" x="313.4957" y="926.2079"/><rect fill="#F1F1F1" height="2" style="stroke:#181818;stroke-width:0.5;" width="4" x="313.4957" y="930.2079"/><text fill="#000000" font-family="sans-serif" font-size="14" lengthAdjust="spacing" textLength="76.9857" x="233.51" y="954.1739">HoppyBrew</text></g><!--entity db_adapter--><g class="entity" data-entity="db_adapter" data-source-line="40" data-uid="ent0024" id="entity_db_adapter"><rect fill="#F1F1F1" height="68.1358" rx="2.5" ry="2.5" style="stroke:#181818;stroke-width:0.5;" width="113.3877" x="390.31" y="1064.2779"/><rect fill="#F1F1F1" height="10" style="stroke:#181818;stroke-width:0.5;" width="15" x="483.6977" y="1069.2779"/><rect fill="#F1F1F1" height="2" style="stroke:#181818;stroke-width:0.5;" width="4" x="481.6977" y="1071.2779"/><rect fill="#F1F1F1" height="2" style="stroke:#181818;stroke-width:0.5;" width="4" x="481.6977" y="1075.2779"/><text fill="#000000" font-family="sans-serif" font-size="14" lengthAdjust="spacing" textLength="54.7258" x="405.31" y="1099.2439">Psycopg</text><text fill="#000000" font-family="sans-serif" font-size="14" lengthAdjust="spacing" textLength="73.3877" x="405.31" y="1118.3118">db-adapter</text></g><!--entity api--><g class="entity" data-entity="api" data-source-line="41" data-uid="ent0025" id="entity_api"><rect fill="#F1F1F1" height="49.0679" rx="2.5" ry="2.5" style="stroke:#181818;stroke-width:0.5;" width="89.0418" x="63.48" y="919.2079"/><rect fill="#F1F1F1" height="10" style="stroke:#181818;stroke-width:0.5;" width="15" x="132.5218" y="924.2079"/><rect fill="#F1F1F1" height="2" style="stroke:#181818;stroke-width:0.5;" width="4" x="130.5218" y="926.2079"/><rect fill="#F1F1F1" height="2" style="stroke:#181818;stroke-width:0.5;" width="4" x="130.5218" y="930.2079"/><text fill="#000000" font-family="sans-serif" font-size="14" lengthAdjust="spacing" textLength="49.0418" x="78.48" y="954.1739">FastAPI</text></g><!--entity uvicorn--><g class="entity" data-entity="uvicorn" data-source-line="42" data-uid="ent0026" id="entity_uvicorn"><rect fill="#F1F1F1" height="49.0679" rx="2.5" ry="2.5" style="stroke:#181818;stroke-width:0.5;" width="88.9998" x="62.5" y="1073.8079"/><rect fill="#F1F1F1" height="10" style="stroke:#181818;stroke-width:0.5;" width="15" x="131.4998" y="1078.8079"/><rect fill="#F1F1F1" height="2" style="stroke:#181818;stroke-width:0.5;" width="4" x="129.4998" y="1080.8079"/><rect fill="#F1F1F1" height="2" style="stroke:#181818;stroke-width:0.5;" width="4" x="129.4998" y="1084.8079"/><text fill="#000000" font-family="sans-serif" font-size="14" lengthAdjust="spacing" textLength="48.9998" x="77.5" y="1108.7739">uvicorn</text></g><!--entity endpoints--><g class="entity" data-entity="endpoints" data-source-line="43" data-uid="ent0027" id="entity_endpoints"><rect fill="#F1F1F1" height="49.0679" rx="2.5" ry="2.5" style="stroke:#181818;stroke-width:0.5;" width="106.2617" x="156.87" y="1073.8079"/><rect fill="#F1F1F1" height="10" style="stroke:#181818;stroke-width:0.5;" width="15" x="243.1317" y="1078.8079"/><rect fill="#F1F1F1" height="2" style="stroke:#181818;stroke-width:0.5;" width="4" x="241.1317" y="1080.8079"/><rect fill="#F1F1F1" height="2" style="stroke:#181818;stroke-width:0.5;" width="4" x="241.1317" y="1084.8079"/><text fill="#000000" font-family="sans-serif" font-size="14" lengthAdjust="spacing" textLength="66.2617" x="171.87" y="1108.7739">endpoints</text></g><!--entity APIRouter--><g class="entity" data-entity="APIRouter" data-source-line="44" data-uid="ent0028" id="entity_APIRouter"><rect fill="#F1F1F1" height="49.0679" rx="2.5" ry="2.5" style="stroke:#181818;stroke-width:0.5;" width="106.7238" x="267.64" y="1073.8079"/><rect fill="#F1F1F1" height="10" style="stroke:#181818;stroke-width:0.5;" width="15" x="354.3638" y="1078.8079"/><rect fill="#F1F1F1" height="2" style="stroke:#181818;stroke-width:0.5;" width="4" x="352.3638" y="1080.8079"/><rect fill="#F1F1F1" height="2" style="stroke:#181818;stroke-width:0.5;" width="4" x="352.3638" y="1084.8079"/><text fill="#000000" font-family="sans-serif" font-size="14" lengthAdjust="spacing" textLength="66.7238" x="282.64" y="1108.7739">APIRouter</text></g><g class="entity" data-entity="port80" data-source-line="46" data-uid="ent0029" id="entity_port80"><text fill="#000000" font-family="sans-serif" font-size="14" lengthAdjust="spacing" textLength="47.5438" x="129.2281" y="800.1059">Port:80</text><rect fill="#F1F1F1" height="12" style="stroke:#181818;stroke-width:1.5;" width="12" x="147" y="816.2079"/></g><g class="entity" data-entity="port443" data-source-line="47" data-uid="ent0030" id="entity_port443"><text fill="#000000" font-family="sans-serif" font-size="14" lengthAdjust="spacing" textLength="55.5518" x="248.7241" y="800.1059">Port:443</text><rect fill="#F1F1F1" height="12" style="stroke:#181818;stroke-width:1.5;" width="12" x="270.5" y="816.2079"/></g><g class="entity" data-entity="port9501" data-source-line="48" data-uid="ent0031" id="entity_port9501"><text fill="#000000" font-family="sans-serif" font-size="14" lengthAdjust="spacing" textLength="63.5598" x="367.3901" y="800.1059">Port:9501</text><rect fill="#F1F1F1" height="12" style="stroke:#181818;stroke-width:1.5;" width="12" x="393.17" y="816.2079"/></g><g class="entity" data-entity="port5432" data-source-line="49" data-uid="ent0032" id="entity_port5432"><text fill="#000000" font-family="sans-serif" font-size="14" lengthAdjust="spacing" textLength="63.5598" x="525.3901" y="1037.2439">Port:5432</text><rect fill="#F1F1F1" height="12" style="stroke:#181818;stroke-width:1.5;" width="12" x="551.17" y="1010.2779"/></g><!--entity PostgreSQL--><g class="entity" data-entity="PostgreSQL" data-source-line="70" data-uid="ent0046" id="entity_PostgreSQL"><rect fill="#F1F1F1" height="49.0679" rx="2.5" ry="2.5" style="stroke:#181818;stroke-width:0.5;" width="116.9437" x="260.53" y="1374.4079"/><rect fill="#F1F1F1" height="10" style="stroke:#181818;stroke-width:0.5;" width="15" x="357.4737" y="1379.4079"/><rect fill="#F1F1F1" height="2" style="stroke:#181818;stroke-width:0.5;" width="4" x="355.4737" y="1381.4079"/><rect fill="#F1F1F1" height="2" style="stroke:#181818;stroke-width:0.5;" width="4" x="355.4737" y="1385.4079"/><text fill="#000000" font-family="sans-serif" font-size="14" lengthAdjust="spacing" textLength="76.9437" x="275.53" y="1409.3739">PostgreSQL</text></g><g class="entity" data-entity="PostgreSQL_port5432" data-source-line="71" data-uid="ent0047" id="entity_PostgreSQL_port5432"><text fill="#000000" font-family="sans-serif" font-size="14" lengthAdjust="spacing" textLength="63.5598" x="463.3901" y="1255.3059">Port:5432</text><rect fill="#F1F1F1" height="12" style="stroke:#181818;stroke-width:1.5;" width="12" x="489.17" y="1271.4079"/></g><!--entity I01--><g class="entity" data-entity="I01" data-source-line="4" data-uid="ent0002" id="entity_I01"><ellipse cx="274" cy="253.0679" fill="#F1F1F1" rx="8" ry="8" style="stroke:#181818;stroke-width:0.5;"/></g><!--entity I02--><g class="entity" data-entity="I02" data-source-line="5" data-uid="ent0003" id="entity_I02"><ellipse cx="378" cy="253.0679" fill="#F1F1F1" rx="8" ry="8" style="stroke:#181818;stroke-width:0.5;"/></g><!--entity I03--><g class="entity" data-entity="I03" data-source-line="6" data-uid="ent0004" id="entity_I03"><ellipse cx="154" cy="398.6079" fill="#F1F1F1" rx="8" ry="8" style="stroke:#181818;stroke-width:0.5;"/></g><!--link ClientPort80 to I01--><g class="link" data-entity-1="ClientPort80" data-entity-2="I01" data-source-line="20" data-uid="lnk12" id="link_ClientPort80_I01"><path d="M263.44,138.8379 C265.13,156.9479 270.2216,211.5811 272.3316,234.2111" fill="none" id="ClientPort80-to-I01" style="stroke:#181818;stroke-width:1;"/><path d="M281.3949,240.3179 A9,9 0 0 0 264.5535 241.8882" fill="none" style="stroke:#181818;stroke-width:1.5;"/><text fill="#000000" font-family="sans-serif" font-size="13" lengthAdjust="spacing" textLength="29.289" x="271.13" y="199.4649">Uses</text></g><!--link I01 to cloudflare--><g class="link" data-entity-1="I01" data-entity-2="cloudflare" data-source-line="21" data-uid="lnk13" id="link_I01_cloudflare"><path d="M274.16,261.7879 C274.6,282.6379 275.81,340.7279 276.5,373.7879" fill="none" id="I01-cloudflare" style="stroke:#181818;stroke-width:1;"/></g><!--link ClientPort443 to I02--><g class="link" data-entity-1="ClientPort443" data-entity-2="I02" data-source-line="23" data-uid="lnk14" id="link_ClientPort443_I02"><path d="M386.64,138.8379 C385.25,156.9479 381.0922,211.567 379.3622,234.197" fill="none" id="ClientPort443-to-I02" style="stroke:#181818;stroke-width:1;"/><path d="M387.2673,241.7433 A9,9 0 0 0 370.402 240.454" fill="none" style="stroke:#181818;stroke-width:1.5;"/><text fill="#000000" font-family="sans-serif" font-size="13" lengthAdjust="spacing" textLength="29.289" x="385.34" y="199.4649">Uses</text></g><!--link I02 to cloudflare--><g class="link" data-entity-1="I02" data-entity-2="cloudflare" data-source-line="24" data-uid="lnk15" id="link_I02_cloudflare"><path d="M372.57,261.7879 C357.9,282.6379 317.02,340.7279 293.76,373.7879" fill="none" id="I02-cloudflare" style="stroke:#181818;stroke-width:1;"/></g><!--link ISpindel_port to I03--><g class="link" data-entity-1="ISpindel_port" data-entity-2="I03" data-source-line="26" data-uid="lnk16" id="link_ISpindel_port_I03"><path d="M130.8,258.8479 C134.28,279.6679 146.5006,352.7749 150.9606,379.4449" fill="none" id="ISpindel_port-to-I03" style="stroke:#181818;stroke-width:1;"/><path d="M160.4437,384.877 A9,9 0 0 0 143.7609 387.6668" fill="none" style="stroke:#181818;stroke-width:1.5;"/><text fill="#000000" font-family="sans-serif" font-size="13" lengthAdjust="spacing" textLength="92.7291" x="141.56" y="315.9649">Transmits Data</text></g><!--link I03 to cloudflare--><g class="link" data-entity-1="I03" data-entity-2="cloudflare" data-source-line="27" data-uid="lnk17" id="link_I03_cloudflare"><path d="M163.13,398.6079 C183,398.6079 202.87,398.6079 222.73,398.6079" fill="none" id="I03-cloudflare" style="stroke:#181818;stroke-width:1;"/></g><!--link cloudflare to CloudflareTunnel--><g class="link" data-entity-1="cloudflare" data-entity-2="CloudflareTunnel" data-source-line="36" data-uid="lnk21" id="link_cloudflare_CloudflareTunnel"><path d="M277,441.2979 C277,480.3179 277,521.6879 277,560.8179" fill="none" id="cloudflare-CloudflareTunnel" style="stroke:#181818;stroke-width:1;stroke-dasharray:7,7;"/><polygon fill="none" points="277,423.2979,271,441.2979,283,441.2979,277,423.2979" style="stroke:#181818;stroke-width:1;"/><polygon fill="none" points="277,578.8179,283,560.8179,271,560.8179,277,578.8179" style="stroke:#181818;stroke-width:1;"/><text fill="#000000" font-family="sans-serif" font-size="13" lengthAdjust="spacing" textLength="63.7651" x="278" y="470.0349">&#171;TUNNEL&#187;</text></g><!--link api to HoppyBrew--><g class="link" data-entity-1="api" data-entity-2="HoppyBrew" data-source-line="52" data-uid="lnk33" id="link_api_HoppyBrew"><path d="M152.85,943.7379 C172.89,943.7379 196.79,943.7379 218.24,943.7379" fill="none" id="api-HoppyBrew" style="stroke:#181818;stroke-width:1;"/><text fill="#000000" font-family="sans-serif" font-size="13" lengthAdjust="spacing" textLength="29.289" x="171.01" y="936.6349">Uses</text></g><!--link HoppyBrew to db_adapter--><g class="link" data-entity-1="HoppyBrew" data-entity-2="db_adapter" data-source-line="53" data-uid="lnk34" id="link_HoppyBrew_db_adapter"><path d="M314.59,968.5579 C327.52,977.3479 341.8,987.7379 354,998.2779 C377.39,1018.4679 401.19,1043.9379 418.86,1063.9979" fill="none" id="HoppyBrew-db_adapter" style="stroke:#181818;stroke-width:1;"/><text fill="#000000" font-family="sans-serif" font-size="13" lengthAdjust="spacing" textLength="29.289" x="390.12" y="1021.6749">Uses</text></g><!--link api to uvicorn--><g class="link" data-entity-1="api" data-entity-2="uvicorn" data-source-line="54" data-uid="lnk35" id="link_api_uvicorn"><path d="M107.84,968.5879 C107.66,997.1679 107.34,1044.7879 107.16,1073.4179" fill="none" id="api-uvicorn" style="stroke:#181818;stroke-width:1;"/><text fill="#000000" font-family="sans-serif" font-size="13" lengthAdjust="spacing" textLength="30.381" x="108.65" y="1021.6749">Runs</text></g><!--link api to endpoints--><g class="link" data-entity-1="api" data-entity-2="endpoints" data-source-line="55" data-uid="lnk36" id="link_api_endpoints"><path d="M126.55,968.6879 C133.45,977.8179 141.25,988.4179 148,998.2779 C165.2,1023.3879 183.53,1053.0779 195.76,1073.3679" fill="none" id="api-endpoints" style="stroke:#181818;stroke-width:1;"/><text fill="#000000" font-family="sans-serif" font-size="13" lengthAdjust="spacing" textLength="29.289" x="171.93" y="1021.6749">Uses</text></g><!--link api to APIRouter--><g class="link" data-entity-1="api" data-entity-2="APIRouter" data-source-line="56" data-uid="lnk37" id="link_api_APIRouter"><path d="M152.8,965.2679 C171.13,974.4179 192.16,985.9179 210,998.2779 C242.7,1020.9279 276.22,1052.1779 297.75,1073.4879" fill="none" id="api-APIRouter" style="stroke:#181818;stroke-width:1;"/><text fill="#000000" font-family="sans-serif" font-size="13" lengthAdjust="spacing" textLength="29.289" x="255.9" y="1021.6749">Uses</text></g><!--link port80 to api--><g class="link" data-entity-1="port80" data-entity-2="api" data-source-line="59" data-uid="lnk38" id="link_port80_api"><path d="M151.18,828.0379 C145.49,843.1479 127.77,890.2179 116.88,919.1579" fill="none" id="port80-api" style="stroke:#181818;stroke-width:1;"/><text fill="#000000" font-family="sans-serif" font-size="13" lengthAdjust="spacing" textLength="56.6411" x="135.53" y="885.1049">Connects</text></g><!--link db_adapter to port5432--><g class="link" data-entity-1="db_adapter" data-entity-2="port5432" data-source-line="60" data-uid="lnk39" id="link_db_adapter_port5432"><path d="M493.92,1063.7979 C516.38,1047.7479 540.84,1030.2579 552.33,1022.0479" fill="none" id="db_adapter-port5432" style="stroke:#181818;stroke-width:1;"/></g><!--link CloudflareTunnel to I04--><g class="link" data-entity-1="CloudflareTunnel" data-entity-2="I04" data-source-line="64" data-uid="lnk41" id="link_CloudflareTunnel_I04"><path d="M277,628.5779 C277,655.8279 277,688.8679 277,706.3879" fill="none" id="CloudflareTunnel-to-I04" style="stroke:#181818;stroke-width:1;"/><path d="M285.4572,713.3097 A9,9 0 0 0 268.5428 713.3097" fill="none" style="stroke:#181818;stroke-width:1.5;"/><text fill="#000000" font-family="sans-serif" font-size="13" lengthAdjust="spacing" textLength="29.289" x="278" y="673.1049">Uses</text></g><!--link I04 to port80--><g class="link" data-entity-1="I04" data-entity-2="port80" data-source-line="65" data-uid="lnk42" id="link_I04_port80"><path d="M268.08,733.0379 C244.09,751.4179 178.66,801.5479 158.79,816.7679" fill="none" id="I04-port80" style="stroke:#181818;stroke-width:1;"/></g><!--link I04 to port443--><g class="link" data-entity-1="I04" data-entity-2="port443" data-source-line="66" data-uid="lnk43" id="link_I04_port443"><path d="M277,733.9779 C277,752.9479 277,801.1579 277,816.4679" fill="none" id="I04-port443" style="stroke:#181818;stroke-width:1;"/></g><!--link I04 to port9501--><g class="link" data-entity-1="I04" data-entity-2="port9501" data-source-line="67" data-uid="lnk44" id="link_I04_port9501"><path d="M285.92,733.0379 C309.69,751.2479 374.13,800.6279 394.64,816.3379" fill="none" id="I04-port9501" style="stroke:#181818;stroke-width:1;"/></g><!--link PostgreSQL_port5432 to PostgreSQL--><g class="link" data-entity-1="PostgreSQL_port5432" data-entity-2="PostgreSQL" data-source-line="72" data-uid="lnk48" id="link_PostgreSQL_port5432_PostgreSQL"><path d="M489.8,1283.2479 C467.36,1298.3079 397.61,1345.1479 354.5,1374.1079" fill="none" id="PostgreSQL_port5432-PostgreSQL" style="stroke:#181818;stroke-width:1;"/><text fill="#000000" font-family="sans-serif" font-size="13" lengthAdjust="spacing" textLength="56.6411" x="424.94" y="1340.3049">Connects</text></g><!--link port5432 to I05--><g class="link" data-entity-1="port5432" data-entity-2="I05" data-source-line="76" data-uid="lnk50" id="link_port5432_I05"><path d="M558.71,1021.9479 C557.32,1044.5879 551.8627,1132.8767 550.1027,1161.5467" fill="none" id="port5432-to-I05" style="stroke:#181818;stroke-width:1;"/><path d="M558.12,1168.9737 A9,9 0 0 0 541.2373 1167.9373" fill="none" style="stroke:#181818;stroke-width:1.5;"/><text fill="#000000" font-family="sans-serif" font-size="13" lengthAdjust="spacing" textLength="29.289" x="557.05" y="1103.7349">Uses</text></g><!--link I05 to PostgreSQL_port5432--><g class="link" data-entity-1="I05" data-entity-2="PostgreSQL_port5432" data-source-line="77" data-uid="lnk51" id="link_I05_PostgreSQL_port5432"><path d="M544.74,1189.1879 C534.36,1208.1479 507.97,1256.3579 499.6,1271.6679" fill="none" id="I05-PostgreSQL_port5432" style="stroke:#181818;stroke-width:1;"/></g><!--SRC=[bPHBRnen483l_XKMfrus8Zoa526aaAGgKfJI0Egb4ZAx3hMws9PjeAZXltUy3zlxYbHooCxCD-EPyOmDCod5FtunG_5S_C7VJbIHDCMhYpRqW13ZXget4bFSWp-YyQ9_swOSj2c72CNY80MdtE3UGyhi_xaIPqrLXkIgGlCNOVX9eOmu0hw4ZybTF-2ivgxVGer6mne66dGD3r-i9EC9JVFC2g7jnC_Z_cq5sbex14DnAeu9HB9rScfwE7UlL0Z4MqeKpIB4JhJkOGquIiIPHvziD_44RpJLo7xcwi0HXtvGLE0uy8w3fYD2bVnnbFaCmMUj2DS7PZH-98OWgwoT23z5OqFu7aQZj-6Ai0Ilg3hPMykBvY81qwE8VrE5d_YUSLgQFkw95zT7pccAl8zFOVf-S_C-Qx2G_7IwthoyF3tFPjunp-LUIlmWk26GIZvSe4bPJ0mJVEiiGPArHByAAIzpHS-PivEwyAM-n4BkV_9a5v64I5ESckosXTZb-OLeSxzSP3IHh0ixdbWi5C-muhiBfJoH0lPFPx2Jkd0u_1K6lcnJAQ4ARwU6yUeQIh-0hLYvXxBOm4xGBPdLMg61-eKSZuO3nrgXmbQJXdR2CBkxApSaHBmnYeBBQaEpQ57PV0p8wv6t8gxb-8Cuhj4EgbPIRu5x9h804plT7DQo6Zkee83BDhLvNFsHBS_ro1aRcvS_7wDwTLOLHVMv2BJX50JgxCgT8O5tQ4SqjHUkpLxHrVVdS9SxLzRZMGLUx9uyDqqUthOELeiTHYj8yB_REqPXHdb0zvgFcwqTbpVQbUeLNVy1]--></g></svg>