<svg xmlns="http://www.w3.org/2000/svg" xmlns:xlink="http://www.w3.org/1999/xlink" contentStyleType="text/css" data-diagram-type="CLASS" height="284px" preserveAspectRatio="none" style="width:267px;height:284px;background:#FFFFFF;" version="1.1" viewBox="0 0 267 284" width="267px" zoomAndPan="magnify"><defs/><g><!--class Advanced--><g class="entity" data-entity="Advanced" data-source-line="1" data-uid="ent0002" id="entity_Advanced"><rect fill="#F1F1F1" height="162.4075" rx="2.5" ry="2.5" style="stroke:#181818;stroke-width:0.5;" width="253.6951" x="7" y="115"/><ellipse cx="97.3977" cy="131" fill="#ADD1B2" rx="11" ry="11" style="stroke:#181818;stroke-width:1;"/><path d="M97.507,126.5313 Q96.5852,126.5313 95.8508,126.8438 Q95.132,127.1563 94.632,127.75 Q94.132,128.3281 93.8508,129.2031 Q93.5852,130.0781 93.5852,131.1719 Q93.5852,132.6094 94.0227,133.6563 Q94.4758,134.7031 95.3195,135.25 Q96.1789,135.7969 97.4914,135.7969 Q98.2727,135.7969 98.9602,135.6719 Q99.6633,135.5313 100.6633,135.2188 L100.6633,137.0938 Q99.8039,137.4219 99.0383,137.5469 Q98.2883,137.6719 97.2727,137.6719 Q95.3508,137.6719 94.0383,136.875 Q92.7414,136.0625 92.0852,134.5938 Q91.4289,133.1094 91.4289,131.1406 Q91.4289,129.7188 91.8195,128.5469 Q92.2258,127.3594 93.007,126.4844 Q93.7883,125.6094 94.9289,125.1406 Q96.0695,124.6563 97.5383,124.6563 Q98.4914,124.6563 99.382,124.8594 Q100.2883,125.0469 101.2258,125.5156 L100.3977,127.2969 Q99.6164,126.9219 98.9602,126.7344 Q98.3039,126.5313 97.507,126.5313 Z " fill="#000000"/><text fill="#000000" font-family="sans-serif" font-size="14" lengthAdjust="spacing" textLength="64.3997" x="117.8977" y="136.432">Advanced</text><line style="stroke:#181818;stroke-width:0.5;" x1="8" x2="259.6951" y1="147" y2="147"/><ellipse cx="18" cy="162.034" fill="none" rx="3" ry="3" style="stroke:#038048;stroke-width:1;"/><text fill="#000000" font-family="sans-serif" font-size="14" lengthAdjust="spacing" textLength="52.7798" x="27" y="165.9659">id : uuid</text><line style="stroke:#181818;stroke-width:1;" x1="8" x2="259.6951" y1="174.0679" y2="174.0679"/><text fill="#000000" font-family="sans-serif" font-size="14" lengthAdjust="spacing" textLength="228.8851" x="13" y="193.0339">hop_utilization_multiplier : decimal</text><text fill="#000000" font-family="sans-serif" font-size="14" lengthAdjust="spacing" textLength="208.4032" x="13" y="212.1018">aroma_hop_utilization : decimal</text><text fill="#000000" font-family="sans-serif" font-size="14" lengthAdjust="spacing" textLength="241.6951" x="13" y="231.1697">calc_aroma_hop_utilization : boolean</text><text fill="#000000" font-family="sans-serif" font-size="14" lengthAdjust="spacing" textLength="165.8994" x="13" y="250.2376">hopstand_temp : decimal</text><text fill="#000000" font-family="sans-serif" font-size="14" lengthAdjust="spacing" textLength="160.1174" x="13" y="269.3055">whirlbool_time : decimal</text></g><!--class EquipmentProfile--><g class="entity" data-entity="EquipmentProfile" data-source-line="11" data-uid="ent0003" id="entity_EquipmentProfile"><rect fill="#F1F1F1" height="48" rx="2.5" ry="2.5" style="stroke:#181818;stroke-width:0.5;" width="146.6176" x="60.54" y="7"/><ellipse cx="75.54" cy="23" fill="#ADD1B2" rx="11" ry="11" style="stroke:#181818;stroke-width:1;"/><path d="M75.6494,18.5313 Q74.7275,18.5313 73.9931,18.8438 Q73.2744,19.1563 72.7744,19.75 Q72.2744,20.3281 71.9931,21.2031 Q71.7275,22.0781 71.7275,23.1719 Q71.7275,24.6094 72.165,25.6563 Q72.6181,26.7031 73.4619,27.25 Q74.3212,27.7969 75.6337,27.7969 Q76.415,27.7969 77.1025,27.6719 Q77.8056,27.5313 78.8056,27.2188 L78.8056,29.0938 Q77.9462,29.4219 77.1806,29.5469 Q76.4306,29.6719 75.415,29.6719 Q73.4931,29.6719 72.1806,28.875 Q70.8837,28.0625 70.2275,26.5938 Q69.5712,25.1094 69.5712,23.1406 Q69.5712,21.7188 69.9619,20.5469 Q70.3681,19.3594 71.1494,18.4844 Q71.9306,17.6094 73.0712,17.1406 Q74.2119,16.6563 75.6806,16.6563 Q76.6337,16.6563 77.5244,16.8594 Q78.4306,17.0469 79.3681,17.5156 L78.54,19.2969 Q77.7587,18.9219 77.1025,18.7344 Q76.4462,18.5313 75.6494,18.5313 Z " fill="#000000"/><text fill="#000000" font-family="sans-serif" font-size="14" lengthAdjust="spacing" textLength="114.6176" x="89.54" y="28.432">EquipmentProfile</text><line style="stroke:#181818;stroke-width:0.5;" x1="61.54" x2="206.1576" y1="39" y2="39"/><line style="stroke:#181818;stroke-width:0.5;" x1="61.54" x2="206.1576" y1="47" y2="47"/></g><!--link EquipmentProfile to Advanced--><g class="link" data-entity-1="EquipmentProfile" data-entity-2="Advanced" data-source-line="11" data-uid="lnk4" id="link_EquipmentProfile_Advanced"><path codeLine="11" d="M133.85,55.39 C133.85,71.16 133.85,93 133.85,114.73" fill="none" id="EquipmentProfile-Advanced" style="stroke:#181818;stroke-width:1;"/></g><!--SRC=[TSzB2W8n30RW_PmYp5Rc0kvSkFS69RQH2QGFsrH1yUxMmeWKp2Ryv2CXLh0Kc0_kXi6Icm4BR06U4xJQ0JlOGwtiUbwMtjQOJ5KMVg1o3CPNKKx2b1jsPDcZT8WvUZG37un5iUOVFCSeX66xMXI3Cqe-3KlkAsVvOAFiwMVucgRZjNBo5FIKuuM5sXVVFzy0]--></g></svg>