<svg xmlns="http://www.w3.org/2000/svg" xmlns:xlink="http://www.w3.org/1999/xlink" contentStyleType="text/css" data-diagram-type="CLASS" height="265px" preserveAspectRatio="none" style="width:222px;height:265px;background:#FFFFFF;" version="1.1" viewBox="0 0 222 265" width="222px" zoomAndPan="magnify"><defs/><g><!--class Boil_Temperature--><g class="entity" data-entity="Boil_Temperature" data-source-line="2" data-uid="ent0002" id="entity_Boil_Temperature"><rect fill="#F1F1F1" height="143.3396" rx="2.5" ry="2.5" style="stroke:#181818;stroke-width:0.5;" width="208.3353" x="7" y="115"/><ellipse cx="48.5634" cy="131" fill="#ADD1B2" rx="11" ry="11" style="stroke:#181818;stroke-width:1;"/><path d="M48.6727,126.5313 Q47.7509,126.5313 47.0165,126.8438 Q46.2977,127.1563 45.7977,127.75 Q45.2977,128.3281 45.0165,129.2031 Q44.7509,130.0781 44.7509,131.1719 Q44.7509,132.6094 45.1884,133.6563 Q45.6415,134.7031 46.4852,135.25 Q47.3446,135.7969 48.6571,135.7969 Q49.4384,135.7969 50.1259,135.6719 Q50.829,135.5313 51.829,135.2188 L51.829,137.0938 Q50.9696,137.4219 50.204,137.5469 Q49.454,137.6719 48.4384,137.6719 Q46.5165,137.6719 45.204,136.875 Q43.9071,136.0625 43.2509,134.5938 Q42.5946,133.1094 42.5946,131.1406 Q42.5946,129.7188 42.9852,128.5469 Q43.3915,127.3594 44.1727,126.4844 Q44.954,125.6094 46.0946,125.1406 Q47.2352,124.6563 48.704,124.6563 Q49.6571,124.6563 50.5477,124.8594 Q51.454,125.0469 52.3915,125.5156 L51.5634,127.2969 Q50.7821,126.9219 50.1259,126.7344 Q49.4696,126.5313 48.6727,126.5313 Z " fill="#000000"/><text fill="#000000" font-family="sans-serif" font-size="14" lengthAdjust="spacing" textLength="117.3055" x="68.4663" y="136.432">Boil_Temperature</text><line style="stroke:#181818;stroke-width:0.5;" x1="8" x2="214.3353" y1="147" y2="147"/><ellipse cx="18" cy="162.034" fill="none" rx="3" ry="3" style="stroke:#038048;stroke-width:1;"/><text fill="#000000" font-family="sans-serif" font-size="14" lengthAdjust="spacing" textLength="52.7798" x="27" y="165.9659">id : uuid</text><line style="stroke:#181818;stroke-width:1;" x1="8" x2="214.3353" y1="174.0679" y2="174.0679"/><text fill="#000000" font-family="sans-serif" font-size="14" lengthAdjust="spacing" textLength="196.3353" x="13" y="193.0339">altitude_adjustment : boolean</text><text fill="#000000" font-family="sans-serif" font-size="14" lengthAdjust="spacing" textLength="112.7696" x="13" y="212.1018">altitude : decimal</text><text fill="#000000" font-family="sans-serif" font-size="14" lengthAdjust="spacing" textLength="127.5955" x="13" y="231.1697">boil_temp : decimal</text><text fill="#000000" font-family="sans-serif" font-size="14" lengthAdjust="spacing" textLength="182.0273" x="13" y="250.2376">cooling_shrinkage : decimal</text></g><!--class EquipmentProfile--><g class="entity" data-entity="EquipmentProfile" data-source-line="11" data-uid="ent0003" id="entity_EquipmentProfile"><rect fill="#F1F1F1" height="48" rx="2.5" ry="2.5" style="stroke:#181818;stroke-width:0.5;" width="146.6176" x="37.86" y="7"/><ellipse cx="52.86" cy="23" fill="#ADD1B2" rx="11" ry="11" style="stroke:#181818;stroke-width:1;"/><path d="M52.9694,18.5313 Q52.0475,18.5313 51.3131,18.8438 Q50.5944,19.1563 50.0944,19.75 Q49.5944,20.3281 49.3131,21.2031 Q49.0475,22.0781 49.0475,23.1719 Q49.0475,24.6094 49.485,25.6563 Q49.9381,26.7031 50.7819,27.25 Q51.6413,27.7969 52.9538,27.7969 Q53.735,27.7969 54.4225,27.6719 Q55.1256,27.5313 56.1256,27.2188 L56.1256,29.0938 Q55.2663,29.4219 54.5006,29.5469 Q53.7506,29.6719 52.735,29.6719 Q50.8131,29.6719 49.5006,28.875 Q48.2038,28.0625 47.5475,26.5938 Q46.8913,25.1094 46.8913,23.1406 Q46.8913,21.7188 47.2819,20.5469 Q47.6881,19.3594 48.4694,18.4844 Q49.2506,17.6094 50.3913,17.1406 Q51.5319,16.6563 53.0006,16.6563 Q53.9538,16.6563 54.8444,16.8594 Q55.7506,17.0469 56.6881,17.5156 L55.86,19.2969 Q55.0788,18.9219 54.4225,18.7344 Q53.7663,18.5313 52.9694,18.5313 Z " fill="#000000"/><text fill="#000000" font-family="sans-serif" font-size="14" lengthAdjust="spacing" textLength="114.6176" x="66.86" y="28.432">EquipmentProfile</text><line style="stroke:#181818;stroke-width:0.5;" x1="38.86" x2="183.4776" y1="39" y2="39"/><line style="stroke:#181818;stroke-width:0.5;" x1="38.86" x2="183.4776" y1="47" y2="47"/></g><!--link EquipmentProfile to Boil_Temperature--><g class="link" data-entity-1="EquipmentProfile" data-entity-2="Boil_Temperature" data-source-line="11" data-uid="lnk4" id="link_EquipmentProfile_Boil_Temperature"><path codeLine="11" d="M111.17,55.34 C111.17,71.29 111.17,93.35 111.17,114.79" fill="none" id="EquipmentProfile-Boil_Temperature" style="stroke:#181818;stroke-width:1;"/></g><!--SRC=[POwn3i8m34JtV8NL5VK7697O6TWZDp75u2GbSQQAVoVD1CNBoKztkdE2fS1mIYpsIc6XZ5ep3O05zX1M0-qEm1wEK2lx_ezZ5nHbhPui-aSj6YXgSqqf2M7ySJJioN50wNZQQhJLxBXhKOwpBVVCyOdpT-vjpFbLUTbQBZdTMAZj-5ly0G00]--></g></svg>