<svg xmlns="http://www.w3.org/2000/svg" xmlns:xlink="http://www.w3.org/1999/xlink" contentStyleType="text/css" data-diagram-type="CLASS" height="246px" preserveAspectRatio="none" style="width:230px;height:246px;background:#FFFFFF;" version="1.1" viewBox="0 0 230 246" width="230px" zoomAndPan="magnify"><defs/><g><!--class Efficiency--><g class="entity" data-entity="Efficiency" data-source-line="1" data-uid="ent0002" id="entity_Efficiency"><rect fill="#F1F1F1" height="124.2717" rx="2.5" ry="2.5" style="stroke:#181818;stroke-width:0.5;" width="216.1892" x="7" y="115"/><ellipse cx="79.9607" cy="131" fill="#ADD1B2" rx="11" ry="11" style="stroke:#181818;stroke-width:1;"/><path d="M80.0701,126.5313 Q79.1482,126.5313 78.4138,126.8438 Q77.6951,127.1563 77.1951,127.75 Q76.6951,128.3281 76.4138,129.2031 Q76.1482,130.0781 76.1482,131.1719 Q76.1482,132.6094 76.5857,133.6563 Q77.0388,134.7031 77.8826,135.25 Q78.742,135.7969 80.0545,135.7969 Q80.8357,135.7969 81.5232,135.6719 Q82.2263,135.5313 83.2263,135.2188 L83.2263,137.0938 Q82.367,137.4219 81.6013,137.5469 Q80.8513,137.6719 79.8357,137.6719 Q77.9138,137.6719 76.6013,136.875 Q75.3045,136.0625 74.6482,134.5938 Q73.992,133.1094 73.992,131.1406 Q73.992,129.7188 74.3826,128.5469 Q74.7888,127.3594 75.5701,126.4844 Q76.3513,125.6094 77.492,125.1406 Q78.6326,124.6563 80.1013,124.6563 Q81.0545,124.6563 81.9451,124.8594 Q82.8513,125.0469 83.7888,125.5156 L82.9607,127.2969 Q82.1795,126.9219 81.5232,126.7344 Q80.867,126.5313 80.0701,126.5313 Z " fill="#000000"/><text fill="#000000" font-family="sans-serif" font-size="14" lengthAdjust="spacing" textLength="61.7677" x="100.4607" y="136.432">Efficiency</text><line style="stroke:#181818;stroke-width:0.5;" x1="8" x2="222.1892" y1="147" y2="147"/><ellipse cx="18" cy="162.034" fill="none" rx="3" ry="3" style="stroke:#038048;stroke-width:1;"/><text fill="#000000" font-family="sans-serif" font-size="14" lengthAdjust="spacing" textLength="52.7798" x="27" y="165.9659">id : uuid</text><line style="stroke:#181818;stroke-width:1;" x1="8" x2="222.1892" y1="174.0679" y2="174.0679"/><text fill="#000000" font-family="sans-serif" font-size="14" lengthAdjust="spacing" textLength="204.1892" x="13" y="193.0339">brewhouse_efficiency : decimal</text><text fill="#000000" font-family="sans-serif" font-size="14" lengthAdjust="spacing" textLength="166.8233" x="13" y="212.1018">mash_efficiency : decimal</text><text fill="#000000" font-family="sans-serif" font-size="14" lengthAdjust="spacing" textLength="200.1152" x="13" y="231.1697">calc_mash_efficiency : boolean</text></g><!--class EquipmentProfile--><g class="entity" data-entity="EquipmentProfile" data-source-line="9" data-uid="ent0003" id="entity_EquipmentProfile"><rect fill="#F1F1F1" height="48" rx="2.5" ry="2.5" style="stroke:#181818;stroke-width:0.5;" width="146.6176" x="41.79" y="7"/><ellipse cx="56.79" cy="23" fill="#ADD1B2" rx="11" ry="11" style="stroke:#181818;stroke-width:1;"/><path d="M56.8994,18.5313 Q55.9775,18.5313 55.2431,18.8438 Q54.5244,19.1563 54.0244,19.75 Q53.5244,20.3281 53.2431,21.2031 Q52.9775,22.0781 52.9775,23.1719 Q52.9775,24.6094 53.415,25.6563 Q53.8681,26.7031 54.7119,27.25 Q55.5713,27.7969 56.8838,27.7969 Q57.665,27.7969 58.3525,27.6719 Q59.0556,27.5313 60.0556,27.2188 L60.0556,29.0938 Q59.1963,29.4219 58.4306,29.5469 Q57.6806,29.6719 56.665,29.6719 Q54.7431,29.6719 53.4306,28.875 Q52.1338,28.0625 51.4775,26.5938 Q50.8213,25.1094 50.8213,23.1406 Q50.8213,21.7188 51.2119,20.5469 Q51.6181,19.3594 52.3994,18.4844 Q53.1806,17.6094 54.3213,17.1406 Q55.4619,16.6563 56.9306,16.6563 Q57.8838,16.6563 58.7744,16.8594 Q59.6806,17.0469 60.6181,17.5156 L59.79,19.2969 Q59.0088,18.9219 58.3525,18.7344 Q57.6963,18.5313 56.8994,18.5313 Z " fill="#000000"/><text fill="#000000" font-family="sans-serif" font-size="14" lengthAdjust="spacing" textLength="114.6176" x="70.79" y="28.432">EquipmentProfile</text><line style="stroke:#181818;stroke-width:0.5;" x1="42.79" x2="187.4076" y1="39" y2="39"/><line style="stroke:#181818;stroke-width:0.5;" x1="42.79" x2="187.4076" y1="47" y2="47"/></g><!--link EquipmentProfile to Efficiency--><g class="link" data-entity-1="EquipmentProfile" data-entity-2="Efficiency" data-source-line="9" data-uid="lnk4" id="link_EquipmentProfile_Efficiency"><path codeLine="9" d="M115.09,55.48 C115.09,71.59 115.09,93.77 115.09,114.72" fill="none" id="EquipmentProfile-Efficiency" style="stroke:#181818;stroke-width:1;"/></g><!--SRC=[TKv12eGm4Blt5ODNyGFUlVi36QTJ79YskywMPH7_hlJYWfXB24b8ID4CcY448U54lmRGu9AmEJZHWdZeeHJnLNTTfNdbxvABySHNemVF916rHYBQykmIAatto9opCYQtEpUyYxmYfy-uvY3Av_JVlGC0]--></g></svg>