<svg xmlns="http://www.w3.org/2000/svg" xmlns:xlink="http://www.w3.org/1999/xlink" contentStyleType="text/css" data-diagram-type="CLASS" height="934px" preserveAspectRatio="none" style="width:1292px;height:934px;background:#FFFFFF;" version="1.1" viewBox="0 0 1292 934" width="1292px" zoomAndPan="magnify"><defs/><g><!--class Recipes--><g class="entity" data-entity="Recipes" data-source-line="6" data-uid="ent0002" id="entity_Recipes"><rect fill="#F1F1F1" height="342.0188" rx="2.5" ry="2.5" style="stroke:#181818;stroke-width:0.5;" width="176.0094" x="422.77" y="7"/><ellipse cx="481.4508" cy="23" fill="#ADD1B2" rx="11" ry="11" style="stroke:#181818;stroke-width:1;"/><path d="M481.5602,18.5313 Q480.6383,18.5313 479.9039,18.8438 Q479.1852,19.1563 478.6852,19.75 Q478.1852,20.3281 477.9039,21.2031 Q477.6383,22.0781 477.6383,23.1719 Q477.6383,24.6094 478.0758,25.6563 Q478.5289,26.7031 479.3727,27.25 Q480.232,27.7969 481.5445,27.7969 Q482.3258,27.7969 483.0133,27.6719 Q483.7164,27.5313 484.7164,27.2188 L484.7164,29.0938 Q483.857,29.4219 483.0914,29.5469 Q482.3414,29.6719 481.3258,29.6719 Q479.4039,29.6719 478.0914,28.875 Q476.7945,28.0625 476.1383,26.5938 Q475.482,25.1094 475.482,23.1406 Q475.482,21.7188 475.8727,20.5469 Q476.2789,19.3594 477.0602,18.4844 Q477.8414,17.6094 478.982,17.1406 Q480.1227,16.6563 481.5914,16.6563 Q482.5445,16.6563 483.4352,16.8594 Q484.3414,17.0469 485.2789,17.5156 L484.4508,19.2969 Q483.6695,18.9219 483.0133,18.7344 Q482.357,18.5313 481.5602,18.5313 Z " fill="#000000"/><text fill="#000000" font-family="sans-serif" font-size="14" lengthAdjust="spacing" textLength="50.1478" x="501.9508" y="28.432">Recipes</text><line style="stroke:#181818;stroke-width:0.5;" x1="423.77" x2="597.7794" y1="39" y2="39"/><ellipse cx="433.77" cy="54.034" fill="none" rx="3" ry="3" style="stroke:#038048;stroke-width:1;"/><text fill="#000000" font-family="sans-serif" font-size="14" lengthAdjust="spacing" textLength="52.7798" x="442.77" y="57.9659">id : uuid</text><line style="stroke:#181818;stroke-width:1;" x1="423.77" x2="597.7794" y1="66.0679" y2="66.0679"/><text fill="#000000" font-family="sans-serif" font-size="14" lengthAdjust="spacing" textLength="86.9397" x="428.77" y="108.1018">name : string</text><text fill="#000000" font-family="sans-serif" font-size="14" lengthAdjust="spacing" textLength="123.1715" x="428.77" y="127.1697">description : string</text><text fill="#000000" font-family="sans-serif" font-size="14" lengthAdjust="spacing" textLength="79.8557" x="428.77" y="146.2376">style : string</text><text fill="#000000" font-family="sans-serif" font-size="14" lengthAdjust="spacing" textLength="130.3255" x="428.77" y="165.3055">batch_size : decimal</text><text fill="#000000" font-family="sans-serif" font-size="14" lengthAdjust="spacing" textLength="88.5217" x="428.77" y="184.3734">boil_time : int</text><text fill="#000000" font-family="sans-serif" font-size="14" lengthAdjust="spacing" textLength="124.3055" x="428.77" y="203.4414">efficiency : decimal</text><text fill="#000000" font-family="sans-serif" font-size="14" lengthAdjust="spacing" textLength="86.2257" x="428.77" y="222.5093">notes : string</text><line style="stroke:#181818;stroke-width:1;stroke-dasharray:1,2;" x1="423.77" x2="484.8328" y1="83.6019" y2="83.6019"/><text fill="#000000" font-family="sans-serif" font-size="14" lengthAdjust="spacing" textLength="51.8838" x="484.8328" y="88.5339">General</text><line style="stroke:#181818;stroke-width:1;stroke-dasharray:1,2;" x1="536.7166" x2="597.7794" y1="83.6019" y2="83.6019"/><text fill="#000000" font-family="sans-serif" font-size="14" lengthAdjust="spacing" textLength="164.0094" x="428.77" y="264.6451">original_gravity : decimal</text><text fill="#000000" font-family="sans-serif" font-size="14" lengthAdjust="spacing" textLength="142.3514" x="428.77" y="283.713">final_gravity : decimal</text><text fill="#000000" font-family="sans-serif" font-size="14" lengthAdjust="spacing" textLength="86.0017" x="428.77" y="302.7809">abv : decimal</text><text fill="#000000" font-family="sans-serif" font-size="14" lengthAdjust="spacing" textLength="83.2997" x="428.77" y="321.8489">ibu : decimal</text><text fill="#000000" font-family="sans-serif" font-size="14" lengthAdjust="spacing" textLength="88.0037" x="428.77" y="340.9168">srm : decimal</text><line style="stroke:#181818;stroke-width:1;stroke-dasharray:1,2;" x1="423.77" x2="470.9518" y1="240.1452" y2="240.1452"/><text fill="#000000" font-family="sans-serif" font-size="14" lengthAdjust="spacing" textLength="79.6457" x="470.9518" y="245.0772">Calculations</text><line style="stroke:#181818;stroke-width:1;stroke-dasharray:1,2;" x1="550.5975" x2="597.7794" y1="240.1452" y2="240.1452"/></g><!--class Hops--><g class="entity" data-entity="Hops" data-source-line="26" data-uid="ent0003" id="entity_Hops"><rect fill="#F1F1F1" height="162.4075" rx="2.5" ry="2.5" style="stroke:#181818;stroke-width:0.5;" width="111.0076" x="647.27" y="764.76"/><ellipse cx="682.4515" cy="780.76" fill="#ADD1B2" rx="11" ry="11" style="stroke:#181818;stroke-width:1;"/><path d="M682.5609,776.2913 Q681.639,776.2913 680.9046,776.6038 Q680.1859,776.9163 679.6859,777.51 Q679.1859,778.0881 678.9046,778.9631 Q678.639,779.8381 678.639,780.9319 Q678.639,782.3694 679.0765,783.4163 Q679.5296,784.4631 680.3734,785.01 Q681.2327,785.5569 682.5452,785.5569 Q683.3265,785.5569 684.014,785.4319 Q684.7171,785.2913 685.7171,784.9788 L685.7171,786.8538 Q684.8577,787.1819 684.0921,787.3069 Q683.3421,787.4319 682.3265,787.4319 Q680.4046,787.4319 679.0921,786.635 Q677.7952,785.8225 677.139,784.3538 Q676.4827,782.8694 676.4827,780.9006 Q676.4827,779.4788 676.8734,778.3069 Q677.2796,777.1194 678.0609,776.2444 Q678.8421,775.3694 679.9827,774.9006 Q681.1234,774.4163 682.5921,774.4163 Q683.5452,774.4163 684.4359,774.6194 Q685.3421,774.8069 686.2796,775.2756 L685.4515,777.0569 Q684.6702,776.6819 684.014,776.4944 Q683.3577,776.2913 682.5609,776.2913 Z " fill="#000000"/><text fill="#000000" font-family="sans-serif" font-size="14" lengthAdjust="spacing" textLength="34.1599" x="700.9363" y="786.192">Hops</text><line style="stroke:#181818;stroke-width:0.5;" x1="648.27" x2="757.2776" y1="796.76" y2="796.76"/><ellipse cx="658.27" cy="811.794" fill="none" rx="3" ry="3" style="stroke:#038048;stroke-width:1;"/><text fill="#000000" font-family="sans-serif" font-size="14" lengthAdjust="spacing" textLength="52.7798" x="667.27" y="815.7259">id : uuid</text><line style="stroke:#181818;stroke-width:1;" x1="648.27" x2="757.2776" y1="823.8279" y2="823.8279"/><text fill="#000000" font-family="sans-serif" font-size="14" lengthAdjust="spacing" textLength="86.9397" x="653.27" y="842.7939">name : string</text><text fill="#000000" font-family="sans-serif" font-size="14" lengthAdjust="spacing" textLength="88.1857" x="653.27" y="861.8618">origin : string</text><text fill="#000000" font-family="sans-serif" font-size="14" lengthAdjust="spacing" textLength="99.0076" x="653.27" y="880.9297">alpha : decimal</text><text fill="#000000" font-family="sans-serif" font-size="14" lengthAdjust="spacing" textLength="78.1477" x="653.27" y="899.9976">type : string</text><text fill="#000000" font-family="sans-serif" font-size="14" lengthAdjust="spacing" textLength="89.1657" x="653.27" y="919.0655">usage : string</text></g><!--class Fermentables--><g class="entity" data-entity="Fermentables" data-source-line="36" data-uid="ent0004" id="entity_Fermentables"><rect fill="#F1F1F1" height="162.4075" rx="2.5" ry="2.5" style="stroke:#181818;stroke-width:0.5;" width="183.9613" x="848.79" y="764.76"/><ellipse cx="891.5315" cy="780.76" fill="#ADD1B2" rx="11" ry="11" style="stroke:#181818;stroke-width:1;"/><path d="M891.6408,776.2913 Q890.719,776.2913 889.9846,776.6038 Q889.2658,776.9163 888.7658,777.51 Q888.2658,778.0881 887.9846,778.9631 Q887.719,779.8381 887.719,780.9319 Q887.719,782.3694 888.1565,783.4163 Q888.6096,784.4631 889.4533,785.01 Q890.3127,785.5569 891.6252,785.5569 Q892.4065,785.5569 893.094,785.4319 Q893.7971,785.2913 894.7971,784.9788 L894.7971,786.8538 Q893.9377,787.1819 893.1721,787.3069 Q892.4221,787.4319 891.4065,787.4319 Q889.4846,787.4319 888.1721,786.635 Q886.8752,785.8225 886.219,784.3538 Q885.5627,782.8694 885.5627,780.9006 Q885.5627,779.4788 885.9533,778.3069 Q886.3596,777.1194 887.1408,776.2444 Q887.9221,775.3694 889.0627,774.9006 Q890.2033,774.4163 891.6721,774.4163 Q892.6252,774.4163 893.5158,774.6194 Q894.4221,774.8069 895.3596,775.2756 L894.5315,777.0569 Q893.7502,776.6819 893.094,776.4944 Q892.4377,776.2913 891.6408,776.2913 Z " fill="#000000"/><text fill="#000000" font-family="sans-serif" font-size="14" lengthAdjust="spacing" textLength="90.3137" x="911.6962" y="786.192">Fermentables</text><line style="stroke:#181818;stroke-width:0.5;" x1="849.79" x2="1031.7513" y1="796.76" y2="796.76"/><ellipse cx="859.79" cy="811.794" fill="none" rx="3" ry="3" style="stroke:#038048;stroke-width:1;"/><text fill="#000000" font-family="sans-serif" font-size="14" lengthAdjust="spacing" textLength="52.7798" x="868.79" y="815.7259">id : uuid</text><line style="stroke:#181818;stroke-width:1;" x1="849.79" x2="1031.7513" y1="823.8279" y2="823.8279"/><text fill="#000000" font-family="sans-serif" font-size="14" lengthAdjust="spacing" textLength="86.9397" x="854.79" y="842.7939">name : string</text><text fill="#000000" font-family="sans-serif" font-size="14" lengthAdjust="spacing" textLength="78.1477" x="854.79" y="861.8618">type : string</text><text fill="#000000" font-family="sans-serif" font-size="14" lengthAdjust="spacing" textLength="95.4796" x="854.79" y="880.9297">color : decimal</text><text fill="#000000" font-family="sans-serif" font-size="14" lengthAdjust="spacing" textLength="121.2395" x="854.79" y="899.9976">potential : decimal</text><text fill="#000000" font-family="sans-serif" font-size="14" lengthAdjust="spacing" textLength="171.9613" x="854.79" y="919.0655">max_percentage : decimal</text></g><!--class Yeasts--><g class="entity" data-entity="Yeasts" data-source-line="46" data-uid="ent0005" id="entity_Yeasts"><rect fill="#F1F1F1" height="162.4075" rx="2.5" ry="2.5" style="stroke:#181818;stroke-width:0.5;" width="190.0233" x="1095.76" y="764.76"/><ellipse cx="1165.4517" cy="780.76" fill="#ADD1B2" rx="11" ry="11" style="stroke:#181818;stroke-width:1;"/><path d="M1165.5611,776.2913 Q1164.6392,776.2913 1163.9049,776.6038 Q1163.1861,776.9163 1162.6861,777.51 Q1162.1861,778.0881 1161.9049,778.9631 Q1161.6392,779.8381 1161.6392,780.9319 Q1161.6392,782.3694 1162.0767,783.4163 Q1162.5299,784.4631 1163.3736,785.01 Q1164.233,785.5569 1165.5455,785.5569 Q1166.3267,785.5569 1167.0142,785.4319 Q1167.7174,785.2913 1168.7174,784.9788 L1168.7174,786.8538 Q1167.858,787.1819 1167.0924,787.3069 Q1166.3424,787.4319 1165.3267,787.4319 Q1163.4049,787.4319 1162.0924,786.635 Q1160.7955,785.8225 1160.1392,784.3538 Q1159.483,782.8694 1159.483,780.9006 Q1159.483,779.4788 1159.8736,778.3069 Q1160.2799,777.1194 1161.0611,776.2444 Q1161.8424,775.3694 1162.983,774.9006 Q1164.1236,774.4163 1165.5924,774.4163 Q1166.5455,774.4163 1167.4361,774.6194 Q1168.3424,774.8069 1169.2799,775.2756 L1168.4517,777.0569 Q1167.6705,776.6819 1167.0142,776.4944 Q1166.358,776.2913 1165.5611,776.2913 Z " fill="#000000"/><text fill="#000000" font-family="sans-serif" font-size="14" lengthAdjust="spacing" textLength="42.1398" x="1185.9517" y="786.192">Yeasts</text><line style="stroke:#181818;stroke-width:0.5;" x1="1096.76" x2="1284.7833" y1="796.76" y2="796.76"/><ellipse cx="1106.76" cy="811.794" fill="none" rx="3" ry="3" style="stroke:#038048;stroke-width:1;"/><text fill="#000000" font-family="sans-serif" font-size="14" lengthAdjust="spacing" textLength="52.7798" x="1115.76" y="815.7259">id : uuid</text><line style="stroke:#181818;stroke-width:1;" x1="1096.76" x2="1284.7833" y1="823.8279" y2="823.8279"/><text fill="#000000" font-family="sans-serif" font-size="14" lengthAdjust="spacing" textLength="86.9397" x="1101.76" y="842.7939">name : string</text><text fill="#000000" font-family="sans-serif" font-size="14" lengthAdjust="spacing" textLength="78.1477" x="1101.76" y="861.8618">type : string</text><text fill="#000000" font-family="sans-serif" font-size="14" lengthAdjust="spacing" textLength="118.0756" x="1101.76" y="880.9297">laboratory : string</text><text fill="#000000" font-family="sans-serif" font-size="14" lengthAdjust="spacing" textLength="139.2295" x="1101.76" y="899.9976">attenuation : decimal</text><text fill="#000000" font-family="sans-serif" font-size="14" lengthAdjust="spacing" textLength="178.0233" x="1101.76" y="919.0655">temperature_range : string</text></g><!--class WaterProfiles--><g class="entity" data-entity="WaterProfiles" data-source-line="56" data-uid="ent0006" id="entity_WaterProfiles"><rect fill="#F1F1F1" height="200.5433" rx="2.5" ry="2.5" style="stroke:#181818;stroke-width:0.5;" width="153.5395" x="7" y="456.62"/><ellipse cx="33.8592" cy="472.62" fill="#ADD1B2" rx="11" ry="11" style="stroke:#181818;stroke-width:1;"/><path d="M33.9686,468.1512 Q33.0467,468.1512 32.3123,468.4637 Q31.5936,468.7762 31.0936,469.37 Q30.5936,469.9481 30.3123,470.8231 Q30.0467,471.6981 30.0467,472.7919 Q30.0467,474.2294 30.4842,475.2762 Q30.9373,476.3231 31.7811,476.87 Q32.6405,477.4169 33.953,477.4169 Q34.7342,477.4169 35.4217,477.2919 Q36.1248,477.1512 37.1248,476.8387 L37.1248,478.7137 Q36.2655,479.0419 35.4998,479.1669 Q34.7498,479.2919 33.7342,479.2919 Q31.8123,479.2919 30.4998,478.495 Q29.203,477.6825 28.5467,476.2137 Q27.8905,474.7294 27.8905,472.7606 Q27.8905,471.3387 28.2811,470.1669 Q28.6873,468.9794 29.4686,468.1044 Q30.2498,467.2294 31.3905,466.7606 Q32.5311,466.2762 33.9998,466.2762 Q34.953,466.2762 35.8436,466.4794 Q36.7498,466.6669 37.6873,467.1356 L36.8592,468.9169 Q36.078,468.5419 35.4217,468.3544 Q34.7655,468.1512 33.9686,468.1512 Z " fill="#000000"/><text fill="#000000" font-family="sans-serif" font-size="14" lengthAdjust="spacing" textLength="95.1856" x="50.4946" y="478.052">Water_Profiles</text><line style="stroke:#181818;stroke-width:0.5;" x1="8" x2="159.5395" y1="488.62" y2="488.62"/><ellipse cx="18" cy="503.654" fill="none" rx="3" ry="3" style="stroke:#038048;stroke-width:1;"/><text fill="#000000" font-family="sans-serif" font-size="14" lengthAdjust="spacing" textLength="52.7798" x="27" y="507.5859">id : uuid</text><line style="stroke:#181818;stroke-width:1;" x1="8" x2="159.5395" y1="515.6879" y2="515.6879"/><text fill="#000000" font-family="sans-serif" font-size="14" lengthAdjust="spacing" textLength="86.9397" x="13" y="534.6539">name : string</text><text fill="#000000" font-family="sans-serif" font-size="14" lengthAdjust="spacing" textLength="112.6855" x="13" y="553.7218">calcium : decimal</text><text fill="#000000" font-family="sans-serif" font-size="14" lengthAdjust="spacing" textLength="140.5874" x="13" y="572.7897">magnesium : decimal</text><text fill="#000000" font-family="sans-serif" font-size="14" lengthAdjust="spacing" textLength="111.5656" x="13" y="591.8576">sodium : decimal</text><text fill="#000000" font-family="sans-serif" font-size="14" lengthAdjust="spacing" textLength="115.7795" x="13" y="610.9255">chloride : decimal</text><text fill="#000000" font-family="sans-serif" font-size="14" lengthAdjust="spacing" textLength="107.0156" x="13" y="629.9934">sulfate : decimal</text><text fill="#000000" font-family="sans-serif" font-size="14" lengthAdjust="spacing" textLength="141.5395" x="13" y="649.0614">bicarbonate : decimal</text></g><!--class EquipmentProfiles--><g class="entity" data-entity="EquipmentProfiles" data-source-line="68" data-uid="ent0007" id="entity_EquipmentProfiles"><rect fill="#F1F1F1" height="162.4075" rx="2.5" ry="2.5" style="stroke:#181818;stroke-width:0.5;" width="159.5395" x="196" y="475.69"/><ellipse cx="211" cy="491.69" fill="#ADD1B2" rx="11" ry="11" style="stroke:#181818;stroke-width:1;"/><path d="M211.1094,487.2212 Q210.1875,487.2212 209.4531,487.5337 Q208.7344,487.8462 208.2344,488.44 Q207.7344,489.0181 207.4531,489.8931 Q207.1875,490.7681 207.1875,491.8619 Q207.1875,493.2994 207.625,494.3462 Q208.0781,495.3931 208.9219,495.94 Q209.7813,496.4869 211.0938,496.4869 Q211.875,496.4869 212.5625,496.3619 Q213.2656,496.2212 214.2656,495.9087 L214.2656,497.7837 Q213.4063,498.1119 212.6406,498.2369 Q211.8906,498.3619 210.875,498.3619 Q208.9531,498.3619 207.6406,497.565 Q206.3438,496.7525 205.6875,495.2837 Q205.0313,493.7994 205.0313,491.8306 Q205.0313,490.4087 205.4219,489.2369 Q205.8281,488.0494 206.6094,487.1744 Q207.3906,486.2994 208.5313,485.8306 Q209.6719,485.3462 211.1406,485.3462 Q212.0938,485.3462 212.9844,485.5494 Q213.8906,485.7369 214.8281,486.2056 L214,487.9869 Q213.2188,487.6119 212.5625,487.4244 Q211.9063,487.2212 211.1094,487.2212 Z " fill="#000000"/><text fill="#000000" font-family="sans-serif" font-size="14" lengthAdjust="spacing" textLength="127.5395" x="225" y="497.122">Equipment_Profiles</text><line style="stroke:#181818;stroke-width:0.5;" x1="197" x2="354.5395" y1="507.69" y2="507.69"/><ellipse cx="207" cy="522.724" fill="none" rx="3" ry="3" style="stroke:#038048;stroke-width:1;"/><text fill="#000000" font-family="sans-serif" font-size="14" lengthAdjust="spacing" textLength="52.7798" x="216" y="526.6559">id : uuid</text><line style="stroke:#181818;stroke-width:1;" x1="197" x2="354.5395" y1="534.7579" y2="534.7579"/><text fill="#000000" font-family="sans-serif" font-size="14" lengthAdjust="spacing" textLength="86.9397" x="202" y="553.7239">name : string</text><text fill="#000000" font-family="sans-serif" font-size="14" lengthAdjust="spacing" textLength="130.3255" x="202" y="572.7918">batch_size : decimal</text><text fill="#000000" font-family="sans-serif" font-size="14" lengthAdjust="spacing" textLength="117.7395" x="202" y="591.8597">boil_size : decimal</text><text fill="#000000" font-family="sans-serif" font-size="14" lengthAdjust="spacing" textLength="124.3055" x="202" y="610.9276">efficiency : decimal</text><text fill="#000000" font-family="sans-serif" font-size="14" lengthAdjust="spacing" textLength="88.5217" x="202" y="629.9955">boil_time : int</text></g><!--class StyleGuidelines--><g class="entity" data-entity="StyleGuidelines" data-source-line="78" data-uid="ent0008" id="entity_StyleGuidelines"><rect fill="#F1F1F1" height="257.7471" rx="2.5" ry="2.5" style="stroke:#181818;stroke-width:0.5;" width="156.4374" x="390.55" y="428.02"/><ellipse cx="413.3772" cy="444.02" fill="#ADD1B2" rx="11" ry="11" style="stroke:#181818;stroke-width:1;"/><path d="M413.4866,439.5513 Q412.5647,439.5513 411.8304,439.8638 Q411.1116,440.1763 410.6116,440.77 Q410.1116,441.3481 409.8304,442.2231 Q409.5647,443.0981 409.5647,444.1919 Q409.5647,445.6294 410.0022,446.6763 Q410.4554,447.7231 411.2991,448.27 Q412.1585,448.8169 413.471,448.8169 Q414.2522,448.8169 414.9397,448.6919 Q415.6429,448.5513 416.6429,448.2388 L416.6429,450.1138 Q415.7835,450.4419 415.0179,450.5669 Q414.2679,450.6919 413.2522,450.6919 Q411.3304,450.6919 410.0179,449.895 Q408.721,449.0825 408.0647,447.6138 Q407.4085,446.1294 407.4085,444.1606 Q407.4085,442.7388 407.7991,441.5669 Q408.2054,440.3794 408.9866,439.5044 Q409.7679,438.6294 410.9085,438.1606 Q412.0491,437.6763 413.5179,437.6763 Q414.471,437.6763 415.3616,437.8794 Q416.2679,438.0669 417.2054,438.5356 L416.3772,440.3169 Q415.596,439.9419 414.9397,439.7544 Q414.2835,439.5513 413.4866,439.5513 Z " fill="#000000"/><text fill="#000000" font-family="sans-serif" font-size="14" lengthAdjust="spacing" textLength="107.0436" x="429.1166" y="449.452">Style_Guidelines</text><line style="stroke:#181818;stroke-width:0.5;" x1="391.55" x2="545.9874" y1="460.02" y2="460.02"/><ellipse cx="401.55" cy="475.054" fill="none" rx="3" ry="3" style="stroke:#038048;stroke-width:1;"/><text fill="#000000" font-family="sans-serif" font-size="14" lengthAdjust="spacing" textLength="52.7798" x="410.55" y="478.9859">id : uuid</text><line style="stroke:#181818;stroke-width:1;" x1="391.55" x2="545.9874" y1="487.0879" y2="487.0879"/><text fill="#000000" font-family="sans-serif" font-size="14" lengthAdjust="spacing" textLength="144.4374" x="396.55" y="506.0539">block_heading : string</text><text fill="#000000" font-family="sans-serif" font-size="14" lengthAdjust="spacing" textLength="106.9736" x="396.55" y="525.1218">category : string</text><text fill="#000000" font-family="sans-serif" font-size="14" lengthAdjust="spacing" textLength="98.0976" x="396.55" y="544.1897">og_min : string</text><text fill="#000000" font-family="sans-serif" font-size="14" lengthAdjust="spacing" textLength="101.0936" x="396.55" y="563.2576">og_max : string</text><text fill="#000000" font-family="sans-serif" font-size="14" lengthAdjust="spacing" textLength="94.4436" x="396.55" y="582.3255">fg_min : string</text><text fill="#000000" font-family="sans-serif" font-size="14" lengthAdjust="spacing" textLength="97.4396" x="396.55" y="601.3934">fg_max : string</text><text fill="#000000" font-family="sans-serif" font-size="14" lengthAdjust="spacing" textLength="104.5936" x="396.55" y="620.4614">abv_min : string</text><text fill="#000000" font-family="sans-serif" font-size="14" lengthAdjust="spacing" textLength="107.5896" x="396.55" y="639.5293">abv_max : string</text><text fill="#000000" font-family="sans-serif" font-size="14" lengthAdjust="spacing" textLength="101.8916" x="396.55" y="658.5972">ibu_min : string</text><text fill="#000000" font-family="sans-serif" font-size="14" lengthAdjust="spacing" textLength="104.8876" x="396.55" y="677.6651">ibu_max : string</text></g><!--class RecipeHops--><g class="entity" data-entity="RecipeHops" data-source-line="94" data-uid="ent0009" id="entity_RecipeHops"><rect fill="#F1F1F1" height="143.3396" rx="2.5" ry="2.5" style="stroke:#181818;stroke-width:0.5;" width="126.1976" x="581.67" y="485.22"/><ellipse cx="601.3409" cy="501.22" fill="#ADD1B2" rx="11" ry="11" style="stroke:#181818;stroke-width:1;"/><path d="M601.4503,496.7512 Q600.5284,496.7512 599.7941,497.0637 Q599.0753,497.3762 598.5753,497.97 Q598.0753,498.5481 597.7941,499.4231 Q597.5284,500.2981 597.5284,501.3919 Q597.5284,502.8294 597.9659,503.8762 Q598.4191,504.9231 599.2628,505.47 Q600.1222,506.0169 601.4347,506.0169 Q602.2159,506.0169 602.9034,505.8919 Q603.6066,505.7512 604.6066,505.4387 L604.6066,507.3137 Q603.7472,507.6419 602.9816,507.7669 Q602.2316,507.8919 601.2159,507.8919 Q599.2941,507.8919 597.9816,507.095 Q596.6847,506.2825 596.0284,504.8137 Q595.3722,503.3294 595.3722,501.3606 Q595.3722,499.9387 595.7628,498.7669 Q596.1691,497.5794 596.9503,496.7044 Q597.7316,495.8294 598.8722,495.3606 Q600.0128,494.8762 601.4816,494.8762 Q602.4347,494.8762 603.3253,495.0794 Q604.2316,495.2669 605.1691,495.7356 L604.3409,497.5169 Q603.5597,497.1419 602.9034,496.9544 Q602.2472,496.7512 601.4503,496.7512 Z " fill="#000000"/><text fill="#000000" font-family="sans-serif" font-size="14" lengthAdjust="spacing" textLength="83.8177" x="616.3789" y="506.652">Recipe_Hops</text><line style="stroke:#181818;stroke-width:0.5;" x1="582.67" x2="706.8676" y1="517.22" y2="517.22"/><ellipse cx="592.67" cy="532.254" fill="none" rx="3" ry="3" style="stroke:#038048;stroke-width:1;"/><text fill="#000000" font-family="sans-serif" font-size="14" lengthAdjust="spacing" textLength="99.5116" x="601.67" y="536.1859">recipe_id : uuid</text><ellipse cx="592.67" cy="551.3219" fill="none" rx="3" ry="3" style="stroke:#038048;stroke-width:1;"/><text fill="#000000" font-family="sans-serif" font-size="14" lengthAdjust="spacing" textLength="84.7277" x="601.67" y="555.2539">hop_id : uuid</text><line style="stroke:#181818;stroke-width:1;" x1="582.67" x2="706.8676" y1="563.3558" y2="563.3558"/><text fill="#000000" font-family="sans-serif" font-size="14" lengthAdjust="spacing" textLength="114.1976" x="587.67" y="582.3218">amount : decimal</text><text fill="#000000" font-family="sans-serif" font-size="14" lengthAdjust="spacing" textLength="58.0018" x="587.67" y="601.3897">time : int</text><text fill="#000000" font-family="sans-serif" font-size="14" lengthAdjust="spacing" textLength="89.1657" x="587.67" y="620.4576">usage : string</text></g><!--class RecipeFermentables--><g class="entity" data-entity="RecipeFermentables" data-source-line="103" data-uid="ent0010" id="entity_RecipeFermentables"><rect fill="#F1F1F1" height="124.2717" rx="2.5" ry="2.5" style="stroke:#181818;stroke-width:0.5;" width="171.9715" x="742.78" y="494.75"/><ellipse cx="757.78" cy="510.75" fill="#ADD1B2" rx="11" ry="11" style="stroke:#181818;stroke-width:1;"/><path d="M757.8894,506.2813 Q756.9675,506.2813 756.2331,506.5938 Q755.5144,506.9063 755.0144,507.5 Q754.5144,508.0781 754.2331,508.9531 Q753.9675,509.8281 753.9675,510.9219 Q753.9675,512.3594 754.405,513.4063 Q754.8581,514.4531 755.7019,515 Q756.5613,515.5469 757.8738,515.5469 Q758.655,515.5469 759.3425,515.4219 Q760.0456,515.2813 761.0456,514.9688 L761.0456,516.8438 Q760.1863,517.1719 759.4206,517.2969 Q758.6706,517.4219 757.655,517.4219 Q755.7331,517.4219 754.4206,516.625 Q753.1238,515.8125 752.4675,514.3438 Q751.8113,512.8594 751.8113,510.8906 Q751.8113,509.4688 752.2019,508.2969 Q752.6081,507.1094 753.3894,506.2344 Q754.1706,505.3594 755.3113,504.8906 Q756.4519,504.4063 757.9206,504.4063 Q758.8738,504.4063 759.7644,504.6094 Q760.6706,504.7969 761.6081,505.2656 L760.78,507.0469 Q759.9988,506.6719 759.3425,506.4844 Q758.6863,506.2813 757.8894,506.2813 Z " fill="#000000"/><text fill="#000000" font-family="sans-serif" font-size="14" lengthAdjust="spacing" textLength="139.9715" x="771.78" y="516.182">Recipe_Fermentables</text><line style="stroke:#181818;stroke-width:0.5;" x1="743.78" x2="913.7515" y1="526.75" y2="526.75"/><ellipse cx="753.78" cy="541.784" fill="none" rx="3" ry="3" style="stroke:#038048;stroke-width:1;"/><text fill="#000000" font-family="sans-serif" font-size="14" lengthAdjust="spacing" textLength="99.5116" x="762.78" y="545.7159">recipe_id : uuid</text><ellipse cx="753.78" cy="560.8519" fill="none" rx="3" ry="3" style="stroke:#038048;stroke-width:1;"/><text fill="#000000" font-family="sans-serif" font-size="14" lengthAdjust="spacing" textLength="140.1534" x="762.78" y="564.7839">fermentable_id : uuid</text><line style="stroke:#181818;stroke-width:1;" x1="743.78" x2="913.7515" y1="572.8858" y2="572.8858"/><text fill="#000000" font-family="sans-serif" font-size="14" lengthAdjust="spacing" textLength="114.1976" x="748.78" y="591.8518">amount : decimal</text><text fill="#000000" font-family="sans-serif" font-size="14" lengthAdjust="spacing" textLength="137.3955" x="748.78" y="610.9197">percentage : decimal</text></g><!--class RecipeYeasts--><g class="entity" data-entity="RecipeYeasts" data-source-line="111" data-uid="ent0011" id="entity_RecipeYeasts"><rect fill="#F1F1F1" height="124.2717" rx="2.5" ry="2.5" style="stroke:#181818;stroke-width:0.5;" width="126.1976" x="1148.67" y="494.75"/><ellipse cx="1164.75" cy="510.75" fill="#ADD1B2" rx="11" ry="11" style="stroke:#181818;stroke-width:1;"/><path d="M1164.8593,506.2813 Q1163.9375,506.2813 1163.2031,506.5938 Q1162.4843,506.9063 1161.9843,507.5 Q1161.4843,508.0781 1161.2031,508.9531 Q1160.9375,509.8281 1160.9375,510.9219 Q1160.9375,512.3594 1161.375,513.4063 Q1161.8281,514.4531 1162.6718,515 Q1163.5312,515.5469 1164.8437,515.5469 Q1165.625,515.5469 1166.3125,515.4219 Q1167.0156,515.2813 1168.0156,514.9688 L1168.0156,516.8438 Q1167.1562,517.1719 1166.3906,517.2969 Q1165.6406,517.4219 1164.625,517.4219 Q1162.7031,517.4219 1161.3906,516.625 Q1160.0937,515.8125 1159.4375,514.3438 Q1158.7812,512.8594 1158.7812,510.8906 Q1158.7812,509.4688 1159.1718,508.2969 Q1159.5781,507.1094 1160.3593,506.2344 Q1161.1406,505.3594 1162.2812,504.8906 Q1163.4218,504.4063 1164.8906,504.4063 Q1165.8437,504.4063 1166.7343,504.6094 Q1167.6406,504.7969 1168.5781,505.2656 L1167.75,507.0469 Q1166.9687,506.6719 1166.3125,506.4844 Q1165.6562,506.2813 1164.8593,506.2813 Z " fill="#000000"/><text fill="#000000" font-family="sans-serif" font-size="14" lengthAdjust="spacing" textLength="91.7976" x="1178.99" y="516.182">Recipe_Yeasts</text><line style="stroke:#181818;stroke-width:0.5;" x1="1149.67" x2="1273.8676" y1="526.75" y2="526.75"/><ellipse cx="1159.67" cy="541.784" fill="none" rx="3" ry="3" style="stroke:#038048;stroke-width:1;"/><text fill="#000000" font-family="sans-serif" font-size="14" lengthAdjust="spacing" textLength="99.5116" x="1168.67" y="545.7159">recipe_id : uuid</text><ellipse cx="1159.67" cy="560.8519" fill="none" rx="3" ry="3" style="stroke:#038048;stroke-width:1;"/><text fill="#000000" font-family="sans-serif" font-size="14" lengthAdjust="spacing" textLength="93.6456" x="1168.67" y="564.7839">yeast_id : uuid</text><line style="stroke:#181818;stroke-width:1;" x1="1149.67" x2="1273.8676" y1="572.8858" y2="572.8858"/><text fill="#000000" font-family="sans-serif" font-size="14" lengthAdjust="spacing" textLength="114.1976" x="1154.67" y="591.8518">amount : decimal</text><text fill="#000000" font-family="sans-serif" font-size="14" lengthAdjust="spacing" textLength="108.7236" x="1154.67" y="610.9197">starter : boolean</text></g><!--class Inventory--><g class="entity" data-entity="Inventory" data-source-line="120" data-uid="ent0012" id="entity_Inventory"><rect fill="#F1F1F1" height="181.4754" rx="2.5" ry="2.5" style="stroke:#181818;stroke-width:0.5;" width="164.7394" x="949.4" y="466.15"/><ellipse cx="995.7678" cy="482.15" fill="#ADD1B2" rx="11" ry="11" style="stroke:#181818;stroke-width:1;"/><path d="M995.8772,477.6813 Q994.9553,477.6813 994.221,477.9938 Q993.5022,478.3063 993.0022,478.9 Q992.5022,479.4781 992.221,480.3531 Q991.9553,481.2281 991.9553,482.3219 Q991.9553,483.7594 992.3928,484.8063 Q992.846,485.8531 993.6897,486.4 Q994.5491,486.9469 995.8616,486.9469 Q996.6428,486.9469 997.3303,486.8219 Q998.0335,486.6813 999.0335,486.3688 L999.0335,488.2438 Q998.1741,488.5719 997.4085,488.6969 Q996.6585,488.8219 995.6428,488.8219 Q993.721,488.8219 992.4085,488.025 Q991.1116,487.2125 990.4553,485.7438 Q989.7991,484.2594 989.7991,482.2906 Q989.7991,480.8688 990.1897,479.6969 Q990.596,478.5094 991.3772,477.6344 Q992.1585,476.7594 993.2991,476.2906 Q994.4397,475.8063 995.9085,475.8063 Q996.8616,475.8063 997.7522,476.0094 Q998.6585,476.1969 999.596,476.6656 L998.7678,478.4469 Q997.9866,478.0719 997.3303,477.8844 Q996.6741,477.6813 995.8772,477.6813 Z " fill="#000000"/><text fill="#000000" font-family="sans-serif" font-size="14" lengthAdjust="spacing" textLength="63.5038" x="1016.2678" y="487.582">Inventory</text><line style="stroke:#181818;stroke-width:0.5;" x1="950.4" x2="1113.1394" y1="498.15" y2="498.15"/><ellipse cx="960.4" cy="513.184" fill="none" rx="3" ry="3" style="stroke:#038048;stroke-width:1;"/><text fill="#000000" font-family="sans-serif" font-size="14" lengthAdjust="spacing" textLength="52.7798" x="969.4" y="517.1159">id : uuid</text><line style="stroke:#181818;stroke-width:1;" x1="950.4" x2="1113.1394" y1="525.2179" y2="525.2179"/><text fill="#000000" font-family="sans-serif" font-size="14" lengthAdjust="spacing" textLength="152.7394" x="955.4" y="544.1839">ingredient_type : string</text><text fill="#000000" font-family="sans-serif" font-size="14" lengthAdjust="spacing" textLength="127.3715" x="955.4" y="563.2518">ingredient_id : uuid</text><text fill="#000000" font-family="sans-serif" font-size="14" lengthAdjust="spacing" textLength="117.0535" x="955.4" y="582.3197">quantity : decimal</text><text fill="#000000" font-family="sans-serif" font-size="14" lengthAdjust="spacing" textLength="89.3757" x="955.4" y="601.3876">cost : decimal</text><text fill="#000000" font-family="sans-serif" font-size="14" lengthAdjust="spacing" textLength="136.9475" x="955.4" y="620.4555">purchase_date : date</text><text fill="#000000" font-family="sans-serif" font-size="14" lengthAdjust="spacing" textLength="143.0235" x="955.4" y="639.5234">expiration_date : date</text></g><!--link Recipes to RecipeHops--><g class="link" data-entity-1="Recipes" data-entity-2="RecipeHops" data-source-line="132" data-uid="lnk13" id="link_Recipes_RecipeHops"><path codeLine="132" d="M573.9793,356.788 C590.9693,404.588 599.8219,429.4594 613.5019,467.9494" fill="none" id="Recipes-RecipeHops" style="stroke:#181818;stroke-width:1;"/><line style="stroke:#181818;stroke-width:1;" x1="568.8707" x2="576.4086" y1="354.3586" y2="351.6793"/><line style="stroke:#181818;stroke-width:1;" x1="569.8754" x2="577.4134" y1="357.1854" y2="354.5061"/><line style="stroke:#181818;stroke-width:1;" x1="573.9793" x2="571.3" y1="356.788" y2="349.25"/><line style="stroke:#181818;stroke-width:1;" x1="616.8508" x2="625.1835" y1="477.372" y2="482.9006"/><line style="stroke:#181818;stroke-width:1;" x1="616.8508" x2="613.8765" y1="477.372" y2="486.9194"/><line style="stroke:#181818;stroke-width:1;" x1="616.8508" x2="619.53" y1="477.372" y2="484.91"/><ellipse cx="614.8415" cy="471.7184" fill="none" rx="4" ry="4" style="stroke:#181818;stroke-width:1;"/><text fill="#000000" font-family="sans-serif" font-size="13" lengthAdjust="spacing" textLength="51.7401" x="586.79" y="393.917">contains</text></g><!--link Recipes to RecipeFermentables--><g class="link" data-entity-1="Recipes" data-entity-2="RecipeFermentables" data-source-line="133" data-uid="lnk14" id="link_Recipes_RecipeFermentables"><path codeLine="133" d="M604.4176,285.8384 C643.5676,330.8884 684.71,378.78 725.77,428.02 C743.66,449.47 751.6804,459.2044 768.6704,480.3644" fill="none" id="Recipes-RecipeFermentables" style="stroke:#181818;stroke-width:1;"/><line style="stroke:#181818;stroke-width:1;" x1="598.7746" x2="604.813" y1="285.443" y2="280.1954"/><line style="stroke:#181818;stroke-width:1;" x1="600.7424" x2="606.7809" y1="287.7074" y2="282.4598"/><line style="stroke:#181818;stroke-width:1;" x1="604.4176" x2="599.17" y1="285.8384" y2="279.8"/><line style="stroke:#181818;stroke-width:1;" x1="774.9313" x2="784.6185" y1="488.162" y2="490.6435"/><line style="stroke:#181818;stroke-width:1;" x1="774.9313" x2="775.2615" y1="488.162" y2="498.1565"/><line style="stroke:#181818;stroke-width:1;" x1="774.9313" x2="779.94" y1="488.162" y2="494.4"/><ellipse cx="771.1748" cy="483.4835" fill="none" rx="4" ry="4" style="stroke:#181818;stroke-width:1;"/><text fill="#000000" font-family="sans-serif" font-size="13" lengthAdjust="spacing" textLength="51.7401" x="697.99" y="393.917">contains</text></g><!--link Recipes to RecipeYeasts--><g class="link" data-entity-1="Recipes" data-entity-2="RecipeYeasts" data-source-line="134" data-uid="lnk15" id="link_Recipes_RecipeYeasts"><path codeLine="134" d="M607.0684,197.9104 C736.3284,226.7204 971.06,293.59 1131.77,428.02 C1153.16,445.91 1161.7823,455.3477 1174.8523,478.6077" fill="none" id="Recipes-RecipeYeasts" style="stroke:#181818;stroke-width:1;"/><line style="stroke:#181818;stroke-width:1;" x1="602.294" x2="604.0344" y1="200.9444" y2="193.136"/><line style="stroke:#181818;stroke-width:1;" x1="605.2222" x2="606.9625" y1="201.597" y2="193.7886"/><line style="stroke:#181818;stroke-width:1;" x1="607.0684" x2="599.26" y1="197.9104" y2="196.17"/><line style="stroke:#181818;stroke-width:1;" x1="1179.751" x2="1188.9008" y1="487.3256" y2="491.3608"/><line style="stroke:#181818;stroke-width:1;" x1="1179.751" x2="1178.4392" y1="487.3256" y2="497.2392"/><line style="stroke:#181818;stroke-width:1;" x1="1179.751" x2="1183.67" y1="487.3256" y2="494.3"/><ellipse cx="1176.8118" cy="482.0949" fill="none" rx="4" ry="4" style="stroke:#181818;stroke-width:1;"/><text fill="#000000" font-family="sans-serif" font-size="13" lengthAdjust="spacing" textLength="51.7401" x="1090.05" y="393.917">contains</text></g><!--link Recipes to StyleGuidelines--><g class="link" data-entity-1="Recipes" data-entity-2="StyleGuidelines" data-source-line="135" data-uid="lnk16" id="link_Recipes_StyleGuidelines"><path codeLine="135" d="M489.8033,367.1389 C486.8633,393.4789 486.7531,394.4489 483.9531,419.6589" fill="none" id="Recipes-StyleGuidelines" style="stroke:#181818;stroke-width:1;"/><line style="stroke:#181818;stroke-width:1;" x1="490.9126" x2="485.837" y1="357.2006" y2="348.5844"/><line style="stroke:#181818;stroke-width:1;" x1="490.9126" x2="497.763" y1="357.2006" y2="349.9156"/><line style="stroke:#181818;stroke-width:1;" x1="490.9126" x2="491.8" y1="357.2006" y2="349.25"/><ellipse cx="490.247" cy="363.1636" fill="none" rx="4" ry="4" style="stroke:#181818;stroke-width:1;"/><line style="stroke:#181818;stroke-width:1;" x1="487.4871" x2="479.536" y1="424.076" y2="423.1929"/><line style="stroke:#181818;stroke-width:1;" x1="487.8183" x2="479.8672" y1="421.0943" y2="420.2112"/><line style="stroke:#181818;stroke-width:1;" x1="483.9531" x2="483.07" y1="419.6589" y2="427.61"/><text fill="#000000" font-family="sans-serif" font-size="13" lengthAdjust="spacing" textLength="43.355" x="488.26" y="393.917">follows</text></g><!--link Recipes to WaterProfiles--><g class="link" data-entity-1="Recipes" data-entity-2="WaterProfiles" data-source-line="136" data-uid="lnk17" id="link_Recipes_WaterProfiles"><path codeLine="136" d="M407.4811,244.9117 C337.2211,291.7317 253.62,352.83 178.77,428.02 C170.09,436.74 166.6635,440.1376 158.4935,449.9676" fill="none" id="Recipes-WaterProfiles" style="stroke:#181818;stroke-width:1;"/><line style="stroke:#181818;stroke-width:1;" x1="415.8027" x2="419.1328" y1="239.3663" y2="229.937"/><line style="stroke:#181818;stroke-width:1;" x1="415.8027" x2="425.7872" y1="239.3663" y2="239.923"/><line style="stroke:#181818;stroke-width:1;" x1="415.8027" x2="422.46" y1="239.3663" y2="234.93"/><ellipse cx="410.8098" cy="242.6935" fill="none" rx="4" ry="4" style="stroke:#181818;stroke-width:1;"/><line style="stroke:#181818;stroke-width:1;" x1="159.013" x2="152.8605" y1="455.6005" y2="450.487"/><line style="stroke:#181818;stroke-width:1;" x1="160.9305" x2="154.7781" y1="453.2934" y2="448.1799"/><line style="stroke:#181818;stroke-width:1;" x1="158.4935" x2="153.38" y1="449.9676" y2="456.12"/><text fill="#000000" font-family="sans-serif" font-size="13" lengthAdjust="spacing" textLength="27.82" x="229.24" y="393.917">uses</text></g><!--link Recipes to EquipmentProfiles--><g class="link" data-entity-1="Recipes" data-entity-2="EquipmentProfiles" data-source-line="137" data-uid="lnk18" id="link_Recipes_EquipmentProfiles"><path codeLine="137" d="M412.9063,335.9541 C380.2963,388.2541 358.2433,423.6219 330.1733,468.6319" fill="none" id="Recipes-EquipmentProfiles" style="stroke:#181818;stroke-width:1;"/><line style="stroke:#181818;stroke-width:1;" x1="418.1972" x2="417.3386" y1="327.4685" y2="317.5054"/><line style="stroke:#181818;stroke-width:1;" x1="418.1972" x2="427.5214" y1="327.4685" y2="323.8546"/><line style="stroke:#181818;stroke-width:1;" x1="418.1972" x2="422.43" y1="327.4685" y2="320.68"/><ellipse cx="415.0227" cy="332.5599" fill="none" rx="4" ry="4" style="stroke:#181818;stroke-width:1;"/><line style="stroke:#181818;stroke-width:1;" x1="331.4507" x2="324.6626" y1="474.1426" y2="469.9093"/><line style="stroke:#181818;stroke-width:1;" x1="333.0382" x2="326.2501" y1="471.5971" y2="467.3637"/><line style="stroke:#181818;stroke-width:1;" x1="330.1733" x2="325.94" y1="468.6319" y2="475.42"/><text fill="#000000" font-family="sans-serif" font-size="13" lengthAdjust="spacing" textLength="78.3121" x="380.2" y="393.917">brewed_with</text></g><!--link RecipeHops to Hops--><g class="link" data-entity-1="RecipeHops" data-entity-2="Hops" data-source-line="139" data-uid="lnk19" id="link_RecipeHops_Hops"><path codeLine="139" d="M662.6731,646.4938 C670.9731,687.5938 676.3059,713.9684 684.9159,756.5884" fill="none" id="RecipeHops-Hops" style="stroke:#181818;stroke-width:1;"/><line style="stroke:#181818;stroke-width:1;" x1="660.6936" x2="653.2287" y1="636.6917" y2="630.0377"/><line style="stroke:#181818;stroke-width:1;" x1="660.6936" x2="664.9913" y1="636.6917" y2="627.6623"/><line style="stroke:#181818;stroke-width:1;" x1="660.6936" x2="659.11" y1="636.6917" y2="628.85"/><ellipse cx="661.8813" cy="642.573" fill="none" rx="4" ry="4" style="stroke:#181818;stroke-width:1;"/><line style="stroke:#181818;stroke-width:1;" x1="689.6287" x2="681.7871" y1="759.7171" y2="761.3013"/><line style="stroke:#181818;stroke-width:1;" x1="689.0347" x2="681.1931" y1="756.7765" y2="758.3607"/><line style="stroke:#181818;stroke-width:1;" x1="684.9159" x2="686.5" y1="756.5884" y2="764.43"/><text fill="#000000" font-family="sans-serif" font-size="13" lengthAdjust="spacing" textLength="27.82" x="679.96" y="730.657">uses</text></g><!--link RecipeFermentables to Fermentables--><g class="link" data-entity-1="RecipeFermentables" data-entity-2="Fermentables" data-source-line="140" data-uid="lnk20" id="link_RecipeFermentables_Fermentables"><path codeLine="140" d="M833.9022,637.1455 C837.5022,672.1355 843.16,698.25 858.77,734.76 C863.08,744.85 864.2811,748.0667 870.2511,757.7167" fill="none" id="RecipeFermentables-Fermentables" style="stroke:#181818;stroke-width:1;"/><line style="stroke:#181818;stroke-width:1;" x1="832.8788" x2="826.0915" y1="627.198" y2="619.8541"/><line style="stroke:#181818;stroke-width:1;" x1="832.8788" x2="838.0285" y1="627.198" y2="618.6259"/><line style="stroke:#181818;stroke-width:1;" x1="832.8788" x2="832.06" y1="627.198" y2="619.24"/><ellipse cx="833.4928" cy="633.1665" fill="none" rx="4" ry="4" style="stroke:#181818;stroke-width:1;"/><line style="stroke:#181818;stroke-width:1;" x1="875.7572" x2="868.9539" y1="759.0139" y2="763.2228"/><line style="stroke:#181818;stroke-width:1;" x1="874.1789" x2="867.3756" y1="756.4626" y2="760.6715"/><line style="stroke:#181818;stroke-width:1;" x1="870.2511" x2="874.46" y1="757.7167" y2="764.52"/><text fill="#000000" font-family="sans-serif" font-size="13" lengthAdjust="spacing" textLength="27.82" x="859.77" y="730.657">uses</text></g><!--link RecipeYeasts to Yeasts--><g class="link" data-entity-1="RecipeYeasts" data-entity-2="Yeasts" data-source-line="141" data-uid="lnk21" id="link_RecipeYeasts_Yeasts"><path codeLine="141" d="M1205.9501,637.4223 C1202.8601,679.7723 1200.6037,710.4813 1197.2437,756.4113" fill="none" id="RecipeYeasts-Yeasts" style="stroke:#181818;stroke-width:1;"/><line style="stroke:#181818;stroke-width:1;" x1="1206.6778" x2="1201.2759" y1="627.4488" y2="619.0334"/><line style="stroke:#181818;stroke-width:1;" x1="1206.6778" x2="1213.2441" y1="627.4488" y2="619.9066"/><line style="stroke:#181818;stroke-width:1;" x1="1206.6778" x2="1207.26" y1="627.4488" y2="619.47"/><ellipse cx="1206.2412" cy="633.4329" fill="none" rx="4" ry="4" style="stroke:#181818;stroke-width:1;"/><line style="stroke:#181818;stroke-width:1;" x1="1200.9412" x2="1192.9625" y1="760.6925" y2="760.1088"/><line style="stroke:#181818;stroke-width:1;" x1="1201.1601" x2="1193.1814" y1="757.7005" y2="757.1168"/><line style="stroke:#181818;stroke-width:1;" x1="1197.2437" x2="1196.66" y1="756.4113" y2="764.39"/><text fill="#000000" font-family="sans-serif" font-size="13" lengthAdjust="spacing" textLength="27.82" x="1201.01" y="730.657">uses</text></g><!--link Inventory to Hops--><g class="link" data-entity-1="Inventory" data-entity-2="Hops" data-source-line="143" data-uid="lnk22" id="link_Inventory_Hops"><path codeLine="143" d="M968.0728,654.467 C945.3028,684.657 922.19,710.42 891.77,734.76 C868.49,753.39 857.79,750.21 831.77,764.76 C807.37,778.41 796.2785,784.8876 773.8285,799.0676" fill="none" id="Inventory-Hops" style="stroke:#181818;stroke-width:1;"/><line style="stroke:#181818;stroke-width:1;" x1="967.2879" x2="973.6749" y1="648.8649" y2="653.6821"/><line style="stroke:#181818;stroke-width:1;" x1="965.4814" x2="971.8684" y1="651.26" y2="656.0773"/><line style="stroke:#181818;stroke-width:1;" x1="968.0728" x2="972.89" y1="654.467" y2="648.08"/><line style="stroke:#181818;stroke-width:1;" x1="765.3738" x2="761.8141" y1="804.4078" y2="813.7528"/><line style="stroke:#181818;stroke-width:1;" x1="765.3738" x2="755.4059" y1="804.4078" y2="803.6072"/><line style="stroke:#181818;stroke-width:1;" x1="765.3738" x2="758.61" y1="804.4078" y2="808.68"/><ellipse cx="770.4466" cy="801.2037" fill="none" rx="4" ry="4" style="stroke:#181818;stroke-width:1;"/><text fill="#000000" font-family="sans-serif" font-size="13" lengthAdjust="spacing" textLength="36.764" x="911.21" y="730.657">tracks</text></g><!--link Inventory to Fermentables--><g class="link" data-entity-1="Inventory" data-entity-2="Fermentables" data-source-line="144" data-uid="lnk23" id="link_Inventory_Fermentables"><path codeLine="144" d="M1001.6671,655.59 C993.0171,683.44 985.76,706.58 976.77,734.76 C973.71,744.35 976.0327,737.2779 972.8027,747.2379" fill="none" id="Inventory-Fermentables" style="stroke:#181818;stroke-width:1;"/><line style="stroke:#181818;stroke-width:1;" x1="999.0336" x2="1006.6735" y1="650.5835" y2="652.9564"/><line style="stroke:#181818;stroke-width:1;" x1="998.1437" x2="1005.7837" y1="653.4485" y2="655.8214"/><line style="stroke:#181818;stroke-width:1;" x1="1001.6671" x2="1004.04" y1="655.59" y2="647.95"/><line style="stroke:#181818;stroke-width:1;" x1="969.7179" x2="972.9574" y1="756.7502" y2="766.2109"/><line style="stroke:#181818;stroke-width:1;" x1="969.7179" x2="961.5426" y1="756.7502" y2="762.5091"/><line style="stroke:#181818;stroke-width:1;" x1="969.7179" x2="967.25" y1="756.7502" y2="764.36"/><ellipse cx="971.5687" cy="751.0428" fill="none" rx="4" ry="4" style="stroke:#181818;stroke-width:1;"/><text fill="#000000" font-family="sans-serif" font-size="13" lengthAdjust="spacing" textLength="36.764" x="982.32" y="730.657">tracks</text></g><!--link Inventory to Yeasts--><g class="link" data-entity-1="Inventory" data-entity-2="Yeasts" data-source-line="145" data-uid="lnk24" id="link_Inventory_Yeasts"><path codeLine="145" d="M1085.5167,654.9279 C1106.1967,692.2579 1117.3898,712.4733 1137.4698,748.7333" fill="none" id="Inventory-Yeasts" style="stroke:#181818;stroke-width:1;"/><line style="stroke:#181818;stroke-width:1;" x1="1080.0794" x2="1087.0773" y1="653.3673" y2="649.4906"/><line style="stroke:#181818;stroke-width:1;" x1="1081.5331" x2="1088.5311" y1="655.9915" y2="652.1148"/><line style="stroke:#181818;stroke-width:1;" x1="1085.5167" x2="1081.64" y1="654.9279" y2="647.93"/><line style="stroke:#181818;stroke-width:1;" x1="1142.3144" x2="1151.4389" y1="757.4815" y2="761.5733"/><line style="stroke:#181818;stroke-width:1;" x1="1142.3144" x2="1140.9411" y1="757.4815" y2="767.3867"/><line style="stroke:#181818;stroke-width:1;" x1="1142.3144" x2="1146.19" y1="757.4815" y2="764.48"/><ellipse cx="1139.4076" cy="752.2326" fill="none" rx="4" ry="4" style="stroke:#181818;stroke-width:1;"/><text fill="#000000" font-family="sans-serif" font-size="13" lengthAdjust="spacing" textLength="36.764" x="1126.51" y="730.657">tracks</text></g><!--SRC=[fLR1SjiW4BtxAvXSSiZO7-1ZapJj8JCTjpETdZGhXAIT85009N7Z_7jN2Di2oUwuzKNMuubzkomFhjaZe69VTDjkFndnokx0GGvMiFlDtUAQ_QZHiWAXCj0mM-jNormj6DT6CA4SEXIMWIgO4H8SQcLhR2sZANjQJZEYgXYqhKJknnSqwMt_zKPmR2bCFybsmILOowu6q5uni85WsVk2qU-6OS7MhEkmyE_BfN-iLWz22GDojVBl2Xf1DEiCnVL88ImtsFQnum7hjZBXvk1udLdytUC5nMz03WCQPURGputAUKoK9N8KYcyJijAEP4SJhrQt87aNIXIqQeCLAf0P5VU5Yf1CKvuPW_mbGJ3l4iIQPeHyz8N_gYeZ2jBis2quKP42OVUrfnuO2j__EL_rQPM7N68CP5j38ifjs-JBpa8rWaXdqFDPc8QKGYv3Guo1I_LDut8jjKdKjRHor8yW4xo1jwmLXlVHAn5NDQZz9S2wGUVmz_yLIiYr0QVDDgch8vKTX8wEgYiQaWckCo8peERh-fDMtcJVZ2vnNraFxP5BXNFgREoQISag9UmKjxgOWhocjS0YtNMsaoKfI_SYEOd9jOf7ZldTFtVOzeqIvtY0_pNFy-OmWvyqYDHDZjg_zvwKFP0M8L45vHuyOkTrvrBpfwmMKFJ6cooKt_99D-agQzATssFm5cFb3A-SuP4rJOaUJ9baMLEc1yTCRrpXi1ZvrsPytiJ7HtPmik4zyZCpKEBQtR1QjzbiFQ7H7OLBzbby4foqiA1ducG3Fkjd9_ILH-u5El_YMK7UoBe6936m4vAsFUi2CTQ18PiXDDTQ2b3xC-c59FPj-GYAbFPfxWKUnhou8_Fi3i13asHJJnqDnXy_T-1l8gapQJifQcTuJJUah0WEH8zXlx-rQ7nJHaEXWSVjkh_Qx7RBfNuVj-cQ8jA2eJf1YdhcI6PidXvMScRM3xrSxdOJRrcpKaj9rxoK61yHL3Wh9fofnQxz5L0KsIkwUh4O9He-2KcFPeio3Amawn4x91XuXtGzOt5ic52K4CqPu4zsEfo4EKKxH0c4Fm00]--></g></svg>