<svg xmlns="http://www.w3.org/2000/svg" xmlns:xlink="http://www.w3.org/1999/xlink" contentStyleType="text/css" data-diagram-type="CLASS" height="834px" preserveAspectRatio="none" style="width:1230px;height:834px;background:#FFFFFF;" version="1.1" viewBox="0 0 1230 834" width="1230px" zoomAndPan="magnify"><defs/><g><!--class Adjunct--><g class="entity" data-entity="Adjunct" data-source-line="2" data-uid="ent0002" id="entity_Adjunct"><rect fill="#F1F1F1" height="128.2717" rx="2.5" ry="2.5" style="stroke:#181818;stroke-width:0.5;" width="185.5713" x="7" y="622.77"/><ellipse cx="70.4128" cy="638.77" fill="#ADD1B2" rx="11" ry="11" style="stroke:#181818;stroke-width:1;"/><path d="M70.5221,634.3013 Q69.6003,634.3013 68.8659,634.6138 Q68.1471,634.9263 67.6471,635.52 Q67.1471,636.0981 66.8659,636.9731 Q66.6003,637.8481 66.6003,638.9419 Q66.6003,640.3794 67.0378,641.4263 Q67.4909,642.4731 68.3346,643.02 Q69.194,643.5669 70.5065,643.5669 Q71.2878,643.5669 71.9753,643.4419 Q72.6784,643.3013 73.6784,642.9888 L73.6784,644.8638 Q72.819,645.1919 72.0534,645.3169 Q71.3034,645.4419 70.2878,645.4419 Q68.3659,645.4419 67.0534,644.645 Q65.7565,643.8325 65.1003,642.3638 Q64.444,640.8794 64.444,638.9106 Q64.444,637.4888 64.8346,636.3169 Q65.2409,635.1294 66.0221,634.2544 Q66.8034,633.3794 67.944,632.9106 Q69.0846,632.4263 70.5534,632.4263 Q71.5065,632.4263 72.3971,632.6294 Q73.3034,632.8169 74.2409,633.2856 L73.4128,635.0669 Q72.6315,634.6919 71.9753,634.5044 Q71.319,634.3013 70.5221,634.3013 Z " fill="#000000"/><text fill="#000000" font-family="sans-serif" font-size="14" lengthAdjust="spacing" textLength="50.2458" x="90.9128" y="644.202">Adjunct</text><line style="stroke:#181818;stroke-width:0.5;" x1="8" x2="191.5713" y1="654.77" y2="654.77"/><ellipse cx="18" cy="669.804" fill="none" rx="3" ry="3" style="stroke:#038048;stroke-width:1;"/><text fill="#000000" font-family="sans-serif" font-size="14" lengthAdjust="spacing" textLength="52.7798" x="27" y="673.7359">id : uuid</text><line style="stroke:#181818;stroke-width:1;" x1="8" x2="191.5713" y1="681.8379" y2="681.8379"/><text fill="#000000" font-family="sans-serif" font-size="14" lengthAdjust="spacing" textLength="173.5713" x="13" y="700.8039">total_IBU_per_kg : decimal</text><text fill="#000000" font-family="sans-serif" font-size="14" lengthAdjust="spacing" text-decoration="underline" textLength="124.1655" x="13" y="742.9397">Fermentable : uuid</text><line style="stroke:#181818;stroke-width:1;stroke-dasharray:1,2;" x1="8" x2="72.8568" y1="718.4398" y2="718.4398"/><text fill="#000000" font-family="sans-serif" font-size="14" lengthAdjust="spacing" textLength="53.8578" x="72.8568" y="723.3718">Relation</text><line style="stroke:#181818;stroke-width:1;stroke-dasharray:1,2;" x1="126.7146" x2="191.5713" y1="718.4398" y2="718.4398"/></g><!--class DryExtract--><g class="entity" data-entity="DryExtract" data-source-line="1" data-uid="ent0003" id="entity_DryExtract"><rect fill="#F1F1F1" height="109.2038" rx="2.5" ry="2.5" style="stroke:#181818;stroke-width:0.5;" width="136.1655" x="227.7" y="632.3"/><ellipse cx="258.6164" cy="648.3" fill="#ADD1B2" rx="11" ry="11" style="stroke:#181818;stroke-width:1;"/><path d="M258.7258,643.8313 Q257.8039,643.8313 257.0695,644.1438 Q256.3508,644.4563 255.8508,645.05 Q255.3508,645.6281 255.0695,646.5031 Q254.8039,647.3781 254.8039,648.4719 Q254.8039,649.9094 255.2414,650.9563 Q255.6945,652.0031 256.5383,652.55 Q257.3976,653.0969 258.7101,653.0969 Q259.4914,653.0969 260.1789,652.9719 Q260.882,652.8313 261.882,652.5188 L261.882,654.3938 Q261.0226,654.7219 260.257,654.8469 Q259.507,654.9719 258.4914,654.9719 Q256.5695,654.9719 255.257,654.175 Q253.9601,653.3625 253.3039,651.8938 Q252.6476,650.4094 252.6476,648.4406 Q252.6476,647.0188 253.0383,645.8469 Q253.4445,644.6594 254.2258,643.7844 Q255.007,642.9094 256.1476,642.4406 Q257.2883,641.9563 258.757,641.9563 Q259.7101,641.9563 260.6008,642.1594 Q261.507,642.3469 262.4445,642.8156 L261.6164,644.5969 Q260.8351,644.2219 260.1789,644.0344 Q259.5226,643.8313 258.7258,643.8313 Z " fill="#000000"/><text fill="#000000" font-family="sans-serif" font-size="14" lengthAdjust="spacing" textLength="68.7957" x="276.1534" y="653.732">DryExtract</text><line style="stroke:#181818;stroke-width:0.5;" x1="228.7" x2="362.8655" y1="664.3" y2="664.3"/><ellipse cx="238.7" cy="679.334" fill="none" rx="3" ry="3" style="stroke:#038048;stroke-width:1;"/><text fill="#000000" font-family="sans-serif" font-size="14" lengthAdjust="spacing" textLength="52.7798" x="247.7" y="683.2659">id : uuid</text><line style="stroke:#181818;stroke-width:1;" x1="228.7" x2="362.8655" y1="691.3679" y2="691.3679"/><text fill="#000000" font-family="sans-serif" font-size="14" lengthAdjust="spacing" text-decoration="underline" textLength="124.1655" x="233.7" y="733.4018">Fermentable : uuid</text><line style="stroke:#181818;stroke-width:1;stroke-dasharray:1,2;" x1="228.7" x2="268.8539" y1="708.9019" y2="708.9019"/><text fill="#000000" font-family="sans-serif" font-size="14" lengthAdjust="spacing" textLength="53.8578" x="268.8539" y="713.8339">Relation</text><line style="stroke:#181818;stroke-width:1;stroke-dasharray:1,2;" x1="322.7117" x2="362.8655" y1="708.9019" y2="708.9019"/></g><!--class Grain--><g class="entity" data-entity="Grain" data-source-line="1" data-uid="ent0004" id="entity_Grain"><rect fill="#F1F1F1" height="280.815" rx="2.5" ry="2.5" style="stroke:#181818;stroke-width:0.5;" width="211.6532" x="398.96" y="546.5"/><ellipse cx="482.4907" cy="562.5" fill="#ADD1B2" rx="11" ry="11" style="stroke:#181818;stroke-width:1;"/><path d="M482.6001,558.0313 Q481.6782,558.0313 480.9438,558.3438 Q480.2251,558.6563 479.7251,559.25 Q479.2251,559.8281 478.9438,560.7031 Q478.6782,561.5781 478.6782,562.6719 Q478.6782,564.1094 479.1157,565.1563 Q479.5688,566.2031 480.4126,566.75 Q481.2719,567.2969 482.5844,567.2969 Q483.3657,567.2969 484.0532,567.1719 Q484.7563,567.0313 485.7563,566.7188 L485.7563,568.5938 Q484.8969,568.9219 484.1313,569.0469 Q483.3813,569.1719 482.3657,569.1719 Q480.4438,569.1719 479.1313,568.375 Q477.8344,567.5625 477.1782,566.0938 Q476.5219,564.6094 476.5219,562.6406 Q476.5219,561.2188 476.9126,560.0469 Q477.3188,558.8594 478.1001,557.9844 Q478.8813,557.1094 480.0219,556.6406 Q481.1626,556.1563 482.6313,556.1563 Q483.5844,556.1563 484.4751,556.3594 Q485.3813,556.5469 486.3188,557.0156 L485.4907,558.7969 Q484.7094,558.4219 484.0532,558.2344 Q483.3969,558.0313 482.6001,558.0313 Z " fill="#000000"/><text fill="#000000" font-family="sans-serif" font-size="14" lengthAdjust="spacing" textLength="36.0919" x="502.9907" y="567.932">Grain</text><line style="stroke:#181818;stroke-width:0.5;" x1="399.96" x2="609.6132" y1="578.5" y2="578.5"/><ellipse cx="409.96" cy="593.534" fill="none" rx="3" ry="3" style="stroke:#038048;stroke-width:1;"/><text fill="#000000" font-family="sans-serif" font-size="14" lengthAdjust="spacing" textLength="52.7798" x="418.96" y="597.4659">id : uuid</text><line style="stroke:#181818;stroke-width:1;" x1="399.96" x2="609.6132" y1="605.5679" y2="605.5679"/><text fill="#000000" font-family="sans-serif" font-size="14" lengthAdjust="spacing" textLength="165.4794" x="404.96" y="624.5339">diastatic_power : decimal</text><text fill="#000000" font-family="sans-serif" font-size="14" lengthAdjust="spacing" textLength="121.6875" x="404.96" y="643.6018">moisture : decimal</text><text fill="#000000" font-family="sans-serif" font-size="14" lengthAdjust="spacing" textLength="110.5016" x="404.96" y="662.6697">protein : decimal</text><text fill="#000000" font-family="sans-serif" font-size="14" lengthAdjust="spacing" textLength="165.1153" x="404.96" y="681.7376">coarse_fine_diff : decimal</text><text fill="#000000" font-family="sans-serif" font-size="14" lengthAdjust="spacing" textLength="108.1916" x="404.96" y="700.8055">extract : decimal</text><text fill="#000000" font-family="sans-serif" font-size="14" lengthAdjust="spacing" textLength="105.0276" x="404.96" y="719.8734">acidity : decimal</text><text fill="#000000" font-family="sans-serif" font-size="14" lengthAdjust="spacing" textLength="116.1295" x="404.96" y="738.9414">friability : decimal</text><text fill="#000000" font-family="sans-serif" font-size="14" lengthAdjust="spacing" textLength="199.6532" x="404.96" y="758.0093">free_amino_nitrogen : decimal</text><text fill="#000000" font-family="sans-serif" font-size="14" lengthAdjust="spacing" textLength="152.3614" x="404.96" y="777.0772">max_in_batch : decimal</text><text fill="#000000" font-family="sans-serif" font-size="14" lengthAdjust="spacing" text-decoration="underline" textLength="142.6034" x="404.96" y="819.213">Fermentable_id : uuid</text><line style="stroke:#181818;stroke-width:1;stroke-dasharray:1,2;" x1="399.96" x2="477.8577" y1="794.7131" y2="794.7131"/><text fill="#000000" font-family="sans-serif" font-size="14" lengthAdjust="spacing" textLength="53.8578" x="477.8577" y="799.6451">Relation</text><line style="stroke:#181818;stroke-width:1;stroke-dasharray:1,2;" x1="531.7155" x2="609.6132" y1="794.7131" y2="794.7131"/></g><!--class LiquidExtract--><g class="entity" data-entity="LiquidExtract" data-source-line="2" data-uid="ent0005" id="entity_LiquidExtract"><rect fill="#F1F1F1" height="128.2717" rx="2.5" ry="2.5" style="stroke:#181818;stroke-width:0.5;" width="185.5713" x="646" y="622.77"/><ellipse cx="691.4928" cy="638.77" fill="#ADD1B2" rx="11" ry="11" style="stroke:#181818;stroke-width:1;"/><path d="M691.6022,634.3013 Q690.6803,634.3013 689.946,634.6138 Q689.2272,634.9263 688.7272,635.52 Q688.2272,636.0981 687.946,636.9731 Q687.6803,637.8481 687.6803,638.9419 Q687.6803,640.3794 688.1178,641.4263 Q688.571,642.4731 689.4147,643.02 Q690.2741,643.5669 691.5866,643.5669 Q692.3678,643.5669 693.0553,643.4419 Q693.7585,643.3013 694.7585,642.9888 L694.7585,644.8638 Q693.8991,645.1919 693.1335,645.3169 Q692.3835,645.4419 691.3678,645.4419 Q689.446,645.4419 688.1335,644.645 Q686.8366,643.8325 686.1803,642.3638 Q685.5241,640.8794 685.5241,638.9106 Q685.5241,637.4888 685.9147,636.3169 Q686.321,635.1294 687.1022,634.2544 Q687.8835,633.3794 689.0241,632.9106 Q690.1647,632.4263 691.6335,632.4263 Q692.5866,632.4263 693.4772,632.6294 Q694.3835,632.8169 695.321,633.2856 L694.4928,635.0669 Q693.7116,634.6919 693.0553,634.5044 Q692.3991,634.3013 691.6022,634.3013 Z " fill="#000000"/><text fill="#000000" font-family="sans-serif" font-size="14" lengthAdjust="spacing" textLength="86.0857" x="711.9928" y="644.202">LiquidExtract</text><line style="stroke:#181818;stroke-width:0.5;" x1="647" x2="830.5713" y1="654.77" y2="654.77"/><ellipse cx="657" cy="669.804" fill="none" rx="3" ry="3" style="stroke:#038048;stroke-width:1;"/><text fill="#000000" font-family="sans-serif" font-size="14" lengthAdjust="spacing" textLength="52.7798" x="666" y="673.7359">id : uuid</text><line style="stroke:#181818;stroke-width:1;" x1="647" x2="830.5713" y1="681.8379" y2="681.8379"/><text fill="#000000" font-family="sans-serif" font-size="14" lengthAdjust="spacing" textLength="173.5713" x="652" y="700.8039">total_IBU_per_kg : decimal</text><text fill="#000000" font-family="sans-serif" font-size="14" lengthAdjust="spacing" text-decoration="underline" textLength="124.1655" x="652" y="742.9397">Fermentable : uuid</text><line style="stroke:#181818;stroke-width:1;stroke-dasharray:1,2;" x1="647" x2="711.8568" y1="718.4398" y2="718.4398"/><text fill="#000000" font-family="sans-serif" font-size="14" lengthAdjust="spacing" textLength="53.8578" x="711.8568" y="723.3718">Relation</text><line style="stroke:#181818;stroke-width:1;stroke-dasharray:1,2;" x1="765.7146" x2="830.5713" y1="718.4398" y2="718.4398"/></g><!--class Other--><g class="entity" data-entity="Other" data-source-line="1" data-uid="ent0006" id="entity_Other"><rect fill="#F1F1F1" height="128.2717" rx="2.5" ry="2.5" style="stroke:#181818;stroke-width:0.5;" width="185.5713" x="867" y="622.77"/><ellipse cx="936.3767" cy="638.77" fill="#ADD1B2" rx="11" ry="11" style="stroke:#181818;stroke-width:1;"/><path d="M936.4861,634.3013 Q935.5642,634.3013 934.8299,634.6138 Q934.1111,634.9263 933.6111,635.52 Q933.1111,636.0981 932.8299,636.9731 Q932.5642,637.8481 932.5642,638.9419 Q932.5642,640.3794 933.0017,641.4263 Q933.4549,642.4731 934.2986,643.02 Q935.158,643.5669 936.4705,643.5669 Q937.2517,643.5669 937.9392,643.4419 Q938.6424,643.3013 939.6424,642.9888 L939.6424,644.8638 Q938.783,645.1919 938.0174,645.3169 Q937.2674,645.4419 936.2517,645.4419 Q934.3299,645.4419 933.0174,644.645 Q931.7205,643.8325 931.0642,642.3638 Q930.408,640.8794 930.408,638.9106 Q930.408,637.4888 930.7986,636.3169 Q931.2049,635.1294 931.9861,634.2544 Q932.7674,633.3794 933.908,632.9106 Q935.0486,632.4263 936.5174,632.4263 Q937.4705,632.4263 938.3611,632.6294 Q939.2674,632.8169 940.2049,633.2856 L939.3767,635.0669 Q938.5955,634.6919 937.9392,634.5044 Q937.283,634.3013 936.4861,634.3013 Z " fill="#000000"/><text fill="#000000" font-family="sans-serif" font-size="14" lengthAdjust="spacing" textLength="38.3179" x="956.8767" y="644.202">Other</text><line style="stroke:#181818;stroke-width:0.5;" x1="868" x2="1051.5713" y1="654.77" y2="654.77"/><ellipse cx="878" cy="669.804" fill="none" rx="3" ry="3" style="stroke:#038048;stroke-width:1;"/><text fill="#000000" font-family="sans-serif" font-size="14" lengthAdjust="spacing" textLength="52.7798" x="887" y="673.7359">id : uuid</text><line style="stroke:#181818;stroke-width:1;" x1="868" x2="1051.5713" y1="681.8379" y2="681.8379"/><text fill="#000000" font-family="sans-serif" font-size="14" lengthAdjust="spacing" textLength="173.5713" x="873" y="700.8039">total_IBU_per_kg : decimal</text><text fill="#000000" font-family="sans-serif" font-size="14" lengthAdjust="spacing" text-decoration="underline" textLength="124.1655" x="873" y="742.9397">Fermentable : uuid</text><line style="stroke:#181818;stroke-width:1;stroke-dasharray:1,2;" x1="868" x2="932.8568" y1="718.4398" y2="718.4398"/><text fill="#000000" font-family="sans-serif" font-size="14" lengthAdjust="spacing" textLength="53.8578" x="932.8568" y="723.3718">Relation</text><line style="stroke:#181818;stroke-width:1;stroke-dasharray:1,2;" x1="986.7146" x2="1051.5713" y1="718.4398" y2="718.4398"/></g><!--class Sugar--><g class="entity" data-entity="Sugar" data-source-line="1" data-uid="ent0007" id="entity_Sugar"><rect fill="#F1F1F1" height="109.2038" rx="2.5" ry="2.5" style="stroke:#181818;stroke-width:0.5;" width="136.1655" x="1087.7" y="632.3"/><ellipse cx="1132.2408" cy="648.3" fill="#ADD1B2" rx="11" ry="11" style="stroke:#181818;stroke-width:1;"/><path d="M1132.3502,643.8313 Q1131.4283,643.8313 1130.6939,644.1438 Q1129.9752,644.4563 1129.4752,645.05 Q1128.9752,645.6281 1128.6939,646.5031 Q1128.4283,647.3781 1128.4283,648.4719 Q1128.4283,649.9094 1128.8658,650.9563 Q1129.3189,652.0031 1130.1627,652.55 Q1131.0221,653.0969 1132.3346,653.0969 Q1133.1158,653.0969 1133.8033,652.9719 Q1134.5064,652.8313 1135.5064,652.5188 L1135.5064,654.3938 Q1134.6471,654.7219 1133.8814,654.8469 Q1133.1314,654.9719 1132.1158,654.9719 Q1130.1939,654.9719 1128.8814,654.175 Q1127.5846,653.3625 1126.9283,651.8938 Q1126.2721,650.4094 1126.2721,648.4406 Q1126.2721,647.0188 1126.6627,645.8469 Q1127.0689,644.6594 1127.8502,643.7844 Q1128.6314,642.9094 1129.7721,642.4406 Q1130.9127,641.9563 1132.3814,641.9563 Q1133.3346,641.9563 1134.2252,642.1594 Q1135.1314,642.3469 1136.0689,642.8156 L1135.2408,644.5969 Q1134.4596,644.2219 1133.8033,644.0344 Q1133.1471,643.8313 1132.3502,643.8313 Z " fill="#000000"/><text fill="#000000" font-family="sans-serif" font-size="14" lengthAdjust="spacing" textLength="38.5839" x="1152.7408" y="653.732">Sugar</text><line style="stroke:#181818;stroke-width:0.5;" x1="1088.7" x2="1222.8655" y1="664.3" y2="664.3"/><ellipse cx="1098.7" cy="679.334" fill="none" rx="3" ry="3" style="stroke:#038048;stroke-width:1;"/><text fill="#000000" font-family="sans-serif" font-size="14" lengthAdjust="spacing" textLength="52.7798" x="1107.7" y="683.2659">id : uuid</text><line style="stroke:#181818;stroke-width:1;" x1="1088.7" x2="1222.8655" y1="691.3679" y2="691.3679"/><text fill="#000000" font-family="sans-serif" font-size="14" lengthAdjust="spacing" text-decoration="underline" textLength="124.1655" x="1093.7" y="733.4018">Fermentable : uuid</text><line style="stroke:#181818;stroke-width:1;stroke-dasharray:1,2;" x1="1088.7" x2="1128.8539" y1="708.9019" y2="708.9019"/><text fill="#000000" font-family="sans-serif" font-size="14" lengthAdjust="spacing" textLength="53.8578" x="1128.8539" y="713.8339">Relation</text><line style="stroke:#181818;stroke-width:1;stroke-dasharray:1,2;" x1="1182.7117" x2="1222.8655" y1="708.9019" y2="708.9019"/></g><!--class Fermentable--><g class="entity" data-entity="Fermentable" data-source-line="10" data-uid="ent0008" id="entity_Fermentable"><rect fill="#F1F1F1" height="479.4942" rx="2.5" ry="2.5" style="stroke:#181818;stroke-width:0.5;" width="202.0213" x="520.78" y="7"/><ellipse cx="575.7368" cy="23" fill="#ADD1B2" rx="11" ry="11" style="stroke:#181818;stroke-width:1;"/><path d="M575.8462,18.5313 Q574.9243,18.5313 574.1899,18.8438 Q573.4712,19.1563 572.9712,19.75 Q572.4712,20.3281 572.1899,21.2031 Q571.9243,22.0781 571.9243,23.1719 Q571.9243,24.6094 572.3618,25.6563 Q572.8149,26.7031 573.6587,27.25 Q574.518,27.7969 575.8305,27.7969 Q576.6118,27.7969 577.2993,27.6719 Q578.0024,27.5313 579.0024,27.2188 L579.0024,29.0938 Q578.143,29.4219 577.3774,29.5469 Q576.6274,29.6719 575.6118,29.6719 Q573.6899,29.6719 572.3774,28.875 Q571.0805,28.0625 570.4243,26.5938 Q569.768,25.1094 569.768,23.1406 Q569.768,21.7188 570.1587,20.5469 Q570.5649,19.3594 571.3462,18.4844 Q572.1274,17.6094 573.268,17.1406 Q574.4087,16.6563 575.8774,16.6563 Q576.8305,16.6563 577.7212,16.8594 Q578.6274,17.0469 579.5649,17.5156 L578.7368,19.2969 Q577.9555,18.9219 577.2993,18.7344 Q576.643,18.5313 575.8462,18.5313 Z " fill="#000000"/><text fill="#000000" font-family="sans-serif" font-size="14" lengthAdjust="spacing" textLength="83.6077" x="596.2368" y="28.432">Fermentable</text><line style="stroke:#181818;stroke-width:0.5;" x1="521.78" x2="721.8013" y1="39" y2="39"/><ellipse cx="531.78" cy="54.034" fill="none" rx="3" ry="3" style="stroke:#038048;stroke-width:1;"/><text fill="#000000" font-family="sans-serif" font-size="14" lengthAdjust="spacing" textLength="52.7798" x="540.78" y="57.9659">id : uuid</text><line style="stroke:#181818;stroke-width:1;" x1="521.78" x2="721.8013" y1="66.0679" y2="66.0679"/><text fill="#000000" font-family="sans-serif" font-size="14" lengthAdjust="spacing" textLength="86.9397" x="526.78" y="108.1018">name : string</text><text fill="#000000" font-family="sans-serif" font-size="14" lengthAdjust="spacing" textLength="102.9276" x="526.78" y="127.1697">supplier : string</text><text fill="#000000" font-family="sans-serif" font-size="14" lengthAdjust="spacing" textLength="88.1857" x="526.78" y="146.2376">origin : string</text><text fill="#000000" font-family="sans-serif" font-size="14" lengthAdjust="spacing" textLength="78.1477" x="526.78" y="165.3055">type : string</text><line style="stroke:#181818;stroke-width:1;stroke-dasharray:1,2;" x1="521.78" x2="595.8487" y1="83.6019" y2="83.6019"/><text fill="#000000" font-family="sans-serif" font-size="14" lengthAdjust="spacing" textLength="51.8838" x="595.8487" y="88.5339">General</text><line style="stroke:#181818;stroke-width:1;stroke-dasharray:1,2;" x1="647.7325" x2="721.8013" y1="83.6019" y2="83.6019"/><text fill="#000000" font-family="sans-serif" font-size="14" lengthAdjust="spacing" textLength="95.4796" x="526.78" y="207.4414">color : decimal</text><text fill="#000000" font-family="sans-serif" font-size="14" lengthAdjust="spacing" textLength="121.2395" x="526.78" y="226.5093">potential : decimal</text><text fill="#000000" font-family="sans-serif" font-size="14" lengthAdjust="spacing" textLength="93.2956" x="526.78" y="245.5772">yield : decimal</text><text fill="#000000" font-family="sans-serif" font-size="14" lengthAdjust="spacing" textLength="174.0753" x="526.78" y="264.6451">manufacturing_date : date</text><text fill="#000000" font-family="sans-serif" font-size="14" lengthAdjust="spacing" textLength="143.0235" x="526.78" y="283.713">expiration_date : date</text><text fill="#000000" font-family="sans-serif" font-size="14" lengthAdjust="spacing" textLength="125.4815" x="526.78" y="302.7809">lot_number : string</text><text fill="#000000" font-family="sans-serif" font-size="14" lengthAdjust="spacing" textLength="190.0213" x="526.78" y="321.8489">exclude_from_total : boolean</text><text fill="#000000" font-family="sans-serif" font-size="14" lengthAdjust="spacing" textLength="174.1453" x="526.78" y="340.9168">not_fermentable : boolean</text><text fill="#000000" font-family="sans-serif" font-size="14" lengthAdjust="spacing" textLength="86.2257" x="526.78" y="359.9847">notes : string</text><text fill="#000000" font-family="sans-serif" font-size="14" lengthAdjust="spacing" textLength="123.1715" x="526.78" y="379.0526">description : string</text><text fill="#000000" font-family="sans-serif" font-size="14" lengthAdjust="spacing" textLength="122.1496" x="526.78" y="398.1205">substitutes : string</text><text fill="#000000" font-family="sans-serif" font-size="14" lengthAdjust="spacing" textLength="99.7916" x="526.78" y="417.1884">used_in : string</text><line style="stroke:#181818;stroke-width:1;stroke-dasharray:1,2;" x1="521.78" x2="555.5219" y1="182.9415" y2="182.9415"/><text fill="#000000" font-family="sans-serif" font-size="14" lengthAdjust="spacing" textLength="132.5375" x="555.5219" y="187.8734">Common Properties</text><line style="stroke:#181818;stroke-width:1;stroke-dasharray:1,2;" x1="688.0594" x2="721.8013" y1="182.9415" y2="182.9415"/><text fill="#000000" font-family="sans-serif" font-size="14" lengthAdjust="spacing" text-decoration="underline" textLength="99.5116" x="526.78" y="459.3243">recipe_id : uuid</text><text fill="#000000" font-family="sans-serif" font-size="14" lengthAdjust="spacing" text-decoration="underline" textLength="121.3655" x="526.78" y="478.3922">inventory_id : uuid</text><line style="stroke:#181818;stroke-width:1;stroke-dasharray:1,2;" x1="521.78" x2="594.8617" y1="434.8244" y2="434.8244"/><text fill="#000000" font-family="sans-serif" font-size="14" lengthAdjust="spacing" textLength="53.8578" x="594.8617" y="439.7564">Relation</text><line style="stroke:#181818;stroke-width:1;stroke-dasharray:1,2;" x1="648.7195" x2="721.8013" y1="434.8244" y2="434.8244"/></g><!--link Fermentable to Adjunct--><g class="link" data-entity-1="Fermentable" data-entity-2="Adjunct" data-source-line="36" data-uid="lnk9" id="link_Fermentable_Adjunct"><path codeLine="36" d="M520.58,309.83 C433.32,365.89 306.5,453.64 209.79,546.5 C185.99,569.34 162.87,597.44 144.02,622.42" fill="none" id="Fermentable-Adjunct" style="stroke:#181818;stroke-width:1;"/></g><!--link Fermentable to DryExtract--><g class="link" data-entity-1="Fermentable" data-entity-2="DryExtract" data-source-line="37" data-uid="lnk10" id="link_Fermentable_DryExtract"><path codeLine="37" d="M520.49,366.84 C476.3,420.54 424.86,485.49 381.79,546.5 C362.43,573.91 342.65,605.67 326.94,631.94" fill="none" id="Fermentable-DryExtract" style="stroke:#181818;stroke-width:1;"/></g><!--link Fermentable to Grain--><g class="link" data-entity-1="Fermentable" data-entity-2="Grain" data-source-line="38" data-uid="lnk11" id="link_Fermentable_Grain"><path codeLine="38" d="M557.98,486.7 C552.55,507.02 547.19,527.12 542.07,546.28" fill="none" id="Fermentable-Grain" style="stroke:#181818;stroke-width:1;"/></g><!--link Fermentable to LiquidExtract--><g class="link" data-entity-1="Fermentable" data-entity-2="LiquidExtract" data-source-line="39" data-uid="lnk12" id="link_Fermentable_LiquidExtract"><path codeLine="39" d="M685.59,486.7 C699.01,536.96 712.06,585.82 721.87,622.57" fill="none" id="Fermentable-LiquidExtract" style="stroke:#181818;stroke-width:1;"/></g><!--link Fermentable to Other--><g class="link" data-entity-1="Fermentable" data-entity-2="Other" data-source-line="40" data-uid="lnk13" id="link_Fermentable_Other"><path codeLine="40" d="M723.2,379.21 C785.23,459.62 861.8,558.89 910.72,622.3" fill="none" id="Fermentable-Other" style="stroke:#181818;stroke-width:1;"/></g><!--link Fermentable to Sugar--><g class="link" data-entity-1="Fermentable" data-entity-2="Sugar" data-source-line="41" data-uid="lnk14" id="link_Fermentable_Sugar"><path codeLine="41" d="M722.92,298.6 C820.13,351.05 967.04,440.05 1069.79,546.5 C1093.88,571.46 1114.54,604.29 1129.57,631.82" fill="none" id="Fermentable-Sugar" style="stroke:#181818;stroke-width:1;"/></g><!--SRC=[VLFBJiCm4BpdAznUEA2OEpTKe1Sa47n0vCJRiiWlx3LgLFNVSKo0nAcQYxCpi-lrUBr2qwaeWJs2rs18j0fkxkH7D1rn5xMgLkSKzxv_E90NlwAhiwh9VxCH17lh-mj5jrwWkS0_uMT4ETlthEwPti5VuD_YNenyrIaH0bjFw3KJOIfdnugbxvgXPBSifWvoNDTvuNmB1hnGdEVO20r95iYZsMSaHESKWf-ZrkCUpHoZtXMvd6-irjQm5syTU488upwTLNOeAQ53BLJ6dANKCmfLu3s2aWMcXOcxP6CSzcfakfn1a9RCmi6X5uJMB2XbgJ5Hj-M1u92DRdRUweOivIvQQnK8y-DCIjnDR5sm4EOL9OJEenkwA1rj0o75HKOC89lILSvVGUMpZDOT0wMmEp6V_73GpE_rZqNpbLfD4piHdAfgEXbrpSQdmahy_u4ig3pc9JYRxKLAdkW5ckUOLTy0]--></g></svg>