<svg xmlns="http://www.w3.org/2000/svg" xmlns:xlink="http://www.w3.org/1999/xlink" contentStyleType="text/css" data-diagram-type="CLASS" height="673px" preserveAspectRatio="none" style="width:1664px;height:673px;background:#FFFFFF;" version="1.1" viewBox="0 0 1664 673" width="1664px" zoomAndPan="magnify"><defs/><g><!--class Inventory--><g class="entity" data-entity="Inventory" data-source-line="5" data-uid="ent0002" id="entity_Inventory"><rect fill="#F1F1F1" height="342.0188" rx="2.5" ry="2.5" style="stroke:#181818;stroke-width:0.5;" width="178.7254" x="740.78" y="7"/><ellipse cx="794.1408" cy="23" fill="#ADD1B2" rx="11" ry="11" style="stroke:#181818;stroke-width:1;"/><path d="M794.2502,18.5313 Q793.3283,18.5313 792.5939,18.8438 Q791.8752,19.1563 791.3752,19.75 Q790.8752,20.3281 790.5939,21.2031 Q790.3283,22.0781 790.3283,23.1719 Q790.3283,24.6094 790.7658,25.6563 Q791.2189,26.7031 792.0627,27.25 Q792.9221,27.7969 794.2346,27.7969 Q795.0158,27.7969 795.7033,27.6719 Q796.4064,27.5313 797.4064,27.2188 L797.4064,29.0938 Q796.5471,29.4219 795.7814,29.5469 Q795.0314,29.6719 794.0158,29.6719 Q792.0939,29.6719 790.7814,28.875 Q789.4846,28.0625 788.8283,26.5938 Q788.1721,25.1094 788.1721,23.1406 Q788.1721,21.7188 788.5627,20.5469 Q788.9689,19.3594 789.7502,18.4844 Q790.5314,17.6094 791.6721,17.1406 Q792.8127,16.6563 794.2814,16.6563 Q795.2346,16.6563 796.1252,16.8594 Q797.0314,17.0469 797.9689,17.5156 L797.1408,19.2969 Q796.3596,18.9219 795.7033,18.7344 Q795.0471,18.5313 794.2502,18.5313 Z " fill="#000000"/><text fill="#000000" font-family="sans-serif" font-size="14" lengthAdjust="spacing" textLength="63.5038" x="814.6408" y="28.432">Inventory</text><line style="stroke:#181818;stroke-width:0.5;" x1="741.78" x2="918.5054" y1="39" y2="39"/><ellipse cx="751.78" cy="54.034" fill="none" rx="3" ry="3" style="stroke:#038048;stroke-width:1;"/><text fill="#000000" font-family="sans-serif" font-size="14" lengthAdjust="spacing" textLength="52.7798" x="760.78" y="57.9659">id : uuid</text><line style="stroke:#181818;stroke-width:1;" x1="741.78" x2="918.5054" y1="66.0679" y2="66.0679"/><text fill="#000000" font-family="sans-serif" font-size="14" lengthAdjust="spacing" textLength="152.7394" x="746.78" y="108.1018">ingredient_type : string</text><text fill="#000000" font-family="sans-serif" font-size="14" lengthAdjust="spacing" textLength="127.3715" x="746.78" y="127.1697">ingredient_id : uuid</text><text fill="#000000" font-family="sans-serif" font-size="14" lengthAdjust="spacing" textLength="117.0535" x="746.78" y="146.2376">quantity : decimal</text><text fill="#000000" font-family="sans-serif" font-size="14" lengthAdjust="spacing" textLength="75.4177" x="746.78" y="165.3055">unit : string</text><text fill="#000000" font-family="sans-serif" font-size="14" lengthAdjust="spacing" textLength="89.3757" x="746.78" y="184.3734">cost : decimal</text><text fill="#000000" font-family="sans-serif" font-size="14" lengthAdjust="spacing" textLength="136.9475" x="746.78" y="203.4414">purchase_date : date</text><text fill="#000000" font-family="sans-serif" font-size="14" lengthAdjust="spacing" textLength="143.0235" x="746.78" y="222.5093">expiration_date : date</text><text fill="#000000" font-family="sans-serif" font-size="14" lengthAdjust="spacing" textLength="102.9276" x="746.78" y="241.5772">supplier : string</text><text fill="#000000" font-family="sans-serif" font-size="14" lengthAdjust="spacing" textLength="125.4815" x="746.78" y="260.6451">lot_number : string</text><text fill="#000000" font-family="sans-serif" font-size="14" lengthAdjust="spacing" textLength="86.2257" x="746.78" y="279.713">notes : string</text><line style="stroke:#181818;stroke-width:1;stroke-dasharray:1,2;" x1="741.78" x2="804.2008" y1="83.6019" y2="83.6019"/><text fill="#000000" font-family="sans-serif" font-size="14" lengthAdjust="spacing" textLength="51.8838" x="804.2008" y="88.5339">General</text><line style="stroke:#181818;stroke-width:1;stroke-dasharray:1,2;" x1="856.0846" x2="918.5054" y1="83.6019" y2="83.6019"/><text fill="#000000" font-family="sans-serif" font-size="14" lengthAdjust="spacing" textLength="119.3775" x="746.78" y="321.8489">is_active : boolean</text><text fill="#000000" font-family="sans-serif" font-size="14" lengthAdjust="spacing" textLength="166.7254" x="746.78" y="340.9168">last_updated : timestamp</text><line style="stroke:#181818;stroke-width:1;stroke-dasharray:1,2;" x1="741.78" x2="809.6398" y1="297.349" y2="297.349"/><text fill="#000000" font-family="sans-serif" font-size="14" lengthAdjust="spacing" textLength="41.0059" x="809.6398" y="302.2809">Status</text><line style="stroke:#181818;stroke-width:1;stroke-dasharray:1,2;" x1="850.6456" x2="918.5054" y1="297.349" y2="297.349"/></g><!--class Hops--><g class="entity" data-entity="Hops" data-source-line="24" data-uid="ent0003" id="entity_Hops"><rect fill="#F1F1F1" height="200.5433" rx="2.5" ry="2.5" style="stroke:#181818;stroke-width:0.5;" width="124.2936" x="7" y="447.09"/><ellipse cx="48.1602" cy="463.09" fill="#ADD1B2" rx="11" ry="11" style="stroke:#181818;stroke-width:1;"/><path d="M48.2695,458.6213 Q47.3477,458.6213 46.6133,458.9338 Q45.8945,459.2463 45.3945,459.84 Q44.8945,460.4181 44.6133,461.2931 Q44.3477,462.1681 44.3477,463.2619 Q44.3477,464.6994 44.7852,465.7463 Q45.2383,466.7931 46.082,467.34 Q46.9414,467.8869 48.2539,467.8869 Q49.0352,467.8869 49.7227,467.7619 Q50.4258,467.6213 51.4258,467.3088 L51.4258,469.1838 Q50.5664,469.5119 49.8008,469.6369 Q49.0508,469.7619 48.0352,469.7619 Q46.1133,469.7619 44.8008,468.965 Q43.5039,468.1525 42.8477,466.6838 Q42.1914,465.1994 42.1914,463.2306 Q42.1914,461.8088 42.582,460.6369 Q42.9883,459.4494 43.7695,458.5744 Q44.5508,457.6994 45.6914,457.2306 Q46.832,456.7463 48.3008,456.7463 Q49.2539,456.7463 50.1445,456.9494 Q51.0508,457.1369 51.9883,457.6056 L51.1602,459.3869 Q50.3789,459.0119 49.7227,458.8244 Q49.0664,458.6213 48.2695,458.6213 Z " fill="#000000"/><text fill="#000000" font-family="sans-serif" font-size="14" lengthAdjust="spacing" textLength="34.1599" x="67.9735" y="468.522">Hops</text><line style="stroke:#181818;stroke-width:0.5;" x1="8" x2="130.2936" y1="479.09" y2="479.09"/><ellipse cx="18" cy="494.124" fill="none" rx="3" ry="3" style="stroke:#038048;stroke-width:1;"/><text fill="#000000" font-family="sans-serif" font-size="14" lengthAdjust="spacing" textLength="52.7798" x="27" y="498.0559">id : uuid</text><line style="stroke:#181818;stroke-width:1;" x1="8" x2="130.2936" y1="506.1579" y2="506.1579"/><text fill="#000000" font-family="sans-serif" font-size="14" lengthAdjust="spacing" textLength="86.9397" x="13" y="525.1239">name : string</text><text fill="#000000" font-family="sans-serif" font-size="14" lengthAdjust="spacing" textLength="88.1857" x="13" y="544.1918">origin : string</text><text fill="#000000" font-family="sans-serif" font-size="14" lengthAdjust="spacing" textLength="99.0076" x="13" y="563.2597">alpha : decimal</text><text fill="#000000" font-family="sans-serif" font-size="14" lengthAdjust="spacing" textLength="91.8396" x="13" y="582.3276">beta : decimal</text><text fill="#000000" font-family="sans-serif" font-size="14" lengthAdjust="spacing" textLength="78.1477" x="13" y="601.3955">type : string</text><text fill="#000000" font-family="sans-serif" font-size="14" lengthAdjust="spacing" textLength="81.6057" x="13" y="620.4634">form : string</text><text fill="#000000" font-family="sans-serif" font-size="14" lengthAdjust="spacing" textLength="112.2936" x="13" y="639.5314">harvest_year : int</text></g><!--class Fermentables--><g class="entity" data-entity="Fermentables" data-source-line="36" data-uid="ent0004" id="entity_Fermentables"><rect fill="#F1F1F1" height="219.6113" rx="2.5" ry="2.5" style="stroke:#181818;stroke-width:0.5;" width="183.9613" x="166.17" y="437.55"/><ellipse cx="208.9115" cy="453.55" fill="#ADD1B2" rx="11" ry="11" style="stroke:#181818;stroke-width:1;"/><path d="M209.0208,449.0813 Q208.099,449.0813 207.3646,449.3938 Q206.6458,449.7063 206.1458,450.3 Q205.6458,450.8781 205.3646,451.7531 Q205.099,452.6281 205.099,453.7219 Q205.099,455.1594 205.5365,456.2063 Q205.9896,457.2531 206.8333,457.8 Q207.6927,458.3469 209.0052,458.3469 Q209.7865,458.3469 210.474,458.2219 Q211.1771,458.0813 212.1771,457.7688 L212.1771,459.6438 Q211.3177,459.9719 210.5521,460.0969 Q209.8021,460.2219 208.7865,460.2219 Q206.8646,460.2219 205.5521,459.425 Q204.2552,458.6125 203.599,457.1438 Q202.9427,455.6594 202.9427,453.6906 Q202.9427,452.2688 203.3333,451.0969 Q203.7396,449.9094 204.5208,449.0344 Q205.3021,448.1594 206.4427,447.6906 Q207.5833,447.2063 209.0521,447.2063 Q210.0052,447.2063 210.8958,447.4094 Q211.8021,447.5969 212.7396,448.0656 L211.9115,449.8469 Q211.1302,449.4719 210.474,449.2844 Q209.8177,449.0813 209.0208,449.0813 Z " fill="#000000"/><text fill="#000000" font-family="sans-serif" font-size="14" lengthAdjust="spacing" textLength="90.3137" x="229.0762" y="458.982">Fermentables</text><line style="stroke:#181818;stroke-width:0.5;" x1="167.17" x2="349.1313" y1="469.55" y2="469.55"/><ellipse cx="177.17" cy="484.584" fill="none" rx="3" ry="3" style="stroke:#038048;stroke-width:1;"/><text fill="#000000" font-family="sans-serif" font-size="14" lengthAdjust="spacing" textLength="52.7798" x="186.17" y="488.5159">id : uuid</text><line style="stroke:#181818;stroke-width:1;" x1="167.17" x2="349.1313" y1="496.6179" y2="496.6179"/><text fill="#000000" font-family="sans-serif" font-size="14" lengthAdjust="spacing" textLength="86.9397" x="172.17" y="515.5839">name : string</text><text fill="#000000" font-family="sans-serif" font-size="14" lengthAdjust="spacing" textLength="78.1477" x="172.17" y="534.6518">type : string</text><text fill="#000000" font-family="sans-serif" font-size="14" lengthAdjust="spacing" textLength="95.4796" x="172.17" y="553.7197">color : decimal</text><text fill="#000000" font-family="sans-serif" font-size="14" lengthAdjust="spacing" textLength="121.2395" x="172.17" y="572.7876">potential : decimal</text><text fill="#000000" font-family="sans-serif" font-size="14" lengthAdjust="spacing" textLength="171.9613" x="172.17" y="591.8555">max_percentage : decimal</text><text fill="#000000" font-family="sans-serif" font-size="14" lengthAdjust="spacing" textLength="140.6155" x="172.17" y="610.9234">must_mash : boolean</text><text fill="#000000" font-family="sans-serif" font-size="14" lengthAdjust="spacing" textLength="110.5016" x="172.17" y="629.9914">protein : decimal</text><text fill="#000000" font-family="sans-serif" font-size="14" lengthAdjust="spacing" textLength="121.6875" x="172.17" y="649.0593">moisture : decimal</text></g><!--class Yeasts--><g class="entity" data-entity="Yeasts" data-source-line="49" data-uid="ent0005" id="entity_Yeasts"><rect fill="#F1F1F1" height="238.6792" rx="2.5" ry="2.5" style="stroke:#181818;stroke-width:0.5;" width="192.5573" x="384.87" y="428.02"/><ellipse cx="455.8287" cy="444.02" fill="#ADD1B2" rx="11" ry="11" style="stroke:#181818;stroke-width:1;"/><path d="M455.9381,439.5513 Q455.0162,439.5513 454.2819,439.8638 Q453.5631,440.1763 453.0631,440.77 Q452.5631,441.3481 452.2819,442.2231 Q452.0162,443.0981 452.0162,444.1919 Q452.0162,445.6294 452.4537,446.6763 Q452.9069,447.7231 453.7506,448.27 Q454.61,448.8169 455.9225,448.8169 Q456.7037,448.8169 457.3912,448.6919 Q458.0944,448.5513 459.0944,448.2388 L459.0944,450.1138 Q458.235,450.4419 457.4694,450.5669 Q456.7194,450.6919 455.7037,450.6919 Q453.7819,450.6919 452.4694,449.895 Q451.1725,449.0825 450.5162,447.6138 Q449.86,446.1294 449.86,444.1606 Q449.86,442.7388 450.2506,441.5669 Q450.6569,440.3794 451.4381,439.5044 Q452.2194,438.6294 453.36,438.1606 Q454.5006,437.6763 455.9694,437.6763 Q456.9225,437.6763 457.8131,437.8794 Q458.7194,438.0669 459.6569,438.5356 L458.8287,440.3169 Q458.0475,439.9419 457.3912,439.7544 Q456.735,439.5513 455.9381,439.5513 Z " fill="#000000"/><text fill="#000000" font-family="sans-serif" font-size="14" lengthAdjust="spacing" textLength="42.1398" x="476.3287" y="449.452">Yeasts</text><line style="stroke:#181818;stroke-width:0.5;" x1="385.87" x2="576.4273" y1="460.02" y2="460.02"/><ellipse cx="395.87" cy="475.054" fill="none" rx="3" ry="3" style="stroke:#038048;stroke-width:1;"/><text fill="#000000" font-family="sans-serif" font-size="14" lengthAdjust="spacing" textLength="52.7798" x="404.87" y="478.9859">id : uuid</text><line style="stroke:#181818;stroke-width:1;" x1="385.87" x2="576.4273" y1="487.0879" y2="487.0879"/><text fill="#000000" font-family="sans-serif" font-size="14" lengthAdjust="spacing" textLength="86.9397" x="390.87" y="506.0539">name : string</text><text fill="#000000" font-family="sans-serif" font-size="14" lengthAdjust="spacing" textLength="118.0756" x="390.87" y="525.1218">laboratory : string</text><text fill="#000000" font-family="sans-serif" font-size="14" lengthAdjust="spacing" textLength="119.7836" x="390.87" y="544.1897">product_id : string</text><text fill="#000000" font-family="sans-serif" font-size="14" lengthAdjust="spacing" textLength="78.1477" x="390.87" y="563.2576">type : string</text><text fill="#000000" font-family="sans-serif" font-size="14" lengthAdjust="spacing" textLength="81.6057" x="390.87" y="582.3255">form : string</text><text fill="#000000" font-family="sans-serif" font-size="14" lengthAdjust="spacing" textLength="139.2295" x="390.87" y="601.3934">attenuation : decimal</text><text fill="#000000" font-family="sans-serif" font-size="14" lengthAdjust="spacing" textLength="125.6915" x="390.87" y="620.4614">flocculation : string</text><text fill="#000000" font-family="sans-serif" font-size="14" lengthAdjust="spacing" textLength="177.5613" x="390.87" y="639.5293">temperature_min : decimal</text><text fill="#000000" font-family="sans-serif" font-size="14" lengthAdjust="spacing" textLength="180.5573" x="390.87" y="658.5972">temperature_max : decimal</text></g><!--class Adjuncts--><g class="entity" data-entity="Adjuncts" data-source-line="63" data-uid="ent0006" id="entity_Adjuncts"><rect fill="#F1F1F1" height="143.3396" rx="2.5" ry="2.5" style="stroke:#181818;stroke-width:0.5;" width="109.9856" x="612.15" y="475.69"/><ellipse cx="636.6152" cy="491.69" fill="#ADD1B2" rx="11" ry="11" style="stroke:#181818;stroke-width:1;"/><path d="M636.7246,487.2213 Q635.8027,487.2213 635.0684,487.5338 Q634.3496,487.8463 633.8496,488.44 Q633.3496,489.0181 633.0684,489.8931 Q632.8027,490.7681 632.8027,491.8619 Q632.8027,493.2994 633.2402,494.3463 Q633.6934,495.3931 634.5371,495.94 Q635.3965,496.4869 636.709,496.4869 Q637.4902,496.4869 638.1777,496.3619 Q638.8809,496.2213 639.8809,495.9088 L639.8809,497.7838 Q639.0215,498.1119 638.2559,498.2369 Q637.5059,498.3619 636.4902,498.3619 Q634.5684,498.3619 633.2559,497.565 Q631.959,496.7525 631.3027,495.2838 Q630.6465,493.7994 630.6465,491.8306 Q630.6465,490.4088 631.0371,489.2369 Q631.4434,488.0494 632.2246,487.1744 Q633.0059,486.2994 634.1465,485.8306 Q635.2871,485.3463 636.7559,485.3463 Q637.709,485.3463 638.5996,485.5494 Q639.5059,485.7369 640.4434,486.2056 L639.6152,487.9869 Q638.834,487.6119 638.1777,487.4244 Q637.5215,487.2213 636.7246,487.2213 Z " fill="#000000"/><text fill="#000000" font-family="sans-serif" font-size="14" lengthAdjust="spacing" textLength="56.9518" x="652.7186" y="497.122">Adjuncts</text><line style="stroke:#181818;stroke-width:0.5;" x1="613.15" x2="721.1356" y1="507.69" y2="507.69"/><ellipse cx="623.15" cy="522.724" fill="none" rx="3" ry="3" style="stroke:#038048;stroke-width:1;"/><text fill="#000000" font-family="sans-serif" font-size="14" lengthAdjust="spacing" textLength="52.7798" x="632.15" y="526.6559">id : uuid</text><line style="stroke:#181818;stroke-width:1;" x1="613.15" x2="721.1356" y1="534.7579" y2="534.7579"/><text fill="#000000" font-family="sans-serif" font-size="14" lengthAdjust="spacing" textLength="86.9397" x="618.15" y="553.7239">name : string</text><text fill="#000000" font-family="sans-serif" font-size="14" lengthAdjust="spacing" textLength="78.1477" x="618.15" y="572.7918">type : string</text><text fill="#000000" font-family="sans-serif" font-size="14" lengthAdjust="spacing" textLength="97.9856" x="618.15" y="591.8597">use_for : string</text><text fill="#000000" font-family="sans-serif" font-size="14" lengthAdjust="spacing" textLength="86.2257" x="618.15" y="610.9276">notes : string</text></g><!--class DryExtract--><g class="entity" data-entity="DryExtract" data-source-line="72" data-uid="ent0007" id="entity_DryExtract"><rect fill="#F1F1F1" height="143.3396" rx="2.5" ry="2.5" style="stroke:#181818;stroke-width:0.5;" width="145.9375" x="757.18" y="475.69"/><ellipse cx="792.4938" cy="491.69" fill="#ADD1B2" rx="11" ry="11" style="stroke:#181818;stroke-width:1;"/><path d="M792.6032,487.2213 Q791.6813,487.2213 790.9469,487.5338 Q790.2282,487.8463 789.7282,488.44 Q789.2282,489.0181 788.9469,489.8931 Q788.6813,490.7681 788.6813,491.8619 Q788.6813,493.2994 789.1188,494.3463 Q789.5719,495.3931 790.4157,495.94 Q791.275,496.4869 792.5875,496.4869 Q793.3688,496.4869 794.0563,496.3619 Q794.7594,496.2213 795.7594,495.9088 L795.7594,497.7838 Q794.9,498.1119 794.1344,498.2369 Q793.3844,498.3619 792.3688,498.3619 Q790.4469,498.3619 789.1344,497.565 Q787.8375,496.7525 787.1813,495.2838 Q786.525,493.7994 786.525,491.8306 Q786.525,490.4088 786.9157,489.2369 Q787.3219,488.0494 788.1032,487.1744 Q788.8844,486.2994 790.025,485.8306 Q791.1657,485.3463 792.6344,485.3463 Q793.5875,485.3463 794.4782,485.5494 Q795.3844,485.7369 796.3219,486.2056 L795.4938,487.9869 Q794.7125,487.6119 794.0563,487.4244 Q793.4,487.2213 792.6032,487.2213 Z " fill="#000000"/><text fill="#000000" font-family="sans-serif" font-size="14" lengthAdjust="spacing" textLength="68.7957" x="811.008" y="497.122">DryExtract</text><line style="stroke:#181818;stroke-width:0.5;" x1="758.18" x2="902.1175" y1="507.69" y2="507.69"/><ellipse cx="768.18" cy="522.724" fill="none" rx="3" ry="3" style="stroke:#038048;stroke-width:1;"/><text fill="#000000" font-family="sans-serif" font-size="14" lengthAdjust="spacing" textLength="52.7798" x="777.18" y="526.6559">id : uuid</text><line style="stroke:#181818;stroke-width:1;" x1="758.18" x2="902.1175" y1="534.7579" y2="534.7579"/><text fill="#000000" font-family="sans-serif" font-size="14" lengthAdjust="spacing" textLength="86.9397" x="763.18" y="553.7239">name : string</text><text fill="#000000" font-family="sans-serif" font-size="14" lengthAdjust="spacing" textLength="121.2395" x="763.18" y="572.7918">potential : decimal</text><text fill="#000000" font-family="sans-serif" font-size="14" lengthAdjust="spacing" textLength="95.4796" x="763.18" y="591.8597">color : decimal</text><text fill="#000000" font-family="sans-serif" font-size="14" lengthAdjust="spacing" textLength="133.9375" x="763.18" y="610.9276">is_mashed : boolean</text></g><!--class LiquidExtract--><g class="entity" data-entity="LiquidExtract" data-source-line="81" data-uid="ent0008" id="entity_LiquidExtract"><rect fill="#F1F1F1" height="143.3396" rx="2.5" ry="2.5" style="stroke:#181818;stroke-width:0.5;" width="169.5274" x="938.38" y="475.69"/><ellipse cx="976.5288" cy="491.69" fill="#ADD1B2" rx="11" ry="11" style="stroke:#181818;stroke-width:1;"/><path d="M976.6382,487.2213 Q975.7163,487.2213 974.9819,487.5338 Q974.2632,487.8463 973.7632,488.44 Q973.2632,489.0181 972.9819,489.8931 Q972.7163,490.7681 972.7163,491.8619 Q972.7163,493.2994 973.1538,494.3463 Q973.6069,495.3931 974.4507,495.94 Q975.31,496.4869 976.6225,496.4869 Q977.4038,496.4869 978.0913,496.3619 Q978.7944,496.2213 979.7944,495.9088 L979.7944,497.7838 Q978.935,498.1119 978.1694,498.2369 Q977.4194,498.3619 976.4038,498.3619 Q974.4819,498.3619 973.1694,497.565 Q971.8725,496.7525 971.2163,495.2838 Q970.56,493.7994 970.56,491.8306 Q970.56,490.4088 970.9507,489.2369 Q971.3569,488.0494 972.1382,487.1744 Q972.9194,486.2994 974.06,485.8306 Q975.2007,485.3463 976.6694,485.3463 Q977.6225,485.3463 978.5132,485.5494 Q979.4194,485.7369 980.3569,486.2056 L979.5288,487.9869 Q978.7475,487.6119 978.0913,487.4244 Q977.435,487.2213 976.6382,487.2213 Z " fill="#000000"/><text fill="#000000" font-family="sans-serif" font-size="14" lengthAdjust="spacing" textLength="86.0857" x="995.6729" y="497.122">LiquidExtract</text><line style="stroke:#181818;stroke-width:0.5;" x1="939.38" x2="1106.9074" y1="507.69" y2="507.69"/><ellipse cx="949.38" cy="522.724" fill="none" rx="3" ry="3" style="stroke:#038048;stroke-width:1;"/><text fill="#000000" font-family="sans-serif" font-size="14" lengthAdjust="spacing" textLength="52.7798" x="958.38" y="526.6559">id : uuid</text><line style="stroke:#181818;stroke-width:1;" x1="939.38" x2="1106.9074" y1="534.7579" y2="534.7579"/><text fill="#000000" font-family="sans-serif" font-size="14" lengthAdjust="spacing" textLength="86.9397" x="944.38" y="553.7239">name : string</text><text fill="#000000" font-family="sans-serif" font-size="14" lengthAdjust="spacing" textLength="121.2395" x="944.38" y="572.7918">potential : decimal</text><text fill="#000000" font-family="sans-serif" font-size="14" lengthAdjust="spacing" textLength="95.4796" x="944.38" y="591.8597">color : decimal</text><text fill="#000000" font-family="sans-serif" font-size="14" lengthAdjust="spacing" textLength="157.5274" x="944.38" y="610.9276">is_late_extract : boolean</text></g><!--class Sugar--><g class="entity" data-entity="Sugar" data-source-line="90" data-uid="ent0009" id="entity_Sugar"><rect fill="#F1F1F1" height="143.3396" rx="2.5" ry="2.5" style="stroke:#181818;stroke-width:0.5;" width="138.8955" x="1142.7" y="475.69"/><ellipse cx="1188.6058" cy="491.69" fill="#ADD1B2" rx="11" ry="11" style="stroke:#181818;stroke-width:1;"/><path d="M1188.7152,487.2213 Q1187.7933,487.2213 1187.059,487.5338 Q1186.3402,487.8463 1185.8402,488.44 Q1185.3402,489.0181 1185.059,489.8931 Q1184.7933,490.7681 1184.7933,491.8619 Q1184.7933,493.2994 1185.2308,494.3463 Q1185.684,495.3931 1186.5277,495.94 Q1187.3871,496.4869 1188.6996,496.4869 Q1189.4808,496.4869 1190.1683,496.3619 Q1190.8715,496.2213 1191.8715,495.9088 L1191.8715,497.7838 Q1191.0121,498.1119 1190.2465,498.2369 Q1189.4965,498.3619 1188.4808,498.3619 Q1186.559,498.3619 1185.2465,497.565 Q1183.9496,496.7525 1183.2933,495.2838 Q1182.6371,493.7994 1182.6371,491.8306 Q1182.6371,490.4088 1183.0277,489.2369 Q1183.434,488.0494 1184.2152,487.1744 Q1184.9965,486.2994 1186.1371,485.8306 Q1187.2777,485.3463 1188.7465,485.3463 Q1189.6996,485.3463 1190.5902,485.5494 Q1191.4965,485.7369 1192.434,486.2056 L1191.6058,487.9869 Q1190.8246,487.6119 1190.1683,487.4244 Q1189.5121,487.2213 1188.7152,487.2213 Z " fill="#000000"/><text fill="#000000" font-family="sans-serif" font-size="14" lengthAdjust="spacing" textLength="38.5839" x="1209.1058" y="497.122">Sugar</text><line style="stroke:#181818;stroke-width:0.5;" x1="1143.7" x2="1280.5955" y1="507.69" y2="507.69"/><ellipse cx="1153.7" cy="522.724" fill="none" rx="3" ry="3" style="stroke:#038048;stroke-width:1;"/><text fill="#000000" font-family="sans-serif" font-size="14" lengthAdjust="spacing" textLength="52.7798" x="1162.7" y="526.6559">id : uuid</text><line style="stroke:#181818;stroke-width:1;" x1="1143.7" x2="1280.5955" y1="534.7579" y2="534.7579"/><text fill="#000000" font-family="sans-serif" font-size="14" lengthAdjust="spacing" textLength="86.9397" x="1148.7" y="553.7239">name : string</text><text fill="#000000" font-family="sans-serif" font-size="14" lengthAdjust="spacing" textLength="121.2395" x="1148.7" y="572.7918">potential : decimal</text><text fill="#000000" font-family="sans-serif" font-size="14" lengthAdjust="spacing" textLength="95.4796" x="1148.7" y="591.8597">color : decimal</text><text fill="#000000" font-family="sans-serif" font-size="14" lengthAdjust="spacing" textLength="126.8955" x="1148.7" y="610.9276">is_extract : boolean</text></g><!--class Other--><g class="entity" data-entity="Other" data-source-line="99" data-uid="ent0010" id="entity_Other"><rect fill="#F1F1F1" height="143.3396" rx="2.5" ry="2.5" style="stroke:#181818;stroke-width:0.5;" width="109.9856" x="1316.15" y="475.69"/><ellipse cx="1349.0005" cy="491.69" fill="#ADD1B2" rx="11" ry="11" style="stroke:#181818;stroke-width:1;"/><path d="M1349.1099,487.2213 Q1348.188,487.2213 1347.4536,487.5338 Q1346.7349,487.8463 1346.2349,488.44 Q1345.7349,489.0181 1345.4536,489.8931 Q1345.188,490.7681 1345.188,491.8619 Q1345.188,493.2994 1345.6255,494.3463 Q1346.0786,495.3931 1346.9224,495.94 Q1347.7817,496.4869 1349.0942,496.4869 Q1349.8755,496.4869 1350.563,496.3619 Q1351.2661,496.2213 1352.2661,495.9088 L1352.2661,497.7838 Q1351.4067,498.1119 1350.6411,498.2369 Q1349.8911,498.3619 1348.8755,498.3619 Q1346.9536,498.3619 1345.6411,497.565 Q1344.3442,496.7525 1343.688,495.2838 Q1343.0317,493.7994 1343.0317,491.8306 Q1343.0317,490.4088 1343.4224,489.2369 Q1343.8286,488.0494 1344.6099,487.1744 Q1345.3911,486.2994 1346.5317,485.8306 Q1347.6724,485.3463 1349.1411,485.3463 Q1350.0942,485.3463 1350.9849,485.5494 Q1351.8911,485.7369 1352.8286,486.2056 L1352.0005,487.9869 Q1351.2192,487.6119 1350.563,487.4244 Q1349.9067,487.2213 1349.1099,487.2213 Z " fill="#000000"/><text fill="#000000" font-family="sans-serif" font-size="14" lengthAdjust="spacing" textLength="38.3179" x="1366.9673" y="497.122">Other</text><line style="stroke:#181818;stroke-width:0.5;" x1="1317.15" x2="1425.1356" y1="507.69" y2="507.69"/><ellipse cx="1327.15" cy="522.724" fill="none" rx="3" ry="3" style="stroke:#038048;stroke-width:1;"/><text fill="#000000" font-family="sans-serif" font-size="14" lengthAdjust="spacing" textLength="52.7798" x="1336.15" y="526.6559">id : uuid</text><line style="stroke:#181818;stroke-width:1;" x1="1317.15" x2="1425.1356" y1="534.7579" y2="534.7579"/><text fill="#000000" font-family="sans-serif" font-size="14" lengthAdjust="spacing" textLength="86.9397" x="1322.15" y="553.7239">name : string</text><text fill="#000000" font-family="sans-serif" font-size="14" lengthAdjust="spacing" textLength="78.1477" x="1322.15" y="572.7918">type : string</text><text fill="#000000" font-family="sans-serif" font-size="14" lengthAdjust="spacing" textLength="97.9856" x="1322.15" y="591.8597">use_for : string</text><text fill="#000000" font-family="sans-serif" font-size="14" lengthAdjust="spacing" textLength="86.2257" x="1322.15" y="610.9276">notes : string</text></g><!--class Misc--><g class="entity" data-entity="Misc" data-source-line="108" data-uid="ent0011" id="entity_Misc"><rect fill="#F1F1F1" height="162.4075" rx="2.5" ry="2.5" style="stroke:#181818;stroke-width:0.5;" width="195.9453" x="1461.17" y="466.16"/><ellipse cx="1540.0247" cy="482.16" fill="#ADD1B2" rx="11" ry="11" style="stroke:#181818;stroke-width:1;"/><path d="M1540.1341,477.6913 Q1539.2122,477.6913 1538.4778,478.0038 Q1537.7591,478.3163 1537.2591,478.91 Q1536.7591,479.4881 1536.4778,480.3631 Q1536.2122,481.2381 1536.2122,482.3319 Q1536.2122,483.7694 1536.6497,484.8163 Q1537.1028,485.8631 1537.9466,486.41 Q1538.8059,486.9569 1540.1184,486.9569 Q1540.8997,486.9569 1541.5872,486.8319 Q1542.2903,486.6913 1543.2903,486.3788 L1543.2903,488.2538 Q1542.4309,488.5819 1541.6653,488.7069 Q1540.9153,488.8319 1539.8997,488.8319 Q1537.9778,488.8319 1536.6653,488.035 Q1535.3684,487.2225 1534.7122,485.7538 Q1534.0559,484.2694 1534.0559,482.3006 Q1534.0559,480.8788 1534.4466,479.7069 Q1534.8528,478.5194 1535.6341,477.6444 Q1536.4153,476.7694 1537.5559,476.3006 Q1538.6966,475.8163 1540.1653,475.8163 Q1541.1184,475.8163 1542.0091,476.0194 Q1542.9153,476.2069 1543.8528,476.6756 L1543.0247,478.4569 Q1542.2434,478.0819 1541.5872,477.8944 Q1540.9309,477.6913 1540.1341,477.6913 Z " fill="#000000"/><text fill="#000000" font-family="sans-serif" font-size="14" lengthAdjust="spacing" textLength="29.7359" x="1560.5247" y="487.592">Misc</text><line style="stroke:#181818;stroke-width:0.5;" x1="1462.17" x2="1656.1153" y1="498.16" y2="498.16"/><ellipse cx="1472.17" cy="513.194" fill="none" rx="3" ry="3" style="stroke:#038048;stroke-width:1;"/><text fill="#000000" font-family="sans-serif" font-size="14" lengthAdjust="spacing" textLength="52.7798" x="1481.17" y="517.1259">id : uuid</text><line style="stroke:#181818;stroke-width:1;" x1="1462.17" x2="1656.1153" y1="525.2279" y2="525.2279"/><text fill="#000000" font-family="sans-serif" font-size="14" lengthAdjust="spacing" textLength="86.9397" x="1467.17" y="544.1939">name : string</text><text fill="#000000" font-family="sans-serif" font-size="14" lengthAdjust="spacing" textLength="78.1477" x="1467.17" y="563.2618">type : string</text><text fill="#000000" font-family="sans-serif" font-size="14" lengthAdjust="spacing" textLength="72.7017" x="1467.17" y="582.3297">use : string</text><text fill="#000000" font-family="sans-serif" font-size="14" lengthAdjust="spacing" textLength="58.0018" x="1467.17" y="601.3976">time : int</text><text fill="#000000" font-family="sans-serif" font-size="14" lengthAdjust="spacing" textLength="183.9453" x="1467.17" y="620.4655">amount_is_weight : boolean</text></g><g class="entity" data-entity="GMN21" data-source-line="129" data-uid="ent0022" id="entity_GMN21"><path d="M954.49,146.45 L954.49,174.01 L919.59,178.01 L954.49,182.01 L954.49,209.568 A0,0 0 0 0 954.49,209.568 L1133.8041,209.568 A0,0 0 0 0 1133.8041,209.568 L1133.8041,156.45 L1123.8041,146.45 L954.49,146.45 A0,0 0 0 0 954.49,146.45" fill="#FEFFDD" style="stroke:#181818;stroke-width:0.5;"/><path d="M1123.8041,146.45 L1123.8041,156.45 L1133.8041,156.45 L1123.8041,146.45" fill="#FEFFDD" style="stroke:#181818;stroke-width:0.5;"/><text fill="#000000" font-family="sans-serif" font-size="13" lengthAdjust="spacing" textLength="158.3141" x="960.49" y="165.347">"Polymorphic relationship</text><text fill="#000000" font-family="sans-serif" font-size="13" lengthAdjust="spacing" textLength="155.4151" x="960.49" y="183.053">based on ingredient_type</text><text fill="#000000" font-family="sans-serif" font-size="13" lengthAdjust="spacing" textLength="148.7331" x="960.49" y="200.759">and ingredient_id fields"</text></g><!--link Inventory to Hops--><g class="link" data-entity-1="Inventory" data-entity-2="Hops" data-source-line="119" data-uid="lnk12" id="link_Inventory_Hops"><path codeLine="119" d="M732.5883,194.9712 C593.5283,221.1712 330.9,285.96 149.15,428.02 C142.02,433.6 147.4548,426.7228 141.1648,433.5828" fill="none" id="Inventory-Hops" style="stroke:#181818;stroke-width:1;"/><line style="stroke:#181818;stroke-width:1;" x1="735.7786" x2="737.2598" y1="190.2998" y2="198.1614"/><line style="stroke:#181818;stroke-width:1;" x1="732.8304" x2="734.3116" y1="190.8552" y2="198.7169"/><line style="stroke:#181818;stroke-width:1;" x1="732.5883" x2="740.45" y1="194.9712" y2="193.49"/><line style="stroke:#181818;stroke-width:1;" x1="134.4066" x2="133.4224" y1="440.9535" y2="450.9049"/><line style="stroke:#181818;stroke-width:1;" x1="134.4066" x2="124.5776" y1="440.9535" y2="442.7951"/><line style="stroke:#181818;stroke-width:1;" x1="134.4066" x2="129" y1="440.9535" y2="446.85"/><ellipse cx="138.4615" cy="436.5311" fill="none" rx="4" ry="4" style="stroke:#181818;stroke-width:1;"/><text fill="#000000" font-family="sans-serif" font-size="13" lengthAdjust="spacing" textLength="36.764" x="214.1" y="393.917">tracks</text></g><!--link Inventory to Fermentables--><g class="link" data-entity-1="Inventory" data-entity-2="Fermentables" data-source-line="120" data-uid="lnk13" id="link_Inventory_Fermentables"><path codeLine="120" d="M733.1215,219.661 C635.7915,262.631 485.76,335.97 367.15,428.02 C361.52,432.39 369.4063,425.1273 363.9063,429.9973" fill="none" id="Inventory-Fermentables" style="stroke:#181818;stroke-width:1;"/><line style="stroke:#181818;stroke-width:1;" x1="735.1652" x2="738.3963" y1="214.3863" y2="221.7048"/><line style="stroke:#181818;stroke-width:1;" x1="732.4208" x2="735.6518" y1="215.5979" y2="222.9164"/><line style="stroke:#181818;stroke-width:1;" x1="733.1215" x2="740.44" y1="219.661" y2="216.43"/><line style="stroke:#181818;stroke-width:1;" x1="356.4195" x2="354.4076" y1="436.6266" y2="446.4221"/><line style="stroke:#181818;stroke-width:1;" x1="356.4195" x2="346.4524" y1="436.6266" y2="437.4379"/><line style="stroke:#181818;stroke-width:1;" x1="356.4195" x2="350.43" y1="436.6266" y2="441.93"/><ellipse cx="360.9116" cy="432.649" fill="none" rx="4" ry="4" style="stroke:#181818;stroke-width:1;"/><text fill="#000000" font-family="sans-serif" font-size="13" lengthAdjust="spacing" textLength="36.764" x="425.97" y="393.917">tracks</text></g><!--link Inventory to Yeasts--><g class="link" data-entity-1="Inventory" data-entity-2="Yeasts" data-source-line="121" data-uid="lnk14" id="link_Inventory_Yeasts"><path codeLine="121" d="M735.2097,278.9397 C685.3297,331.4397 641.0679,378.0304 590.0879,431.6904" fill="none" id="Inventory-Yeasts" style="stroke:#181818;stroke-width:1;"/><line style="stroke:#181818;stroke-width:1;" x1="735.065" x2="740.8647" y1="273.2847" y2="278.795"/><line style="stroke:#181818;stroke-width:1;" x1="732.9986" x2="738.7984" y1="275.4596" y2="280.9699"/><line style="stroke:#181818;stroke-width:1;" x1="735.2097" x2="740.72" y1="278.9397" y2="273.14"/><line style="stroke:#181818;stroke-width:1;" x1="583.2002" x2="582.0399" y1="438.9402" y2="448.8726"/><line style="stroke:#181818;stroke-width:1;" x1="583.2002" x2="573.3401" y1="438.9402" y2="440.6074"/><line style="stroke:#181818;stroke-width:1;" x1="583.2002" x2="577.69" y1="438.9402" y2="444.74"/><ellipse cx="587.3328" cy="434.5903" fill="none" rx="4" ry="4" style="stroke:#181818;stroke-width:1;"/><text fill="#000000" font-family="sans-serif" font-size="13" lengthAdjust="spacing" textLength="36.764" x="635.75" y="393.917">tracks</text></g><!--link Inventory to Adjuncts--><g class="link" data-entity-1="Inventory" data-entity-2="Adjuncts" data-source-line="122" data-uid="lnk15" id="link_Inventory_Adjuncts"><path codeLine="122" d="M751.2458,356.8227 C731.5258,401.2727 721.8878,422.9757 705.9078,459.0057" fill="none" id="Inventory-Adjuncts" style="stroke:#181818;stroke-width:1;"/><line style="stroke:#181818;stroke-width:1;" x1="749.2116" x2="756.5242" y1="351.5442" y2="354.7884"/><line style="stroke:#181818;stroke-width:1;" x1="747.995" x2="755.3076" y1="354.2865" y2="357.5307"/><line style="stroke:#181818;stroke-width:1;" x1="751.2458" x2="754.49" y1="356.8227" y2="349.51"/><line style="stroke:#181818;stroke-width:1;" x1="701.8535" x2="704.0948" y1="468.147" y2="477.8926"/><line style="stroke:#181818;stroke-width:1;" x1="701.8535" x2="693.1252" y1="468.147" y2="473.0274"/><line style="stroke:#181818;stroke-width:1;" x1="701.8535" x2="698.61" y1="468.147" y2="475.46"/><ellipse cx="704.286" cy="462.6622" fill="none" rx="4" ry="4" style="stroke:#181818;stroke-width:1;"/><text fill="#000000" font-family="sans-serif" font-size="13" lengthAdjust="spacing" textLength="36.764" x="739.89" y="393.917">tracks</text></g><!--link Inventory to DryExtract--><g class="link" data-entity-1="Inventory" data-entity-2="DryExtract" data-source-line="123" data-uid="lnk16" id="link_Inventory_DryExtract"><path codeLine="123" d="M830.15,357.51 C830.15,401.96 830.15,421.43 830.15,457.46" fill="none" id="Inventory-DryExtract" style="stroke:#181818;stroke-width:1;"/><line style="stroke:#181818;stroke-width:1;" x1="826.15" x2="834.15" y1="353.51" y2="353.51"/><line style="stroke:#181818;stroke-width:1;" x1="826.15" x2="834.15" y1="356.51" y2="356.51"/><line style="stroke:#181818;stroke-width:1;" x1="830.15" x2="830.15" y1="357.51" y2="349.51"/><line style="stroke:#181818;stroke-width:1;" x1="830.15" x2="836.15" y1="467.46" y2="475.46"/><line style="stroke:#181818;stroke-width:1;" x1="830.15" x2="824.15" y1="467.46" y2="475.46"/><line style="stroke:#181818;stroke-width:1;" x1="830.15" x2="830.15" y1="467.46" y2="475.46"/><ellipse cx="830.15" cy="461.46" fill="none" rx="4" ry="4" style="stroke:#181818;stroke-width:1;"/><text fill="#000000" font-family="sans-serif" font-size="13" lengthAdjust="spacing" textLength="36.764" x="831.15" y="393.917">tracks</text></g><!--link Inventory to LiquidExtract--><g class="link" data-entity-1="Inventory" data-entity-2="LiquidExtract" data-source-line="124" data-uid="lnk17" id="link_Inventory_LiquidExtract"><path codeLine="124" d="M923.4504,356.5923 C946.8004,401.0423 958.598,423.4954 977.528,459.5254" fill="none" id="Inventory-LiquidExtract" style="stroke:#181818;stroke-width:1;"/><line style="stroke:#181818;stroke-width:1;" x1="918.0491" x2="925.1313" y1="354.9113" y2="351.1909"/><line style="stroke:#181818;stroke-width:1;" x1="919.4442" x2="926.5265" y1="357.5672" y2="353.8468"/><line style="stroke:#181818;stroke-width:1;" x1="923.4504" x2="919.73" y1="356.5923" y2="349.51"/><line style="stroke:#181818;stroke-width:1;" x1="982.1791" x2="991.2115" y1="468.378" y2="472.6693"/><line style="stroke:#181818;stroke-width:1;" x1="982.1791" x2="980.5885" y1="468.378" y2="478.2507"/><line style="stroke:#181818;stroke-width:1;" x1="982.1791" x2="985.9" y1="468.378" y2="475.46"/><ellipse cx="979.3885" cy="463.0664" fill="none" rx="4" ry="4" style="stroke:#181818;stroke-width:1;"/><text fill="#000000" font-family="sans-serif" font-size="13" lengthAdjust="spacing" textLength="36.764" x="944.93" y="393.917">tracks</text></g><!--link Inventory to Sugar--><g class="link" data-entity-1="Inventory" data-entity-2="Sugar" data-source-line="125" data-uid="lnk18" id="link_Inventory_Sugar"><path codeLine="125" d="M925.3903,338.4397 C930.9103,344.2497 931.16,343.95 937.15,349.02 C971.71,378.33 1089.55,399.97 1125.15,428.02 C1141.77,441.12 1146.0279,443.7093 1158.6979,460.7693" fill="none" id="Inventory-Sugar" style="stroke:#181818;stroke-width:1;"/><line style="stroke:#181818;stroke-width:1;" x1="919.7353" x2="925.535" y1="338.295" y2="332.7847"/><line style="stroke:#181818;stroke-width:1;" x1="921.8016" x2="927.6013" y1="340.4699" y2="334.9596"/><line style="stroke:#181818;stroke-width:1;" x1="925.3903" x2="919.88" y1="338.4397" y2="332.64"/><line style="stroke:#181818;stroke-width:1;" x1="1164.6602" x2="1174.2469" y1="468.7975" y2="471.6426"/><line style="stroke:#181818;stroke-width:1;" x1="1164.6602" x2="1164.6131" y1="468.7975" y2="478.7974"/><line style="stroke:#181818;stroke-width:1;" x1="1164.6602" x2="1169.43" y1="468.7975" y2="475.22"/><ellipse cx="1161.0828" cy="463.9806" fill="none" rx="4" ry="4" style="stroke:#181818;stroke-width:1;"/><text fill="#000000" font-family="sans-serif" font-size="13" lengthAdjust="spacing" textLength="36.764" x="1054.55" y="393.917">tracks</text></g><!--link Inventory to Other--><g class="link" data-entity-1="Inventory" data-entity-2="Other" data-source-line="126" data-uid="lnk19" id="link_Inventory_Other"><path codeLine="126" d="M925.736,340.721 C931.256,345.671 931.09,344.91 937.15,349.02 C997.74,390.13 1027.56,363.64 1099.15,379.02 C1188.62,398.25 1225.32,373.94 1299.15,428.02 C1315.83,440.24 1320.1,442.2168 1330.81,459.8868" fill="none" id="Inventory-Other" style="stroke:#181818;stroke-width:1;"/><line style="stroke:#181818;stroke-width:1;" x1="920.0875" x2="925.4285" y1="341.0285" y2="335.0725"/><line style="stroke:#181818;stroke-width:1;" x1="922.321" x2="927.662" y1="343.0314" y2="337.0754"/><line style="stroke:#181818;stroke-width:1;" x1="925.736" x2="919.78" y1="340.721" y2="335.38"/><line style="stroke:#181818;stroke-width:1;" x1="1335.9933" x2="1345.2711" y1="468.4386" y2="472.17"/><line style="stroke:#181818;stroke-width:1;" x1="1335.9933" x2="1335.0089" y1="468.4386" y2="478.39"/><line style="stroke:#181818;stroke-width:1;" x1="1335.9933" x2="1340.14" y1="468.4386" y2="475.28"/><ellipse cx="1332.8833" cy="463.3075" fill="none" rx="4" ry="4" style="stroke:#181818;stroke-width:1;"/><text fill="#000000" font-family="sans-serif" font-size="13" lengthAdjust="spacing" textLength="36.764" x="1241.3" y="393.917">tracks</text></g><!--link Inventory to Misc--><g class="link" data-entity-1="Inventory" data-entity-2="Misc" data-source-line="127" data-uid="lnk20" id="link_Inventory_Misc"><path codeLine="127" d="M925.8503,341.596 C931.3803,346.196 931.04,345.3 937.15,349.02 C1003.61,389.54 1209.77,364 1286.15,379.02 C1357.87,393.12 1380.79,389.88 1443.15,428.02 C1460.08,438.38 1463.2884,439.3227 1477.9684,453.3327" fill="none" id="Inventory-Misc" style="stroke:#181818;stroke-width:1;"/><line style="stroke:#181818;stroke-width:1;" x1="920.2172" x2="925.3332" y1="342.1132" y2="335.9628"/><line style="stroke:#181818;stroke-width:1;" x1="922.5235" x2="927.6395" y1="344.0317" y2="337.8813"/><line style="stroke:#181818;stroke-width:1;" x1="925.8503" x2="919.7" y1="341.596" y2="336.48"/><line style="stroke:#181818;stroke-width:1;" x1="1485.2026" x2="1495.1324" y1="460.2368" y2="461.4195"/><line style="stroke:#181818;stroke-width:1;" x1="1485.2026" x2="1486.8476" y1="460.2368" y2="470.1005"/><line style="stroke:#181818;stroke-width:1;" x1="1485.2026" x2="1490.99" y1="460.2368" y2="465.76"/><ellipse cx="1480.8621" cy="456.0943" fill="none" rx="4" ry="4" style="stroke:#181818;stroke-width:1;"/><text fill="#000000" font-family="sans-serif" font-size="13" lengthAdjust="spacing" textLength="36.764" x="1379.91" y="393.917">tracks</text></g><!--SRC=[lLPBRzim3BxxLmYvz30aFw2t0UqUG8iDpMb00OEHwPYR7guUROns_tsId8Sjrm6AhSiXbaYQ_FYHb7p1lgf7L4wRZjs2WYtAi6FhpZgKxFhkghXWwqO_MHR-61rjoJ9dWF_2YjNQi8hg6aryazJMO4LnwReMRL5m0TQonJ7EWe4TH7qkMFXzO5InI-OzLMc_NAR7QlKP5HeGgrNQdxoNqNjumpeJXBboxEp1WtBakY2ha9C4aSHUaHjxuDgwpAZrXZTWiQp0nNZnaHIuQyc08wqcAklRLX2QiNEXNQcytEHofHtQiMYrMZjmtXwojYLmHuyno4PhWQ1wZs1TwTiOD-RhIA9r8DlYzv7rBxgrYV2uEC-r0faHgWrjIOrb8De6Ceusw7BHj3gXJUHOqe1v383B3Y5IGieDW7z24piHDWBx18Q2joOoHSErq2OlTIX4w1CGcLp2hcpHy1XzYxdIXmmas2QhJMk2jqJUo5gJTTuCdPnI_e6Xddso_VAjQGhOwD2ISQf6ye2bydm_5MTfcHO9N235fpxFSgc5vjoBWshe5sNW2sAYfPnmCDB2xbKgFbO_lU9xCWwRlw-w3tDSw_FpTm9nPRhhNJpbN89nshuLo5nZlTQ4OTPZDwM1FlJJ2T8DFOHeGrGZoJi32xN64lUXNeEtzbim2LPQlJESSqY-kGPx96drlrldbYnFqUFYdmJFJ2Yz58_CDAHI-tZhsV89QTjab5omE-p7r3OKRe7buFPDbxWDfxgOtjmdgvUNvL8_ztV8vVwTgNfqGi-RxS-sUOFZlC-R36PntcWy6lDsVQ_Ew_iEcjUd6X_LHMmAPb8PT3sW-f8jlclHIMtQXZWpWvhSgqtunAXOE4YpBvnx1QhAlcngGb7PHV47]--></g></svg>