<?xml version="1.0" encoding="us-ascii" standalone="no"?><svg xmlns="http://www.w3.org/2000/svg" xmlns:xlink="http://www.w3.org/1999/xlink" contentStyleType="text/css" height="203px" preserveAspectRatio="none" style="width:657px;height:203px;background:#FFFFFF;" version="1.1" viewBox="0 0 657 203" width="657px" zoomAndPan="magnify"><defs/><g><!--entity iSpindle--><g id="elem_iSpindle"><path d="M30.1083,41.6562 C32.718,35.7968 37.9315,35.1478 41.5151,40.681 C44.1898,34.9079 47.5157,34.2418 51.9457,38.9311 C55.2037,32.2773 61.092,32.7882 64.7566,38.5103 C68.2444,34.0774 72.5968,34.9607 74.5678,40.0699 C78.9237,33.2769 84.5013,34.9651 87.8698,41.0868 C91.1023,36.3525 94.6777,35.4988 98.0442,40.953 C108.6852,44.0141 109.9263,49.4204 103.6131,58.0153 C110.8654,65.8396 107.5639,72.3981 97.9335,74.3534 C95.2322,80.1129 91.3018,80.2627 87.087,75.9897 C85.5017,83.2378 80.3063,85.0392 74.7187,80.0272 C73.1983,84.912 68.4721,86.6938 64.8967,82.1732 C60.3994,86.752 54.0484,85.6989 52.1846,79.1615 C46.7317,84.3114 43.3477,82.7157 40.417,76.5406 C35.6882,81.2117 31.5639,81.1277 28.9175,74.4337 C20.8162,70.4757 17.5811,64.2819 25.7786,57.3323 C18.3261,50.7899 20.527,43.4938 30.1083,41.6562 " fill="#F1F1F1" style="stroke:#181818;stroke-width:0.5;"/><text fill="#000000" font-family="sans-serif" font-size="14" lengthAdjust="spacing" textLength="55" x="35.5" y="61.4659">iSpindle</text></g><!--entity Brewer--><g id="elem_Brewer"><ellipse cx="591.5" cy="14" fill="#F1F1F1" rx="8" ry="8" style="stroke:#181818;stroke-width:0.5;"/><path d="M591.5,22 L591.5,49 M578.5,30 L604.5,30 M591.5,49 L578.5,64 M591.5,49 L604.5,64 " fill="none" style="stroke:#181818;stroke-width:0.5;"/><text fill="#000000" font-family="sans-serif" font-size="14" lengthAdjust="spacing" textLength="48" x="567.5" y="80.4659">Brewer</text></g><!--entity RecipeDB--><g id="elem_RecipeDB"><path d="M6,125.47 C6,115.47 63,115.47 63,115.47 C63,115.47 120,115.47 120,125.47 L120,172.6058 C120,182.6058 63,182.6058 63,182.6058 C63,182.6058 6,182.6058 6,172.6058 L6,125.47 " fill="#F1F1F1" style="stroke:#181818;stroke-width:0.5;"/><path d="M6,125.47 C6,135.47 63,135.47 63,135.47 C63,135.47 120,135.47 120,125.47 " fill="none" style="stroke:#181818;stroke-width:0.5;"/><text fill="#000000" font-family="sans-serif" font-size="14" lengthAdjust="spacing" textLength="94" x="16" y="154.4359">Online Recipe</text><text fill="#000000" font-family="sans-serif" font-size="14" lengthAdjust="spacing" textLength="63" x="16" y="173.5039">Database</text></g><!--entity HoppiBrew--><g id="elem_HoppiBrew"><polygon fill="#F1F1F1" points="265,88.5,275,78.5,379,78.5,379,117.5679,369,127.5679,265,127.5679,265,88.5" style="stroke:#181818;stroke-width:0.5;"/><line style="stroke:#181818;stroke-width:0.5;" x1="369" x2="379" y1="88.5" y2="78.5"/><line style="stroke:#181818;stroke-width:0.5;" x1="265" x2="369" y1="88.5" y2="88.5"/><line style="stroke:#181818;stroke-width:0.5;" x1="369" x2="369" y1="88.5" y2="127.5679"/><text fill="#000000" font-family="sans-serif" font-size="14" lengthAdjust="spacing" textLength="74" x="280" y="113.4659">HoppiBrew</text></g><!--entity PostgreSQL--><g id="elem_PostgreSQL"><path d="M543,148 C543,138 591.5,138 591.5,138 C591.5,138 640,138 640,148 L640,176.0679 C640,186.0679 591.5,186.0679 591.5,186.0679 C591.5,186.0679 543,186.0679 543,176.0679 L543,148 " fill="#F1F1F1" style="stroke:#181818;stroke-width:0.5;"/><path d="M543,148 C543,158 591.5,158 591.5,158 C591.5,158 640,158 640,148 " fill="none" style="stroke:#181818;stroke-width:0.5;"/><text fill="#000000" font-family="sans-serif" font-size="14" lengthAdjust="spacing" textLength="77" x="553" y="176.9659">PostgreSQL</text></g><!--link RecipeDB to HoppiBrew--><g id="link_RecipeDB_HoppiBrew"><path d="M120.4,138.94 C163.25,131.27 216.0038,121.8266 258.8238,114.1666 " fill="none" id="RecipeDB-to-HoppiBrew" style="stroke:#181818;stroke-width:1.0;"/><polygon fill="#181818" points="264.73,113.11,255.1663,110.7573,259.8081,113.9905,256.575,118.6323,264.73,113.11" style="stroke:#181818;stroke-width:1.0;"/><text fill="#000000" font-family="sans-serif" font-size="13" lengthAdjust="spacing" textLength="83" x="151" y="115.127">CRUD Recipes</text></g><!--link iSpindle to HoppiBrew--><g id="link_iSpindle_HoppiBrew"><path d="M105.86,63.69 C149.1,71.6 210.9379,82.9106 258.8379,91.6706 " fill="none" id="iSpindle-to-HoppiBrew" style="stroke:#181818;stroke-width:1.0;"/><polygon fill="#181818" points="264.74,92.75,256.6064,87.1962,259.8216,91.8505,255.1672,95.0657,264.74,92.75" style="stroke:#181818;stroke-width:1.0;"/><text fill="#000000" font-family="sans-serif" font-size="13" lengthAdjust="spacing" textLength="80" x="152.5" y="50.477">Transmit Live</text><text fill="#000000" font-family="sans-serif" font-size="13" lengthAdjust="spacing" textLength="28" x="178.5" y="68.183">Data</text></g><!--link Brewer to HoppiBrew--><g id="link_Brewer_HoppiBrew"><path d="M567.28,70.16 C553.09,83.61 533.71,98.86 513,106.04 C469.98,120.94 424.0797,119.6756 385.4197,114.6356 " fill="none" id="Brewer-to-HoppiBrew" style="stroke:#181818;stroke-width:1.0;"/><polygon fill="#181818" points="379.47,113.86,387.8774,118.9899,384.428,114.5064,388.9116,111.057,379.47,113.86" style="stroke:#181818;stroke-width:1.0;"/><text fill="#000000" font-family="sans-serif" font-size="13" lengthAdjust="spacing" textLength="83" x="419.5" y="83.937">CRUD Recipes</text><text fill="#000000" font-family="sans-serif" font-size="13" lengthAdjust="spacing" textLength="62" x="430" y="101.643">and Brews</text></g><!--link HoppiBrew to Brewer--><g id="link_HoppiBrew_Brewer"><path d="M372.54,78.07 C384.25,73.04 396.86,68.3 409,65.04 C464.41,50.12 526.2023,46.4647 561.1623,45.5047 " fill="none" id="HoppiBrew-to-Brewer" style="stroke:#181818;stroke-width:1.0;"/><polygon fill="#181818" points="567.16,45.34,558.0536,41.5886,562.1619,45.4772,558.2732,49.5855,567.16,45.34" style="stroke:#181818;stroke-width:1.0;"/><text fill="#000000" font-family="sans-serif" font-size="13" lengthAdjust="spacing" textLength="72" x="425" y="26.377">Instructions</text><text fill="#000000" font-family="sans-serif" font-size="13" lengthAdjust="spacing" textLength="102" x="410" y="44.083">and Notifications</text></g><!--link HoppiBrew to PostgreSQL--><g id="link_HoppiBrew_PostgreSQL"><path d="M371.8038,130.6787 C385.0738,137.2687 394.6,140.99 409,145.04 C453.18,157.45 499.542,161.0932 536.642,162.0632 " fill="none" id="HoppiBrew-PostgreSQL" style="stroke:#181818;stroke-width:1.0;stroke-dasharray:7.0,7.0;"/><polygon fill="#181818" points="366.43,128.01,372.7116,135.5956,370.9082,130.2339,376.2699,128.4305,366.43,128.01" style="stroke:#181818;stroke-width:1.0;"/><polygon fill="#181818" points="542.64,162.22,533.7476,157.9861,537.6417,162.0893,533.5385,165.9834,542.64,162.22" style="stroke:#181818;stroke-width:1.0;"/><text fill="#000000" font-family="sans-serif" font-size="13" lengthAdjust="spacing" textLength="45" x="438.5" y="140.937">&#171;flows&#187;</text></g><!--SRC=[VP1DRW8n38NtFeN57Ww0HhEWioWIwW-K7PiqyL1BgJrAJBb-8OJEI9LOsdx-_9uZzOQccFZuPHWuaJTM0V1HJm5vDx24IE2yQS9LeZCb2CxSfyk4irU9B8HRyZpGGRewcA7BjTcj04J3HVkimy1NGfd-LHFQcsOx9jgzRufaB07kC9pFst4Nb_YqtNVrL8QxtN-gZ-GaVxFXXd-gJxY5UGWyY9DGKcSODSrYqKxCNNQQfezwpcqxKLsvzSGIrv8jdSfhA_H5ZNlshhH-0G00]--></g></svg>