<?xml version="1.0" encoding="us-ascii" standalone="no"?><svg xmlns="http://www.w3.org/2000/svg" xmlns:xlink="http://www.w3.org/1999/xlink" contentStyleType="text/css" height="1485px" preserveAspectRatio="none" style="width:645px;height:1485px;background:#FFFFFF;" version="1.1" viewBox="0 0 645 1485" width="645px" zoomAndPan="magnify"><defs/><g><text fill="#000000" font-family="sans-serif" font-size="14" font-weight="bold" lengthAdjust="spacing" textLength="180.1875" x="225.4063" y="24.9659">White Box Overall System</text><!--cluster ClientBrowser--><g id="cluster_ClientBrowser"><rect fill="none" height="86" rx="2.5" ry="2.5" style="stroke:#181818;stroke-width:1.0;" width="159.5" x="244" y="47.0679"/><rect fill="none" height="10" style="stroke:#181818;stroke-width:1.0;" width="15" x="383.5" y="52.0679"/><rect fill="none" height="2" style="stroke:#181818;stroke-width:1.0;" width="4" x="381.5" y="54.0679"/><rect fill="none" height="2" style="stroke:#181818;stroke-width:1.0;" width="4" x="381.5" y="58.0679"/><text fill="#000000" font-family="sans-serif" font-size="14" font-weight="bold" lengthAdjust="spacing" textLength="103.6875" x="271.9063" y="75.0339">Client Browser</text></g><!--cluster ISpindel--><g id="cluster_ISpindel"><rect fill="none" height="86" rx="2.5" ry="2.5" style="stroke:#181818;stroke-width:1.0;" width="73.83" x="111.17" y="167.0679"/><rect fill="none" height="10" style="stroke:#181818;stroke-width:1.0;" width="15" x="165" y="172.0679"/><rect fill="none" height="2" style="stroke:#181818;stroke-width:1.0;" width="4" x="163" y="174.0679"/><rect fill="none" height="2" style="stroke:#181818;stroke-width:1.0;" width="4" x="163" y="178.0679"/><text fill="#000000" font-family="sans-serif" font-size="14" font-weight="bold" lengthAdjust="spacing" textLength="59.5" x="118.335" y="195.0339">ISpindel</text></g><!--cluster Internet--><g id="cluster_Internet"><path d="M222.1446,344.7284 C224.504,339.4955 229.9562,339.3012 233.3114,343.5564 C237.0497,338.753 240.2738,338.538 243.7565,343.821 C245.7427,339.3159 250.2243,338.1318 253.7525,341.9746 C257.9438,335.1522 262.1909,336.5135 266.6248,341.7148 C268.7131,336.7824 272.2251,336.2993 276.116,339.649 C280.8701,333.6779 284.5918,335.655 287.9888,341.0647 C292.5609,335.3349 296.1237,336.5031 299.3582,342.3756 C303.6613,337.1082 307.9748,338.3591 311.126,343.6585 C315.4366,338.006 318.844,338.3576 322.4147,344.3742 C330.3579,337.7411 337.1783,342.5336 339,351.0679 C340.5667,350.8964 341.2593,351.5658 340.6952,353.1387 C346.0247,355.6762 347.0274,359.7142 341.9997,363.5495 C348.8775,366.6082 350.0639,371.1578 344.4687,376.5799 C349.7103,380.3073 350.0155,383.8561 345.4066,388.3674 C351.3166,393.1978 349.982,398.5797 343.4297,401.5397 C348.021,406.7225 347.3239,410.5102 341.3023,413.8606 C347.5979,422.9023 343.8249,431.8526 332,431.1379 C332.481,430.8788 332.809,431.0653 332.8226,431.6139 C329.6673,437.1357 324.0838,436.7364 320.8454,431.7083 C317.7276,436.8236 314.8465,435.7044 311.5491,431.8955 C308.2352,437.7165 303.3014,438.5868 299.2729,432.6411 C295.7389,438.4728 290.9568,437.5913 288.0008,432.0673 C284.7549,438.3107 280.1892,438.8625 276.0656,432.9276 C273.1797,437.8784 269.3226,437.993 265.663,433.8087 C262.3488,437.9579 258.5135,438.9479 255.2653,433.7354 C251.7828,439.0808 247.0359,438.1213 243.947,433.2975 C240.2246,437.6062 235.3746,437.326 233.0941,431.7193 C222.6658,440.1754 215.6122,436.3979 213,424.1379 C213.1571,423.904 213.3958,423.9523 213.522,424.1734 C206.543,421.3712 206.629,416.8962 211.8841,412.393 C204.5129,411.6685 202.1914,406.6993 207.1737,400.9081 C200.2277,397.8093 199.3128,392.9275 205.0233,387.7589 C200.8883,383.1384 201.9706,378.9315 208.1009,377.3446 C203.1519,372.4727 203.1121,367.8317 209.9716,364.7079 C203.5914,354.0896 208.5751,346.0352 220,344.0679 C220.9642,343.2327 221.8569,343.3673 222.1446,344.7284 " fill="none" style="stroke:#181818;stroke-width:1.0;"/><text fill="#000000" font-family="sans-serif" font-size="14" font-weight="bold" lengthAdjust="spacing" textLength="58.5" x="246.75" y="364.0339">Internet</text></g><!--cluster Unraid Server--><g id="cluster_Unraid Server"><rect fill="none" height="989.34" rx="2.5" ry="2.5" style="stroke:#181818;stroke-width:1.0;" width="632" x="7" y="490.1379"/><text fill="#000000" font-family="sans-serif" font-size="14" font-weight="bold" lengthAdjust="spacing" textLength="98.25" x="273.875" y="507.1039">Unraid Server</text></g><!--cluster Docker Engine--><g id="cluster_Docker Engine"><polygon fill="none" points="31,546.1379,41,536.1379,615,536.1379,615,1445.4779,605,1455.4779,31,1455.4779,31,546.1379" style="stroke:#181818;stroke-width:1.0;"/><line style="stroke:#181818;stroke-width:1.0;" x1="605" x2="615" y1="546.1379" y2="536.1379"/><line style="stroke:#181818;stroke-width:1.0;" x1="31" x2="605" y1="546.1379" y2="546.1379"/><line style="stroke:#181818;stroke-width:1.0;" x1="605" x2="605" y1="546.1379" y2="1455.4779"/><text fill="#000000" font-family="sans-serif" font-size="14" font-weight="bold" lengthAdjust="spacing" textLength="102.25" x="267.875" y="564.1039">Docker Engine</text></g><!--cluster Application_Container--><g id="cluster_Application_Container"><polygon fill="none" points="47,832.2079,57,822.2079,558.17,822.2079,558.17,1138.4079,548.17,1148.4079,47,1148.4079,47,832.2079" style="stroke:#181818;stroke-width:1.0;"/><line style="stroke:#181818;stroke-width:1.0;" x1="548.17" x2="558.17" y1="832.2079" y2="822.2079"/><line style="stroke:#181818;stroke-width:1.0;" x1="47" x2="548.17" y1="832.2079" y2="832.2079"/><line style="stroke:#181818;stroke-width:1.0;" x1="548.17" x2="548.17" y1="832.2079" y2="1148.4079"/><text fill="#000000" font-family="sans-serif" font-size="14" font-weight="bold" lengthAdjust="spacing" textLength="102.25" x="247.46" y="850.1739">App Container</text></g><!--cluster PostgreSQL Container--><g id="cluster_PostgreSQL Container"><path d="M243,1287.4079 C243,1277.4079 378.085,1277.4079 378.085,1277.4079 C378.085,1277.4079 513.17,1277.4079 513.17,1287.4079 L513.17,1429.4779 C513.17,1439.4779 378.085,1439.4779 378.085,1439.4779 C378.085,1439.4779 243,1439.4779 243,1429.4779 L243,1287.4079 " fill="none" style="stroke:#181818;stroke-width:1.0;"/><path d="M243,1287.4079 C243,1297.4079 378.085,1297.4079 378.085,1297.4079 C378.085,1297.4079 513.17,1297.4079 513.17,1287.4079 " fill="none" style="stroke:#181818;stroke-width:1.0;"/><text fill="#000000" font-family="sans-serif" font-size="14" font-weight="bold" lengthAdjust="spacing" textLength="155.3125" x="300.4288" y="1314.3739">PostgreSQL Container</text></g><text fill="#000000" font-family="sans-serif" font-size="14" lengthAdjust="spacing" textLength="47" x="238.5" y="154.0339">Port:80</text><rect fill="#F1F1F1" height="12" style="stroke:#181818;stroke-width:1.5;" width="12" x="256" y="127.0679"/><text fill="#000000" font-family="sans-serif" font-size="14" lengthAdjust="spacing" textLength="55" x="358" y="154.0339">Port:443</text><rect fill="#F1F1F1" height="12" style="stroke:#181818;stroke-width:1.5;" width="12" x="379.5" y="127.0679"/><text fill="#000000" font-family="sans-serif" font-size="14" lengthAdjust="spacing" textLength="63" x="97.67" y="274.0339">Port:9501</text><rect fill="#F1F1F1" height="12" style="stroke:#181818;stroke-width:1.5;" width="12" x="123.17" y="247.0679"/><!--entity cloudflare--><g id="elem_cloudflare"><rect fill="#F1F1F1" height="49.0679" rx="2.5" ry="2.5" style="stroke:#181818;stroke-width:0.5;" width="110" x="221" y="374.0679"/><rect fill="#F1F1F1" height="10" style="stroke:#181818;stroke-width:0.5;" width="15" x="311" y="379.0679"/><rect fill="#F1F1F1" height="2" style="stroke:#181818;stroke-width:0.5;" width="4" x="309" y="381.0679"/><rect fill="#F1F1F1" height="2" style="stroke:#181818;stroke-width:0.5;" width="4" x="309" y="385.0679"/><text fill="#000000" font-family="sans-serif" font-size="14" lengthAdjust="spacing" textLength="70" x="236" y="409.0339">Cloudflare</text></g><!--entity CloudflareTunnel--><g id="elem_CloudflareTunnel"><rect fill="#F1F1F1" height="49.0679" rx="2.5" ry="2.5" style="stroke:#181818;stroke-width:0.5;" width="110" x="221" y="579.1379"/><rect fill="#F1F1F1" height="10" style="stroke:#181818;stroke-width:0.5;" width="15" x="311" y="584.1379"/><rect fill="#F1F1F1" height="2" style="stroke:#181818;stroke-width:0.5;" width="4" x="309" y="586.1379"/><rect fill="#F1F1F1" height="2" style="stroke:#181818;stroke-width:0.5;" width="4" x="309" y="590.1379"/><text fill="#000000" font-family="sans-serif" font-size="14" lengthAdjust="spacing" textLength="70" x="236" y="614.1039">Cloudflare</text></g><!--entity I04--><g id="elem_I04"><ellipse cx="276" cy="725.2079" fill="#F1F1F1" rx="8" ry="8" style="stroke:#181818;stroke-width:0.5;"/></g><!--entity I05--><g id="elem_I05"><ellipse cx="550" cy="1180.4079" fill="#F1F1F1" rx="8" ry="8" style="stroke:#181818;stroke-width:0.5;"/></g><!--entity HoppyBrew--><g id="elem_HoppyBrew"><rect fill="#F1F1F1" height="49.0679" rx="2.5" ry="2.5" style="stroke:#181818;stroke-width:0.5;" width="117" x="216.5" y="919.2079"/><rect fill="#F1F1F1" height="10" style="stroke:#181818;stroke-width:0.5;" width="15" x="313.5" y="924.2079"/><rect fill="#F1F1F1" height="2" style="stroke:#181818;stroke-width:0.5;" width="4" x="311.5" y="926.2079"/><rect fill="#F1F1F1" height="2" style="stroke:#181818;stroke-width:0.5;" width="4" x="311.5" y="930.2079"/><text fill="#000000" font-family="sans-serif" font-size="14" lengthAdjust="spacing" textLength="77" x="231.5" y="954.1739">HoppyBrew</text></g><!--entity db_adapter--><g id="elem_db_adapter"><rect fill="#F1F1F1" height="68.1358" rx="2.5" ry="2.5" style="stroke:#181818;stroke-width:0.5;" width="116" x="391" y="1064.2779"/><rect fill="#F1F1F1" height="10" style="stroke:#181818;stroke-width:0.5;" width="15" x="487" y="1069.2779"/><rect fill="#F1F1F1" height="2" style="stroke:#181818;stroke-width:0.5;" width="4" x="485" y="1071.2779"/><rect fill="#F1F1F1" height="2" style="stroke:#181818;stroke-width:0.5;" width="4" x="485" y="1075.2779"/><text fill="#000000" font-family="sans-serif" font-size="14" lengthAdjust="spacing" textLength="55" x="406" y="1099.2439">Psycopg</text><text fill="#000000" font-family="sans-serif" font-size="14" lengthAdjust="spacing" textLength="76" x="406" y="1118.3118">db-adapter</text></g><!--entity api--><g id="elem_api"><rect fill="#F1F1F1" height="49.0679" rx="2.5" ry="2.5" style="stroke:#181818;stroke-width:0.5;" width="89" x="62.5" y="919.2079"/><rect fill="#F1F1F1" height="10" style="stroke:#181818;stroke-width:0.5;" width="15" x="131.5" y="924.2079"/><rect fill="#F1F1F1" height="2" style="stroke:#181818;stroke-width:0.5;" width="4" x="129.5" y="926.2079"/><rect fill="#F1F1F1" height="2" style="stroke:#181818;stroke-width:0.5;" width="4" x="129.5" y="930.2079"/><text fill="#000000" font-family="sans-serif" font-size="14" lengthAdjust="spacing" textLength="49" x="77.5" y="954.1739">FastAPI</text></g><!--entity uvicorn--><g id="elem_uvicorn"><rect fill="#F1F1F1" height="49.0679" rx="2.5" ry="2.5" style="stroke:#181818;stroke-width:0.5;" width="90" x="63" y="1073.8079"/><rect fill="#F1F1F1" height="10" style="stroke:#181818;stroke-width:0.5;" width="15" x="133" y="1078.8079"/><rect fill="#F1F1F1" height="2" style="stroke:#181818;stroke-width:0.5;" width="4" x="131" y="1080.8079"/><rect fill="#F1F1F1" height="2" style="stroke:#181818;stroke-width:0.5;" width="4" x="131" y="1084.8079"/><text fill="#000000" font-family="sans-serif" font-size="14" lengthAdjust="spacing" textLength="50" x="78" y="1108.7739">uvicorn</text></g><!--entity endpoints--><g id="elem_endpoints"><rect fill="#F1F1F1" height="49.0679" rx="2.5" ry="2.5" style="stroke:#181818;stroke-width:0.5;" width="108" x="158" y="1073.8079"/><rect fill="#F1F1F1" height="10" style="stroke:#181818;stroke-width:0.5;" width="15" x="246" y="1078.8079"/><rect fill="#F1F1F1" height="2" style="stroke:#181818;stroke-width:0.5;" width="4" x="244" y="1080.8079"/><rect fill="#F1F1F1" height="2" style="stroke:#181818;stroke-width:0.5;" width="4" x="244" y="1084.8079"/><text fill="#000000" font-family="sans-serif" font-size="14" lengthAdjust="spacing" textLength="68" x="173" y="1108.7739">endpoints</text></g><!--entity APIRouter--><g id="elem_APIRouter"><rect fill="#F1F1F1" height="49.0679" rx="2.5" ry="2.5" style="stroke:#181818;stroke-width:0.5;" width="107" x="270.5" y="1073.8079"/><rect fill="#F1F1F1" height="10" style="stroke:#181818;stroke-width:0.5;" width="15" x="357.5" y="1078.8079"/><rect fill="#F1F1F1" height="2" style="stroke:#181818;stroke-width:0.5;" width="4" x="355.5" y="1080.8079"/><rect fill="#F1F1F1" height="2" style="stroke:#181818;stroke-width:0.5;" width="4" x="355.5" y="1084.8079"/><text fill="#000000" font-family="sans-serif" font-size="14" lengthAdjust="spacing" textLength="67" x="285.5" y="1108.7739">APIRouter</text></g><text fill="#000000" font-family="sans-serif" font-size="14" lengthAdjust="spacing" textLength="47" x="128.5" y="800.1059">Port:80</text><rect fill="#F1F1F1" height="12" style="stroke:#181818;stroke-width:1.5;" width="12" x="146" y="816.2079"/><text fill="#000000" font-family="sans-serif" font-size="14" lengthAdjust="spacing" textLength="55" x="248" y="800.1059">Port:443</text><rect fill="#F1F1F1" height="12" style="stroke:#181818;stroke-width:1.5;" width="12" x="269.5" y="816.2079"/><text fill="#000000" font-family="sans-serif" font-size="14" lengthAdjust="spacing" textLength="63" x="366.67" y="800.1059">Port:9501</text><rect fill="#F1F1F1" height="12" style="stroke:#181818;stroke-width:1.5;" width="12" x="392.17" y="816.2079"/><text fill="#000000" font-family="sans-serif" font-size="14" lengthAdjust="spacing" textLength="63" x="526.67" y="1037.2439">Port:5432</text><rect fill="#F1F1F1" height="12" style="stroke:#181818;stroke-width:1.5;" width="12" x="552.17" y="1010.2779"/><!--entity PostgreSQL--><g id="elem_PostgreSQL"><rect fill="#F1F1F1" height="49.0679" rx="2.5" ry="2.5" style="stroke:#181818;stroke-width:0.5;" width="117" x="259.5" y="1374.4079"/><rect fill="#F1F1F1" height="10" style="stroke:#181818;stroke-width:0.5;" width="15" x="356.5" y="1379.4079"/><rect fill="#F1F1F1" height="2" style="stroke:#181818;stroke-width:0.5;" width="4" x="354.5" y="1381.4079"/><rect fill="#F1F1F1" height="2" style="stroke:#181818;stroke-width:0.5;" width="4" x="354.5" y="1385.4079"/><text fill="#000000" font-family="sans-serif" font-size="14" lengthAdjust="spacing" textLength="77" x="274.5" y="1409.3739">PostgreSQL</text></g><text fill="#000000" font-family="sans-serif" font-size="14" lengthAdjust="spacing" textLength="63" x="463.67" y="1255.3059">Port:5432</text><rect fill="#F1F1F1" height="12" style="stroke:#181818;stroke-width:1.5;" width="12" x="489.17" y="1271.4079"/><!--entity I01--><g id="elem_I01"><ellipse cx="271" cy="253.0679" fill="#F1F1F1" rx="8" ry="8" style="stroke:#181818;stroke-width:0.5;"/></g><!--entity I02--><g id="elem_I02"><ellipse cx="377" cy="253.0679" fill="#F1F1F1" rx="8" ry="8" style="stroke:#181818;stroke-width:0.5;"/></g><!--entity I03--><g id="elem_I03"><ellipse cx="154" cy="398.6079" fill="#F1F1F1" rx="8" ry="8" style="stroke:#181818;stroke-width:0.5;"/></g><!--link ClientPort80 to I01--><g id="link_ClientPort80_I01"><path d="M262.36,138.8379 C263.75,156.9479 267.9078,211.567 269.6378,234.197 " fill="none" id="ClientPort80-to-I01" style="stroke:#181818;stroke-width:1.0;"/><path d="M278.598,240.454 A9,9 0 0 0 261.7327 241.7433" fill="none" style="stroke:#181818;stroke-width:1.5;"/><text fill="#000000" font-family="sans-serif" font-size="13" lengthAdjust="spacing" textLength="29" x="268.83" y="199.4649">Uses</text></g><!--link I01 to cloudflare--><g id="link_I01_cloudflare"><path d="M271.27,261.7879 C271.99,282.6379 274.02,340.7279 275.17,373.7879 " fill="none" id="I01-cloudflare" style="stroke:#181818;stroke-width:1.0;"/></g><!--link ClientPort443 to I02--><g id="link_ClientPort443_I02"><path d="M385.64,138.8379 C384.25,156.9479 380.0922,211.567 378.3622,234.197 " fill="none" id="ClientPort443-to-I02" style="stroke:#181818;stroke-width:1.0;"/><path d="M386.2673,241.7433 A9,9 0 0 0 369.402 240.454" fill="none" style="stroke:#181818;stroke-width:1.5;"/><text fill="#000000" font-family="sans-serif" font-size="13" lengthAdjust="spacing" textLength="29" x="384.34" y="199.4649">Uses</text></g><!--link I02 to cloudflare--><g id="link_I02_cloudflare"><path d="M371.57,261.7879 C356.9,282.6379 316.02,340.7279 292.76,373.7879 " fill="none" id="I02-cloudflare" style="stroke:#181818;stroke-width:1.0;"/></g><!--link ISpindel_port to I03--><g id="link_ISpindel_port_I03"><path d="M131.77,258.8479 C135.1,279.6679 146.8191,352.7637 151.0891,379.4337 " fill="none" id="ISpindel_port-to-I03" style="stroke:#181818;stroke-width:1.0;"/><path d="M160.5342,384.9314 A9,9 0 0 0 143.8325 387.6055" fill="none" style="stroke:#181818;stroke-width:1.5;"/><text fill="#000000" font-family="sans-serif" font-size="13" lengthAdjust="spacing" textLength="90" x="142.12" y="315.9649">Transmits Data</text></g><!--link I03 to cloudflare--><g id="link_I03_cloudflare"><path d="M163.05,398.6079 C182.32,398.6079 201.59,398.6079 220.85,398.6079 " fill="none" id="I03-cloudflare" style="stroke:#181818;stroke-width:1.0;"/></g><!--link cloudflare to CloudflareTunnel--><g id="link_cloudflare_CloudflareTunnel"><path d="M276,441.2979 C276,480.3179 276,521.6879 276,560.8179 " fill="none" id="cloudflare-CloudflareTunnel" style="stroke:#181818;stroke-width:1.0;stroke-dasharray:7.0,7.0;"/><polygon fill="none" points="276,423.2979,270,441.2979,282,441.2979,276,423.2979" style="stroke:#181818;stroke-width:1.0;"/><polygon fill="none" points="276,578.8179,282,560.8179,270,560.8179,276,578.8179" style="stroke:#181818;stroke-width:1.0;"/><text fill="#000000" font-family="sans-serif" font-size="13" lengthAdjust="spacing" textLength="65" x="277" y="470.0349">&#171;TUNNEL&#187;</text></g><!--link api to HoppyBrew--><g id="link_api_HoppyBrew"><path d="M151.58,943.7379 C171.41,943.7379 195.03,943.7379 216.27,943.7379 " fill="none" id="api-HoppyBrew" style="stroke:#181818;stroke-width:1.0;"/><text fill="#000000" font-family="sans-serif" font-size="13" lengthAdjust="spacing" textLength="29" x="169.5" y="936.6349">Uses</text></g><!--link HoppyBrew to db_adapter--><g id="link_HoppyBrew_db_adapter"><path d="M315.05,968.5779 C328.54,977.2879 343.37,987.6279 356,998.2779 C379.63,1018.1979 403.43,1043.6679 421.03,1063.7979 " fill="none" id="HoppyBrew-db_adapter" style="stroke:#181818;stroke-width:1.0;"/><text fill="#000000" font-family="sans-serif" font-size="13" lengthAdjust="spacing" textLength="29" x="394.9" y="1021.6749">Uses</text></g><!--link api to uvicorn--><g id="link_api_uvicorn"><path d="M107.16,968.5879 C107.34,997.1679 107.66,1044.7879 107.84,1073.4179 " fill="none" id="api-uvicorn" style="stroke:#181818;stroke-width:1.0;"/><text fill="#000000" font-family="sans-serif" font-size="13" lengthAdjust="spacing" textLength="30" x="108.56" y="1021.6749">Runs</text></g><!--link api to endpoints--><g id="link_api_endpoints"><path d="M125.99,968.6879 C133.06,977.8279 141.06,988.4179 148,998.2779 C165.69,1023.3879 184.62,1053.0779 197.26,1073.3679 " fill="none" id="api-endpoints" style="stroke:#181818;stroke-width:1.0;"/><text fill="#000000" font-family="sans-serif" font-size="13" lengthAdjust="spacing" textLength="29" x="172.62" y="1021.6749">Uses</text></g><!--link api to APIRouter--><g id="link_api_APIRouter"><path d="M151.88,964.8479 C170.73,974.0579 192.53,985.7079 211,998.2779 C244.22,1020.8779 278.36,1052.1379 300.3,1073.4579 " fill="none" id="api-APIRouter" style="stroke:#181818;stroke-width:1.0;"/><text fill="#000000" font-family="sans-serif" font-size="13" lengthAdjust="spacing" textLength="29" x="257.66" y="1021.6749">Uses</text></g><!--link port80 to api--><g id="link_port80_api"><path d="M150.18,828.0379 C144.49,843.1479 126.77,890.2179 115.88,919.1579 " fill="none" id="port80-api" style="stroke:#181818;stroke-width:1.0;"/><text fill="#000000" font-family="sans-serif" font-size="13" lengthAdjust="spacing" textLength="56" x="134.53" y="885.1049">Connects</text></g><!--link db_adapter to port5432--><g id="link_db_adapter_port5432"><path d="M495.5,1063.7979 C517.76,1047.7479 542,1030.2579 553.39,1022.0479 " fill="none" id="db_adapter-port5432" style="stroke:#181818;stroke-width:1.0;"/></g><!--link CloudflareTunnel to I04--><g id="link_CloudflareTunnel_I04"><path d="M276,628.5779 C276,655.8279 276,688.8679 276,706.3879 " fill="none" id="CloudflareTunnel-to-I04" style="stroke:#181818;stroke-width:1.0;"/><path d="M284.4572,713.3097 A9,9 0 0 0 267.5428 713.3097" fill="none" style="stroke:#181818;stroke-width:1.5;"/><text fill="#000000" font-family="sans-serif" font-size="13" lengthAdjust="spacing" textLength="29" x="277" y="673.1049">Uses</text></g><!--link I04 to port80--><g id="link_I04_port80"><path d="M267.08,733.0379 C243.09,751.4179 177.66,801.5479 157.79,816.7679 " fill="none" id="I04-port80" style="stroke:#181818;stroke-width:1.0;"/></g><!--link I04 to port443--><g id="link_I04_port443"><path d="M276,733.9779 C276,752.9479 276,801.1579 276,816.4679 " fill="none" id="I04-port443" style="stroke:#181818;stroke-width:1.0;"/></g><!--link I04 to port9501--><g id="link_I04_port9501"><path d="M284.92,733.0379 C308.69,751.2479 373.13,800.6279 393.64,816.3379 " fill="none" id="I04-port9501" style="stroke:#181818;stroke-width:1.0;"/></g><!--link PostgreSQL_port5432 to PostgreSQL--><g id="link_PostgreSQL_port5432_PostgreSQL"><path d="M489.76,1283.2479 C467.2,1298.3079 397.05,1345.1479 353.7,1374.1079 " fill="none" id="PostgreSQL_port5432-PostgreSQL" style="stroke:#181818;stroke-width:1.0;"/><text fill="#000000" font-family="sans-serif" font-size="13" lengthAdjust="spacing" textLength="56" x="424.53" y="1340.3049">Connects</text></g><!--link port5432 to I05--><g id="link_port5432_I05"><path d="M559.71,1021.9479 C558.32,1044.5879 552.8627,1132.8767 551.1027,1161.5467 " fill="none" id="port5432-to-I05" style="stroke:#181818;stroke-width:1.0;"/><path d="M559.12,1168.9737 A9,9 0 0 0 542.2373 1167.9373" fill="none" style="stroke:#181818;stroke-width:1.5;"/><text fill="#000000" font-family="sans-serif" font-size="13" lengthAdjust="spacing" textLength="29" x="558.05" y="1103.7349">Uses</text></g><!--link I05 to PostgreSQL_port5432--><g id="link_I05_PostgreSQL_port5432"><path d="M545.66,1189.1879 C535.08,1208.1479 508.19,1256.3579 499.65,1271.6679 " fill="none" id="I05-PostgreSQL_port5432" style="stroke:#181818;stroke-width:1.0;"/></g><!--SRC=[bPHBRnen483l_XKMfrus8Zoa526aaAGgKfJI0Egb4ZAx3hMws9PjeAZXltUy3zlxYbHooCxCD-EPyOmDCod5FtunG_5S_C7VJbIHDCMhYpRqW13ZXget4bFSWp-YyQ9_swOSj2c72CNY80MdtE3UGyhi_xaIPqrLXkIgGlCNOVX9eOmu0hw4ZybTF-2ivgxVGer6mne66dGD3r-i9EC9JVFC2g7jnC_Z_cq5sbex14DnAeu9HB9rScfwE7UlL0Z4MqeKpIB4JhJkOGquIiIPHvziD_44RpJLo7xcwi0HXtvGLE0uy8w3fYD2bVnnbFaCmMUj2DS7PZH-98OWgwoT23z5OqFu7aQZj-6Ai0Ilg3hPMykBvY81qwE8VrE5d_YUSLgQFkw95zT7pccAl8zFOVf-S_C-Qx2G_7IwthoyF3tFPjunp-LUIlmWk26GIZvSe4bPJ0mJVEiiGPArHByAAIzpHS-PivEwyAM-n4BkV_9a5v64I5ESckosXTZb-OLeSxzSP3IHh0ixdbWi5C-muhiBfJoH0lPFPx2Jkd0u_1K6lcnJAQ4ARwU6yUeQIh-0hLYvXxBOm4xGBPdLMg61-eKSZuO3nrgXmbQJXdR2CBkxApSaHBmnYeBBQaEpQ57PV0p8wv6t8gxb-8Cuhj4EgbPIRu5x9h804plT7DQo6Zkee83BDhLvNFsHBS_ro1aRcvS_7wDwTLOLHVMv2BJX50JgxCgT8O5tQ4SqjHUkpLxHrVVdS9SxLzRZMGLUx9uyDqqUthOELeiTHYj8yB_REqPXHdb0zvgFcwqTbpVQbUeLNVy1]--></g></svg>