<?xml version="1.0" encoding="us-ascii" standalone="no"?><svg xmlns="http://www.w3.org/2000/svg" xmlns:xlink="http://www.w3.org/1999/xlink" contentStyleType="text/css" height="481px" preserveAspectRatio="none" style="width:488px;height:481px;background:#FFFFFF;" version="1.1" viewBox="0 0 488 481" width="488px" zoomAndPan="magnify"><defs/><g><text fill="#000000" font-family="sans-serif" font-size="14" font-weight="bold" lengthAdjust="spacing" textLength="191.0625" x="149.9688" y="29.9659">Technical Context Diagram</text><line style="stroke:#181818;stroke-width:0.5;stroke-dasharray:5.0,5.0;" x1="38" x2="38" y1="124.1358" y2="397.784"/><line style="stroke:#181818;stroke-width:0.5;stroke-dasharray:5.0,5.0;" x1="155" x2="155" y1="124.1358" y2="397.784"/><line style="stroke:#181818;stroke-width:0.5;stroke-dasharray:5.0,5.0;" x1="272" x2="272" y1="124.1358" y2="397.784"/><line style="stroke:#181818;stroke-width:0.5;stroke-dasharray:5.0,5.0;" x1="381" x2="381" y1="124.1358" y2="397.784"/><line style="stroke:#181818;stroke-width:0.5;stroke-dasharray:5.0,5.0;" x1="456" x2="456" y1="124.1358" y2="397.784"/><text fill="#000000" font-family="sans-serif" font-size="14" lengthAdjust="spacing" textLength="61" x="5" y="120.0339">Operator</text><ellipse cx="38.5" cy="53.5679" fill="#E2E2F0" rx="8" ry="8" style="stroke:#181818;stroke-width:0.5;"/><path d="M38.5,61.5679 L38.5,88.5679 M25.5,69.5679 L51.5,69.5679 M38.5,88.5679 L25.5,103.5679 M38.5,88.5679 L51.5,103.5679 " fill="none" style="stroke:#181818;stroke-width:0.5;"/><text fill="#000000" font-family="sans-serif" font-size="14" lengthAdjust="spacing" textLength="61" x="5" y="411.7499">Operator</text><ellipse cx="38.5" cy="424.3519" fill="#E2E2F0" rx="8" ry="8" style="stroke:#181818;stroke-width:0.5;"/><path d="M38.5,432.3519 L38.5,459.3519 M25.5,440.3519 L51.5,440.3519 M38.5,459.3519 L25.5,474.3519 M38.5,459.3519 L51.5,474.3519 " fill="none" style="stroke:#181818;stroke-width:0.5;"/><text fill="#000000" font-family="sans-serif" font-size="14" lengthAdjust="spacing" textLength="77" x="114" y="120.0339">Web Server</text><path d="M135,77.0679 L135,101.0679 M135,89.0679 L152,89.0679 " fill="none" style="stroke:#181818;stroke-width:0.5;"/><ellipse cx="164" cy="89.0679" fill="#E2E2F0" rx="12" ry="12" style="stroke:#181818;stroke-width:0.5;"/><text fill="#000000" font-family="sans-serif" font-size="14" lengthAdjust="spacing" textLength="77" x="114" y="411.7499">Web Server</text><path d="M135,419.8519 L135,443.8519 M135,431.8519 L152,431.8519 " fill="none" style="stroke:#181818;stroke-width:0.5;"/><ellipse cx="164" cy="431.8519" fill="#E2E2F0" rx="12" ry="12" style="stroke:#181818;stroke-width:0.5;"/><text fill="#000000" font-family="sans-serif" font-size="14" lengthAdjust="spacing" textLength="123" x="208" y="120.0339">Application Server</text><ellipse cx="272.5" cy="89.0679" fill="#E2E2F0" rx="12" ry="12" style="stroke:#181818;stroke-width:0.5;"/><polygon fill="#181818" points="268.5,77.0679,274.5,72.0679,272.5,77.0679,274.5,82.0679,268.5,77.0679" style="stroke:#181818;stroke-width:1.0;"/><text fill="#000000" font-family="sans-serif" font-size="14" lengthAdjust="spacing" textLength="123" x="208" y="411.7499">Application Server</text><ellipse cx="272.5" cy="431.8519" fill="#E2E2F0" rx="12" ry="12" style="stroke:#181818;stroke-width:0.5;"/><polygon fill="#181818" points="268.5,419.8519,274.5,414.8519,272.5,419.8519,274.5,424.8519,268.5,419.8519" style="stroke:#181818;stroke-width:1.0;"/><text fill="#000000" font-family="sans-serif" font-size="14" lengthAdjust="spacing" textLength="63" x="347" y="120.0339">Database</text><ellipse cx="381.5" cy="89.0679" fill="#E2E2F0" rx="12" ry="12" style="stroke:#181818;stroke-width:0.5;"/><line style="stroke:#181818;stroke-width:0.5;" x1="369.5" x2="393.5" y1="103.0679" y2="103.0679"/><text fill="#000000" font-family="sans-serif" font-size="14" lengthAdjust="spacing" textLength="63" x="347" y="411.7499">Database</text><ellipse cx="381.5" cy="431.8519" fill="#E2E2F0" rx="12" ry="12" style="stroke:#181818;stroke-width:0.5;"/><line style="stroke:#181818;stroke-width:0.5;" x1="369.5" x2="393.5" y1="445.8519" y2="445.8519"/><text fill="#000000" font-family="sans-serif" font-size="14" lengthAdjust="spacing" textLength="55" x="426" y="120.0339">iSpindel</text><ellipse cx="456.5" cy="89.0679" fill="#E2E2F0" rx="12" ry="12" style="stroke:#181818;stroke-width:0.5;"/><line style="stroke:#181818;stroke-width:0.5;" x1="444.5" x2="468.5" y1="103.0679" y2="103.0679"/><text fill="#000000" font-family="sans-serif" font-size="14" lengthAdjust="spacing" textLength="55" x="426" y="411.7499">iSpindel</text><ellipse cx="456.5" cy="431.8519" fill="#E2E2F0" rx="12" ry="12" style="stroke:#181818;stroke-width:0.5;"/><line style="stroke:#181818;stroke-width:0.5;" x1="444.5" x2="468.5" y1="445.8519" y2="445.8519"/><polygon fill="#181818" points="143.5,153.8419,153.5,157.8419,143.5,161.8419,147.5,157.8419" style="stroke:#181818;stroke-width:1.0;"/><line style="stroke:#181818;stroke-width:1.0;" x1="38.5" x2="149.5" y1="157.8419" y2="157.8419"/><text fill="#000000" font-family="sans-serif" font-size="13" lengthAdjust="spacing" textLength="84" x="45.5" y="152.0328">HTTP Request</text><polygon fill="#181818" points="260.5,185.5479,270.5,189.5479,260.5,193.5479,264.5,189.5479" style="stroke:#181818;stroke-width:1.0;"/><line style="stroke:#181818;stroke-width:1.0;" x1="155.5" x2="266.5" y1="189.5479" y2="189.5479"/><text fill="#000000" font-family="sans-serif" font-size="13" lengthAdjust="spacing" textLength="84" x="162.5" y="183.7389">HTTP Request</text><polygon fill="#181818" points="369.5,217.2539,379.5,221.2539,369.5,225.2539,373.5,221.2539" style="stroke:#181818;stroke-width:1.0;"/><line style="stroke:#181818;stroke-width:1.0;" x1="272.5" x2="375.5" y1="221.2539" y2="221.2539"/><text fill="#000000" font-family="sans-serif" font-size="13" lengthAdjust="spacing" textLength="64" x="279.5" y="215.4449">SQL Query</text><polygon fill="#181818" points="283.5,248.9599,273.5,252.9599,283.5,256.9599,279.5,252.9599" style="stroke:#181818;stroke-width:1.0;"/><line style="stroke:#181818;stroke-width:1.0;" x1="277.5" x2="380.5" y1="252.9599" y2="252.9599"/><text fill="#000000" font-family="sans-serif" font-size="13" lengthAdjust="spacing" textLength="85" x="289.5" y="247.1509">SQL Response</text><polygon fill="#181818" points="166.5,280.6659,156.5,284.6659,166.5,288.6659,162.5,284.6659" style="stroke:#181818;stroke-width:1.0;"/><line style="stroke:#181818;stroke-width:1.0;" x1="160.5" x2="271.5" y1="284.6659" y2="284.6659"/><text fill="#000000" font-family="sans-serif" font-size="13" lengthAdjust="spacing" textLength="93" x="172.5" y="278.8569">HTTP Response</text><polygon fill="#181818" points="49.5,312.3719,39.5,316.3719,49.5,320.3719,45.5,316.3719" style="stroke:#181818;stroke-width:1.0;"/><line style="stroke:#181818;stroke-width:1.0;" x1="43.5" x2="154.5" y1="316.3719" y2="316.3719"/><text fill="#000000" font-family="sans-serif" font-size="13" lengthAdjust="spacing" textLength="93" x="55.5" y="310.5629">HTTP Response</text><polygon fill="#181818" points="283.5,344.0779,273.5,348.0779,283.5,352.0779,279.5,348.0779" style="stroke:#181818;stroke-width:1.0;"/><line style="stroke:#181818;stroke-width:1.0;" x1="277.5" x2="455.5" y1="348.0779" y2="348.0779"/><text fill="#000000" font-family="sans-serif" font-size="13" lengthAdjust="spacing" textLength="84" x="289.5" y="342.2689">HTTP Request</text><polygon fill="#181818" points="444.5,375.784,454.5,379.784,444.5,383.784,448.5,379.784" style="stroke:#181818;stroke-width:1.0;"/><line style="stroke:#181818;stroke-width:1.0;" x1="272.5" x2="450.5" y1="379.784" y2="379.784"/><text fill="#000000" font-family="sans-serif" font-size="13" lengthAdjust="spacing" textLength="93" x="279.5" y="373.975">HTTP Response</text><!--SRC=[ZO_12i8m38RlUOgmko_WGH0zA0ZgDl2SpQ25sjOs4_VsrZax7Huy_idNlrz4YMOikJuRLPF6XJN2Ty6befEd2m3LOZqsWJrIm6phs5ESP53PnXp9jtZWgc1_wu6Oy1Kpg6EPjnhdpdqGCUduboXh4ib6bBIu9A6A0dVSEwJjkd3A75btMzM7300wkydimsIAgxBSOSxNXeF0i8ZKO3EYXaMaaieKY_q6zmtx5j9mLFCaSWxEci3VDJ-KUkpBgRjWJ40w-6_hz6BSzG00]--></g></svg>