<?xml version="1.0" encoding="us-ascii" standalone="no"?><svg xmlns="http://www.w3.org/2000/svg" xmlns:xlink="http://www.w3.org/1999/xlink" contentStyleType="text/css" height="733px" preserveAspectRatio="none" style="width:937px;height:733px;background:#FFFFFF;" version="1.1" viewBox="0 0 937 733" width="937px" zoomAndPan="magnify"><defs/><g><text fill="#000000" font-family="sans-serif" font-size="14" font-weight="bold" lengthAdjust="spacing" textLength="150.4375" x="386.5313" y="24.9659">Deployment Diagram</text><!--cluster github--><g id="cluster_github"><polygon fill="none" points="16,56.0679,26,46.0679,471.5,46.0679,471.5,264.0679,461.5,274.0679,16,274.0679,16,56.0679" style="stroke:#181818;stroke-width:1.0;"/><line style="stroke:#181818;stroke-width:1.0;" x1="461.5" x2="471.5" y1="56.0679" y2="46.0679"/><line style="stroke:#181818;stroke-width:1.0;" x1="16" x2="461.5" y1="56.0679" y2="56.0679"/><line style="stroke:#181818;stroke-width:1.0;" x1="461.5" x2="461.5" y1="56.0679" y2="274.0679"/><text fill="#000000" font-family="sans-serif" font-size="14" font-weight="bold" lengthAdjust="spacing" textLength="49.625" x="214.9375" y="74.0339">GitHub</text></g><!--cluster dockerHub--><g id="cluster_dockerHub"><polygon fill="none" points="280,316.0679,290,306.0679,475,306.0679,475,592.0679,465,602.0679,280,602.0679,280,316.0679" style="stroke:#181818;stroke-width:1.0;"/><line style="stroke:#181818;stroke-width:1.0;" x1="465" x2="475" y1="316.0679" y2="306.0679"/><line style="stroke:#181818;stroke-width:1.0;" x1="280" x2="465" y1="316.0679" y2="316.0679"/><line style="stroke:#181818;stroke-width:1.0;" x1="465" x2="465" y1="316.0679" y2="602.0679"/><text fill="#000000" font-family="sans-serif" font-size="14" font-weight="bold" lengthAdjust="spacing" textLength="81.9375" x="332.5313" y="334.0339">Docker Hub</text></g><!--cluster unraid--><g id="cluster_unraid"><polygon fill="none" points="626.5,146.0679,636.5,136.0679,920.5,136.0679,920.5,706.0679,910.5,716.0679,626.5,716.0679,626.5,146.0679" style="stroke:#181818;stroke-width:1.0;"/><line style="stroke:#181818;stroke-width:1.0;" x1="910.5" x2="920.5" y1="146.0679" y2="136.0679"/><line style="stroke:#181818;stroke-width:1.0;" x1="626.5" x2="910.5" y1="146.0679" y2="146.0679"/><line style="stroke:#181818;stroke-width:1.0;" x1="910.5" x2="910.5" y1="146.0679" y2="716.0679"/><text fill="#000000" font-family="sans-serif" font-size="14" font-weight="bold" lengthAdjust="spacing" textLength="98.25" x="720.375" y="164.0339">Unraid Server</text></g><!--cluster Docker Engine--><g id="cluster_Docker Engine"><polygon fill="none" points="650.5,197.0679,660.5,187.0679,896.5,187.0679,896.5,682.0679,886.5,692.0679,650.5,692.0679,650.5,197.0679" style="stroke:#181818;stroke-width:1.0;"/><line style="stroke:#181818;stroke-width:1.0;" x1="886.5" x2="896.5" y1="197.0679" y2="187.0679"/><line style="stroke:#181818;stroke-width:1.0;" x1="650.5" x2="886.5" y1="197.0679" y2="197.0679"/><line style="stroke:#181818;stroke-width:1.0;" x1="886.5" x2="886.5" y1="197.0679" y2="692.0679"/><text fill="#000000" font-family="sans-serif" font-size="14" font-weight="bold" lengthAdjust="spacing" textLength="102.25" x="718.375" y="215.0339">Docker Engine</text></g><!--cluster Cloudflare\nDocker Container--><g id="cluster_Cloudflare\nDocker Container"><polygon fill="none" points="674.5,400.0679,684.5,390.0679,872.5,390.0679,872.5,508.0679,862.5,518.0679,674.5,518.0679,674.5,400.0679" style="stroke:#181818;stroke-width:1.0;"/><line style="stroke:#181818;stroke-width:1.0;" x1="862.5" x2="872.5" y1="400.0679" y2="390.0679"/><line style="stroke:#181818;stroke-width:1.0;" x1="674.5" x2="862.5" y1="400.0679" y2="400.0679"/><line style="stroke:#181818;stroke-width:1.0;" x1="862.5" x2="862.5" y1="400.0679" y2="518.0679"/><text fill="#000000" font-family="sans-serif" font-size="14" font-weight="bold" lengthAdjust="spacing" textLength="74.375" x="732.3125" y="418.0339">Cloudflare</text><text fill="#000000" font-family="sans-serif" font-size="14" font-weight="bold" lengthAdjust="spacing" textLength="122.5625" x="708.2188" y="437.1018">Docker Container</text></g><!--cluster Application\nDocker Container--><g id="cluster_Application\nDocker Container"><polygon fill="none" points="674.5,248.0679,684.5,238.0679,872.5,238.0679,872.5,356.0679,862.5,366.0679,674.5,366.0679,674.5,248.0679" style="stroke:#181818;stroke-width:1.0;"/><line style="stroke:#181818;stroke-width:1.0;" x1="862.5" x2="872.5" y1="248.0679" y2="238.0679"/><line style="stroke:#181818;stroke-width:1.0;" x1="674.5" x2="862.5" y1="248.0679" y2="248.0679"/><line style="stroke:#181818;stroke-width:1.0;" x1="862.5" x2="862.5" y1="248.0679" y2="366.0679"/><text fill="#000000" font-family="sans-serif" font-size="14" font-weight="bold" lengthAdjust="spacing" textLength="80.8125" x="729.0938" y="266.0339">Application</text><text fill="#000000" font-family="sans-serif" font-size="14" font-weight="bold" lengthAdjust="spacing" textLength="122.5625" x="708.2188" y="285.1018">Docker Container</text></g><!--cluster Database\nDocker Container--><g id="cluster_Database\nDocker Container"><polygon fill="none" points="674.5,552.0679,684.5,542.0679,872.5,542.0679,872.5,658.0679,862.5,668.0679,674.5,668.0679,674.5,552.0679" style="stroke:#181818;stroke-width:1.0;"/><line style="stroke:#181818;stroke-width:1.0;" x1="862.5" x2="872.5" y1="552.0679" y2="542.0679"/><line style="stroke:#181818;stroke-width:1.0;" x1="674.5" x2="862.5" y1="552.0679" y2="552.0679"/><line style="stroke:#181818;stroke-width:1.0;" x1="862.5" x2="862.5" y1="552.0679" y2="668.0679"/><text fill="#000000" font-family="sans-serif" font-size="14" font-weight="bold" lengthAdjust="spacing" textLength="66.5" x="736.25" y="570.0339">Database</text><text fill="#000000" font-family="sans-serif" font-size="14" font-weight="bold" lengthAdjust="spacing" textLength="122.5625" x="708.2188" y="589.1018">Docker Container</text></g><!--entity codebase--><g id="elem_codebase"><rect fill="#F1F1F1" height="49.0679" rx="2.5" ry="2.5" style="stroke:#181818;stroke-width:0.5;" width="106" x="40.5" y="181.5379"/><rect fill="#F1F1F1" height="10" style="stroke:#181818;stroke-width:0.5;" width="15" x="126.5" y="186.5379"/><rect fill="#F1F1F1" height="2" style="stroke:#181818;stroke-width:0.5;" width="4" x="124.5" y="188.5379"/><rect fill="#F1F1F1" height="2" style="stroke:#181818;stroke-width:0.5;" width="4" x="124.5" y="192.5379"/><text fill="#000000" font-family="sans-serif" font-size="14" lengthAdjust="spacing" textLength="66" x="55.5" y="216.5039">Codebase</text></g><!--entity dockerfile--><g id="elem_dockerfile"><rect fill="#F1F1F1" height="49.0679" rx="2.5" ry="2.5" style="stroke:#181818;stroke-width:0.5;" width="107" x="40" y="97.5379"/><rect fill="#F1F1F1" height="10" style="stroke:#181818;stroke-width:0.5;" width="15" x="127" y="102.5379"/><rect fill="#F1F1F1" height="2" style="stroke:#181818;stroke-width:0.5;" width="4" x="125" y="104.5379"/><rect fill="#F1F1F1" height="2" style="stroke:#181818;stroke-width:0.5;" width="4" x="125" y="108.5379"/><text fill="#000000" font-family="sans-serif" font-size="14" lengthAdjust="spacing" textLength="67" x="55" y="132.5039">Dockerfile</text></g><!--entity publish--><g id="elem_publish"><rect fill="#F1F1F1" height="49.0679" rx="2.5" ry="2.5" style="stroke:#181818;stroke-width:0.5;" width="119" x="318" y="181.5379"/><rect fill="#F1F1F1" height="10" style="stroke:#181818;stroke-width:0.5;" width="15" x="417" y="186.5379"/><rect fill="#F1F1F1" height="2" style="stroke:#181818;stroke-width:0.5;" width="4" x="415" y="188.5379"/><rect fill="#F1F1F1" height="2" style="stroke:#181818;stroke-width:0.5;" width="4" x="415" y="192.5379"/><text fill="#000000" font-family="sans-serif" font-size="14" lengthAdjust="spacing" textLength="79" x="333" y="216.5039">publish.yml</text></g><!--entity githubActions--><g id="elem_githubActions"><rect fill="#F1F1F1" height="49.0679" rx="2.5" ry="2.5" style="stroke:#181818;stroke-width:0.5;" width="140" x="307.5" y="97.5379"/><rect fill="#F1F1F1" height="10" style="stroke:#181818;stroke-width:0.5;" width="15" x="427.5" y="102.5379"/><rect fill="#F1F1F1" height="2" style="stroke:#181818;stroke-width:0.5;" width="4" x="425.5" y="104.5379"/><rect fill="#F1F1F1" height="2" style="stroke:#181818;stroke-width:0.5;" width="4" x="425.5" y="108.5379"/><text fill="#000000" font-family="sans-serif" font-size="14" lengthAdjust="spacing" textLength="100" x="322.5" y="132.5039">GitHub Actions</text></g><!--entity appImage--><g id="elem_appImage"><rect fill="#F1F1F1" height="68.1358" rx="2.5" ry="2.5" style="stroke:#181818;stroke-width:0.5;" width="163" x="296" y="348.9979"/><rect fill="#F1F1F1" height="10" style="stroke:#181818;stroke-width:0.5;" width="15" x="439" y="353.9979"/><rect fill="#F1F1F1" height="2" style="stroke:#181818;stroke-width:0.5;" width="4" x="437" y="355.9979"/><rect fill="#F1F1F1" height="2" style="stroke:#181818;stroke-width:0.5;" width="4" x="437" y="359.9979"/><text fill="#000000" font-family="sans-serif" font-size="14" lengthAdjust="spacing" textLength="123" x="311" y="383.9639">Application Image</text><text fill="#000000" font-family="sans-serif" font-size="14" lengthAdjust="spacing" textLength="77" x="311" y="403.0318">HoppyBrew</text></g><!--entity cloudflareImage--><g id="elem_cloudflareImage"><rect fill="#F1F1F1" height="49.0679" rx="2.5" ry="2.5" style="stroke:#181818;stroke-width:0.5;" width="157" x="299" y="452.5379"/><rect fill="#F1F1F1" height="10" style="stroke:#181818;stroke-width:0.5;" width="15" x="436" y="457.5379"/><rect fill="#F1F1F1" height="2" style="stroke:#181818;stroke-width:0.5;" width="4" x="434" y="459.5379"/><rect fill="#F1F1F1" height="2" style="stroke:#181818;stroke-width:0.5;" width="4" x="434" y="463.5379"/><text fill="#000000" font-family="sans-serif" font-size="14" lengthAdjust="spacing" textLength="117" x="314" y="487.5039">Cloudflare Image</text></g><!--entity databaseImage--><g id="elem_databaseImage"><rect fill="#F1F1F1" height="49.0679" rx="2.5" ry="2.5" style="stroke:#181818;stroke-width:0.5;" width="150" x="302.5" y="536.5379"/><rect fill="#F1F1F1" height="10" style="stroke:#181818;stroke-width:0.5;" width="15" x="432.5" y="541.5379"/><rect fill="#F1F1F1" height="2" style="stroke:#181818;stroke-width:0.5;" width="4" x="430.5" y="543.5379"/><rect fill="#F1F1F1" height="2" style="stroke:#181818;stroke-width:0.5;" width="4" x="430.5" y="547.5379"/><text fill="#000000" font-family="sans-serif" font-size="14" lengthAdjust="spacing" textLength="110" x="317.5" y="571.5039">Database Image</text></g><!--entity cloudflareTunnel--><g id="elem_cloudflareTunnel"><rect fill="#F1F1F1" height="49.0679" rx="2.5" ry="2.5" style="stroke:#181818;stroke-width:0.5;" width="161" x="692.5" y="452.5379"/><rect fill="#F1F1F1" height="10" style="stroke:#181818;stroke-width:0.5;" width="15" x="833.5" y="457.5379"/><rect fill="#F1F1F1" height="2" style="stroke:#181818;stroke-width:0.5;" width="4" x="831.5" y="459.5379"/><rect fill="#F1F1F1" height="2" style="stroke:#181818;stroke-width:0.5;" width="4" x="831.5" y="463.5379"/><text fill="#000000" font-family="sans-serif" font-size="14" lengthAdjust="spacing" textLength="121" x="707.5" y="487.5039">Cloudflare Tunnel</text></g><!--entity hoppybrew--><g id="elem_hoppybrew"><rect fill="#F1F1F1" height="49.0679" rx="2.5" ry="2.5" style="stroke:#181818;stroke-width:0.5;" width="117" x="714.5" y="300.5379"/><rect fill="#F1F1F1" height="10" style="stroke:#181818;stroke-width:0.5;" width="15" x="811.5" y="305.5379"/><rect fill="#F1F1F1" height="2" style="stroke:#181818;stroke-width:0.5;" width="4" x="809.5" y="307.5379"/><rect fill="#F1F1F1" height="2" style="stroke:#181818;stroke-width:0.5;" width="4" x="809.5" y="311.5379"/><text fill="#000000" font-family="sans-serif" font-size="14" lengthAdjust="spacing" textLength="77" x="729.5" y="335.5039">HoppyBrew</text></g><!--entity postgres--><g id="elem_postgres"><path d="M724.5,614.0379 C724.5,604.0379 773,604.0379 773,604.0379 C773,604.0379 821.5,604.0379 821.5,614.0379 L821.5,642.1058 C821.5,652.1058 773,652.1058 773,652.1058 C773,652.1058 724.5,652.1058 724.5,642.1058 L724.5,614.0379 " fill="#F1F1F1" style="stroke:#181818;stroke-width:0.5;"/><path d="M724.5,614.0379 C724.5,624.0379 773,624.0379 773,624.0379 C773,624.0379 821.5,624.0379 821.5,614.0379 " fill="none" style="stroke:#181818;stroke-width:0.5;"/><text fill="#000000" font-family="sans-serif" font-size="14" lengthAdjust="spacing" textLength="77" x="734.5" y="643.0039">PostgreSQL</text></g><!--link github to appImage--><g id="link_github_appImage"><path d="M113.8363,274.0917 C114.0253,274.1701 114.2156,274.2491 114.407,274.3285 C114.7898,274.4873 115.1773,274.6481 115.5695,274.8109 C128.1203,280.0189 145.4506,287.2098 165.2663,295.4317 C204.8975,311.8754 237.8439,325.5457 279.0039,342.6207 " fill="none" id="github-to-appImage" style="stroke:#181818;stroke-width:1.0;stroke-dasharray:7.0,7.0;"/><polygon fill="none" points="295.63,349.5179,281.303,337.0786,276.7048,348.1627,295.63,349.5179" style="stroke:#181818;stroke-width:1.0;"/><text fill="#000000" font-family="sans-serif" font-size="13" lengthAdjust="spacing" textLength="85" x="178" y="296.5349">Publish Image</text></g><!--link appImage to hoppybrew--><g id="link_appImage_hoppybrew"><path d="M476.8878,368.5645 C552.7778,357.3845 628.9726,346.1541 696.3726,336.2141 " fill="none" id="appImage-hoppybrew" style="stroke:#181818;stroke-width:1.0;"/><polygon fill="none" points="459.08,371.1879,477.7623,374.5004,476.0133,362.6286,459.08,371.1879" style="stroke:#181818;stroke-width:1.0;"/><polygon fill="none" points="714.18,333.5879,695.4972,330.2783,697.248,342.1499,714.18,333.5879" style="stroke:#181818;stroke-width:1.0;"/><text fill="#000000" font-family="sans-serif" font-size="13" lengthAdjust="spacing" textLength="109" x="496.5" y="346.4949">Download Update</text></g><!--link cloudflareImage to cloudflareTunnel--><g id="link_cloudflareImage_cloudflareTunnel"><path d="M474.24,477.0679 C542.44,477.0679 605.21,477.0679 674.06,477.0679 " fill="none" id="cloudflareImage-cloudflareTunnel" style="stroke:#181818;stroke-width:1.0;"/><polygon fill="none" points="456.24,477.0679,474.24,483.0679,474.24,471.0679,456.24,477.0679" style="stroke:#181818;stroke-width:1.0;"/><polygon fill="none" points="692.06,477.0679,674.06,471.0679,674.06,483.0679,692.06,477.0679" style="stroke:#181818;stroke-width:1.0;"/><text fill="#000000" font-family="sans-serif" font-size="13" lengthAdjust="spacing" textLength="109" x="496.5" y="472.9649">Download Update</text></g><!--link databaseImage to postgres--><g id="link_databaseImage_postgres"><path d="M470.7247,576.7689 C550.3747,590.3289 638.8453,605.397 706.3953,616.897 " fill="none" id="databaseImage-postgres" style="stroke:#181818;stroke-width:1.0;"/><polygon fill="none" points="452.98,573.7479,469.7177,582.6838,471.7317,570.854,452.98,573.7479" style="stroke:#181818;stroke-width:1.0;"/><polygon fill="none" points="724.14,619.9179,707.4023,610.9821,705.3883,622.8119,724.14,619.9179" style="stroke:#181818;stroke-width:1.0;"/><text fill="#000000" font-family="sans-serif" font-size="13" lengthAdjust="spacing" textLength="109" x="496.5" y="578.6349">Download Update</text></g><!--SRC=[bL91ReCm4Bpx5IlkoGEggb8QggPI3wdIt78ni06hnhQCQHGr_NiDYmbGegeSBErwnZiph1DE8iHef3wNg1p4WkUMbun9F3fm6gp82mUPi9WweHLZIcS8qRDmcpg9W5UG2rVK2Nmny5-gIwDLyrAqzi24LzY2qgwOWcATVg0z2acmh2-dG5CdKbJ5ybpA5jdLKnZfWbKhjXhewphiEpYWoH1SqEJDd96LCLAalE73IybpFAYDDkRyQF7KShanRVzN0bBNsL5oYyIZ9FhcB2VcZZT13HXPro9yRs2lB1SPxD1-ecs1DNN8mCZbayg5yg_HrVNwgl2WEkXQAySzs0xHjuszrqgXd3YZPi_saiTZ1ud-Q-uuzgAf4b_T7XJI_7jA21cYhQvSRd7tzagBHcKr64Ad7zQj_d9vUUYN0EvWIxj9lv3r5_UNnS83UzaU6UkJaffdi3TU0BB9SWJADDaPvcX90Yzedy7_0000]--></g></svg>