<svg xmlns="http://www.w3.org/2000/svg" xmlns:xlink="http://www.w3.org/1999/xlink" contentStyleType="text/css" data-diagram-type="CLASS" height="588px" preserveAspectRatio="none" style="width:555px;height:588px;background:#FFFFFF;" version="1.1" viewBox="0 0 555 588" width="555px" zoomAndPan="magnify"><defs/><g><!--cluster Order management system--><g class="cluster" data-entity="Order management system" data-source-line="4" data-uid="ent0002" id="cluster_Order management system"><path d="M8.5,6.602 L200.2108,6.602 A3.75,3.75 0 0 1 202.7108,9.102 L209.7108,31.6699 L540.5,31.6699 A2.5,2.5 0 0 1 543,34.1699 L543,579.102 A2.5,2.5 0 0 1 540.5,581.602 L8.5,581.602 A2.5,2.5 0 0 1 6,579.102 L6,9.102 A2.5,2.5 0 0 1 8.5,6.602" fill="none" style="stroke:#000000;stroke-width:1.5;"/><line style="stroke:#000000;stroke-width:1.5;" x1="6" x2="209.7108" y1="31.6699" y2="31.6699"/><text fill="#000000" font-family="sans-serif" font-size="14" font-weight="bold" lengthAdjust="spacing" textLength="190.7108" x="10" y="23.5679">Order management system</text></g><!--class ILog--><g class="entity" data-entity="ILog" data-source-line="6" data-uid="ent0003" id="entity_ILog"><rect fill="#CCCCCC" height="42" rx="2.5" ry="2.5" style="stroke:#AAAAAA;stroke-width:0.5;" width="47.3839" x="36.31" y="66.602"/><ellipse cx="48.31" cy="79.602" fill="#B4A7E5" rx="8" ry="8" style="stroke:#181818;stroke-width:1;"/><path d="M49.935,83.602 L46.7475,83.602 L46.7475,82.7114 L47.6694,82.5082 L47.6694,76.5082 L46.7475,76.2895 L46.7475,75.3989 L49.935,75.3989 L49.935,76.2895 L49.0131,76.5082 L49.0131,82.5082 L49.935,82.7114 L49.935,83.602 Z " fill="#000000"/><text fill="#333333" font-family="Verdana" font-size="11" font-style="italic" lengthAdjust="spacing" textLength="21.3839" x="59.31" y="83.87">ILog</text><line style="stroke:#AAAAAA;stroke-width:0.5;" x1="37.31" x2="82.6939" y1="92.602" y2="92.602"/><line style="stroke:#AAAAAA;stroke-width:0.5;" x1="37.31" x2="82.6939" y1="100.602" y2="100.602"/></g><!--class IDisplay--><g class="entity" data-entity="IDisplay" data-source-line="7" data-uid="ent0004" id="entity_IDisplay"><rect fill="#CCCCCC" height="42" rx="2.5" ry="2.5" style="stroke:#AAAAAA;stroke-width:0.5;" width="65.0827" x="118.46" y="66.602"/><ellipse cx="130.46" cy="79.602" fill="#B4A7E5" rx="8" ry="8" style="stroke:#181818;stroke-width:1;"/><path d="M132.085,83.602 L128.8975,83.602 L128.8975,82.7114 L129.8194,82.5082 L129.8194,76.5082 L128.8975,76.2895 L128.8975,75.3989 L132.085,75.3989 L132.085,76.2895 L131.1631,76.5082 L131.1631,82.5082 L132.085,82.7114 L132.085,83.602 Z " fill="#000000"/><text fill="#333333" font-family="Verdana" font-size="11" font-style="italic" lengthAdjust="spacing" textLength="39.0827" x="141.46" y="83.87">IDisplay</text><line style="stroke:#AAAAAA;stroke-width:0.5;" x1="119.46" x2="182.5427" y1="92.602" y2="92.602"/><line style="stroke:#AAAAAA;stroke-width:0.5;" x1="119.46" x2="182.5427" y1="100.602" y2="100.602"/></g><!--class ICalendarObserver--><g class="entity" data-entity="ICalendarObserver" data-source-line="8" data-uid="ent0005" id="entity_ICalendarObserver"><rect fill="#CCCCCC" height="42" rx="2.5" ry="2.5" style="stroke:#AAAAAA;stroke-width:0.5;" width="117.8823" x="310.06" y="66.602"/><ellipse cx="322.06" cy="79.602" fill="#B4A7E5" rx="8" ry="8" style="stroke:#181818;stroke-width:1;"/><path d="M323.685,83.602 L320.4975,83.602 L320.4975,82.7114 L321.4194,82.5082 L321.4194,76.5082 L320.4975,76.2895 L320.4975,75.3989 L323.685,75.3989 L323.685,76.2895 L322.7631,76.5082 L322.7631,82.5082 L323.685,82.7114 L323.685,83.602 Z " fill="#000000"/><text fill="#333333" font-family="Verdana" font-size="11" font-style="italic" lengthAdjust="spacing" textLength="91.8823" x="333.06" y="83.87">ICalendarObserver</text><line style="stroke:#AAAAAA;stroke-width:0.5;" x1="311.06" x2="426.9423" y1="92.602" y2="92.602"/><line style="stroke:#AAAAAA;stroke-width:0.5;" x1="311.06" x2="426.9423" y1="100.602" y2="100.602"/></g><!--class OrderManager--><g class="entity" data-entity="OrderManager" data-source-line="10" data-uid="ent0006" id="entity_OrderManager"><rect fill="#CCCCCC" height="42" rx="2.5" ry="2.5" style="stroke:#AAAAAA;stroke-width:0.5;" width="103.2744" x="22.36" y="169.602"/><ellipse cx="34.36" cy="182.602" fill="#FF8800" rx="8" ry="8" style="stroke:#181818;stroke-width:1;"/><path d="M34.4694,179.5082 Q33.8756,179.5082 33.4069,179.7114 Q32.9381,179.8989 32.61,180.2895 Q32.2819,180.6645 32.0944,181.2426 Q31.9225,181.8051 31.9225,182.5082 Q31.9225,183.4457 32.2038,184.1176 Q32.5006,184.7895 33.0475,185.1489 Q33.5944,185.4926 34.4538,185.4926 Q34.9538,185.4926 35.3913,185.4145 Q35.8444,185.3207 36.5006,185.1332 L36.5006,186.352 Q35.9381,186.5551 35.4538,186.6332 Q34.9694,186.7114 34.3131,186.7114 Q33.0631,186.7114 32.2038,186.1957 Q31.36,185.6801 30.9381,184.727 Q30.5319,183.7582 30.5319,182.4926 Q30.5319,181.5707 30.7819,180.8051 Q31.0475,180.0395 31.5475,179.477 Q32.0475,178.9145 32.7819,178.602 Q33.5319,178.2895 34.4694,178.2895 Q35.0944,178.2895 35.6725,178.4301 Q36.2663,178.5551 36.8756,178.852 L36.3288,179.977 Q35.8288,179.7582 35.3913,179.6332 Q34.9694,179.5082 34.4694,179.5082 Z " fill="#000000"/><text fill="#333333" font-family="Verdana" font-size="11" lengthAdjust="spacing" textLength="77.2744" x="45.36" y="186.87">OrderManager</text><line style="stroke:#AAAAAA;stroke-width:0.5;" x1="23.36" x2="124.6344" y1="195.602" y2="195.602"/><line style="stroke:#AAAAAA;stroke-width:0.5;" x1="23.36" x2="124.6344" y1="203.602" y2="203.602"/></g><!--class Orders--><g class="entity" data-entity="Orders" data-source-line="12" data-uid="ent0009" id="entity_Orders"><rect fill="#CCCCCC" height="42" rx="2.5" ry="2.5" style="stroke:#AAAAAA;stroke-width:0.5;" width="61.9147" x="105.04" y="287.602"/><ellipse cx="117.04" cy="300.602" fill="#FF8800" rx="8" ry="8" style="stroke:#181818;stroke-width:1;"/><path d="M117.1494,297.5082 Q116.5556,297.5082 116.0869,297.7114 Q115.6181,297.8989 115.29,298.2895 Q114.9619,298.6645 114.7744,299.2426 Q114.6025,299.8051 114.6025,300.5082 Q114.6025,301.4457 114.8838,302.1176 Q115.1806,302.7895 115.7275,303.1489 Q116.2744,303.4926 117.1338,303.4926 Q117.6338,303.4926 118.0713,303.4145 Q118.5244,303.3207 119.1806,303.1332 L119.1806,304.352 Q118.6181,304.5551 118.1338,304.6332 Q117.6494,304.7114 116.9931,304.7114 Q115.7431,304.7114 114.8838,304.1957 Q114.04,303.6801 113.6181,302.727 Q113.2119,301.7582 113.2119,300.4926 Q113.2119,299.5707 113.4619,298.8051 Q113.7275,298.0395 114.2275,297.477 Q114.7275,296.9145 115.4619,296.602 Q116.2119,296.2895 117.1494,296.2895 Q117.7744,296.2895 118.3525,296.4301 Q118.9463,296.5551 119.5556,296.852 L119.0088,297.977 Q118.5088,297.7582 118.0713,297.6332 Q117.6494,297.5082 117.1494,297.5082 Z " fill="#000000"/><text fill="#333333" font-family="Verdana" font-size="11" lengthAdjust="spacing" textLength="35.9147" x="128.04" y="304.87">Orders</text><line style="stroke:#AAAAAA;stroke-width:0.5;" x1="106.04" x2="165.9547" y1="313.602" y2="313.602"/><line style="stroke:#AAAAAA;stroke-width:0.5;" x1="106.04" x2="165.9547" y1="321.602" y2="321.602"/></g><!--class Customer--><g class="entity" data-entity="Customer" data-source-line="13" data-uid="ent0011" id="entity_Customer"><rect fill="#CCCCCC" height="42" rx="2.5" ry="2.5" style="stroke:#AAAAAA;stroke-width:0.5;" width="76.6766" x="201.66" y="287.602"/><ellipse cx="213.66" cy="300.602" fill="#FF8800" rx="8" ry="8" style="stroke:#181818;stroke-width:1;"/><path d="M213.7694,297.5082 Q213.1756,297.5082 212.7069,297.7114 Q212.2381,297.8989 211.91,298.2895 Q211.5819,298.6645 211.3944,299.2426 Q211.2225,299.8051 211.2225,300.5082 Q211.2225,301.4457 211.5038,302.1176 Q211.8006,302.7895 212.3475,303.1489 Q212.8944,303.4926 213.7538,303.4926 Q214.2538,303.4926 214.6913,303.4145 Q215.1444,303.3207 215.8006,303.1332 L215.8006,304.352 Q215.2381,304.5551 214.7538,304.6332 Q214.2694,304.7114 213.6131,304.7114 Q212.3631,304.7114 211.5038,304.1957 Q210.66,303.6801 210.2381,302.727 Q209.8319,301.7582 209.8319,300.4926 Q209.8319,299.5707 210.0819,298.8051 Q210.3475,298.0395 210.8475,297.477 Q211.3475,296.9145 212.0819,296.602 Q212.8319,296.2895 213.7694,296.2895 Q214.3944,296.2895 214.9725,296.4301 Q215.5663,296.5551 216.1756,296.852 L215.6288,297.977 Q215.1288,297.7582 214.6913,297.6332 Q214.2694,297.5082 213.7694,297.5082 Z " fill="#000000"/><text fill="#333333" font-family="Verdana" font-size="11" lengthAdjust="spacing" textLength="50.6766" x="224.66" y="304.87">Customer</text><line style="stroke:#AAAAAA;stroke-width:0.5;" x1="202.66" x2="277.3366" y1="313.602" y2="313.602"/><line style="stroke:#AAAAAA;stroke-width:0.5;" x1="202.66" x2="277.3366" y1="321.602" y2="321.602"/></g><!--class Address--><g class="entity" data-entity="Address" data-source-line="13" data-uid="ent0012" id="entity_Address"><rect fill="#CCCCCC" height="42" rx="2.5" ry="2.5" style="stroke:#AAAAAA;stroke-width:0.5;" width="67.8437" x="370.08" y="523.602"/><ellipse cx="382.08" cy="536.602" fill="#FF8800" rx="8" ry="8" style="stroke:#181818;stroke-width:1;"/><path d="M382.1894,533.5082 Q381.5956,533.5082 381.1269,533.7114 Q380.6581,533.8989 380.33,534.2895 Q380.0019,534.6645 379.8144,535.2426 Q379.6425,535.8051 379.6425,536.5082 Q379.6425,537.4457 379.9238,538.1176 Q380.2206,538.7895 380.7675,539.1489 Q381.3144,539.4926 382.1738,539.4926 Q382.6738,539.4926 383.1113,539.4145 Q383.5644,539.3207 384.2206,539.1332 L384.2206,540.352 Q383.6581,540.5551 383.1738,540.6332 Q382.6894,540.7114 382.0331,540.7114 Q380.7831,540.7114 379.9238,540.1957 Q379.08,539.6801 378.6581,538.727 Q378.2519,537.7582 378.2519,536.4926 Q378.2519,535.5707 378.5019,534.8051 Q378.7675,534.0395 379.2675,533.477 Q379.7675,532.9145 380.5019,532.602 Q381.2519,532.2895 382.1894,532.2895 Q382.8144,532.2895 383.3925,532.4301 Q383.9863,532.5551 384.5956,532.852 L384.0488,533.977 Q383.5488,533.7582 383.1113,533.6332 Q382.6894,533.5082 382.1894,533.5082 Z " fill="#000000"/><text fill="#333333" font-family="Verdana" font-size="11" lengthAdjust="spacing" textLength="41.8437" x="393.08" y="540.87">Address</text><line style="stroke:#AAAAAA;stroke-width:0.5;" x1="371.08" x2="436.9237" y1="549.602" y2="549.602"/><line style="stroke:#AAAAAA;stroke-width:0.5;" x1="371.08" x2="436.9237" y1="557.602" y2="557.602"/></g><!--class CustomerBuilder--><g class="entity" data-entity="CustomerBuilder" data-source-line="14" data-uid="ent0014" id="entity_CustomerBuilder"><rect fill="#CCCCCC" height="42" rx="2.5" ry="2.5" style="stroke:#AAAAAA;stroke-width:0.5;" width="113.8124" x="269.09" y="405.602"/><ellipse cx="281.09" cy="418.602" fill="#FF8800" rx="8" ry="8" style="stroke:#181818;stroke-width:1;"/><path d="M281.1994,415.5082 Q280.6056,415.5082 280.1369,415.7114 Q279.6681,415.8989 279.34,416.2895 Q279.0119,416.6645 278.8244,417.2426 Q278.6525,417.8051 278.6525,418.5082 Q278.6525,419.4457 278.9338,420.1176 Q279.2306,420.7895 279.7775,421.1489 Q280.3244,421.4926 281.1838,421.4926 Q281.6838,421.4926 282.1213,421.4145 Q282.5744,421.3207 283.2306,421.1332 L283.2306,422.352 Q282.6681,422.5551 282.1838,422.6332 Q281.6994,422.7114 281.0431,422.7114 Q279.7931,422.7114 278.9338,422.1957 Q278.09,421.6801 277.6681,420.727 Q277.2619,419.7582 277.2619,418.4926 Q277.2619,417.5707 277.5119,416.8051 Q277.7775,416.0395 278.2775,415.477 Q278.7775,414.9145 279.5119,414.602 Q280.2619,414.2895 281.1994,414.2895 Q281.8244,414.2895 282.4025,414.4301 Q282.9963,414.5551 283.6056,414.852 L283.0588,415.977 Q282.5588,415.7582 282.1213,415.6332 Q281.6994,415.5082 281.1994,415.5082 Z " fill="#000000"/><text fill="#333333" font-family="Verdana" font-size="11" lengthAdjust="spacing" textLength="87.8124" x="292.09" y="422.87">CustomerBuilder</text><line style="stroke:#AAAAAA;stroke-width:0.5;" x1="270.09" x2="381.9024" y1="431.602" y2="431.602"/><line style="stroke:#AAAAAA;stroke-width:0.5;" x1="270.09" x2="381.9024" y1="439.602" y2="439.602"/></g><!--class Customers--><g class="entity" data-entity="Customers" data-source-line="16" data-uid="ent0017" id="entity_Customers"><rect fill="#CCCCCC" height="42" rx="2.5" ry="2.5" style="stroke:#AAAAAA;stroke-width:0.5;" width="81.9456" x="171.03" y="169.602"/><ellipse cx="183.03" cy="182.602" fill="#FF8800" rx="8" ry="8" style="stroke:#181818;stroke-width:1;"/><path d="M183.1394,179.5082 Q182.5456,179.5082 182.0769,179.7114 Q181.6081,179.8989 181.28,180.2895 Q180.9519,180.6645 180.7644,181.2426 Q180.5925,181.8051 180.5925,182.5082 Q180.5925,183.4457 180.8738,184.1176 Q181.1706,184.7895 181.7175,185.1489 Q182.2644,185.4926 183.1238,185.4926 Q183.6238,185.4926 184.0613,185.4145 Q184.5144,185.3207 185.1706,185.1332 L185.1706,186.352 Q184.6081,186.5551 184.1238,186.6332 Q183.6394,186.7114 182.9831,186.7114 Q181.7331,186.7114 180.8738,186.1957 Q180.03,185.6801 179.6081,184.727 Q179.2019,183.7582 179.2019,182.4926 Q179.2019,181.5707 179.4519,180.8051 Q179.7175,180.0395 180.2175,179.477 Q180.7175,178.9145 181.4519,178.602 Q182.2019,178.2895 183.1394,178.2895 Q183.7644,178.2895 184.3425,178.4301 Q184.9363,178.5551 185.5456,178.852 L184.9988,179.977 Q184.4988,179.7582 184.0613,179.6332 Q183.6394,179.5082 183.1394,179.5082 Z " fill="#000000"/><text fill="#333333" font-family="Verdana" font-size="11" lengthAdjust="spacing" textLength="55.9456" x="194.03" y="186.87">Customers</text><line style="stroke:#AAAAAA;stroke-width:0.5;" x1="172.03" x2="251.9756" y1="195.602" y2="195.602"/><line style="stroke:#AAAAAA;stroke-width:0.5;" x1="172.03" x2="251.9756" y1="203.602" y2="203.602"/></g><!--class Menus--><g class="entity" data-entity="Menus" data-source-line="18" data-uid="ent0020" id="entity_Menus"><rect fill="#CCCCCC" height="42" rx="2.5" ry="2.5" style="stroke:#AAAAAA;stroke-width:0.5;" width="61.0457" x="173.48" y="405.602"/><ellipse cx="185.48" cy="418.602" fill="#FF8800" rx="8" ry="8" style="stroke:#181818;stroke-width:1;"/><path d="M185.5894,415.5082 Q184.9956,415.5082 184.5269,415.7114 Q184.0581,415.8989 183.73,416.2895 Q183.4019,416.6645 183.2144,417.2426 Q183.0425,417.8051 183.0425,418.5082 Q183.0425,419.4457 183.3238,420.1176 Q183.6206,420.7895 184.1675,421.1489 Q184.7144,421.4926 185.5738,421.4926 Q186.0738,421.4926 186.5113,421.4145 Q186.9644,421.3207 187.6206,421.1332 L187.6206,422.352 Q187.0581,422.5551 186.5738,422.6332 Q186.0894,422.7114 185.4331,422.7114 Q184.1831,422.7114 183.3238,422.1957 Q182.48,421.6801 182.0581,420.727 Q181.6519,419.7582 181.6519,418.4926 Q181.6519,417.5707 181.9019,416.8051 Q182.1675,416.0395 182.6675,415.477 Q183.1675,414.9145 183.9019,414.602 Q184.6519,414.2895 185.5894,414.2895 Q186.2144,414.2895 186.7925,414.4301 Q187.3863,414.5551 187.9956,414.852 L187.4488,415.977 Q186.9488,415.7582 186.5113,415.6332 Q186.0894,415.5082 185.5894,415.5082 Z " fill="#000000"/><text fill="#333333" font-family="Verdana" font-size="11" lengthAdjust="spacing" textLength="35.0457" x="196.48" y="422.87">Menus</text><line style="stroke:#AAAAAA;stroke-width:0.5;" x1="174.48" x2="233.5257" y1="431.602" y2="431.602"/><line style="stroke:#AAAAAA;stroke-width:0.5;" x1="174.48" x2="233.5257" y1="439.602" y2="439.602"/></g><!--class PaymentGateway--><g class="entity" data-entity="PaymentGateway" data-source-line="19" data-uid="ent0022" id="entity_PaymentGateway"><rect fill="#CCCCCC" height="42" rx="2.5" ry="2.5" style="stroke:#AAAAAA;stroke-width:0.5;" width="116.4743" x="21.76" y="405.602"/><ellipse cx="33.76" cy="418.602" fill="#FF8800" rx="8" ry="8" style="stroke:#181818;stroke-width:1;"/><path d="M33.8694,415.5082 Q33.2756,415.5082 32.8069,415.7114 Q32.3381,415.8989 32.01,416.2895 Q31.6819,416.6645 31.4944,417.2426 Q31.3225,417.8051 31.3225,418.5082 Q31.3225,419.4457 31.6038,420.1176 Q31.9006,420.7895 32.4475,421.1489 Q32.9944,421.4926 33.8538,421.4926 Q34.3538,421.4926 34.7913,421.4145 Q35.2444,421.3207 35.9006,421.1332 L35.9006,422.352 Q35.3381,422.5551 34.8538,422.6332 Q34.3694,422.7114 33.7131,422.7114 Q32.4631,422.7114 31.6038,422.1957 Q30.76,421.6801 30.3381,420.727 Q29.9319,419.7582 29.9319,418.4926 Q29.9319,417.5707 30.1819,416.8051 Q30.4475,416.0395 30.9475,415.477 Q31.4475,414.9145 32.1819,414.602 Q32.9319,414.2895 33.8694,414.2895 Q34.4944,414.2895 35.0725,414.4301 Q35.6663,414.5551 36.2756,414.852 L35.7288,415.977 Q35.2288,415.7582 34.7913,415.6332 Q34.3694,415.5082 33.8694,415.5082 Z " fill="#000000"/><text fill="#333333" font-family="Verdana" font-size="11" lengthAdjust="spacing" textLength="90.4743" x="44.76" y="422.87">PaymentGateway</text><line style="stroke:#AAAAAA;stroke-width:0.5;" x1="22.76" x2="137.2343" y1="431.602" y2="431.602"/><line style="stroke:#AAAAAA;stroke-width:0.5;" x1="22.76" x2="137.2343" y1="439.602" y2="439.602"/></g><!--class Order--><g class="entity" data-entity="Order" data-source-line="20" data-uid="ent0024" id="entity_Order"><rect fill="#CCCCCC" height="42" rx="2.5" ry="2.5" style="stroke:#AAAAAA;stroke-width:0.5;" width="56.6458" x="313.68" y="287.602"/><ellipse cx="325.68" cy="300.602" fill="#FF8800" rx="8" ry="8" style="stroke:#181818;stroke-width:1;"/><path d="M325.7894,297.5082 Q325.1956,297.5082 324.7269,297.7114 Q324.2581,297.8989 323.93,298.2895 Q323.6019,298.6645 323.4144,299.2426 Q323.2425,299.8051 323.2425,300.5082 Q323.2425,301.4457 323.5238,302.1176 Q323.8206,302.7895 324.3675,303.1489 Q324.9144,303.4926 325.7738,303.4926 Q326.2738,303.4926 326.7113,303.4145 Q327.1644,303.3207 327.8206,303.1332 L327.8206,304.352 Q327.2581,304.5551 326.7738,304.6332 Q326.2894,304.7114 325.6331,304.7114 Q324.3831,304.7114 323.5238,304.1957 Q322.68,303.6801 322.2581,302.727 Q321.8519,301.7582 321.8519,300.4926 Q321.8519,299.5707 322.1019,298.8051 Q322.3675,298.0395 322.8675,297.477 Q323.3675,296.9145 324.1019,296.602 Q324.8519,296.2895 325.7894,296.2895 Q326.4144,296.2895 326.9925,296.4301 Q327.5863,296.5551 328.1956,296.852 L327.6488,297.977 Q327.1488,297.7582 326.7113,297.6332 Q326.2894,297.5082 325.7894,297.5082 Z " fill="#000000"/><text fill="#333333" font-family="Verdana" font-size="11" lengthAdjust="spacing" textLength="30.6458" x="336.68" y="304.87">Order</text><line style="stroke:#AAAAAA;stroke-width:0.5;" x1="314.68" x2="369.3258" y1="313.602" y2="313.602"/><line style="stroke:#AAAAAA;stroke-width:0.5;" x1="314.68" x2="369.3258" y1="321.602" y2="321.602"/></g><!--class Product--><g class="entity" data-entity="Product" data-source-line="22" data-uid="ent0026" id="entity_Product"><rect fill="#CCCCCC" height="42" rx="2.5" ry="2.5" style="stroke:#AAAAAA;stroke-width:0.5;" width="66.6667" x="460.67" y="287.602"/><ellipse cx="472.67" cy="300.602" fill="#FF8800" rx="8" ry="8" style="stroke:#181818;stroke-width:1;"/><path d="M472.7794,297.5082 Q472.1856,297.5082 471.7169,297.7114 Q471.2481,297.8989 470.92,298.2895 Q470.5919,298.6645 470.4044,299.2426 Q470.2325,299.8051 470.2325,300.5082 Q470.2325,301.4457 470.5138,302.1176 Q470.8106,302.7895 471.3575,303.1489 Q471.9044,303.4926 472.7638,303.4926 Q473.2638,303.4926 473.7013,303.4145 Q474.1544,303.3207 474.8106,303.1332 L474.8106,304.352 Q474.2481,304.5551 473.7638,304.6332 Q473.2794,304.7114 472.6231,304.7114 Q471.3731,304.7114 470.5138,304.1957 Q469.67,303.6801 469.2481,302.727 Q468.8419,301.7582 468.8419,300.4926 Q468.8419,299.5707 469.0919,298.8051 Q469.3575,298.0395 469.8575,297.477 Q470.3575,296.9145 471.0919,296.602 Q471.8419,296.2895 472.7794,296.2895 Q473.4044,296.2895 473.9825,296.4301 Q474.5763,296.5551 475.1856,296.852 L474.6388,297.977 Q474.1388,297.7582 473.7013,297.6332 Q473.2794,297.5082 472.7794,297.5082 Z " fill="#000000"/><text fill="#333333" font-family="Verdana" font-size="11" lengthAdjust="spacing" textLength="40.6667" x="483.67" y="304.87">Product</text><line style="stroke:#AAAAAA;stroke-width:0.5;" x1="461.67" x2="526.3367" y1="313.602" y2="313.602"/><line style="stroke:#AAAAAA;stroke-width:0.5;" x1="461.67" x2="526.3367" y1="321.602" y2="321.602"/></g><!--class OnlineOrder--><g class="entity" data-entity="OnlineOrder" data-source-line="23" data-uid="ent0028" id="entity_OnlineOrder"><rect fill="#CCCCCC" height="42" rx="2.5" ry="2.5" style="stroke:#AAAAAA;stroke-width:0.5;" width="90.7125" x="296.64" y="169.602"/><ellipse cx="308.64" cy="182.602" fill="#FF8800" rx="8" ry="8" style="stroke:#181818;stroke-width:1;"/><path d="M308.7494,179.5082 Q308.1556,179.5082 307.6869,179.7114 Q307.2181,179.8989 306.89,180.2895 Q306.5619,180.6645 306.3744,181.2426 Q306.2025,181.8051 306.2025,182.5082 Q306.2025,183.4457 306.4838,184.1176 Q306.7806,184.7895 307.3275,185.1489 Q307.8744,185.4926 308.7338,185.4926 Q309.2338,185.4926 309.6713,185.4145 Q310.1244,185.3207 310.7806,185.1332 L310.7806,186.352 Q310.2181,186.5551 309.7338,186.6332 Q309.2494,186.7114 308.5931,186.7114 Q307.3431,186.7114 306.4838,186.1957 Q305.64,185.6801 305.2181,184.727 Q304.8119,183.7582 304.8119,182.4926 Q304.8119,181.5707 305.0619,180.8051 Q305.3275,180.0395 305.8275,179.477 Q306.3275,178.9145 307.0619,178.602 Q307.8119,178.2895 308.7494,178.2895 Q309.3744,178.2895 309.9525,178.4301 Q310.5463,178.5551 311.1556,178.852 L310.6088,179.977 Q310.1088,179.7582 309.6713,179.6332 Q309.2494,179.5082 308.7494,179.5082 Z " fill="#000000"/><text fill="#333333" font-family="Verdana" font-size="11" lengthAdjust="spacing" textLength="64.7125" x="319.64" y="186.87">OnlineOrder</text><line style="stroke:#AAAAAA;stroke-width:0.5;" x1="297.64" x2="386.3525" y1="195.602" y2="195.602"/><line style="stroke:#AAAAAA;stroke-width:0.5;" x1="297.64" x2="386.3525" y1="203.602" y2="203.602"/></g><!--class Calendar--><g class="entity" data-entity="Calendar" data-source-line="24" data-uid="ent0030" id="entity_Calendar"><rect fill="#CCCCCC" height="42" rx="2.5" ry="2.5" style="stroke:#AAAAAA;stroke-width:0.5;" width="72.4417" x="454.78" y="405.602"/><ellipse cx="466.78" cy="418.602" fill="#FF8800" rx="8" ry="8" style="stroke:#181818;stroke-width:1;"/><path d="M466.8894,415.5082 Q466.2956,415.5082 465.8269,415.7114 Q465.3581,415.8989 465.03,416.2895 Q464.7019,416.6645 464.5144,417.2426 Q464.3425,417.8051 464.3425,418.5082 Q464.3425,419.4457 464.6238,420.1176 Q464.9206,420.7895 465.4675,421.1489 Q466.0144,421.4926 466.8738,421.4926 Q467.3738,421.4926 467.8113,421.4145 Q468.2644,421.3207 468.9206,421.1332 L468.9206,422.352 Q468.3581,422.5551 467.8738,422.6332 Q467.3894,422.7114 466.7331,422.7114 Q465.4831,422.7114 464.6238,422.1957 Q463.78,421.6801 463.3581,420.727 Q462.9519,419.7582 462.9519,418.4926 Q462.9519,417.5707 463.2019,416.8051 Q463.4675,416.0395 463.9675,415.477 Q464.4675,414.9145 465.2019,414.602 Q465.9519,414.2895 466.8894,414.2895 Q467.5144,414.2895 468.0925,414.4301 Q468.6863,414.5551 469.2956,414.852 L468.7488,415.977 Q468.2488,415.7582 467.8113,415.6332 Q467.3894,415.5082 466.8894,415.5082 Z " fill="#000000"/><text fill="#333333" font-family="Verdana" font-size="11" lengthAdjust="spacing" textLength="46.4417" x="477.78" y="422.87">Calendar</text><line style="stroke:#AAAAAA;stroke-width:0.5;" x1="455.78" x2="526.2217" y1="431.602" y2="431.602"/><line style="stroke:#AAAAAA;stroke-width:0.5;" x1="455.78" x2="526.2217" y1="439.602" y2="439.602"/></g><!--class Event--><g class="entity" data-entity="Event" data-source-line="25" data-uid="ent0032" id="entity_Event"><rect fill="#CCCCCC" height="42" rx="2.5" ry="2.5" style="stroke:#AAAAAA;stroke-width:0.5;" width="54.6768" x="472.66" y="523.602"/><ellipse cx="484.66" cy="536.602" fill="#FF8800" rx="8" ry="8" style="stroke:#181818;stroke-width:1;"/><path d="M484.7694,533.5082 Q484.1756,533.5082 483.7069,533.7114 Q483.2381,533.8989 482.91,534.2895 Q482.5819,534.6645 482.3944,535.2426 Q482.2225,535.8051 482.2225,536.5082 Q482.2225,537.4457 482.5038,538.1176 Q482.8006,538.7895 483.3475,539.1489 Q483.8944,539.4926 484.7538,539.4926 Q485.2538,539.4926 485.6913,539.4145 Q486.1444,539.3207 486.8006,539.1332 L486.8006,540.352 Q486.2381,540.5551 485.7538,540.6332 Q485.2694,540.7114 484.6131,540.7114 Q483.3631,540.7114 482.5038,540.1957 Q481.66,539.6801 481.2381,538.727 Q480.8319,537.7582 480.8319,536.4926 Q480.8319,535.5707 481.0819,534.8051 Q481.3475,534.0395 481.8475,533.477 Q482.3475,532.9145 483.0819,532.602 Q483.8319,532.2895 484.7694,532.2895 Q485.3944,532.2895 485.9725,532.4301 Q486.5663,532.5551 487.1756,532.852 L486.6288,533.977 Q486.1288,533.7582 485.6913,533.6332 Q485.2694,533.5082 484.7694,533.5082 Z " fill="#000000"/><text fill="#333333" font-family="Verdana" font-size="11" lengthAdjust="spacing" textLength="28.6768" x="495.66" y="540.87">Event</text><line style="stroke:#AAAAAA;stroke-width:0.5;" x1="473.66" x2="526.3368" y1="549.602" y2="549.602"/><line style="stroke:#AAAAAA;stroke-width:0.5;" x1="473.66" x2="526.3368" y1="557.602" y2="557.602"/></g><!--class CreditCardPayment--><g class="entity" data-entity="CreditCardPayment" data-source-line="27" data-uid="ent0034" id="entity_CreditCardPayment"><rect fill="#CCCCCC" height="42" rx="2.5" ry="2.5" style="stroke:#AAAAAA;stroke-width:0.5;" width="127.3973" x="177.3" y="523.602"/><ellipse cx="189.3" cy="536.602" fill="#FF8800" rx="8" ry="8" style="stroke:#181818;stroke-width:1;"/><path d="M189.4094,533.5082 Q188.8156,533.5082 188.3469,533.7114 Q187.8781,533.8989 187.55,534.2895 Q187.2219,534.6645 187.0344,535.2426 Q186.8625,535.8051 186.8625,536.5082 Q186.8625,537.4457 187.1438,538.1176 Q187.4406,538.7895 187.9875,539.1489 Q188.5344,539.4926 189.3938,539.4926 Q189.8938,539.4926 190.3313,539.4145 Q190.7844,539.3207 191.4406,539.1332 L191.4406,540.352 Q190.8781,540.5551 190.3938,540.6332 Q189.9094,540.7114 189.2531,540.7114 Q188.0031,540.7114 187.1438,540.1957 Q186.3,539.6801 185.8781,538.727 Q185.4719,537.7582 185.4719,536.4926 Q185.4719,535.5707 185.7219,534.8051 Q185.9875,534.0395 186.4875,533.477 Q186.9875,532.9145 187.7219,532.602 Q188.4719,532.2895 189.4094,532.2895 Q190.0344,532.2895 190.6125,532.4301 Q191.2063,532.5551 191.8156,532.852 L191.2688,533.977 Q190.7688,533.7582 190.3313,533.6332 Q189.9094,533.5082 189.4094,533.5082 Z " fill="#000000"/><text fill="#333333" font-family="Verdana" font-size="11" lengthAdjust="spacing" textLength="101.3973" x="200.3" y="540.87">CreditCardPayment</text><line style="stroke:#AAAAAA;stroke-width:0.5;" x1="178.3" x2="303.6973" y1="549.602" y2="549.602"/><line style="stroke:#AAAAAA;stroke-width:0.5;" x1="178.3" x2="303.6973" y1="557.602" y2="557.602"/></g><!--class PayPalPayment--><g class="entity" data-entity="PayPalPayment" data-source-line="28" data-uid="ent0036" id="entity_PayPalPayment"><rect fill="#CCCCCC" height="42" rx="2.5" ry="2.5" style="stroke:#AAAAAA;stroke-width:0.5;" width="105.7934" x="22.1" y="523.602"/><ellipse cx="34.1" cy="536.602" fill="#FF8800" rx="8" ry="8" style="stroke:#181818;stroke-width:1;"/><path d="M34.2094,533.5082 Q33.6156,533.5082 33.1469,533.7114 Q32.6781,533.8989 32.35,534.2895 Q32.0219,534.6645 31.8344,535.2426 Q31.6625,535.8051 31.6625,536.5082 Q31.6625,537.4457 31.9438,538.1176 Q32.2406,538.7895 32.7875,539.1489 Q33.3344,539.4926 34.1938,539.4926 Q34.6938,539.4926 35.1313,539.4145 Q35.5844,539.3207 36.2406,539.1332 L36.2406,540.352 Q35.6781,540.5551 35.1938,540.6332 Q34.7094,540.7114 34.0531,540.7114 Q32.8031,540.7114 31.9438,540.1957 Q31.1,539.6801 30.6781,538.727 Q30.2719,537.7582 30.2719,536.4926 Q30.2719,535.5707 30.5219,534.8051 Q30.7875,534.0395 31.2875,533.477 Q31.7875,532.9145 32.5219,532.602 Q33.2719,532.2895 34.2094,532.2895 Q34.8344,532.2895 35.4125,532.4301 Q36.0063,532.5551 36.6156,532.852 L36.0688,533.977 Q35.5688,533.7582 35.1313,533.6332 Q34.7094,533.5082 34.2094,533.5082 Z " fill="#000000"/><text fill="#333333" font-family="Verdana" font-size="11" lengthAdjust="spacing" textLength="79.7934" x="45.1" y="540.87">PayPalPayment</text><line style="stroke:#AAAAAA;stroke-width:0.5;" x1="23.1" x2="126.8934" y1="549.602" y2="549.602"/><line style="stroke:#AAAAAA;stroke-width:0.5;" x1="23.1" x2="126.8934" y1="557.602" y2="557.602"/></g><!--reverse link ILog to OrderManager--><g class="link" data-entity-1="ILog" data-entity-2="OrderManager" data-source-line="10" data-uid="lnk7" id="link_ILog_OrderManager"><path codeLine="10" d="M65.3029,126.8713 C67.7329,144.3913 68.74,151.682 71.17,169.192" fill="none" id="ILog-backto-OrderManager" style="stroke:#000000;stroke-width:1;stroke-dasharray:7,7;"/><polygon fill="none" points="62.83,109.042,59.3598,127.6956,71.246,126.047,62.83,109.042" style="stroke:#000000;stroke-width:1;"/></g><!--reverse link IDisplay to OrderManager--><g class="link" data-entity-1="IDisplay" data-entity-2="OrderManager" data-source-line="11" data-uid="lnk8" id="link_IDisplay_OrderManager"><path codeLine="11" d="M124.5053,123.3553 C111.1453,140.8753 102.91,151.682 89.56,169.192" fill="none" id="IDisplay-backto-OrderManager" style="stroke:#000000;stroke-width:1;stroke-dasharray:7,7;"/><polygon fill="none" points="135.42,109.042,119.7342,119.717,129.2764,126.9935,135.42,109.042" style="stroke:#000000;stroke-width:1;"/></g><!--link OrderManager to Orders--><g class="link" data-entity-1="OrderManager" data-entity-2="Orders" data-source-line="12" data-uid="lnk10" id="link_OrderManager_Orders"><path codeLine="12" d="M64.27,212.002 C59.25,225.612 55.58,243.522 63,257.602 C71.88,274.452 83.9749,283.9282 99.5549,292.0882" fill="none" id="OrderManager-to-Orders" style="stroke:#000000;stroke-width:1;"/><polygon fill="#000000" points="104.87,294.872,98.7532,287.1529,100.4407,292.5522,95.0415,294.2397,104.87,294.872" style="stroke:#000000;stroke-width:1;"/><text fill="#333333" font-family="Verdana" font-size="11" lengthAdjust="spacing" textLength="47.6627" x="64" y="254.3609">manages</text><text fill="#333333" font-family="Verdana" font-size="11" lengthAdjust="spacing" textLength="6.2919" x="54.8888" y="231.5253">1</text></g><!--link Customer to Address--><g class="link" data-entity-1="Customer" data-entity-2="Address" data-source-line="13" data-uid="lnk13" id="link_Customer_Address"><path codeLine="13" d="M278.56,328.122 C320.74,349.142 384.43,383.382 400,405.602 C424.62,440.742 418.1712,488.3779 411.2112,517.3579" fill="none" id="Customer-to-Address" style="stroke:#000000;stroke-width:1;"/><polygon fill="#000000" points="409.81,523.192,415.8011,515.3749,410.9776,518.3302,408.0223,513.5067,409.81,523.192" style="stroke:#000000;stroke-width:1;"/><text fill="#333333" font-family="Verdana" font-size="11" lengthAdjust="spacing" textLength="6.2919" x="286.2498" y="328.2798">1</text><text fill="#333333" font-family="Verdana" font-size="11" lengthAdjust="spacing" textLength="6.2919" x="404.7147" y="512.4007">1</text></g><!--link Customer to CustomerBuilder--><g class="link" data-entity-1="Customer" data-entity-2="CustomerBuilder" data-source-line="14" data-uid="lnk15" id="link_Customer_CustomerBuilder"><path codeLine="14" d="M255.18,330.072 C270.9,351.282 291.7363,379.3923 307.3963,400.5123" fill="none" id="Customer-to-CustomerBuilder" style="stroke:#000000;stroke-width:1;"/><polygon fill="#000000" points="310.97,405.332,308.8226,395.7201,307.992,401.3156,302.3964,400.485,310.97,405.332" style="stroke:#000000;stroke-width:1;"/><text fill="#333333" font-family="Verdana" font-size="11" lengthAdjust="spacing" textLength="6.2919" x="252.339" y="349.2521">1</text><text fill="#333333" font-family="Verdana" font-size="11" lengthAdjust="spacing" textLength="6.2919" x="299.2707" y="394.2363">1</text></g><!--link CustomerBuilder to Address--><g class="link" data-entity-1="CustomerBuilder" data-entity-2="Address" data-source-line="15" data-uid="lnk16" id="link_CustomerBuilder_Address"><path codeLine="15" d="M376.56,448.042 C388.66,455.472 400.08,465.192 407,477.602 C414.71,491.422 414.519,503.6599 411.519,517.4099" fill="none" id="CustomerBuilder-to-Address" style="stroke:#000000;stroke-width:1;"/><polygon fill="#000000" points="410.24,523.272,416.0666,515.3315,411.3058,518.3869,408.2504,513.6262,410.24,523.272" style="stroke:#000000;stroke-width:1;"/><text fill="#333333" font-family="Verdana" font-size="11" lengthAdjust="spacing" textLength="6.2919" x="382.7856" y="467.2144">1</text><text fill="#333333" font-family="Verdana" font-size="11" lengthAdjust="spacing" textLength="6.2919" x="413.1139" y="512.5052">1</text></g><!--link Customers to Customer--><g class="link" data-entity-1="Customers" data-entity-2="Customer" data-source-line="16" data-uid="lnk18" id="link_Customers_Customer"><path codeLine="16" d="M232.98,212.102 C240.14,220.492 247.28,230.772 251,241.602 C256.1,256.432 254.6057,268.2629 250.3157,281.5329" fill="none" id="Customers-to-Customer" style="stroke:#000000;stroke-width:1;"/><polygon fill="#000000" points="248.47,287.242,255.0445,279.9088,250.0081,282.4844,247.4324,277.4479,248.47,287.242" style="stroke:#000000;stroke-width:1;"/><text fill="#333333" font-family="Verdana" font-size="11" lengthAdjust="spacing" textLength="3.091" x="234.9827" y="231.2898">`</text><text fill="#333333" font-family="Verdana" font-size="11" lengthAdjust="spacing" textLength="18.2489" x="230.3463" y="276.466">0..*</text></g><!--link Customers to Orders--><g class="link" data-entity-1="Customers" data-entity-2="Orders" data-source-line="17" data-uid="lnk19" id="link_Customers_Orders"><path codeLine="17" d="M179.99,212.092 C169.68,220.152 159.1,230.202 152,241.602 C143.4,255.412 140.2158,267.565 138.3758,281.315" fill="none" id="Customers-to-Orders" style="stroke:#000000;stroke-width:1;"/><polygon fill="#000000" points="137.58,287.262,142.7384,278.872,138.2432,282.3062,134.8091,277.811,137.58,287.262" style="stroke:#000000;stroke-width:1;"/><text fill="#333333" font-family="Verdana" font-size="11" lengthAdjust="spacing" textLength="32.5268" x="153" y="254.3609">places</text></g><!--link Orders to Menus--><g class="link" data-entity-1="Orders" data-entity-2="Menus" data-source-line="18" data-uid="lnk21" id="link_Orders_Menus"><path codeLine="18" d="M148,330.072 C160.43,351.282 176.694,379.0368 189.084,400.1568" fill="none" id="Orders-to-Menus" style="stroke:#000000;stroke-width:1;"/><polygon fill="#000000" points="192.12,405.332,191.0161,395.5452,189.59,401.0193,184.1158,399.5932,192.12,405.332" style="stroke:#000000;stroke-width:1;"/><text fill="#333333" font-family="Verdana" font-size="11" lengthAdjust="spacing" textLength="18.2379" x="175.07" y="372.3609">has</text><text fill="#333333" font-family="Verdana" font-size="11" lengthAdjust="spacing" textLength="6.2919" x="144.3443" y="349.2521">1</text></g><!--link Orders to PaymentGateway--><g class="link" data-entity-1="Orders" data-entity-2="PaymentGateway" data-source-line="19" data-uid="lnk23" id="link_Orders_PaymentGateway"><path codeLine="19" d="M114.48,329.742 C106.59,338.242 98.3,348.682 93,359.602 C86.06,373.892 83.4831,385.6587 81.9831,399.1487" fill="none" id="Orders-to-PaymentGateway" style="stroke:#000000;stroke-width:1;"/><polygon fill="#000000" points="81.32,405.112,86.2901,396.6092,81.8726,400.1426,78.3391,395.7251,81.32,405.112" style="stroke:#000000;stroke-width:1;"/><text fill="#333333" font-family="Verdana" font-size="11" lengthAdjust="spacing" textLength="51.4576" x="94" y="372.3609">processes</text><text fill="#333333" font-family="Verdana" font-size="11" lengthAdjust="spacing" textLength="6.2919" x="101.9302" y="349.1955">1</text></g><!--link Orders to Order--><g class="link" data-entity-1="Orders" data-entity-2="Order" data-source-line="20" data-uid="lnk25" id="link_Orders_Order"><path codeLine="20" d="M150.79,287.212 C161.18,274.182 176.34,258.672 194,251.432 C217.03,241.992 226.07,244.602 250,251.432 C274.59,258.452 299.02,274.152 316.52,287.322" fill="none" id="Orders-Order" style="stroke:#000000;stroke-width:1;"/><text fill="#333333" font-family="Verdana" font-size="11" lengthAdjust="spacing" textLength="54.6476" x="195" y="254.3609">consists of</text><text fill="#333333" font-family="Verdana" font-size="11" lengthAdjust="spacing" textLength="18.2489" x="134.6021" y="276.4268">0..*</text><text fill="#333333" font-family="Verdana" font-size="11" lengthAdjust="spacing" textLength="18.2489" x="287.5682" y="276.2231">1..*</text></g><!--link Order to Product--><g class="link" data-entity-1="Order" data-entity-2="Product" data-source-line="22" data-uid="lnk27" id="link_Order_Product"><path codeLine="22" d="M370.59,308.602 C396.05,308.602 433.32,308.602 460.23,308.602" fill="none" id="Order-Product" style="stroke:#000000;stroke-width:1;"/><text fill="#333333" font-family="Verdana" font-size="11" lengthAdjust="spacing" textLength="54.6476" x="388.49" y="302.3609">consists of</text><text fill="#333333" font-family="Verdana" font-size="11" lengthAdjust="spacing" textLength="18.2489" x="378.368" y="321.9059">0..*</text><text fill="#333333" font-family="Verdana" font-size="11" lengthAdjust="spacing" textLength="18.2489" x="434.3666" y="321.742">1..*</text></g><!--link OnlineOrder to Order--><g class="link" data-entity-1="OnlineOrder" data-entity-2="Order" data-source-line="23" data-uid="lnk29" id="link_OnlineOrder_Order"><path codeLine="23" d="M342,212.072 C342,233.282 342,248.212 342,269.332" fill="none" id="OnlineOrder-to-Order" style="stroke:#000000;stroke-width:1;"/><polygon fill="none" points="342,287.332,348,269.332,336,269.332,342,287.332" style="stroke:#000000;stroke-width:1;"/><text fill="#333333" font-family="Verdana" font-size="11" lengthAdjust="spacing" textLength="69.8055" x="343" y="254.3609">specialization</text></g><!--link Order to Calendar--><g class="link" data-entity-1="Order" data-entity-2="Calendar" data-source-line="24" data-uid="lnk31" id="link_Order_Calendar"><path codeLine="24" d="M370.78,323.702 C388.13,332.832 410.23,345.592 428,359.602 C445.29,373.232 462.38,391.522 474.39,405.392" fill="none" id="Order-Calendar" style="stroke:#000000;stroke-width:1;"/><text fill="#333333" font-family="Verdana" font-size="11" lengthAdjust="spacing" textLength="18.2379" x="445.95" y="372.3609">has</text><text fill="#333333" font-family="Verdana" font-size="11" lengthAdjust="spacing" textLength="6.2919" x="378.1622" y="340.685">1</text><text fill="#333333" font-family="Verdana" font-size="11" lengthAdjust="spacing" textLength="6.2919" x="462.1856" y="394.3154">1</text></g><!--link Calendar to Event--><g class="link" data-entity-1="Calendar" data-entity-2="Event" data-source-line="25" data-uid="lnk33" id="link_Calendar_Event"><path codeLine="25" d="M492.59,448.072 C494.23,469.282 496.79,502.212 498.43,523.332" fill="none" id="Calendar-Event" style="stroke:#000000;stroke-width:1;"/><text fill="#333333" font-family="Verdana" font-size="11" lengthAdjust="spacing" textLength="50.1376" x="497.04" y="490.3609">occurs on</text><text fill="#333333" font-family="Verdana" font-size="11" lengthAdjust="spacing" textLength="6.2919" x="486.2659" y="467.2521">1</text><text fill="#333333" font-family="Verdana" font-size="11" lengthAdjust="spacing" textLength="6.2919" x="491.0204" y="512.2363">1</text></g><!--link PaymentGateway to CreditCardPayment--><g class="link" data-entity-1="PaymentGateway" data-entity-2="CreditCardPayment" data-source-line="27" data-uid="lnk35" id="link_PaymentGateway_CreditCardPayment"><path codeLine="27" d="M138.6,442.972 C160.26,450.752 183.91,461.952 202,477.602 C216.3,489.962 224.2784,503.4457 230.7384,517.8757" fill="none" id="PaymentGateway-to-CreditCardPayment" style="stroke:#000000;stroke-width:1;"/><polygon fill="#000000" points="233.19,523.352,233.1634,513.5032,231.147,518.7884,225.8617,516.772,233.19,523.352" style="stroke:#000000;stroke-width:1;"/><text fill="#333333" font-family="Verdana" font-size="11" lengthAdjust="spacing" textLength="163.4699" x="216.95" y="490.3609">processes credit card payments</text><text fill="#333333" font-family="Verdana" font-size="11" lengthAdjust="spacing" textLength="6.2919" x="146.1256" y="441.9327">1</text></g><!--link PaymentGateway to PayPalPayment--><g class="link" data-entity-1="PaymentGateway" data-entity-2="PayPalPayment" data-source-line="28" data-uid="lnk37" id="link_PaymentGateway_PayPalPayment"><path codeLine="28" d="M66.77,447.642 C61.72,456.442 56.56,467.152 54,477.602 C50.2,493.132 53.3417,504.9729 59.8017,517.9229" fill="none" id="PaymentGateway-to-PayPalPayment" style="stroke:#000000;stroke-width:1;"/><polygon fill="#000000" points="62.48,523.292,62.0419,513.4529,60.2481,518.8178,54.8832,517.0239,62.48,523.292" style="stroke:#000000;stroke-width:1;"/><text fill="#333333" font-family="Verdana" font-size="11" lengthAdjust="spacing" textLength="142.35" x="55" y="490.3609">processes PayPal payments</text><text fill="#333333" font-family="Verdana" font-size="11" lengthAdjust="spacing" textLength="6.2919" x="56.2472" y="467.4252">1</text></g><!--SRC=[XP9XIyCm48Q_zrUS_IYqwDSX0wqYWcFx2Px9hGksIScba-dyxwP9kwvkGmYqUT-x9tUNNBaDrGIMfBJ4d5Mgt3XZKPUK90sA3om9qgMLPA56xNSrQGUyOqTr2jy9W5zAEx9h50GlhwQS2e-AcmftKx70YhH4ktndibko4TCbmzq-po4Sk0ZdTTu0EJL3taH8RrF8idaK6MPzsUpZYfQTgOzYkkzzxFoIFOWFhQfaAEQFyW-C8Nth_Piylnw1avX9mRvJ4UhjbU601UcsypTunbpXhhkPPtJqwGVbATPu2az0iOBC9uMVUAqp44QpOiTWriauq9FmbJMo5UuaOQahfIdcPDb-Vk1oGq9XfRxGAQD7RYWvJhT_1uUk3i9HqDEsUt8pC4Aqlej0ykjFnyCW2l-MbIlGoZxWU1OWWWl2sz14do-plBp2wXmdEYFY9_a5]--></g></svg>